<?xml version="1.0" encoding="UTF-8"?><svg id="b" xmlns="http://www.w3.org/2000/svg" viewBox="0 0 599.5 599"><defs><style>.d{fill:#fff;}.e{fill:#cf4827;}.f{fill:#405a70;}.g{fill:#1899b5;}.h{stroke:#e2907d;stroke-width:20px;}.h,.i{fill:none;}.i{stroke:#cf4827;stroke-width:50px;}</style></defs><g id="c"><circle class="d" cx="296.1" cy="297" r="238.8"/><g><ellipse class="i" cx="299.8" cy="299.5" rx="274.8" ry="274.5"/><circle class="h" cx="298.6" cy="300.5" r="241"/></g><g><path class="e" d="M201.8,262.8h18.7l44.7,102.7h-25.5l-8.8-21.8h-39.9l-8.6,21.8h-24.9l44.4-102.7Zm8.7,29.9l-12.5,31.9h25.1l-12.6-31.9Z"/><path class="e" d="M275.5,262.8h38.1c5.3,0,10.3,.5,15.1,1.5,4.7,1,8.9,2.6,12.4,5,3.5,2.4,6.3,5.6,8.4,9.6,2.1,4,3.1,9.1,3.1,15.2s-1,11-2.9,15.1c-1.9,4.1-4.6,7.3-8,9.7-3.4,2.4-7.4,4.1-12,5.1-4.6,1-9.7,1.5-15.1,1.5h-16.5v40h-22.6v-102.7Zm22.6,43.5h15.1c2,0,4-.2,5.9-.6,1.9-.4,3.6-1,5.1-2,1.5-.9,2.7-2.2,3.6-3.8,.9-1.6,1.4-3.6,1.4-6s-.6-4.7-1.8-6.3c-1.2-1.6-2.8-2.8-4.6-3.7-1.9-.9-4-1.4-6.3-1.7-2.3-.2-4.5-.4-6.7-.4h-11.6v24.4Z"/><path class="e" d="M417.6,287.9c-1.8-2.3-4.3-4-7.5-5.1-3.1-1.1-6.1-1.7-8.9-1.7s-3.3,.2-5.1,.6c-1.7,.4-3.4,1-4.9,1.8-1.5,.8-2.8,1.9-3.8,3.3-1,1.4-1.4,3-1.4,4.9,0,3.1,1.2,5.5,3.5,7.1,2.3,1.6,5.2,3,8.8,4.2,3.5,1.2,7.3,2.3,11.4,3.5,4.1,1.2,7.9,2.8,11.4,4.9,3.5,2.1,6.5,5,8.8,8.6,2.3,3.6,3.5,8.4,3.5,14.4s-1.1,10.7-3.2,14.9c-2.1,4.3-5,7.8-8.6,10.6-3.6,2.8-7.8,4.9-12.6,6.2s-9.8,2-15.2,2-12.9-1-18.6-3c-5.7-2-11-5.3-16-9.9l16.1-17.7c2.3,3.1,5.2,5.5,8.8,7.2,3.5,1.7,7.2,2.5,10.9,2.5s3.7-.2,5.6-.7,3.6-1.1,5.1-2c1.5-.9,2.7-2,3.6-3.3,.9-1.4,1.4-2.9,1.4-4.8,0-3.1-1.2-5.5-3.6-7.3-2.4-1.8-5.3-3.3-8.9-4.6-3.6-1.3-7.4-2.5-11.6-3.8-4.2-1.3-8-2.9-11.6-5.1-3.6-2.1-6.5-4.9-8.9-8.4-2.4-3.5-3.6-8.1-3.6-13.8s1.1-10.3,3.3-14.5c2.2-4.2,5.1-7.6,8.7-10.4,3.6-2.8,7.8-4.9,12.5-6.3,4.7-1.4,9.6-2.1,14.6-2.1s11.4,.8,16.8,2.5c5.4,1.6,10.3,4.4,14.6,8.3l-15.5,17Z"/></g><path class="d" d="M70.4,137.4l2.3-3.1,22.6,4.9-3.1,4.3-4.7-1.1-4.8,6.7,2.6,4.1-3,4.2-11.9-19.9Zm6.1,2.2l3.8,6,3-4.2-6.9-1.7Z"/><path class="d" d="M80.6,123.7l5.1-6c.7-.8,1.5-1.6,2.3-2.2,.8-.6,1.6-1,2.5-1.3,.8-.2,1.7-.2,2.6,0,.9,.2,1.8,.7,2.8,1.5,.9,.8,1.6,1.6,2,2.5,.4,.9,.5,1.7,.5,2.6,0,.9-.3,1.7-.8,2.6-.5,.9-1.1,1.7-1.8,2.6l-2.2,2.6,6.3,5.4-3,3.6-16.1-13.8Zm9.9,2.3l2-2.4c.3-.3,.5-.7,.7-1,.2-.3,.3-.7,.4-1.1,0-.4,0-.7-.1-1.1-.1-.4-.4-.7-.8-1-.4-.4-.8-.5-1.2-.6-.4,0-.8,0-1.2,.2-.4,.2-.8,.4-1.1,.8-.3,.3-.7,.7-1,1l-1.6,1.8,3.8,3.3Z"/><path class="d" d="M93.9,108.3l5.5-5.6c.8-.8,1.6-1.5,2.4-2,.8-.6,1.7-.9,2.5-1.1,.9-.2,1.7-.1,2.6,.2s1.8,.9,2.7,1.7c.9,.9,1.5,1.7,1.8,2.6,.3,.9,.4,1.7,.3,2.6-.1,.8-.5,1.7-1,2.5s-1.2,1.6-2,2.4l-2.4,2.4,5.9,5.8-3.3,3.3-15.1-14.9Zm9.7,3l2.2-2.2c.3-.3,.6-.6,.8-.9,.2-.3,.4-.7,.5-1,0-.4,0-.7,0-1.1-.1-.4-.3-.7-.7-1.1-.4-.4-.8-.6-1.2-.7-.4,0-.8,0-1.2,.1-.4,.2-.8,.4-1.2,.7-.4,.3-.7,.6-1,.9l-1.7,1.7,3.6,3.5Z"/><path class="d" d="M108.4,93.9l3.5-3.1,11.3,12.6,6.5-5.8,2.9,3.2-9.9,8.9-14.2-15.8Z"/><path class="d" d="M130.4,91l-13.8-4.6,4.6-3.6,8.5,3.4-1.2-9.2,4.3-3.5,1.3,14.5,5.6,7.1-3.7,2.9-5.6-7.1Z"/><path class="d" d="M134.8,72.2l3.8-2.7,12.4,17.2-3.8,2.7-12.4-17.2Z"/><path class="d" d="M143.3,66l5.4-3.3,15.4,7.8h0l-7.7-12.6,4-2.5,11.1,18.1-5.2,3.2-15.8-8h0l7.9,12.9-4,2.5-11.1-18.1Z"/><path class="d" d="M191.9,61.5c-.9,1.3-2,2.4-3.2,3.3-1.2,1-2.5,1.8-3.9,2.5-1.5,.7-3,1.2-4.4,1.4-1.5,.2-2.9,0-4.2-.4-1.3-.4-2.6-1.1-3.7-2.1-1.1-1-2.1-2.2-2.8-3.7-.8-1.5-1.2-3-1.3-4.5-.1-1.5,0-2.9,.5-4.2,.5-1.3,1.2-2.5,2.2-3.6,1-1.1,2.3-2,3.7-2.8,1.5-.8,3-1.3,4.5-1.6,1.5-.3,2.9-.2,4.3,.2l-1.3,4.7c-.9-.3-1.7-.4-2.6-.4s-1.8,.4-2.9,.9c-.9,.5-1.6,1-2.2,1.7-.6,.7-1,1.4-1.2,2.2-.2,.8-.3,1.7-.2,2.5,.1,.9,.4,1.8,.8,2.6,.5,.9,1,1.6,1.7,2.2,.7,.6,1.4,1,2.2,1.3,.8,.3,1.6,.4,2.5,.3,.9,0,1.8-.3,2.7-.8,.9-.5,1.6-1,2.2-1.5,.6-.5,1-1,1.3-1.4l-1.6-3.1-3.4,1.7-1.9-3.9,7.4-3.7,5,9.9Z"/><path class="d" d="M197.4,37.9l7.4-2.7c1-.4,2-.6,3-.8,1-.1,1.9-.1,2.8,.1,.9,.2,1.6,.6,2.3,1.3,.7,.6,1.2,1.5,1.7,2.7,.4,1.2,.6,2.2,.5,3.1,0,.9-.4,1.7-.9,2.4-.5,.7-1.2,1.3-2,1.8s-1.8,1-2.8,1.4l-3.2,1.2,2.8,7.8-4.4,1.6-7.2-20Zm7.4,6.9l2.9-1.1c.4-.1,.8-.3,1.1-.5,.3-.2,.6-.5,.9-.7,.2-.3,.4-.6,.4-1,0-.4,0-.8-.2-1.3-.2-.5-.4-.9-.8-1.1-.3-.2-.7-.4-1.2-.4-.4,0-.9,0-1.3,.1s-.9,.2-1.3,.4l-2.3,.8,1.7,4.7Z"/><path class="d" d="M216.7,31.1l7.9-2.2c1-.3,2.1-.5,3-.5,1,0,1.9,0,2.7,.3,.8,.3,1.6,.8,2.2,1.4s1.1,1.6,1.5,2.8c.4,1.4,.4,2.8-.1,4-.5,1.2-1.4,2.2-2.8,2.8l7.6,7.2-5.4,1.5-6.5-7-2.2,.6,2.3,8.2-4.5,1.2-5.7-20.5Zm6.9,7.2l2.7-.7c.4-.1,.8-.2,1.3-.4,.4-.2,.8-.4,1.2-.6,.3-.2,.6-.6,.7-.9,.2-.4,.2-.8,0-1.4-.1-.5-.4-.9-.7-1.2-.3-.2-.6-.4-1-.5s-.8,0-1.2,0c-.4,0-.9,.1-1.3,.3l-2.9,.8,1.3,4.7Z"/><path class="d" d="M238.1,36.2c-.3-1.7-.3-3.2,0-4.7,.3-1.5,.9-2.8,1.7-3.9s1.9-2.1,3.2-2.9c1.3-.8,2.7-1.3,4.4-1.6,1.6-.3,3.2-.3,4.7,0s2.8,.8,4,1.5,2.2,1.8,3,3c.8,1.3,1.4,2.7,1.7,4.4,.3,1.7,.3,3.2,0,4.7-.3,1.5-.9,2.8-1.7,3.9-.8,1.1-1.9,2.1-3.2,2.9-1.3,.8-2.7,1.3-4.4,1.6-1.6,.3-3.2,.3-4.7,0-1.5-.3-2.8-.8-4-1.5-1.2-.8-2.2-1.8-3-3-.8-1.3-1.4-2.7-1.7-4.4Zm4.8-.9c.2,1,.5,1.9,1,2.6,.5,.8,1,1.4,1.7,1.9,.7,.5,1.5,.8,2.3,1,.9,.2,1.8,.2,2.8,0,1-.2,1.8-.5,2.6-1s1.3-1.1,1.8-1.8c.5-.7,.8-1.5,.9-2.4s.1-1.8,0-2.8c-.2-1-.5-1.8-1-2.6-.5-.8-1-1.4-1.7-1.9s-1.5-.8-2.3-1c-.9-.2-1.8-.2-2.8,0-1,.2-1.8,.5-2.6,1-.7,.5-1.3,1.1-1.8,1.8s-.8,1.5-.9,2.4c-.2,.9-.1,1.8,0,2.8Z"/><path class="d" d="M263.7,21l14.2-1.5,.5,4.3-9.5,1,.5,4.3,8.8-.9,.5,4.3-8.8,.9,.9,8.2-4.7,.5-2.3-21.1Z"/><path class="d" d="M282.9,19.2l14.4-.5v4.3l-9.6,.3v4l9.3-.3v4.3l-9.1,.3v4.3l10.4-.3v4.3l-14.8,.5-.7-21.2Z"/><path class="d" d="M313.4,24.2c-.4-.5-.9-.9-1.5-1.1-.6-.2-1.3-.4-1.8-.4-.3,0-.7,0-1.1,0-.4,0-.7,.2-1,.3-.3,.2-.6,.4-.8,.6-.2,.3-.3,.6-.3,1,0,.6,.2,1.1,.7,1.5,.5,.4,1.1,.7,1.8,.9,.7,.3,1.5,.5,2.3,.8,.8,.3,1.6,.6,2.3,1.1,.7,.5,1.3,1.1,1.8,1.8,.5,.8,.7,1.8,.6,3,0,1.2-.3,2.2-.8,3.1-.5,.9-1.1,1.6-1.9,2.1-.8,.6-1.7,1-2.6,1.2-1,.2-2,.4-3.1,.3-1.4,0-2.7-.3-3.8-.8-1.2-.5-2.2-1.2-3.2-2.1l3.4-3.6c.5,.7,1,1.2,1.8,1.5,.7,.4,1.5,.6,2.2,.6,.4,0,.8,0,1.2,0,.4,0,.7-.2,1.1-.4,.3-.2,.6-.4,.8-.7,.2-.3,.3-.6,.3-1,0-.6-.2-1.2-.7-1.5-.5-.4-1.1-.7-1.8-1-.7-.3-1.5-.6-2.4-.9-.9-.3-1.6-.7-2.4-1.1-.7-.5-1.3-1.1-1.8-1.8-.5-.7-.7-1.7-.6-2.9,0-1.1,.3-2.1,.8-3,.5-.8,1.1-1.5,1.9-2.1,.8-.6,1.6-1,2.6-1.2,1-.3,2-.4,3-.3,1.2,0,2.4,.2,3.5,.6s2.1,1,3,1.8l-3.3,3.4Z"/><path class="d" d="M331.5,25.7c-.3-.5-.8-.9-1.4-1.2-.6-.3-1.2-.5-1.8-.5-.3,0-.7,0-1.1,0-.4,0-.7,.1-1.1,.3-.3,.1-.6,.3-.8,.6-.2,.3-.4,.6-.4,1,0,.6,.1,1.1,.6,1.5,.4,.4,1,.7,1.7,1,.7,.3,1.5,.6,2.3,.9,.8,.3,1.6,.7,2.2,1.2,.7,.5,1.2,1.2,1.6,1.9,.4,.8,.6,1.8,.4,3-.1,1.2-.4,2.2-1,3-.5,.8-1.2,1.5-2,2-.8,.5-1.7,.9-2.7,1s-2.1,.2-3.2,.1c-1.4-.1-2.6-.5-3.8-1-1.1-.5-2.2-1.3-3.1-2.3l3.7-3.3c.4,.7,1,1.2,1.7,1.7s1.4,.7,2.2,.7c.4,0,.8,0,1.2,0,.4,0,.8-.2,1.1-.3,.3-.2,.6-.4,.8-.6,.2-.3,.3-.6,.4-1,0-.6-.1-1.2-.6-1.6-.5-.4-1-.8-1.7-1.1-.7-.3-1.5-.7-2.3-1-.8-.3-1.6-.8-2.3-1.3-.7-.5-1.3-1.1-1.7-1.9-.4-.8-.6-1.7-.5-2.9,.1-1.1,.4-2.1,1-2.9,.5-.8,1.2-1.5,2-2,.8-.5,1.7-.9,2.7-1.1,1-.2,2-.2,3.1-.1,1.2,.1,2.3,.4,3.4,.8,1.1,.4,2,1.1,2.9,2l-3.5,3.2Z"/><path class="d" d="M339.7,21.6l4.6,.7-3.1,21-4.6-.7,3.1-21Z"/><path class="d" d="M346.7,33.1c.4-1.7,1-3.1,1.8-4.3,.9-1.2,1.9-2.2,3.1-2.9,1.2-.7,2.6-1.2,4-1.4,1.5-.2,3-.1,4.6,.2s3.1,1,4.3,1.8c1.3,.8,2.3,1.8,3.1,3,.8,1.2,1.3,2.5,1.6,4s.2,3-.2,4.7c-.4,1.7-1,3.1-1.8,4.3-.9,1.2-1.9,2.2-3.1,2.9-1.2,.7-2.6,1.2-4,1.4-1.5,.2-3,.1-4.6-.2-1.6-.4-3.1-1-4.3-1.8s-2.3-1.8-3.1-3c-.8-1.2-1.3-2.5-1.6-4-.3-1.5-.2-3,.2-4.7Zm4.7,1.1c-.2,1-.3,1.9-.1,2.8,.1,.9,.4,1.7,.8,2.4,.4,.7,1,1.3,1.7,1.8,.7,.5,1.6,.9,2.5,1.1,1,.2,1.9,.3,2.8,0,.9-.2,1.6-.5,2.3-.9,.7-.5,1.3-1.1,1.8-1.8,.5-.7,.8-1.6,1.1-2.6,.2-1,.3-1.9,.1-2.8-.1-.9-.4-1.7-.8-2.4-.4-.7-1-1.3-1.7-1.8-.7-.5-1.6-.9-2.5-1.1s-1.9-.3-2.8,0-1.6,.5-2.3,.9c-.7,.5-1.3,1.1-1.8,1.8-.5,.8-.8,1.6-1.1,2.6Z"/><path class="d" d="M376.2,29.2l6.1,1.9,4.1,16.8h0l4.5-14,4.5,1.4-6.4,20.2-5.8-1.9-4.3-17.2h0l-4.6,14.4-4.5-1.4,6.4-20.2Z"/><path class="d" d="M407.8,40.3l3.6,1.5v23.2l-4.8-2.1v-4.9l-7.5-3.3-3.4,3.4-4.7-2,16.8-15.9Zm-.8,6.4l-5,5,4.8,2.1,.2-7.1Z"/><path class="d" d="M423.3,47.4l4.2,2.2-7.8,15,7.7,4-2,3.8-11.8-6.2,9.8-18.8Z"/><path class="d" d="M452.8,70.3c0-.6-.3-1.2-.7-1.7-.4-.5-.9-1-1.4-1.3-.3-.2-.6-.3-.9-.5-.3-.1-.7-.2-1.1-.2-.4,0-.7,0-1,.1-.3,.1-.6,.4-.8,.7-.3,.5-.4,1.1-.2,1.6,.2,.5,.6,1.1,1,1.7,.5,.6,1,1.2,1.6,1.9,.6,.7,1,1.4,1.4,2.1,.4,.8,.6,1.6,.6,2.5,0,.9-.3,1.8-1,2.9-.6,1-1.4,1.7-2.2,2.2-.8,.5-1.7,.8-2.7,.9s-1.9,0-2.9-.3c-1-.3-1.9-.8-2.9-1.4-1.2-.8-2.1-1.6-2.9-2.6-.8-1-1.3-2.2-1.7-3.5l4.8-1.3c0,.8,.3,1.5,.7,2.2,.4,.7,1,1.2,1.6,1.7,.3,.2,.7,.4,1,.5s.7,.2,1.1,.2c.4,0,.7,0,1-.2,.3-.1,.6-.4,.8-.7,.3-.5,.4-1.1,.2-1.7-.2-.6-.6-1.2-1-1.8s-1-1.3-1.6-2c-.6-.7-1.1-1.4-1.4-2.2-.4-.8-.6-1.6-.6-2.5,0-.9,.3-1.8,.9-2.8,.6-1,1.4-1.7,2.2-2.1,.8-.5,1.7-.8,2.7-.8,.9,0,1.9,0,2.9,.3,1,.3,1.9,.7,2.8,1.3,1,.7,1.9,1.4,2.6,2.3,.8,.9,1.3,1.9,1.6,3.1l-4.6,1.2Z"/><path class="d" d="M470.2,83.4c0-.7-.2-1.4-.6-2.1-.4-.6-.9-1.2-1.6-1.8s-1.5-.9-2.3-1.1c-.8-.2-1.6-.2-2.4,0-.8,.2-1.6,.5-2.3,1s-1.4,1.1-2,1.9c-.6,.8-1,1.6-1.3,2.5-.3,.8-.3,1.7-.3,2.5,0,.8,.3,1.6,.7,2.3,.4,.7,.9,1.3,1.6,1.8,.8,.6,1.6,.9,2.4,1.1,.8,.1,1.7,0,2.5-.2l1.4,4.7c-1.5,.5-2.9,.5-4.4,.2-1.5-.4-2.8-1-3.9-1.9-1.3-1-2.4-2.1-3.2-3.4-.8-1.3-1.3-2.6-1.5-4s-.2-2.8,.2-4.2c.4-1.4,1.1-2.8,2.1-4.2,1-1.4,2.2-2.4,3.5-3.2,1.3-.8,2.6-1.2,4-1.4,1.4-.2,2.8,0,4.2,.4s2.8,1.1,4.1,2.1c.5,.4,.9,.8,1.4,1.3,.5,.5,.9,1,1.2,1.6,.4,.6,.6,1.2,.9,1.9,.2,.7,.3,1.4,.4,2.1l-4.6,.2Z"/><path class="d" d="M479.9,84.2l6.2,5.4c.8,.7,1.5,1.5,2.1,2.3,.6,.8,1,1.6,1.2,2.5,.2,.8,.2,1.7,0,2.6-.2,.9-.7,1.8-1.6,2.8-1,1.1-2.1,1.8-3.4,2.1-1.3,.3-2.6,0-3.9-.8l-1.9,10.3-4.2-3.7,2.3-9.3-1.7-1.5-5.6,6.4-3.5-3.1,14-16Zm-2.3,9.7l2.1,1.8c.3,.3,.7,.6,1,.8s.8,.5,1.1,.6c.4,.1,.8,.2,1.2,0,.4,0,.8-.3,1.2-.8,.4-.4,.6-.8,.6-1.2,0-.4,0-.8-.1-1.1-.1-.4-.4-.7-.7-1s-.6-.6-.9-.9l-2.3-2-3.2,3.6Z"/><path class="d" d="M498.7,120.3c-.9,.9-1.9,1.5-2.9,2-1,.5-2.1,.7-3.2,.7-1.1,0-2.2-.2-3.3-.7-1.1-.5-2.1-1.3-3.2-2.3-1-1.1-1.8-2.2-2.2-3.3-.5-1.1-.7-2.2-.6-3.3,0-1.1,.3-2.1,.8-3.1,.5-1,1.2-2,2.1-2.8l9.4-9.1,3.2,3.4-9.3,8.9c-.5,.5-.8,1-1.1,1.5s-.4,1.1-.4,1.6c0,.6,0,1.1,.3,1.6,.2,.5,.5,1,1,1.5,.4,.4,.9,.8,1.4,1,.5,.2,1.1,.3,1.6,.3,.6,0,1.1-.1,1.7-.4,.5-.2,1.1-.6,1.5-1l9.3-8.9,3.2,3.4-9.4,9.1Z"/><path class="d" d="M512.4,116l4.4,5.5-7.8,12.5h0l13.9-4.7,4.4,5.5-16.6,13.2-2.9-3.7,12.7-10.1h0l-16.2,5.7-2.2-2.8,9.4-14.3h0l-12.7,10.1-2.9-3.7,16.6-13.2Z"/><path class="d" d="M533.3,138.3l-1-1.4,.7-.5,2.5,3.8-.7,.5-1-1.4-3.6,2.4-.6-.9,3.6-2.4Zm2.9,2.8l.9,1.4-2.4,3.5h0l4.2-.9,.9,1.4-4.3,2.9-.6-.9,3.6-2.4h0l-4.5,1-.5-.7,2.7-3.8h0l-3.6,2.4-.6-.9,4.3-2.9Z"/><g><g><path class="f" d="M150.2,182.1c.7-3,1.9-5.9,3.5-8.5,1.6-2.6,3.6-4.9,5.8-6.7-1.7,1.5-3.3,3.2-4.6,5,1-1.4,2-2.6,3.2-3.6,1.2-1.1,2.4-2,3.9-2.9-.4,.4-1,.9-1.6,1.4-.6,.5-1.1,1-1.1,1.3-3,2.7-5.5,6-7.3,9.7-1.8,3.7-2.8,7.7-3,11.8-.4-1.6-.2-3,.1-4.1,.3-1.2,.8-2.2,1.1-3.2"/><path class="f" d="M170.4,161.7c-.8,.2-1.5,.5-2.3,.8,.8-.3,1.5-.6,2.3-.8"/><path class="f" d="M179.9,215.1c.8,0,1.7-.2,2.5-.3-.8,.2-1.6,.3-2.5,.3"/><path class="f" d="M151.5,192.6l.4,1.4c.5,3.5,1.7,6.9,3.6,10.1-1-1.7-2-3.5-2.7-5.5-.7-1.9-1.2-4-1.2-6"/><path class="f" d="M152.1,188.8c0-3.5,1-7.1,2.7-9.9-1.6,2.9-2.5,6.3-2.7,9.9"/><path class="f" d="M197.2,200.2c0,0,0,0,0-.2,0,0,0-.2,0-.2,.6-.9,1.2-2,1.7-3,0,.3,0,.6-.1,.9-.3,.6-.6,.9-.8,1.2-.2,.3-.5,.7-.7,1.4"/><path class="f" d="M178.9,215.2h0c-.3,0-.6,0-.9,0h-.1c.3,0,.7,0,1,0"/><path class="f" d="M196.4,201.4c-.1,0-.2-.1-.4,0,.4-.5,.8-1,1.2-1.5,0,0,0,.2,0,.2-.1,.4-.6,.9-.7,1.4"/><path class="f" d="M184.4,208.9c-.4,.1-.7,.5-.8,.6-1.1,0-2.1,0-3.3,0-.2,0-.6,.1-.9,.3-.2-.1-.5-.2-.7-.3,2.6,0,5.3-.4,8-1.4-.7,.3-1.4,.6-2.2,.8"/><path class="f" d="M172.2,165.8c2-.6,4.3-.8,6.5-.8,2.2,0,4.4,.4,6.5,.6-2.3-.9-5.2-1.4-7.6-1.5-2.4-.2-4.4,0-4.9-.5-.5-.5,1.2-1,3.7-1.1,1.2,0,2.6,0,3.9,.2,1.3,.2,2.5,.4,3.5,.6q-.5-.2-1-.4c.5,.2,1,.4,1.5,.4-.5-.2-1.3-.5-2-.8-.7-.2-1.4-.5-1.7-.7,.3,0,.7-.1,1-.2-1.4-.6-3.5-1-5.7-1-2.2,0-4.4,.1-6,.2,3.8-.4,7.9-.4,12,.4,4.1,.8,8.2,2.4,11.9,4.8,3.7,2.4,6.9,5.8,9.2,9.7,2.3,3.9,3.6,8.3,3.8,12.7,.7,9.8-3.2,19.3-10,25.7-.7,.6-1.9,1.5-3.3,2.2-1.5,.8-3.1,1.5-4.6,1.9-4.9,2-10.4,2.7-15.9,2.2-5.7-.7-11.1-3.3-15.5-7.2-4.3-3.9-7.6-9-9.5-14.9-.4-1.2-.4-2.7-.2-3.1,.1-.2,.3-.2,.6,.3,.3,.4,.6,1.3,1.1,2.6,1.8,4.4,4.4,8.5,7.8,11.9-.3,0-.9-.6-1.4-1.1-.5-.6-1.1-1.2-1.5-1.6,1,1.5,2,2.8,3.2,3.9,1.2,1.1,2.4,2.2,3.9,3.1-2-1.3-3.8-2.8-5.4-4.5,2,2.1,4.5,4.1,7.2,5.6,2.8,1.6,5.8,2.7,9,3.2,1.1,.2,2.2,.7,3.4,1,1.2,.3,2.6,.4,4.3,0-4.2,0-8.5-.9-12.3-2.5-3.9-1.7-7.4-4.1-10.4-7.1,0,0,0,0,0,0-2.7-2.6-4.6-5.5-6.1-8.8,.5,1,1.1,2,1.5,2.9-2.4-4.7-3.6-9.8-3.6-14.9,.3,3.6,1.2,7.2,2.7,10.6,1.5,3.4,3.5,6.6,6.1,9.2,2.6,2.7,5.7,4.8,9.1,6.3,3.4,1.5,7,2.2,10.6,2.2-2-.3-4.3-.6-6.4-1.1-2.2-.5-4.2-1.3-5.6-2.5,5.7,2.9,12.4,4,18.9,2.7l-1.4,.4c2.1-.1,4.2-.7,6.1-1.5,2-.8,3.8-1.9,5.6-3.1,.3-.2,.6-.4,.9-.6l-.9,.6c-3.2,2.1-6.7,3.5-10.3,4.2,1.6-.5,3.3-1,5.3-1.8-1.1,.2-2.7,.7-4.3,1-2.1,.5-4.2,.8-6.3,.8,3.3-.1,6.4-1,9-2.3-4.1,1.3-8.7,1.9-12.9,1.2,2.4,.2,4.7,.2,7.1-.2,3.9-.5,7.8-1.8,11.2-4.1l-.4,.3c.3-.2,.5-.4,.8-.5,1.3-.9,2.6-1.9,3.7-3.1,1-1,1.8-2.2,2.4-3.5l.4-.6c-.2,.4-.2,.7,.4,0,1.2-1.5,2-3.2,2.7-5.1,.7-1.9,1.2-3.9,1.7-6,.3-1.1,.3-2.6,.2-4.3,0-.4,0-.7,0-.9,0-.4,0-.7-.1-1.1,0-.9-.2-1.7-.5-2.5,.2,.8,.3,1.7,.5,2.5v1c0-.2-.1-.4-.2-.9,.2,3,0,6-.8,8.9-.8,2.9-2.1,5.8-3.7,8.3,.1-.4,.3-.8,.4-1.1-.2,.6-.5,1.1-.8,1.6-1.1,1.6-2.4,3.2-3.9,4.5,.4-.4,.7-.9,1-1.3-2,2-4.3,3.7-6.8,5-2.5,1.3-5.2,2.2-8,2.7-5.3,.6-10.7-.4-15.3-2.8,2.4,1.5,5.2,2.6,8.2,3-4-.4-8-1.8-11.4-4-3.4-2.2-6.3-5.3-8.2-8.8,1.1,1,2.5,2.4,3.5,2.7,.1-.2-1.3-2.2-.3-1.2,1.9,1.8,3.5,3.2,5,4.2,1.5,1,2.9,1.5,4.1,1.3,.3,0-.7-1.1-1.3-2-.6-.9-1-1.8-.3-1.4,1.2,.7,3.3,1.8,5.7,2.4,.7,.3,1.4,.5,2.2,.6,0,0,.3,0,.5,0,2.7,.5,5.2,.3,6.7,.2,.5,0,1.1-.1,1.6-.2,.3,0,.5,0,.8,.1,.3-.2,.6-.4,.9-.5,1.4-.4,2.7-.9,4-1.5,.7-.3,1.5-.6,2.2-.9,0,0-.2-.1-.2-.3,1.5-1,2.8-2.1,3.9-3.5,.6-.5,1.1-.9,1.6-1.2,.2-1,1-2.4,1.7-4,.7-1.6,1.3-3.4,1.5-4.9h0c.3-1.5,.4-3.1,.3-4.7,0-.3,.1-.5,.2-.8-.2-.4-.2-.8-.3-1,0-1.3-.1-2.4-.2-3.5-.1-.2-.5-.4-.6-.8-.2-.8-.6-1.5-.9-2.2-.4-.8-.8-1.7-1.3-2.5-1.6-2.8-3.8-5.2-6.4-7.1,0-.1,0-.3,0-.4-.5-.1-1.1-.6-1.5-.7,0,0,.2,0,.2,0-.7-.2-1.1-.5-1.5-.7-.4-.2-.7-.5-1.3-.8-.3,0-.6,0-.9-.1-.1,0-.3-.1-.4-.2-1.3-1-2.9-1.1-4.6-1.3-1.7-.3-3.4-.4-5.2-.3-1.4,.1-2-.1-3-.1"/><path class="f" d="M199,196.4c.6-1.4,1.1-2.8,1.4-4.3-.2,1.6-.4,3.1-1.4,4.3"/><path class="f" d="M165.9,205.6c-.3-.5-.7-1.1-1.1-1.6,2.6,2.5,5.8,4.2,9.4,5.1h0c-1.4-.2-3.1-.9-4.6-1.6-1.5-.7-2.7-1.5-3.7-1.8"/><path class="f" d="M197.1,200c0,0,0-.1,0-.2,0,0,0,0,0,0,0,0,0,.2,0,.2"/><path class="f" d="M156.9,203.2l-.2-.4c.6,.9,1.3,1.8,2.1,2.6-.6-.6-1.3-1.4-1.8-2.3"/><path class="f" d="M153.3,191.9c-.3-2.2-.3-4.5,0-6.8,.6-2.9,1.7-5.6,3.3-7.8-2.5,4.3-3.7,9.4-3.4,14.5"/><path class="f" d="M161.4,200.2c-.3-.7-.5-1.4-.8-2.1,.3,.7,.6,1.3,1,2-.2,0-.2,0-.3,.2"/><path class="f" d="M163.4,209.8l-.5-.4c.5,.3,1,.6,1.6,.8-.2,0-.7-.3-1-.4"/><path class="f" d="M159.2,192.7c0,.5,.1,1.1,.3,1.6-.1-.3-.3-.6-.4-.9,0-.2,.2-.4,.2-.7"/><path class="f" d="M159.5,184.4c.2-.7,.4-1.4,.7-2-.3,.8-.5,1.7-.7,2.5,0-.2,0-.4,0-.5"/><path class="g" d="M166,150.5c2.2,.9,4.2,2.3,6,3.9,1.7,1.6,3.2,3.5,4.3,5.4-.9-1.5-2-3-3.2-4.2,.9,1,1.6,1.9,2.3,3,.6,1,1.2,2.2,1.6,3.4-.3-.3-.5-.9-.8-1.4-.3-.5-.6-1-.8-1.1-1.6-2.7-3.8-5.1-6.3-7-2.5-1.9-5.5-3.3-8.5-4,1.3,0,2.3,.3,3.1,.7,.8,.4,1.5,1,2.3,1.3"/><path class="g" d="M178.4,168.8c0-.6-.2-1.2-.3-1.8,.1,.6,.3,1.3,.3,1.8"/><path class="g" d="M136.4,168.1c0,.6,0,1.3-.1,1.9,0-.6,0-1.3,.1-1.9"/><path class="g" d="M157.7,149.9h-1.1c-2.7,0-5.5,.3-8.2,1.3,1.5-.5,3-1,4.6-1.3,1.6-.3,3.2-.3,4.7,0"/><path class="g" d="M160.6,150.9c2.7,.5,5.2,1.8,7.2,3.5-2-1.6-4.5-2.9-7.2-3.5"/><path class="g" d="M145.2,183.6s0,0,.2,0c0,0,.1,0,.2,0,.6,.6,1.3,1.2,2,1.7-.2,0-.4-.1-.6-.2-.4-.3-.6-.6-.8-.8-.2-.2-.5-.4-.9-.7"/><path class="g" d="M136.5,167.4h0c0-.3,0-.5,0-.7h0c0,.2,0,.5-.1,.7"/><path class="g" d="M144.4,182.7c0,0,.1-.2,.1-.3,.3,.4,.7,.7,1,1.1,0,0-.1,0-.2,0-.3-.2-.6-.6-1-.8"/><path class="g" d="M140.4,172.5c0-.3-.3-.6-.3-.7,.1-.8,.3-1.6,.4-2.5,0-.2,0-.5,0-.8,.1-.2,.2-.3,.3-.5-.4,2-.5,4.1,0,6.3-.1-.6-.2-1.2-.3-1.8"/><path class="g" d="M175,169.6c.2,1.6,0,3.4-.4,5.1-.4,1.7-1,3.3-1.4,4.9,1-1.6,1.8-3.7,2.3-5.6,.5-1.8,.7-3.3,1.1-3.6,.4-.3,.6,1.1,.3,3-.1,.9-.4,2-.7,2.9-.3,1-.7,1.9-1,2.6,.2-.4,.2-.4,.5-.7-.2,.4-.5,.7-.5,1.1,.3-.3,.6-.9,.9-1.4,.3-.5,.6-1,.8-1.2,0,.3,0,.5,0,.8,.7-1,1.3-2.5,1.6-4.2,.4-1.6,.5-3.3,.8-4.6-.3,3-.9,6.1-2.1,9.1-1.2,3-3,5.9-5.4,8.3-2.4,2.4-5.4,4.4-8.7,5.5-3.3,1.2-6.9,1.5-10.2,1-7.6-.9-14.2-5.3-18.1-11.4-.3-.6-.8-1.7-1.2-2.9-.4-1.2-.7-2.6-.8-3.8-.8-4.1-.5-8.3,.7-12.4,1.4-4.3,4.2-8,7.8-10.7,3.6-2.7,8-4.5,12.7-5,.9-.1,2.1,0,2.4,.3,.2,.1,0,.3-.3,.4-.4,.1-1.1,.2-2.2,.4-3.6,.7-7.2,2.1-10.2,4.2,.1-.2,.5-.6,1.1-.9,.5-.3,1.1-.6,1.4-.9-1.3,.5-2.4,1.2-3.4,1.9-1,.7-2,1.5-3,2.5,1.3-1.3,2.7-2.5,4.2-3.5-1.9,1.2-3.8,2.8-5.4,4.7-1.6,1.9-2.9,4-3.8,6.4-.3,.8-.8,1.6-1.2,2.5-.4,.9-.7,1.9-.6,3.3,.6-3.2,1.9-6.3,3.8-9,1.8-2.7,4.2-5,6.9-6.8,0,0,0,0,0,0,2.4-1.6,4.9-2.7,7.6-3.3-.8,.2-1.7,.5-2.4,.7,3.9-1.1,8-1.3,11.9-.5-2.8-.3-5.7-.2-8.5,.5-2.8,.6-5.5,1.7-7.9,3.3-2.4,1.6-4.5,3.6-6.2,6-1.6,2.4-2.7,5-3.2,7.7,.6-1.5,1.1-3.2,1.8-4.7,.7-1.6,1.7-3,2.7-3.9-3.1,3.9-4.9,8.8-4.8,14v-1.1c-.3,1.6-.2,3.3,.1,4.9,.3,1.6,.9,3.2,1.5,4.7,.1,.3,.2,.5,.3,.8l-.3-.8c-1.1-2.7-1.7-5.6-1.7-8.5,.1,1.3,.3,2.7,.6,4.3,0-.9-.1-2.2-.1-3.4,0-1.7,0-3.3,.3-4.9-.4,2.5-.2,5.1,.4,7.2-.4-3.3-.2-6.9,1-10-.5,1.8-.8,3.6-.9,5.4-.2,3.1,.2,6.2,1.4,9.1l-.2-.3c0,.2,.2,.4,.3,.7,.5,1.1,1.1,2.2,1.8,3.3,.6,.9,1.4,1.7,2.3,2.4l.4,.4c-.3-.2-.5-.2,0,.3,.9,1.1,2.2,2,3.5,2.8,1.3,.8,2.8,1.5,4.3,2.2,.8,.4,2,.7,3.2,.8,.3,.1,.5,.1,.7,0,.3,0,.6,0,.8,0,.7,0,1.3,0,2,0-.7,0-1.3,0-2,0h-.8c.2-.1,.4-.2,.7-.2-2.3-.3-4.6-.9-6.7-1.9-2.1-1-4.1-2.4-5.8-4.1,.3,.1,.6,.4,.8,.4-.4-.3-.8-.5-1.1-.8-1.1-1.1-2-2.3-2.9-3.6,.3,.4,.6,.7,.9,.9-1.2-1.8-2.2-3.8-2.8-5.9-.6-2.1-.9-4.3-.9-6.5,.3-4.1,1.9-8.1,4.4-11.2-1.5,1.6-2.7,3.6-3.5,5.8,.9-3,2.5-5.8,4.7-8.1,2.2-2.3,4.9-4,7.9-4.9-1,.7-2.2,1.6-2.6,2.3,.1,.1,1.8-.6,.9,0-1.6,1.2-3,2.2-3.9,3.2-1,1-1.6,2-1.6,2.9,0,.2,.9-.3,1.7-.7,.8-.4,1.5-.5,1.1,0-.7,.8-1.8,2.2-2.7,4-.3,.5-.6,1-.8,1.5,0,0,0,.2,0,.4-.7,2-1,4-1.1,5.1,0,.4,0,.8,0,1.2,0,.2-.1,.4-.2,.6,0,.3,.2,.5,.2,.8,0,1.1,.2,2.2,.5,3.2,0,.6,.2,1.2,.4,1.8,0,0,.1-.2,.2,0,.5,1.3,1.2,2.4,2.1,3.5,.3,.5,.5,1,.7,1.4,.8,.3,1.7,1.1,2.8,1.9,1.1,.8,2.4,1.5,3.5,1.9h0c1.1,.4,2.3,.7,3.5,.9,.2,0,.4,.2,.5,.3,.3,0,.6,0,.8-.1,1,.1,1.8,.3,2.7,.3,.1,0,.4-.3,.7-.4,.6,0,1.3-.2,1.8-.4,.7-.2,1.4-.4,2.1-.6,2.3-.8,4.5-2.1,6.3-3.8,.1,0,.2,0,.3,.1,.2-.4,.6-.7,.8-1,0,0,0,.1,0,.2,.3-.5,.5-.8,.7-1,.2-.2,.5-.5,.8-.9,.1-.2,.1-.4,.2-.7,0,0,.1-.2,.2-.3,1-.8,1.3-2,1.7-3.3,.5-1.3,.8-2.6,1-3.9,.1-1.1,.4-1.5,.6-2.3"/><path class="g" d="M147.8,185.5c1,.7,2,1.3,3.1,1.7-1.2-.4-2.3-.8-3.1-1.7"/><path class="g" d="M145.7,158.9c.5-.1,.9-.3,1.4-.6-2.3,1.6-4.1,3.8-5.2,6.4h0c.4-1.1,1.2-2.2,2-3.2,.8-1,1.6-1.9,1.9-2.6"/><path class="g" d="M145.3,183.5c0,0,.1,0,.2,0h0c0,0-.1,0-.2,0"/><path class="g" d="M148.9,152.4h.3c-.8,.2-1.6,.6-2.3,1.1,.6-.4,1.3-.8,2-1.1"/><path class="g" d="M158,151.3c1.8,.1,3.5,.5,5.2,1.1,2.1,.9,4,2.1,5.4,3.7-2.9-2.5-6.6-4.2-10.6-4.7"/><path class="g" d="M150.4,156.3c.6-.1,1.2-.2,1.7-.3-.6,.1-1.1,.3-1.7,.5,0-.1,0-.2,0-.2"/><path class="g" d="M142.9,156.4l.4-.4c-.3,.3-.6,.7-.8,1.1,0-.1,.3-.5,.5-.7"/><path class="g" d="M156.5,155.7c-.4,0-.8,0-1.3,0,.2,0,.5-.1,.7-.2,.1,.1,.3,.2,.5,.3"/><path class="g" d="M162.8,157.2c.5,.3,1,.5,1.4,.8-.6-.3-1.2-.6-1.8-.9,.2,0,.3,0,.4,0"/></g><g><path class="f" d="M242.6,181.6c-.6-.8-1.4-1.3-2.5-1.7-1-.4-2-.6-3-.6s-1.1,0-1.7,.2c-.6,.1-1.1,.3-1.6,.6-.5,.3-.9,.6-1.3,1.1-.3,.5-.5,1-.5,1.6,0,1,.4,1.8,1.2,2.4,.8,.5,1.7,1,2.9,1.4,1.2,.4,2.4,.8,3.8,1.2,1.4,.4,2.6,.9,3.8,1.6,1.2,.7,2.1,1.7,2.9,2.8,.8,1.2,1.2,2.8,1.2,4.8s-.4,3.6-1.1,5c-.7,1.4-1.7,2.6-2.9,3.5-1.2,.9-2.6,1.6-4.2,2.1-1.6,.5-3.3,.7-5,.7s-4.3-.3-6.2-1c-1.9-.7-3.7-1.8-5.3-3.3l5.4-5.9c.8,1,1.7,1.8,2.9,2.4,1.2,.6,2.4,.8,3.6,.8s1.2,0,1.9-.2c.6-.1,1.2-.4,1.7-.7s.9-.7,1.2-1.1c.3-.4,.5-1,.5-1.6,0-1-.4-1.8-1.2-2.4-.8-.6-1.8-1.1-3-1.5-1.2-.4-2.5-.8-3.9-1.3-1.4-.4-2.7-1-3.9-1.7-1.2-.7-2.2-1.6-3-2.8-.8-1.2-1.2-2.7-1.2-4.6s.4-3.4,1.1-4.8c.7-1.4,1.7-2.5,2.9-3.5,1.2-.9,2.6-1.6,4.2-2.1,1.6-.5,3.2-.7,4.9-.7s3.8,.3,5.6,.8c1.8,.5,3.4,1.5,4.9,2.8l-5.2,5.6Z"/><path class="f" d="M268.4,191.6c-.4-.5-.9-.9-1.5-1.3-.6-.3-1.3-.5-2.1-.5-1.8,0-3.3,.5-4.3,1.6-1,1.1-1.5,2.5-1.5,4.3s.5,3.2,1.5,4.3c1,1.1,2.4,1.6,4.3,1.6s1.5-.2,2.1-.5c.6-.4,1.1-.8,1.5-1.3l4.8,5c-1.1,1.2-2.5,2-4,2.4-1.5,.5-3,.7-4.4,.7s-3.5-.3-5.1-.9c-1.6-.6-3-1.4-4.1-2.5-1.2-1.1-2.1-2.4-2.8-3.9-.7-1.5-1-3.2-1-5.1s.3-3.6,1-5.1c.7-1.5,1.6-2.8,2.8-3.9,1.2-1.1,2.6-1.9,4.1-2.5,1.6-.6,3.3-.9,5.1-.9s2.8,.2,4.4,.7c1.5,.5,2.9,1.3,4,2.4l-4.8,5Z"/><path class="f" d="M275.7,184h7.2v3.8h0c.8-1.4,1.7-2.5,2.8-3.3s2.4-1.1,4-1.1,.8,0,1.3,0c.4,0,.8,0,1.2,.2v6.6c-.5-.2-1-.3-1.5-.4-.5,0-1-.1-1.6-.1-1.4,0-2.5,.2-3.3,.6-.8,.4-1.4,.9-1.9,1.6-.4,.7-.7,1.5-.8,2.5-.1,1-.2,2-.2,3.2v9.8h-7.2v-23.5Z"/><path class="f" d="M318,207.4h-6.9v-3.2h0c-.3,.5-.6,.9-1,1.4-.4,.5-.9,.9-1.5,1.2-.6,.4-1.2,.6-2,.9-.7,.2-1.5,.3-2.4,.3-1.8,0-3.3-.3-4.5-.8-1.1-.6-2-1.3-2.7-2.3-.6-1-1-2.2-1.3-3.5-.2-1.4-.3-2.8-.3-4.4v-12.9h7.2v11.5c0,.7,0,1.4,0,2.1,0,.7,.2,1.4,.4,2,.2,.6,.6,1.1,1.1,1.5s1.2,.6,2.1,.6,1.7-.2,2.3-.5c.6-.3,1-.8,1.3-1.4,.3-.6,.5-1.2,.6-1.9,0-.7,.1-1.4,.1-2.2v-11.7h7.2v23.5Z"/><path class="f" d="M323.1,184h6.9v3.2h0c.2-.4,.5-.9,1-1.4,.4-.5,.9-.9,1.5-1.2,.6-.4,1.2-.6,2-.9,.7-.2,1.5-.3,2.4-.3,1.6,0,3.1,.3,4.4,1,1.3,.7,2.2,1.7,2.9,3.2,.8-1.5,1.8-2.6,3-3.2,1.2-.6,2.7-1,4.4-1s2.9,.3,4,.8c1.1,.5,1.9,1.3,2.6,2.2,.6,.9,1.1,2,1.4,3.2,.3,1.2,.4,2.6,.4,4v13.8h-7.2v-13.7c0-1.1-.2-2-.7-2.8-.5-.8-1.3-1.2-2.5-1.2s-1.5,.1-2.1,.4c-.6,.3-1,.7-1.4,1.1s-.6,1-.7,1.7c-.1,.6-.2,1.3-.2,2v12.4h-7.2v-12.4c0-.4,0-.9,0-1.5,0-.6-.1-1.2-.3-1.7-.2-.5-.5-1-.9-1.4-.4-.4-1.1-.6-1.9-.6s-1.7,.2-2.3,.5-1,.8-1.3,1.4c-.3,.6-.5,1.2-.6,1.9,0,.7-.1,1.4-.1,2.2v11.7h-7.2v-23.5Z"/></g><g><path class="f" d="M369.2,207.7c-.9,0-1.6-.3-2.2-.9-.6-.6-.9-1.4-.9-2.2s.3-1.6,.9-2.2c.6-.6,1.4-.9,2.2-.9s1.6,.3,2.2,.9c.6,.6,.9,1.4,.9,2.2s-.3,1.6-.9,2.2c-.6,.6-1.4,.9-2.2,.9Z"/><path class="f" d="M378.1,196c0-1.7,.3-3.2,.9-4.7,.6-1.4,1.5-2.7,2.6-3.8,1.1-1.1,2.4-2,3.9-2.6,1.5-.6,3.1-.9,4.8-.9s3.3,.3,4.8,.9c1.5,.6,2.8,1.5,3.9,2.6,1.1,1.1,2,2.4,2.6,3.8,.6,1.4,.9,3,.9,4.7s-.3,3.2-.9,4.7c-.6,1.5-1.5,2.7-2.6,3.8-1.1,1.1-2.4,1.9-3.9,2.6-1.5,.6-3.1,.9-4.8,.9s-3.3-.3-4.8-.9c-1.5-.6-2.8-1.5-3.9-2.6s-2-2.3-2.6-3.8c-.6-1.5-.9-3-.9-4.7Zm4.6,0c0,1.2,.2,2.2,.5,3.2,.4,1,.9,1.8,1.5,2.5,.6,.7,1.4,1.2,2.4,1.6,.9,.4,2,.6,3.1,.6s2.2-.2,3.1-.6c.9-.4,1.7-.9,2.4-1.6,.6-.7,1.1-1.5,1.5-2.5,.4-1,.5-2.1,.5-3.2s-.2-2.2-.5-3.2c-.4-1-.9-1.8-1.5-2.5-.6-.7-1.4-1.2-2.4-1.6-.9-.4-2-.6-3.1-.6s-2.2,.2-3.1,.6c-.9,.4-1.7,.9-2.4,1.6-.6,.7-1.1,1.5-1.5,2.5-.4,1-.5,2.1-.5,3.2Z"/><path class="f" d="M407.8,184.6h4.3v3.5h0c.3-.6,.7-1.2,1.2-1.7,.5-.5,1-.9,1.6-1.3,.6-.4,1.2-.6,2-.8,.7-.2,1.4-.3,2.1-.3s1.4,0,1.9,.3l-.2,4.7c-.4,0-.7-.2-1.1-.2-.4,0-.7,0-1.1,0-2.1,0-3.7,.6-4.9,1.8-1.1,1.2-1.7,3-1.7,5.5v11.5h-4.3v-22.9Z"/></g><path class="f" d="M447.8,207.3c0,1.7-.3,3.3-.9,4.8-.6,1.4-1.4,2.7-2.5,3.7-1.1,1-2.4,1.9-4,2.4-1.5,.6-3.2,.9-5.1,.9s-4.2-.3-6-.9c-1.8-.6-3.5-1.7-5.2-3.2l2.9-3.7c1.1,1.2,2.3,2.1,3.7,2.8,1.3,.6,2.8,.9,4.5,.9s2.9-.2,4-.7c1.1-.5,1.9-1.1,2.5-1.8,.6-.7,1.1-1.6,1.3-2.5,.3-.9,.4-1.9,.4-2.9v-3.4h-.1c-.8,1.4-2,2.4-3.4,3.1-1.4,.7-2.9,1-4.5,1s-3.2-.3-4.7-.9c-1.4-.6-2.7-1.4-3.7-2.5-1-1-1.8-2.3-2.4-3.7-.6-1.4-.9-3-.9-4.7s.3-3.2,.8-4.7c.5-1.5,1.3-2.7,2.3-3.8,1-1.1,2.2-1.9,3.7-2.6,1.4-.6,3-.9,4.8-.9s3,.3,4.5,1c1.5,.7,2.6,1.6,3.4,2.8h0v-3.3h4.3v22.7Zm-11.9-19.2c-1.2,0-2.2,.2-3.1,.6-.9,.4-1.7,.9-2.4,1.6-.6,.7-1.1,1.5-1.5,2.5-.4,1-.5,2.1-.5,3.2,0,2.3,.7,4.2,2,5.6,1.4,1.4,3.2,2.1,5.5,2.1s4.2-.7,5.5-2.1c1.4-1.4,2-3.3,2-5.6s-.2-2.2-.5-3.2c-.4-1-.9-1.8-1.5-2.5-.6-.7-1.4-1.2-2.4-1.6-.9-.4-2-.6-3.1-.6Z"/><path class="f" d="M455.3,179.7h1.7l1.2,3.2,1.2-3.2h1.7v4.8h-1.3v-3.2h0l-1.2,3.2h-.8l-1.2-3.2h0v3.2h-1.3v-4.8Zm-3.7,1.1h-1.4v-1.1h4.1v1.1h-1.4v3.7h-1.3v-3.7Z"/></g></g></svg>