<?xml version="1.0" encoding="UTF-8"?><svg id="b" xmlns="http://www.w3.org/2000/svg" viewBox="0 0 599.5 599"><defs><style>.d{fill:#fff;}.e{fill:#087152;}.f{fill:#405a70;}.g{fill:#1899b5;}.h{stroke:#6baa96;stroke-width:20px;}.h,.i{fill:none;}.i{stroke:#087152;stroke-width:50px;}</style></defs><g id="c"><circle class="d" cx="307.7" cy="300.9" r="238.8"/><g><ellipse class="i" cx="299.8" cy="299.5" rx="274.8" ry="274.5"/><circle class="h" cx="298.6" cy="300.5" r="241"/></g><g><path class="e" d="M122.1,259.9h35.5c4.9,0,9.6,.5,14,1.4,4.4,.9,8.3,2.5,11.5,4.7,3.3,2.2,5.9,5.2,7.8,8.9,1.9,3.7,2.9,8.4,2.9,14.1s-.9,10.3-2.7,14c-1.8,3.8-4.3,6.8-7.4,9-3.2,2.3-6.9,3.8-11.2,4.8-4.3,.9-9,1.4-14,1.4h-15.4v37.3h-21.1v-95.6Zm21.1,40.5h14c1.9,0,3.7-.2,5.5-.5,1.8-.4,3.3-1,4.7-1.8,1.4-.9,2.5-2,3.4-3.5,.9-1.5,1.3-3.4,1.3-5.6s-.6-4.4-1.7-5.9c-1.1-1.5-2.6-2.6-4.3-3.4s-3.7-1.3-5.9-1.6c-2.2-.2-4.2-.3-6.2-.3h-10.8v22.7Z"/><path class="e" d="M228.7,259.9h17.4l41.6,95.6h-23.8l-8.2-20.2h-37.1l-8,20.2h-23.2l41.3-95.6Zm8.1,27.8l-11.6,29.7h23.4l-11.7-29.7Z"/><path class="e" d="M298.1,259.9h21.1v76.1h39v19.4h-60.1v-95.6Z"/><path class="e" d="M396.6,330h-33.2v-16.2h33.2v16.2Z"/><path class="e" d="M410.5,259.9h64.9v19.4h-43.9v17.8h41.4v19.4h-41.4v19.4h46.3v19.4h-67.4v-95.6Z"/></g><path class="d" d="M23.8,246l1.7-7.7c.2-1.1,.6-2.1,1-3,.4-.9,.9-1.7,1.6-2.3,.6-.6,1.4-1,2.3-1.3,.9-.2,2-.2,3.2,0,1.2,.3,2.2,.7,2.9,1.3,.7,.6,1.3,1.3,1.6,2,.3,.8,.5,1.7,.5,2.7,0,1-.1,2-.4,3.1l-.7,3.3,8.1,1.8-1,4.6-20.7-4.6Zm9.8-2.6l.7-3c0-.4,.1-.8,.1-1.2,0-.4,0-.8-.2-1.1-.1-.3-.3-.6-.6-.9-.3-.3-.7-.4-1.2-.6-.5-.1-1,0-1.4,0-.4,.2-.7,.4-1,.8s-.5,.7-.6,1.2c-.2,.5-.3,.9-.4,1.3l-.5,2.3,4.9,1.1Z"/><path class="d" d="M28.5,226l2.4-7.9c.3-1,.7-2,1.2-2.9,.5-.9,1.1-1.6,1.7-2.1,.7-.6,1.5-.9,2.4-1.1,.9-.2,2,0,3.2,.3,1.4,.4,2.5,1.2,3.3,2.2,.8,1.1,1.1,2.3,.9,3.9l10.2-2.6-1.6,5.4-9.4,1.8-.7,2.2,8.1,2.5-1.4,4.5-20.3-6.2Zm9.8-1.9l.8-2.6c.1-.4,.2-.8,.3-1.3,.1-.5,.1-.9,.1-1.3s-.2-.8-.4-1.1c-.2-.3-.6-.6-1.2-.8-.5-.2-1-.2-1.3,0-.4,.1-.7,.3-.9,.6-.3,.3-.5,.6-.7,1-.2,.4-.3,.8-.5,1.2l-.9,2.9,4.6,1.4Z"/><path class="d" d="M44.2,210.7c-1.6-.6-2.9-1.5-4-2.5-1.1-1-1.9-2.2-2.4-3.5-.5-1.3-.8-2.7-.7-4.2,0-1.5,.4-3,1-4.5,.6-1.5,1.4-2.9,2.4-4,1-1.1,2.1-2,3.4-2.5,1.3-.6,2.7-.9,4.2-.9,1.5,0,3,.3,4.6,.9,1.6,.6,2.9,1.5,4,2.5s1.9,2.2,2.4,3.5c.5,1.3,.8,2.7,.7,4.2s-.4,3-1,4.6c-.6,1.5-1.4,2.9-2.4,4-1,1.1-2.1,2-3.4,2.5s-2.7,.9-4.2,.9c-1.5,0-3-.3-4.6-.9Zm1.8-4.5c.9,.4,1.8,.6,2.7,.6,.9,0,1.7-.1,2.5-.4,.8-.3,1.5-.8,2.1-1.4,.6-.6,1.1-1.4,1.5-2.3,.4-.9,.6-1.8,.5-2.7,0-.9-.2-1.7-.5-2.5-.3-.8-.9-1.4-1.5-2-.7-.6-1.4-1.1-2.4-1.5-.9-.4-1.8-.6-2.7-.6-.9,0-1.7,.1-2.5,.4-.8,.3-1.5,.8-2.1,1.4-.6,.6-1.1,1.4-1.5,2.3-.4,.9-.6,1.8-.5,2.7s.2,1.7,.5,2.5c.4,.8,.9,1.4,1.5,2,.7,.6,1.5,1.1,2.4,1.4Z"/><path class="d" d="M45,181l6.3-12.8,3.9,1.9-4.2,8.6,3.9,1.9,3.9-7.9,3.9,1.9-3.9,7.9,7.4,3.6-2.1,4.2-19.1-9.3Z"/><path class="d" d="M53.7,163.8l7.3-12.5,3.7,2.2-4.9,8.4,3.4,2,4.6-8,3.7,2.2-4.6,8,3.7,2.2,5.2-8.9,3.7,2.2-7.5,12.9-18.3-10.7Z"/><path class="d" d="M74.4,140.6c-.6,0-1.2,.3-1.8,.7-.6,.4-1,.8-1.3,1.3-.2,.3-.4,.6-.5,.9-.1,.3-.2,.7-.3,1.1s0,.7,.1,1c.1,.3,.3,.6,.7,.8,.5,.4,1.1,.4,1.6,.2,.6-.2,1.1-.5,1.7-1,.6-.5,1.2-1,1.9-1.5,.7-.6,1.4-1,2.2-1.4,.8-.4,1.6-.5,2.5-.5,.9,0,1.8,.4,2.9,1.1,1,.7,1.7,1.4,2.2,2.3,.5,.9,.7,1.8,.8,2.7,0,.9,0,1.9-.4,2.9-.3,1-.8,1.9-1.4,2.8-.8,1.1-1.7,2.1-2.7,2.8-1,.7-2.2,1.3-3.5,1.6l-1.1-4.8c.8,0,1.5-.3,2.2-.7,.7-.4,1.3-.9,1.7-1.6,.2-.3,.4-.7,.5-1,.1-.4,.2-.7,.3-1.1s0-.7-.1-1c-.1-.3-.3-.6-.7-.8-.5-.4-1.1-.4-1.7-.2-.6,.2-1.2,.5-1.8,1-.6,.5-1.3,1-2,1.5-.7,.6-1.4,1-2.2,1.4-.8,.4-1.6,.5-2.5,.5-.9,0-1.8-.3-2.8-1-.9-.6-1.6-1.4-2.1-2.3-.5-.9-.7-1.8-.8-2.7,0-.9,0-1.9,.4-2.9,.3-1,.8-1.9,1.4-2.7,.7-1,1.5-1.9,2.4-2.6,.9-.7,2-1.2,3.1-1.5l1.1,4.6Z"/><path class="d" d="M85.5,126c-.6,0-1.2,.2-1.8,.5-.6,.4-1.1,.8-1.4,1.2-.2,.3-.4,.6-.6,.9-.2,.3-.3,.7-.3,1,0,.4,0,.7,0,1,0,.3,.3,.6,.6,.9,.5,.4,1,.5,1.6,.4,.6-.2,1.2-.5,1.8-.9s1.3-.9,2-1.4c.7-.5,1.5-.9,2.3-1.2,.8-.3,1.6-.4,2.5-.3,.9,0,1.8,.5,2.8,1.3,.9,.7,1.6,1.5,2,2.4,.4,.9,.6,1.8,.6,2.8,0,.9-.2,1.9-.6,2.8-.4,.9-.9,1.9-1.6,2.7-.9,1.1-1.8,2-2.9,2.6-1.1,.7-2.3,1.1-3.7,1.3l-.8-4.9c.8,0,1.6-.1,2.3-.5,.7-.4,1.3-.8,1.8-1.4,.2-.3,.4-.6,.6-1,.2-.4,.3-.7,.3-1.1,0-.4,0-.7,0-1,0-.3-.3-.6-.6-.8-.5-.4-1-.5-1.6-.4-.6,.2-1.2,.4-1.9,.9-.7,.4-1.4,.9-2.1,1.4-.7,.5-1.5,.9-2.3,1.2s-1.6,.4-2.5,.4c-.9,0-1.8-.5-2.7-1.2-.9-.7-1.5-1.5-1.9-2.4-.4-.9-.6-1.8-.6-2.8,0-.9,.2-1.9,.6-2.8,.4-.9,.9-1.8,1.5-2.6,.7-.9,1.6-1.7,2.6-2.4s2-1.1,3.2-1.3l.7,4.7Z"/><path class="d" d="M86.3,117l3.1-3.5,16,14-3.1,3.5-16-14Z"/><path class="d" d="M99.8,117.5c-1.2-1.2-2.1-2.5-2.7-3.9-.6-1.4-.9-2.8-.8-4.2,0-1.4,.3-2.8,1-4.2,.6-1.4,1.5-2.6,2.7-3.8,1.2-1.2,2.4-2.1,3.8-2.7,1.4-.6,2.7-1,4.1-1,1.4,0,2.8,.2,4.2,.8,1.4,.6,2.7,1.4,3.9,2.6s2.1,2.5,2.7,3.9c.6,1.4,.9,2.8,.8,4.2,0,1.4-.3,2.8-1,4.2-.6,1.4-1.5,2.6-2.7,3.8s-2.4,2.1-3.8,2.7c-1.4,.6-2.7,1-4.1,1-1.4,0-2.8-.2-4.2-.8-1.4-.6-2.7-1.4-3.9-2.6Zm3.4-3.5c.7,.7,1.5,1.2,2.3,1.6,.8,.4,1.6,.6,2.5,.6,.8,0,1.7-.1,2.5-.5s1.6-.9,2.3-1.6,1.2-1.5,1.5-2.3c.3-.8,.5-1.6,.5-2.5,0-.8-.2-1.7-.6-2.5-.4-.8-.9-1.6-1.6-2.3-.7-.7-1.5-1.2-2.3-1.6-.8-.4-1.6-.6-2.5-.6-.8,0-1.7,.1-2.5,.5-.8,.3-1.6,.9-2.3,1.6s-1.2,1.5-1.5,2.3c-.3,.8-.5,1.6-.5,2.5,0,.8,.2,1.7,.6,2.5,.4,.8,.9,1.6,1.6,2.2Z"/><path class="d" d="M112.2,90.3l4.9-4.1,16.4,5.5h0l-9.5-11.4,3.6-3,13.6,16.3-4.7,3.9-16.8-5.7h0l9.7,11.6-3.6,3-13.6-16.3Z"/><path class="d" d="M138.5,69.6l3.2-2.2,19.6,12.3-4.4,3-4.1-2.7-6.8,4.7,1.1,4.7-4.3,2.9-4.4-22.7Zm5,4.1l1.6,6.9,4.3-2.9-5.9-4Z"/><path class="d" d="M152.6,60.2l4-2.4,8.5,14.6,7.5-4.4,2.2,3.7-11.5,6.7-10.7-18.3Z"/><path class="d" d="M182.7,44.2l3.5-1.6,17.1,15.7-4.8,2.1-3.5-3.4-7.5,3.4,.2,4.8-4.7,2.1-.2-23.1Zm4.2,4.9l.3,7.1,4.7-2.1-5.1-5Z"/><path class="d" d="M223.1,49.8c-1.1,1.1-2.3,2.1-3.6,2.9-1.3,.8-2.7,1.4-4.2,2-1.6,.5-3.1,.8-4.6,.8-1.5,0-2.9-.3-4.2-.9s-2.4-1.4-3.4-2.6c-1-1.1-1.8-2.5-2.3-4.1s-.8-3.2-.7-4.6c0-1.5,.5-2.9,1.1-4.1,.6-1.2,1.5-2.3,2.7-3.3,1.2-.9,2.5-1.7,4.1-2.2,1.6-.6,3.2-.9,4.6-1s2.9,.2,4.2,.8l-1.9,4.5c-.8-.4-1.7-.7-2.5-.7-.9,0-1.9,.1-3,.5-.9,.3-1.7,.8-2.4,1.4-.7,.6-1.2,1.3-1.5,2-.3,.8-.5,1.6-.6,2.5,0,.9,.1,1.8,.5,2.7,.3,.9,.8,1.8,1.3,2.4,.6,.7,1.2,1.2,2,1.6,.7,.4,1.6,.6,2.4,.7,.9,0,1.8,0,2.7-.4,1-.3,1.8-.7,2.4-1.2,.6-.5,1.1-.9,1.4-1.2l-1.1-3.3-3.6,1.2-1.4-4.1,7.9-2.7,3.6,10.5Z"/><path class="d" d="M221.8,29.7l4.5-1.2,5.7,20.5-4.5,1.2-5.7-20.5Z"/><path class="d" d="M231.6,27l4.6-1,3.7,16.5,8.5-1.9,.9,4.2-13,2.9-4.6-20.7Z"/><path class="d" d="M248.6,23.3l14.2-2.3,.7,4.3-9.6,1.5,.6,3.9,9.1-1.4,.7,4.3-9.1,1.4,.7,4.3,10.2-1.6,.7,4.3-14.8,2.4-3.3-21Z"/><path class="d" d="M278.4,19.5l4.7-.3,1,16.9,8.7-.5,.2,4.3-13.3,.8-1.2-21.2Z"/><path class="d" d="M295.8,18.7h14.4v4.4h-9.8v3.9h9.2v4.4h-9.2v4.3h10.3v4.4h-15V18.7Z"/><path class="d" d="M323.3,19.7l3.9,.4,7.2,22-5.3-.5-1.4-4.7-8.2-.8-2.2,4.3-5.1-.5,11.2-20.3Zm1.2,6.3l-3.2,6.3,5.2,.5-2-6.8Z"/><path class="d" d="M340.4,21.5l6.9,1.3c1.7,.3,3.2,.8,4.7,1.4,1.4,.7,2.6,1.5,3.6,2.5,1,1,1.7,2.3,2.1,3.8,.4,1.5,.4,3.1,0,5.1-.3,1.7-.9,3.1-1.8,4.3-.9,1.2-1.9,2.1-3.2,2.8s-2.6,1.1-4.1,1.3c-1.5,.2-3,.1-4.6-.1l-7.5-1.4,3.9-20.9Zm1.5,17.5l2.4,.4c1.1,.2,2.1,.3,3,.2,1,0,1.8-.3,2.6-.6,.8-.4,1.4-.9,1.9-1.7,.5-.7,.9-1.7,1.1-2.9,.2-1,.2-1.9,0-2.8-.2-.8-.6-1.5-1.2-2.2-.6-.6-1.3-1.1-2.1-1.5-.8-.4-1.7-.7-2.7-.9l-2.7-.5-2.3,12.4Z"/><path class="d" d="M364.5,26.2l14,3.7-1.1,4.2-9.4-2.5-1,3.8,8.9,2.3-1.1,4.2-8.9-2.4-1.1,4.2,9.9,2.6-1.1,4.2-14.5-3.8,5.4-20.5Z"/><path class="d" d="M384,31.6l7.8,2.7c1,.4,2,.8,2.8,1.3,.8,.5,1.5,1.1,2.1,1.8,.5,.7,.9,1.5,1,2.4,.1,.9,0,2-.4,3.1-.5,1.4-1.3,2.5-2.4,3.2-1.1,.7-2.4,1-3.9,.8l2.2,10.2-5.3-1.8-1.4-9.5-2.2-.8-2.8,8-4.4-1.5,6.9-20.1Zm1.6,9.8l2.6,.9c.4,.1,.8,.3,1.3,.4,.5,.1,.9,.2,1.3,.2s.8-.1,1.1-.4c.3-.2,.6-.6,.8-1.2,.2-.5,.2-1,.1-1.3-.1-.4-.3-.7-.6-1-.3-.3-.6-.5-1-.7s-.8-.4-1.2-.5l-2.9-1-1.6,4.6Z"/><path class="d" d="M411.4,47.5c-.2-.6-.5-1.1-1-1.6-.5-.5-1-.8-1.6-1-.3-.1-.6-.2-1-.3s-.7,0-1.1,0c-.4,0-.7,.1-1,.3-.3,.2-.5,.5-.7,.8-.3,.6-.2,1.1,0,1.6s.7,1,1.3,1.5c.6,.5,1.2,1,1.9,1.6,.7,.6,1.3,1.2,1.8,1.9,.5,.7,.8,1.5,1,2.3,.1,.9,0,1.9-.5,3-.5,1.1-1.1,1.9-1.8,2.6s-1.6,1.1-2.5,1.3c-.9,.2-1.9,.3-2.9,.2-1-.1-2-.4-3-.9-1.3-.5-2.4-1.2-3.3-2.1-.9-.9-1.7-1.9-2.2-3.2l4.5-2c.2,.8,.5,1.5,1.1,2.1,.5,.6,1.2,1.1,1.9,1.4,.3,.2,.7,.3,1.1,.3s.8,0,1.1,0c.4,0,.7-.2,1-.3,.3-.2,.5-.4,.7-.8,.3-.6,.2-1.1,0-1.7-.3-.5-.7-1.1-1.3-1.6-.6-.5-1.2-1.1-1.9-1.7-.7-.6-1.3-1.2-1.8-1.9-.5-.7-.8-1.5-1-2.3-.2-.9,0-1.8,.5-2.9,.5-1,1.1-1.9,1.8-2.5,.8-.6,1.6-1,2.5-1.3,.9-.2,1.9-.3,2.9-.2,1,.1,2,.4,3,.8,1.1,.5,2.1,1.1,3,1.8,.9,.8,1.6,1.7,2.1,2.8l-4.3,2Z"/><path class="d" d="M421,46.2l4.2,2.2-3.7,7,8.1,4.2,3.7-7,4.2,2.2-9.8,18.8-4.2-2.2,4.2-8.1-8.1-4.2-4.2,8.1-4.2-2.2,9.8-18.8Z"/><path class="d" d="M442.1,57.6l4,2.4-10.9,18.2-4-2.4,10.9-18.2Z"/><path class="d" d="M451,62.8l6.5,4.5c.9,.6,1.7,1.3,2.4,2,.7,.7,1.2,1.5,1.5,2.3,.3,.8,.4,1.7,.3,2.6-.1,.9-.5,1.9-1.2,3-.7,1-1.5,1.8-2.3,2.2-.8,.5-1.6,.7-2.5,.7-.9,0-1.7-.2-2.7-.5s-1.8-.9-2.8-1.5l-2.8-1.9-4.7,6.8-3.9-2.6,12-17.5Zm-1.2,10.1l2.6,1.8c.3,.2,.7,.4,1.1,.6,.4,.2,.7,.2,1.1,.3,.4,0,.7,0,1.1-.2,.3-.2,.7-.5,.9-.9,.3-.4,.4-.9,.4-1.3,0-.4-.1-.8-.4-1.2-.2-.4-.5-.7-.9-1-.4-.3-.7-.6-1.1-.8l-2-1.4-2.8,4.2Z"/><path class="d" d="M475.3,80.4l11.1,9.3-2.8,3.3-7.5-6.3-2.5,3,7.1,5.9-2.8,3.3-7.1-5.9-2.8,3.3,7.9,6.6-2.8,3.3-11.5-9.6,13.6-16.3Z"/><path class="d" d="M494.5,104.6c0-.6,0-1.2-.4-1.8-.3-.6-.7-1.1-1.1-1.5-.2-.2-.5-.4-.8-.6-.3-.2-.6-.3-1-.4-.3-.1-.7-.1-1,0-.3,0-.6,.2-.9,.5-.4,.5-.6,1-.5,1.6,.1,.6,.3,1.2,.7,1.9,.4,.7,.8,1.4,1.2,2.2,.4,.8,.8,1.5,1,2.4,.2,.8,.2,1.7,0,2.5-.2,.9-.7,1.7-1.5,2.6-.8,.8-1.7,1.4-2.6,1.8-.9,.3-1.9,.4-2.8,.3s-1.9-.4-2.8-.9c-.9-.5-1.8-1.1-2.5-1.9-1-1-1.8-2-2.3-3.1-.6-1.1-.9-2.4-1-3.8l4.9-.3c0,.8,0,1.6,.3,2.3,.3,.8,.7,1.4,1.3,2,.3,.3,.6,.5,.9,.7,.3,.2,.7,.4,1,.4,.3,0,.7,0,1,0,.3,0,.6-.2,.9-.5,.4-.5,.6-1,.5-1.6,0-.6-.3-1.3-.7-2s-.7-1.4-1.2-2.2c-.4-.8-.8-1.6-1-2.4-.2-.8-.3-1.7-.1-2.5s.6-1.7,1.4-2.6c.8-.8,1.6-1.4,2.6-1.7s1.9-.4,2.8-.3c.9,.1,1.9,.4,2.8,.9,.9,.5,1.7,1.1,2.5,1.8,.9,.8,1.6,1.8,2.2,2.8,.6,1,.9,2.1,1,3.3l-4.7,.3Z"/><path class="d" d="M507.1,118.1c.1-.6,0-1.2-.2-1.9-.3-.6-.6-1.2-1-1.6-.2-.3-.5-.5-.8-.7-.3-.2-.6-.4-1-.5-.3-.1-.7-.2-1-.1-.3,0-.7,.2-1,.5-.5,.4-.7,.9-.6,1.5,0,.6,.3,1.2,.6,1.9s.7,1.4,1,2.2c.4,.8,.7,1.6,.8,2.4,.2,.8,.1,1.7-.1,2.5-.2,.9-.8,1.7-1.7,2.5-.9,.8-1.8,1.3-2.7,1.6-.9,.3-1.9,.3-2.8,.1-.9-.2-1.8-.5-2.7-1.1-.9-.5-1.7-1.2-2.4-2.1-.9-1-1.6-2.1-2.1-3.3-.5-1.2-.7-2.4-.7-3.8h4.9c-.2,.8-.1,1.6,.1,2.4,.2,.8,.6,1.5,1.1,2,.3,.3,.5,.5,.9,.8,.3,.2,.7,.4,1,.5,.3,.1,.7,.1,1,0,.3,0,.6-.2,.9-.4,.5-.4,.7-.9,.6-1.6,0-.6-.2-1.3-.5-2s-.6-1.5-1-2.3c-.4-.8-.7-1.6-.8-2.5-.2-.8-.1-1.7,0-2.5,.2-.8,.8-1.7,1.6-2.5,.8-.8,1.7-1.3,2.7-1.5,.9-.2,1.9-.3,2.8-.1,.9,.2,1.8,.5,2.7,1.1,.9,.5,1.7,1.2,2.3,2,.8,.9,1.4,1.9,1.9,2.9,.5,1.1,.7,2.2,.8,3.4h-4.8Z"/><path class="d" d="M516.5,120.9l8.8,11.4-3.4,2.6-6-7.7-3.1,2.4,5.6,7.3-3.4,2.6-5.6-7.3-3.4,2.6,6.3,8.1-3.4,2.6-9.2-11.8,16.8-13Z"/><path class="d" d="M529,137.1l3.5,5.3-7.5,15.6h0l12.4-8,2.5,3.9-17.8,11.6-3.3-5.1,7.6-16h0l-12.7,8.2-2.5-3.9,17.8-11.6Z"/><path class="d" d="M541.2,164.7l-2.9-5.3,3.6-2,8.1,14.7-3.6,2-2.9-5.3-15,8.3-2.3-4.1,15-8.3Z"/><path class="d" d="M551.4,175.1l2.1,4.2-19.1,9.3-2.1-4.2,19.1-9.3Z"/><path class="d" d="M558.6,190.9l1.5,3.6-16.1,16.7-2-4.9,3.5-3.4-3.2-7.6h-4.8l-2-4.7,23.1,.3Zm-5,4l-7.1,.2,2,4.8,5.1-4.9Z"/><path class="d" d="M564.7,206.7l1.5,4.4-16.1,5.3,2.7,8.2-4.1,1.4-4.2-12.7,20.2-6.7Z"/><path class="d" d="M567.6,234.8c.4-.5,.6-1.1,.7-1.8,0-.7,0-1.3-.1-1.9,0-.3-.2-.7-.4-1-.2-.3-.4-.6-.6-.9-.2-.3-.5-.5-.8-.6-.3-.1-.7-.1-1.1,0-.6,.2-1,.5-1.3,1.1-.2,.5-.3,1.2-.4,2,0,.8,0,1.6-.1,2.5,0,.9-.2,1.7-.4,2.5-.2,.8-.7,1.5-1.3,2.2-.6,.6-1.5,1.1-2.7,1.4-1.1,.3-2.2,.3-3.2,.1-1-.2-1.8-.6-2.6-1.2-.7-.6-1.4-1.3-1.9-2.2-.5-.9-.9-1.9-1.2-2.9-.3-1.3-.4-2.6-.3-3.9,.1-1.2,.5-2.5,1.2-3.7l4.4,2.3c-.5,.6-.8,1.3-1,2.1-.2,.8-.1,1.6,0,2.3,0,.4,.2,.7,.4,1.1,.2,.4,.4,.7,.6,.9s.5,.4,.9,.6c.3,.1,.7,.1,1,0,.6-.2,1.1-.5,1.3-1.1,.2-.6,.4-1.2,.5-2,0-.8,.1-1.6,.2-2.5,0-.9,.2-1.8,.4-2.6,.2-.8,.7-1.6,1.2-2.2,.6-.7,1.4-1.1,2.6-1.4,1.1-.3,2.1-.3,3.1,0s1.8,.6,2.5,1.2c.7,.6,1.4,1.3,1.9,2.2,.5,.9,.9,1.8,1.2,2.8,.3,1.2,.4,2.3,.4,3.5,0,1.2-.4,2.3-.9,3.4l-4.2-2.3Z"/><path class="d" d="M577.2,240.6l-.3-1.7,.8-.2,.9,4.5-.8,.2-.3-1.7-4.3,.8-.2-1.1,4.3-.8Zm1.6,3.7l.3,1.6-3.6,2.3h0l4.2,.8,.3,1.6-5.1,1-.2-1.1,4.2-.8h0l-4.6-.8-.2-.9,3.9-2.5h0l-4.2,.8-.2-1.1,5.1-1Z"/><g><g><path class="f" d="M150.2,182.1c.7-3,1.9-5.9,3.5-8.5,1.6-2.6,3.6-4.9,5.8-6.7-1.7,1.5-3.3,3.2-4.6,5,1-1.4,2-2.6,3.2-3.6,1.2-1.1,2.4-2,3.9-2.9-.4,.4-1,.9-1.6,1.4-.6,.5-1.1,1-1.1,1.3-3,2.7-5.5,6-7.3,9.7-1.8,3.7-2.8,7.7-3,11.8-.4-1.6-.2-3,.1-4.1,.3-1.2,.8-2.2,1.1-3.2"/><path class="f" d="M170.3,161.7c-.8,.2-1.5,.5-2.3,.8,.8-.3,1.5-.6,2.3-.8"/><path class="f" d="M179.9,215.1c.8,0,1.7-.2,2.5-.3-.8,.2-1.6,.3-2.5,.3"/><path class="f" d="M151.5,192.6l.4,1.4c.5,3.5,1.7,6.9,3.6,10.1-1-1.7-2-3.5-2.7-5.5-.7-1.9-1.2-4-1.2-6"/><path class="f" d="M152.1,188.8c0-3.5,1-7.1,2.7-9.9-1.6,2.9-2.5,6.3-2.7,9.9"/><path class="f" d="M197.2,200.2c0,0,0,0,0-.2,0,0,0-.2,0-.2,.6-.9,1.2-2,1.7-3,0,.3,0,.6-.1,.9-.3,.6-.6,.9-.8,1.2-.2,.3-.5,.7-.7,1.4"/><path class="f" d="M178.9,215.2h0c-.3,0-.6,0-.9,0h-.1c.3,0,.7,0,1,0"/><path class="f" d="M196.4,201.4c-.1,0-.2-.1-.4,0,.4-.5,.8-1,1.2-1.5,0,0,0,.2,0,.2-.1,.4-.6,.9-.7,1.4"/><path class="f" d="M184.4,208.9c-.4,.1-.7,.5-.8,.6-1.1,0-2.1,0-3.3,0-.2,0-.6,.1-.9,.3-.2-.1-.5-.2-.7-.3,2.6,0,5.3-.4,8-1.4-.7,.3-1.4,.6-2.2,.8"/><path class="f" d="M172.2,165.8c2-.6,4.3-.8,6.5-.8,2.2,0,4.4,.4,6.5,.6-2.3-.9-5.2-1.4-7.6-1.5-2.4-.2-4.4,0-4.9-.5-.5-.5,1.2-1,3.7-1.1,1.2,0,2.6,0,3.9,.2,1.3,.2,2.5,.4,3.5,.6q-.5-.2-1-.4c.5,.2,1,.4,1.5,.4-.5-.2-1.3-.5-2-.8-.7-.2-1.4-.5-1.7-.7,.3,0,.7-.1,1-.2-1.4-.6-3.5-1-5.7-1-2.2,0-4.4,.1-6,.2,3.8-.4,7.9-.4,12,.4,4.1,.8,8.2,2.4,11.9,4.8,3.7,2.4,6.9,5.8,9.2,9.7,2.3,3.9,3.6,8.3,3.8,12.7,.7,9.8-3.2,19.3-10,25.7-.7,.6-1.9,1.5-3.3,2.2-1.5,.8-3.1,1.5-4.6,1.9-4.9,2-10.4,2.7-15.9,2.2-5.7-.7-11.1-3.3-15.5-7.2-4.3-3.9-7.6-9-9.5-14.9-.4-1.2-.4-2.7-.2-3.1,.1-.2,.3-.2,.6,.3,.3,.4,.6,1.3,1.1,2.6,1.8,4.4,4.4,8.5,7.8,11.9-.3,0-.9-.6-1.4-1.1-.5-.6-1.1-1.2-1.5-1.6,1,1.5,2,2.8,3.2,3.9,1.2,1.1,2.4,2.2,3.9,3.1-2-1.3-3.8-2.8-5.4-4.5,2,2.1,4.5,4.1,7.2,5.6,2.8,1.6,5.8,2.7,9,3.2,1.1,.2,2.2,.7,3.4,1,1.2,.3,2.6,.4,4.3,0-4.2,0-8.5-.9-12.3-2.5-3.9-1.7-7.4-4.1-10.4-7.1,0,0,0,0,0,0-2.7-2.6-4.6-5.5-6.1-8.8,.5,1,1.1,2,1.5,2.9-2.4-4.7-3.6-9.8-3.6-14.9,.3,3.6,1.2,7.2,2.7,10.6,1.5,3.4,3.5,6.6,6.1,9.2,2.6,2.7,5.7,4.8,9.1,6.3,3.4,1.5,7,2.2,10.6,2.2-2-.3-4.3-.6-6.4-1.1-2.2-.5-4.2-1.3-5.6-2.5,5.7,2.9,12.4,4,18.9,2.7l-1.4,.4c2.1-.1,4.2-.7,6.1-1.5,2-.8,3.8-1.9,5.6-3.1,.3-.2,.6-.4,.9-.6l-.9,.6c-3.2,2.1-6.7,3.5-10.3,4.2,1.6-.5,3.3-1,5.3-1.8-1.1,.2-2.7,.7-4.3,1-2.1,.5-4.2,.8-6.3,.8,3.3-.1,6.4-1,9-2.3-4.1,1.3-8.7,1.9-12.9,1.2,2.4,.2,4.7,.2,7.1-.2,3.9-.5,7.8-1.8,11.2-4.1l-.4,.3c.3-.2,.5-.4,.8-.5,1.3-.9,2.6-1.9,3.7-3.1,1-1,1.8-2.2,2.4-3.5l.4-.6c-.2,.4-.2,.7,.4,0,1.2-1.5,2-3.2,2.7-5.1,.7-1.9,1.2-3.9,1.7-6,.3-1.1,.3-2.6,.2-4.3,0-.4,0-.7,0-.9,0-.4,0-.7-.1-1.1,0-.9-.2-1.7-.5-2.5,.2,.8,.3,1.7,.5,2.5v1c0-.2-.1-.4-.2-.9,.2,3,0,6-.8,8.9-.8,2.9-2.1,5.8-3.7,8.3,.1-.4,.3-.8,.4-1.1-.2,.6-.5,1.1-.8,1.6-1.1,1.6-2.4,3.2-3.9,4.5,.4-.4,.7-.9,1-1.3-2,2-4.3,3.7-6.8,5-2.5,1.3-5.2,2.2-8,2.7-5.3,.6-10.7-.4-15.3-2.8,2.4,1.5,5.2,2.6,8.2,3-4-.4-8-1.8-11.4-4-3.4-2.2-6.3-5.3-8.2-8.8,1.1,1,2.5,2.4,3.5,2.7,.1-.2-1.3-2.2-.3-1.2,1.9,1.8,3.5,3.2,5,4.2,1.5,1,2.9,1.5,4.1,1.3,.3,0-.7-1.1-1.3-2-.6-.9-1-1.8-.3-1.4,1.2,.7,3.3,1.8,5.7,2.4,.7,.3,1.4,.5,2.2,.6,0,0,.3,0,.5,0,2.7,.5,5.2,.3,6.7,.2,.5,0,1.1-.1,1.6-.2,.3,0,.5,0,.8,.1,.3-.2,.6-.4,.9-.5,1.4-.4,2.7-.9,4-1.5,.7-.3,1.5-.6,2.2-.9,0,0-.2-.1-.2-.3,1.5-1,2.8-2.1,3.9-3.5,.6-.5,1.1-.9,1.6-1.2,.2-1,1-2.4,1.7-4,.7-1.6,1.3-3.4,1.5-4.9h0c.3-1.5,.4-3.1,.3-4.7,0-.3,.1-.5,.2-.8-.2-.4-.2-.8-.3-1,0-1.3-.1-2.4-.2-3.5-.1-.2-.5-.4-.6-.8-.2-.8-.6-1.5-.9-2.2-.4-.8-.8-1.7-1.3-2.5-1.6-2.8-3.8-5.2-6.4-7.1,0-.1,0-.3,0-.4-.5-.1-1.1-.6-1.5-.7,0,0,.2,0,.2,0-.7-.2-1.1-.5-1.5-.7-.4-.2-.7-.5-1.3-.8-.3,0-.6,0-.9-.1-.1,0-.3-.1-.4-.2-1.3-1-2.9-1.1-4.6-1.3-1.7-.3-3.4-.4-5.2-.3-1.4,.1-2-.1-3-.1"/><path class="f" d="M199,196.4c.6-1.4,1.1-2.8,1.4-4.3-.2,1.6-.4,3.1-1.4,4.3"/><path class="f" d="M165.9,205.6c-.3-.5-.7-1.1-1.1-1.6,2.6,2.5,5.8,4.2,9.4,5.1h0c-1.4-.2-3.1-.9-4.6-1.6-1.5-.7-2.7-1.5-3.7-1.8"/><path class="f" d="M197.1,200c0,0,0-.1,0-.2,0,0,0,0,0,0,0,0,0,.2,0,.2"/><path class="f" d="M156.9,203.2l-.2-.4c.6,.9,1.3,1.8,2.1,2.6-.6-.6-1.3-1.4-1.8-2.3"/><path class="f" d="M153.2,191.9c-.3-2.2-.3-4.5,0-6.8,.6-2.9,1.7-5.6,3.3-7.8-2.5,4.3-3.7,9.4-3.4,14.5"/><path class="f" d="M161.4,200.2c-.3-.7-.5-1.4-.8-2.1,.3,.7,.6,1.3,1,2-.2,0-.2,0-.3,.2"/><path class="f" d="M163.4,209.8l-.5-.4c.5,.3,1,.6,1.6,.8-.2,0-.7-.3-1-.4"/><path class="f" d="M159.2,192.7c0,.5,.1,1.1,.3,1.6-.1-.3-.3-.6-.4-.9,0-.2,.2-.4,.2-.7"/><path class="f" d="M159.4,184.4c.2-.7,.4-1.4,.7-2-.3,.8-.5,1.7-.7,2.5,0-.2,0-.4,0-.5"/><path class="g" d="M165.9,150.5c2.2,.9,4.2,2.3,6,3.9,1.7,1.6,3.2,3.5,4.3,5.4-.9-1.5-2-3-3.2-4.2,.9,1,1.6,1.9,2.3,3,.6,1,1.2,2.2,1.6,3.4-.3-.3-.5-.9-.8-1.4-.3-.5-.6-1-.8-1.1-1.6-2.7-3.8-5.1-6.3-7-2.5-1.9-5.5-3.3-8.5-4,1.3,0,2.3,.3,3.1,.7,.8,.4,1.5,1,2.3,1.3"/><path class="g" d="M178.4,168.8c0-.6-.2-1.2-.3-1.8,.1,.6,.3,1.3,.3,1.8"/><path class="g" d="M136.4,168.1c0,.6,0,1.3-.1,1.9,0-.6,0-1.3,.1-1.9"/><path class="g" d="M157.7,149.9h-1.1c-2.7,0-5.5,.3-8.2,1.3,1.5-.5,3-1,4.6-1.3,1.6-.3,3.2-.3,4.7,0"/><path class="g" d="M160.5,150.9c2.7,.5,5.2,1.8,7.2,3.5-2-1.6-4.5-2.9-7.2-3.5"/><path class="g" d="M145.2,183.6s0,0,.2,0c0,0,.1,0,.2,0,.6,.6,1.3,1.2,2,1.7-.2,0-.4-.1-.6-.2-.4-.3-.6-.6-.8-.8-.2-.2-.5-.4-.9-.7"/><path class="g" d="M136.5,167.4h0c0-.3,0-.5,0-.7h0c0,.2,0,.5-.1,.7"/><path class="g" d="M144.4,182.7c0,0,.1-.2,.1-.3,.3,.4,.7,.7,1,1.1,0,0-.1,0-.2,0-.3-.2-.6-.6-1-.8"/><path class="g" d="M140.4,172.5c0-.3-.3-.6-.3-.7,.1-.8,.3-1.6,.4-2.5,0-.2,0-.5,0-.8,.1-.2,.2-.3,.3-.5-.4,2-.5,4.1,0,6.3-.1-.6-.2-1.2-.3-1.8"/><path class="g" d="M175,169.6c.2,1.6,0,3.4-.4,5.1-.4,1.7-1,3.3-1.4,4.9,1-1.6,1.8-3.7,2.3-5.6,.5-1.8,.7-3.3,1.1-3.6,.4-.3,.6,1.1,.3,3-.1,.9-.4,2-.7,2.9-.3,1-.7,1.9-1,2.6,.2-.4,.2-.4,.5-.7-.2,.4-.5,.7-.5,1.1,.3-.3,.6-.9,.9-1.4,.3-.5,.6-1,.8-1.2,0,.3,0,.5,0,.8,.7-1,1.3-2.5,1.6-4.2,.4-1.6,.5-3.3,.8-4.6-.3,3-.9,6.1-2.1,9.1-1.2,3-3,5.9-5.4,8.3-2.4,2.4-5.4,4.4-8.7,5.5-3.3,1.2-6.9,1.5-10.2,1-7.6-.9-14.2-5.3-18.1-11.4-.3-.6-.8-1.7-1.2-2.9-.4-1.2-.7-2.6-.8-3.8-.8-4.1-.5-8.3,.7-12.4,1.4-4.3,4.2-8,7.8-10.7,3.6-2.7,8-4.5,12.7-5,.9-.1,2.1,0,2.4,.3,.2,.1,0,.3-.3,.4-.4,.1-1.1,.2-2.2,.4-3.6,.7-7.2,2.1-10.2,4.2,.1-.2,.5-.6,1.1-.9,.5-.3,1.1-.6,1.4-.9-1.3,.5-2.4,1.2-3.4,1.9-1,.7-2,1.5-3,2.5,1.3-1.3,2.7-2.5,4.2-3.5-1.9,1.2-3.8,2.8-5.4,4.7-1.6,1.9-2.9,4-3.8,6.4-.3,.8-.8,1.6-1.2,2.5-.4,.9-.7,1.9-.6,3.3,.6-3.2,1.9-6.3,3.8-9,1.8-2.7,4.2-5,6.9-6.8,0,0,0,0,0,0,2.4-1.6,4.9-2.7,7.6-3.3-.8,.2-1.7,.5-2.4,.7,3.9-1.1,8-1.3,11.9-.5-2.8-.3-5.7-.2-8.5,.5-2.8,.6-5.5,1.7-7.9,3.3-2.4,1.6-4.5,3.6-6.2,6-1.6,2.4-2.7,5-3.2,7.7,.6-1.5,1.1-3.2,1.8-4.7,.7-1.6,1.7-3,2.7-3.9-3.1,3.9-4.9,8.8-4.8,14v-1.1c-.3,1.6-.2,3.3,.1,4.9,.3,1.6,.9,3.2,1.5,4.7,.1,.3,.2,.5,.3,.8l-.3-.8c-1.1-2.7-1.7-5.6-1.7-8.5,.1,1.3,.3,2.7,.6,4.3,0-.9-.1-2.2-.1-3.4,0-1.7,0-3.3,.3-4.9-.4,2.5-.2,5.1,.4,7.2-.4-3.3-.2-6.9,1-10-.5,1.8-.8,3.6-.9,5.4-.2,3.1,.2,6.2,1.4,9.1l-.2-.3c0,.2,.2,.4,.3,.7,.5,1.1,1.1,2.2,1.8,3.3,.6,.9,1.4,1.7,2.3,2.4l.4,.4c-.3-.2-.5-.2,0,.3,.9,1.1,2.2,2,3.5,2.8,1.3,.8,2.8,1.5,4.3,2.2,.8,.4,2,.7,3.2,.8,.3,.1,.5,.1,.7,0,.3,0,.6,0,.8,0,.7,0,1.3,0,2,0-.7,0-1.3,0-2,0h-.8c.2-.1,.4-.2,.7-.2-2.3-.3-4.6-.9-6.7-1.9-2.1-1-4.1-2.4-5.8-4.1,.3,.1,.6,.4,.8,.4-.4-.3-.8-.5-1.1-.8-1.1-1.1-2-2.3-2.9-3.6,.3,.4,.6,.7,.9,.9-1.2-1.8-2.2-3.8-2.8-5.9-.6-2.1-.9-4.3-.9-6.5,.3-4.1,1.9-8.1,4.4-11.2-1.5,1.6-2.7,3.6-3.5,5.8,.9-3,2.5-5.8,4.7-8.1,2.2-2.3,4.9-4,7.9-4.9-1,.7-2.2,1.6-2.6,2.3,.1,.1,1.8-.6,.9,0-1.6,1.2-3,2.2-3.9,3.2-1,1-1.6,2-1.6,2.9,0,.2,.9-.3,1.7-.7,.8-.4,1.5-.5,1.1,0-.7,.8-1.8,2.2-2.7,4-.3,.5-.6,1-.8,1.5,0,0,0,.2,0,.4-.7,2-1,4-1.1,5.1,0,.4,0,.8,0,1.2,0,.2-.1,.4-.2,.6,0,.3,.2,.5,.2,.8,0,1.1,.2,2.2,.5,3.2,0,.6,.2,1.2,.4,1.8,0,0,.1-.2,.2,0,.5,1.3,1.2,2.4,2.1,3.5,.3,.5,.5,1,.7,1.4,.8,.3,1.7,1.1,2.8,1.9,1.1,.8,2.4,1.5,3.5,1.9h0c1.1,.4,2.3,.7,3.5,.9,.2,0,.4,.2,.5,.3,.3,0,.6,0,.8-.1,1,.1,1.8,.3,2.7,.3,.1,0,.4-.3,.7-.4,.6,0,1.3-.2,1.8-.4,.7-.2,1.4-.4,2.1-.6,2.3-.8,4.5-2.1,6.3-3.8,.1,0,.2,0,.3,.1,.2-.4,.6-.7,.8-1,0,0,0,.1,0,.2,.3-.5,.5-.8,.7-1,.2-.2,.5-.5,.8-.9,.1-.2,.1-.4,.2-.7,0,0,.1-.2,.2-.3,1-.8,1.3-2,1.7-3.3,.5-1.3,.8-2.6,1-3.9,.1-1.1,.4-1.5,.6-2.3"/><path class="g" d="M147.8,185.5c1,.7,2,1.3,3.1,1.7-1.2-.4-2.3-.8-3.1-1.7"/><path class="g" d="M145.7,158.9c.5-.1,.9-.3,1.4-.6-2.3,1.6-4.1,3.8-5.2,6.4h0c.4-1.1,1.2-2.2,2-3.2,.8-1,1.6-1.9,1.9-2.6"/><path class="g" d="M145.3,183.5c0,0,.1,0,.2,0h0c0,0-.1,0-.2,0"/><path class="g" d="M148.9,152.4h.3c-.8,.2-1.6,.6-2.3,1.1,.6-.4,1.3-.8,2-1.1"/><path class="g" d="M158,151.3c1.8,.1,3.5,.5,5.2,1.1,2.1,.9,4,2.1,5.4,3.7-2.9-2.5-6.6-4.2-10.6-4.7"/><path class="g" d="M150.4,156.3c.6-.1,1.2-.2,1.7-.3-.6,.1-1.1,.3-1.7,.5,0-.1,0-.2,0-.2"/><path class="g" d="M142.9,156.4l.4-.4c-.3,.3-.6,.7-.8,1.1,0-.1,.3-.5,.5-.7"/><path class="g" d="M156.5,155.7c-.4,0-.8,0-1.3,0,.2,0,.5-.1,.7-.2,.1,.1,.3,.2,.5,.3"/><path class="g" d="M162.8,157.2c.5,.3,1,.5,1.4,.8-.6-.3-1.2-.6-1.8-.9,.2,0,.3,0,.4,0"/></g><g><path class="f" d="M242.6,181.6c-.6-.8-1.4-1.3-2.5-1.7-1-.4-2-.6-3-.6s-1.1,0-1.7,.2c-.6,.1-1.1,.3-1.6,.6-.5,.3-.9,.6-1.3,1.1-.3,.5-.5,1-.5,1.6,0,1,.4,1.8,1.2,2.4,.8,.5,1.7,1,2.9,1.4,1.2,.4,2.4,.8,3.8,1.2,1.4,.4,2.6,.9,3.8,1.6,1.2,.7,2.1,1.7,2.9,2.8,.8,1.2,1.2,2.8,1.2,4.8s-.4,3.6-1.1,5c-.7,1.4-1.7,2.6-2.9,3.5-1.2,.9-2.6,1.6-4.2,2.1-1.6,.5-3.3,.7-5,.7s-4.3-.3-6.2-1c-1.9-.7-3.7-1.8-5.3-3.3l5.4-5.9c.8,1,1.7,1.8,2.9,2.4,1.2,.6,2.4,.8,3.6,.8s1.2,0,1.9-.2c.6-.1,1.2-.4,1.7-.7s.9-.7,1.2-1.1c.3-.4,.5-1,.5-1.6,0-1-.4-1.8-1.2-2.4-.8-.6-1.8-1.1-3-1.5-1.2-.4-2.5-.8-3.9-1.3-1.4-.4-2.7-1-3.9-1.7-1.2-.7-2.2-1.6-3-2.8-.8-1.2-1.2-2.7-1.2-4.6s.4-3.4,1.1-4.8c.7-1.4,1.7-2.5,2.9-3.5,1.2-.9,2.6-1.6,4.2-2.1,1.6-.5,3.2-.7,4.9-.7s3.8,.3,5.6,.8c1.8,.5,3.4,1.5,4.9,2.8l-5.2,5.6Z"/><path class="f" d="M268.3,191.6c-.4-.5-.9-.9-1.5-1.3-.6-.3-1.3-.5-2.1-.5-1.8,0-3.3,.5-4.3,1.6-1,1.1-1.5,2.5-1.5,4.3s.5,3.2,1.5,4.3c1,1.1,2.4,1.6,4.3,1.6s1.5-.2,2.1-.5c.6-.4,1.1-.8,1.5-1.3l4.8,5c-1.1,1.2-2.5,2-4,2.4-1.5,.5-3,.7-4.4,.7s-3.5-.3-5.1-.9c-1.6-.6-3-1.4-4.1-2.5-1.2-1.1-2.1-2.4-2.8-3.9-.7-1.5-1-3.2-1-5.1s.3-3.6,1-5.1c.7-1.5,1.6-2.8,2.8-3.9,1.2-1.1,2.6-1.9,4.1-2.5,1.6-.6,3.3-.9,5.1-.9s2.8,.2,4.4,.7c1.5,.5,2.9,1.3,4,2.4l-4.8,5Z"/><path class="f" d="M275.7,184h7.2v3.8h0c.8-1.4,1.7-2.5,2.8-3.3s2.4-1.1,4-1.1,.8,0,1.3,0c.4,0,.8,0,1.2,.2v6.6c-.5-.2-1-.3-1.5-.4-.5,0-1-.1-1.6-.1-1.4,0-2.5,.2-3.3,.6-.8,.4-1.4,.9-1.9,1.6-.4,.7-.7,1.5-.8,2.5-.1,1-.2,2-.2,3.2v9.8h-7.2v-23.5Z"/><path class="f" d="M317.9,207.4h-6.9v-3.2h0c-.3,.5-.6,.9-1,1.4-.4,.5-.9,.9-1.5,1.2-.6,.4-1.2,.6-2,.9-.7,.2-1.5,.3-2.4,.3-1.8,0-3.3-.3-4.5-.8-1.1-.6-2-1.3-2.7-2.3-.6-1-1-2.2-1.3-3.5-.2-1.4-.3-2.8-.3-4.4v-12.9h7.2v11.5c0,.7,0,1.4,0,2.1,0,.7,.2,1.4,.4,2,.2,.6,.6,1.1,1.1,1.5s1.2,.6,2.1,.6,1.7-.2,2.3-.5c.6-.3,1-.8,1.3-1.4,.3-.6,.5-1.2,.6-1.9,0-.7,.1-1.4,.1-2.2v-11.7h7.2v23.5Z"/><path class="f" d="M323.1,184h6.9v3.2h0c.2-.4,.5-.9,1-1.4,.4-.5,.9-.9,1.5-1.2,.6-.4,1.2-.6,2-.9,.7-.2,1.5-.3,2.4-.3,1.6,0,3.1,.3,4.4,1,1.3,.7,2.2,1.7,2.9,3.2,.8-1.5,1.8-2.6,3-3.2,1.2-.6,2.7-1,4.4-1s2.9,.3,4,.8c1.1,.5,1.9,1.3,2.6,2.2,.6,.9,1.1,2,1.4,3.2,.3,1.2,.4,2.6,.4,4v13.8h-7.2v-13.7c0-1.1-.2-2-.7-2.8-.5-.8-1.3-1.2-2.5-1.2s-1.5,.1-2.1,.4c-.6,.3-1,.7-1.4,1.1s-.6,1-.7,1.7c-.1,.6-.2,1.3-.2,2v12.4h-7.2v-12.4c0-.4,0-.9,0-1.5,0-.6-.1-1.2-.3-1.7-.2-.5-.5-1-.9-1.4-.4-.4-1.1-.6-1.9-.6s-1.7,.2-2.3,.5-1,.8-1.3,1.4c-.3,.6-.5,1.2-.6,1.9,0,.7-.1,1.4-.1,2.2v11.7h-7.2v-23.5Z"/></g><g><path class="f" d="M369.2,207.7c-.9,0-1.6-.3-2.2-.9-.6-.6-.9-1.4-.9-2.2s.3-1.6,.9-2.2c.6-.6,1.4-.9,2.2-.9s1.6,.3,2.2,.9c.6,.6,.9,1.4,.9,2.2s-.3,1.6-.9,2.2c-.6,.6-1.4,.9-2.2,.9Z"/><path class="f" d="M378.1,196c0-1.7,.3-3.2,.9-4.7,.6-1.4,1.5-2.7,2.6-3.8,1.1-1.1,2.4-2,3.9-2.6,1.5-.6,3.1-.9,4.8-.9s3.3,.3,4.8,.9c1.5,.6,2.8,1.5,3.9,2.6,1.1,1.1,2,2.4,2.6,3.8,.6,1.4,.9,3,.9,4.7s-.3,3.2-.9,4.7c-.6,1.5-1.5,2.7-2.6,3.8-1.1,1.1-2.4,1.9-3.9,2.6-1.5,.6-3.1,.9-4.8,.9s-3.3-.3-4.8-.9c-1.5-.6-2.8-1.5-3.9-2.6s-2-2.3-2.6-3.8c-.6-1.5-.9-3-.9-4.7Zm4.6,0c0,1.2,.2,2.2,.5,3.2,.4,1,.9,1.8,1.5,2.5,.6,.7,1.4,1.2,2.4,1.6,.9,.4,2,.6,3.1,.6s2.2-.2,3.1-.6c.9-.4,1.7-.9,2.4-1.6,.6-.7,1.1-1.5,1.5-2.5,.4-1,.5-2.1,.5-3.2s-.2-2.2-.5-3.2c-.4-1-.9-1.8-1.5-2.5-.6-.7-1.4-1.2-2.4-1.6-.9-.4-2-.6-3.1-.6s-2.2,.2-3.1,.6c-.9,.4-1.7,.9-2.4,1.6-.6,.7-1.1,1.5-1.5,2.5-.4,1-.5,2.1-.5,3.2Z"/><path class="f" d="M407.8,184.6h4.3v3.5h0c.3-.6,.7-1.2,1.2-1.7,.5-.5,1-.9,1.6-1.3,.6-.4,1.2-.6,2-.8,.7-.2,1.4-.3,2.1-.3s1.4,0,1.9,.3l-.2,4.7c-.4,0-.7-.2-1.1-.2-.4,0-.7,0-1.1,0-2.1,0-3.7,.6-4.9,1.8-1.1,1.2-1.7,3-1.7,5.5v11.5h-4.3v-22.9Z"/></g><path class="f" d="M447.7,207.3c0,1.7-.3,3.3-.9,4.8-.6,1.4-1.4,2.7-2.5,3.7-1.1,1-2.4,1.9-4,2.4-1.5,.6-3.2,.9-5.1,.9s-4.2-.3-6-.9c-1.8-.6-3.5-1.7-5.2-3.2l2.9-3.7c1.1,1.2,2.3,2.1,3.7,2.8,1.3,.6,2.8,.9,4.5,.9s2.9-.2,4-.7c1.1-.5,1.9-1.1,2.5-1.8,.6-.7,1.1-1.6,1.3-2.5,.3-.9,.4-1.9,.4-2.9v-3.4h-.1c-.8,1.4-2,2.4-3.4,3.1-1.4,.7-2.9,1-4.5,1s-3.2-.3-4.7-.9c-1.4-.6-2.7-1.4-3.7-2.5-1-1-1.8-2.3-2.4-3.7-.6-1.4-.9-3-.9-4.7s.3-3.2,.8-4.7c.5-1.5,1.3-2.7,2.3-3.8,1-1.1,2.2-1.9,3.7-2.6,1.4-.6,3-.9,4.8-.9s3,.3,4.5,1c1.5,.7,2.6,1.6,3.4,2.8h0v-3.3h4.3v22.7Zm-11.9-19.2c-1.2,0-2.2,.2-3.1,.6-.9,.4-1.7,.9-2.4,1.6-.6,.7-1.1,1.5-1.5,2.5-.4,1-.5,2.1-.5,3.2,0,2.3,.7,4.2,2,5.6,1.4,1.4,3.2,2.1,5.5,2.1s4.2-.7,5.5-2.1c1.4-1.4,2-3.3,2-5.6s-.2-2.2-.5-3.2c-.4-1-.9-1.8-1.5-2.5-.6-.7-1.4-1.2-2.4-1.6-.9-.4-2-.6-3.1-.6Z"/><path class="f" d="M455.3,179.7h1.7l1.2,3.2,1.2-3.2h1.7v4.8h-1.3v-3.2h0l-1.2,3.2h-.8l-1.2-3.2h0v3.2h-1.3v-4.8Zm-3.7,1.1h-1.4v-1.1h4.1v1.1h-1.4v3.7h-1.3v-3.7Z"/></g></g></svg>