<?xml version="1.0" encoding="UTF-8"?><svg id="b" xmlns="http://www.w3.org/2000/svg" viewBox="0 0 599.5 599"><defs><style>.d{fill:#087152;font-size:102px;}.d,.e,.f,.g,.h,.i,.j,.k,.l,.m,.n,.o,.p,.q,.r,.s,.t,.u,.v,.w,.x,.y,.z,.aa,.ab,.ac,.ad,.ae,.af,.ag,.ah{font-family:Avenir-Black, Avenir;}.ai,.aj,.ak,.e,.f,.g,.h,.i,.j,.k,.l,.m,.n,.o,.p,.q,.r,.s,.t,.u,.v,.w,.x,.y,.z,.aa,.ab,.ac,.ad,.ae,.af,.ag,.ah{fill:#fff;}.al{fill:#405a70;}.am{fill:#1899b5;}.aj{font-size:12.6px;}.aj,.ak{font-family:Avenir-Medium, Avenir;}.ak{font-size:12.6px;}.an{stroke:#6baa96;stroke-width:20px;}.an,.ao{fill:none;}.ap{letter-spacing:0em;}.ao{stroke:#087152;stroke-width:50px;}.e{font-size:30px;}.f{font-size:30px;}.g{font-size:30px;}.h{font-size:30px;}.i{font-size:30px;}.j{font-size:30px;}.k{font-size:30px;}.l{font-size:30px;}.m{font-size:30px;}.n{font-size:30px;}.o{font-size:30px;}.p{font-size:30px;}.q{font-size:30px;}.r{font-size:30px;}.s{font-size:30px;}.t{font-size:30px;}.u{font-size:30px;}.v{font-size:30px;}.w{font-size:30px;}.x{font-size:30px;}.y{font-size:30px;}.z{font-size:30px;}.aa{font-size:30px;}.ab{font-size:30px;}.ac{font-size:30px;}.ad{font-size:30px;}.ae{font-size:30px;}.af{font-size:30px;}.ag{font-size:30px;}.ah{font-size:30px;}</style></defs><g id="c"><g><path class="ai" d="M299.6,599c165.4,0,299.5-134.1,299.5-299.5S465,0,299.6,0,.1,134.1,.1,299.5s134.1,299.5,299.5,299.5"/><ellipse class="ao" cx="299.8" cy="299.5" rx="274.8" ry="274.5"/><circle class="an" cx="298.6" cy="300.5" r="241"/></g><text class="d" transform="translate(76.7 355.5) scale(1 1.3)"><tspan class="ap" x="0" y="0">P</tspan><tspan x="56.8" y="0">AL-EBM</tspan></text><text class="l" transform="translate(72.1 424.7) rotate(-116.7)"><tspan x="0" y="0">P</tspan></text><text class="e" transform="translate(63.5 407.8) rotate(-112.5)"><tspan x="0" y="0">R</tspan></text><text class="q" transform="translate(56 389.9) rotate(-107.6)"><tspan x="0" y="0">O</tspan></text><text class="r" transform="translate(48.5 366) rotate(-102.6)"><tspan x="0" y="0">F</tspan></text><text class="o" transform="translate(44.6 348.7) rotate(-99)"><tspan x="0" y="0">E</tspan></text><text class="q" transform="translate(41.7 330) rotate(-94.7)"><tspan x="0" y="0">S</tspan></text><text class="ad" transform="translate(40.3 312.8) rotate(-91.1)"><tspan x="0" y="0">S</tspan></text><text class="k" transform="translate(40.1 295.6) rotate(-88.2)"><tspan x="0" y="0">I</tspan></text><text class="ab" transform="translate(40.2 286.7) rotate(-84.5)"><tspan x="0" y="0">O</tspan></text><text class="g" transform="translate(42.5 261.8) rotate(-78.8)"><tspan x="0" y="0">N</tspan></text><text class="s" transform="translate(47.2 237.8) rotate(-73.8)"><tspan x="0" y="0">A</tspan></text><text class="u" transform="translate(53.6 216.5) rotate(-69.5)"><tspan x="0" y="0">L</tspan></text><text class="y" transform="translate(59.3 201.4) rotate(-66.7)"><tspan x="0" y="0"> </tspan></text><text class="h" transform="translate(62.6 193.2) rotate(-63.2)"><tspan x="0" y="0">A</tspan></text><text class="p" transform="translate(72.5 173.3) rotate(-58.3)"><tspan x="0" y="0">G</tspan></text><text class="s" transform="translate(85 153.5) rotate(-54.9)"><tspan x="0" y="0">I</tspan></text><text class="x" transform="translate(90.1 146.2) rotate(-52.1)"><tspan x="0" y="0">L</tspan></text><text class="ag" transform="translate(99.9 133.5) rotate(-48)"><tspan x="0" y="0">E</tspan></text><text class="z" transform="translate(112.7 119.5) rotate(-45.3)"><tspan x="0" y="0"> </tspan></text><text class="q" transform="translate(118.9 113.2) rotate(-42.5)"><tspan x="0" y="0">L</tspan></text><text class="u" transform="translate(130.7 102.3) rotate(-38.4)"><tspan x="0" y="0">E</tspan></text><text class="h" transform="translate(145.5 90.5) rotate(-34.3)"><tspan x="0" y="0">A</tspan></text><text class="n" transform="translate(163.9 77.9) rotate(-28.8)"><tspan x="0" y="0">D</tspan></text><text class="ae" transform="translate(183.9 67) rotate(-24.6)"><tspan x="0" y="0">E</tspan></text><text class="m" transform="translate(201.1 59.2) rotate(-20.4)"><tspan x="0" y="0">R</tspan></text><text class="q" transform="translate(219.4 52.5) rotate(-16.2)"><tspan x="0" y="0">S</tspan></text><text class="aa" transform="translate(235.9 47.7) rotate(-11.9)"><tspan x="0" y="0">H</tspan></text><text class="k" transform="translate(258.2 43.3) rotate(-8.3)"><tspan x="0" y="0">I</tspan></text><text class="l" transform="translate(267 41.9) rotate(-5.4)"><tspan x="0" y="0">P</tspan></text><text class="aj" transform="translate(285.3 24.1) rotate(-1.8) scale(1.1 1)"><tspan x="0" y="0">™</tspan></text><text class="ae" transform="translate(299.8 40) rotate(1.1)"><tspan x="0" y="0">-</tspan></text><text class="q" transform="translate(308.7 40.1) rotate(3.3)"><tspan x="0" y="0"> </tspan></text><text class="i" transform="translate(317.6 40.4) rotate(6.2)"><tspan x="0" y="0">E</tspan></text><text class="j" transform="translate(336.4 42.4) rotate(10.5)"><tspan x="0" y="0">V</tspan></text><text class="j" transform="translate(357.1 46.4) rotate(13.4)"><tspan x="0" y="0">I</tspan></text><text class="af" transform="translate(365.8 48.3) rotate(17)"><tspan x="0" y="0">D</tspan></text><text class="ah" transform="translate(387.6 55.1) rotate(21.9)"><tspan x="0" y="0">E</tspan></text><text class="h" transform="translate(405.2 62) rotate(26.8)"><tspan x="0" y="0">N</tspan></text><text class="p" transform="translate(427 73.1) rotate(31.7)"><tspan x="0" y="0">C</tspan></text><text class="v" transform="translate(444.4 84) rotate(35.8)"><tspan x="0" y="0">E</tspan></text><text class="w" transform="translate(459.7 95.1) rotate(39.3)"><tspan x="0" y="0">-</tspan></text><text class="ag" transform="translate(466.6 100.7) rotate(42)"><tspan x="0" y="0">B</tspan></text><text class="f" transform="translate(481.1 113.7) rotate(46.8)"><tspan x="0" y="0">A</tspan></text><text class="v" transform="translate(496.2 130) rotate(50.9)"><tspan x="0" y="0">S</tspan></text><text class="x" transform="translate(507.1 143.3) rotate(55)"><tspan x="0" y="0">E</tspan></text><text class="u" transform="translate(518 158.8) rotate(59.8)"><tspan x="0" y="0">D</tspan></text><text class="l" transform="translate(529.3 178.5) rotate(63.3)"><tspan x="0" y="0"> </tspan></text><text class="e" transform="translate(533.7 186.3) rotate(67.5)"><tspan x="0" y="0">M</tspan></text><text class="t" transform="translate(544.5 212.5) rotate(73.1)"><tspan x="0" y="0">A</tspan></text><text class="aa" transform="translate(551 233.8) rotate(78.1)"><tspan x="0" y="0">N</tspan></text><text class="ac" transform="translate(556 257.7) rotate(83.1)"><tspan x="0" y="0">A</tspan></text><text class="e" transform="translate(558.6 279.8) rotate(88.2)"><tspan x="0" y="0">G</tspan></text><text class="f" transform="translate(559.2 303.1) rotate(92.6)"><tspan x="0" y="0">E</tspan></text><text class="q" transform="translate(558.6 322.1) rotate(98.4)"><tspan x="0" y="0">M</tspan></text><text class="j" transform="translate(554.4 350.1) rotate(103.4)"><tspan x="0" y="0">E</tspan></text><text class="ad" transform="translate(550.2 368.5) rotate(108.4)"><tspan x="0" y="0">N</tspan></text><text class="ac" transform="translate(542.4 391.7) rotate(112.6)"><tspan x="0" y="0">T</tspan></text><text class="ak" transform="translate(550.3 414.7) rotate(116.1) scale(1.1 1)"><tspan x="0" y="0">™</tspan></text><g><path class="al" d="M156.3,182.1c.7-3,1.9-5.9,3.5-8.5,1.6-2.6,3.6-4.9,5.8-6.7-1.7,1.5-3.3,3.2-4.6,5,1-1.4,2-2.6,3.2-3.6,1.2-1.1,2.4-2,3.9-2.9-.4,.4-1,.9-1.6,1.4-.6,.5-1.1,1-1.1,1.3-3,2.7-5.5,6-7.3,9.7-1.8,3.7-2.8,7.7-3,11.8-.4-1.6-.2-3,.1-4.1,.3-1.2,.8-2.1,1.1-3.2"/><path class="al" d="M176.5,161.8c-.8,.2-1.5,.5-2.3,.8,.8-.3,1.5-.6,2.3-.8"/><path class="al" d="M186,215.1c.8,0,1.7-.2,2.5-.3-.8,.2-1.6,.3-2.5,.3"/><path class="al" d="M157.6,192.6l.4,1.4c.5,3.5,1.7,6.9,3.6,10.1-1-1.7-2-3.5-2.7-5.5-.7-1.9-1.2-4-1.2-6"/><path class="al" d="M158.2,188.8c0-3.5,1-7.1,2.7-9.9-1.6,2.9-2.5,6.3-2.7,9.9"/><path class="al" d="M203.3,200.2c0,0,0,0,0-.2,0,0,0-.2,0-.2,.6-.9,1.2-1.9,1.7-3,0,.3,0,.6-.1,.9-.3,.6-.6,.9-.8,1.2-.2,.3-.5,.7-.7,1.4"/><path class="al" d="M185.1,215.1h0c-.3,0-.6,0-.9,0h-.1c.3,0,.7,0,1,0"/><path class="al" d="M202.5,201.4c-.1,0-.2-.1-.4,0,.4-.5,.8-1,1.2-1.5,0,0,0,.2,0,.2-.1,.4-.6,.9-.7,1.4"/><path class="al" d="M190.5,208.9c-.4,.1-.7,.5-.8,.6-1.1,0-2.1,0-3.3,0-.2,0-.6,.1-.9,.3-.2-.1-.5-.2-.7-.3,2.6,0,5.3-.4,8-1.4-.7,.3-1.4,.6-2.2,.8"/><path class="al" d="M178.4,165.9c2-.6,4.3-.8,6.5-.8,2.2,0,4.4,.4,6.5,.6-2.3-.9-5.2-1.4-7.6-1.5-2.4-.2-4.4,0-4.9-.5-.5-.5,1.2-1,3.7-1.1,1.2,0,2.6,0,3.9,.2,1.3,.2,2.5,.4,3.5,.6q-.5-.2-1-.4c.5,.2,1,.4,1.5,.4-.5-.2-1.3-.5-2-.8-.7-.2-1.4-.5-1.7-.7,.3,0,.7-.1,1-.2-1.4-.6-3.5-1-5.7-1-2.2,0-4.4,.1-6,.2,3.8-.4,7.9-.4,12,.4,4.1,.8,8.2,2.4,11.9,4.8,3.7,2.4,6.9,5.8,9.2,9.7,2.3,3.9,3.6,8.3,3.8,12.7,.7,9.8-3.2,19.3-10,25.7-.7,.6-1.9,1.5-3.3,2.2-1.5,.8-3.1,1.5-4.6,1.9-4.9,2-10.4,2.7-15.9,2.2-5.7-.7-11.1-3.3-15.5-7.2-4.3-3.9-7.6-9-9.5-14.9-.4-1.2-.4-2.7-.2-3.1,.1-.2,.3-.2,.6,.3,.3,.4,.6,1.3,1.1,2.6,1.8,4.4,4.4,8.5,7.8,11.9-.3,0-.9-.6-1.4-1.1-.5-.6-1.1-1.2-1.5-1.6,1,1.5,2,2.8,3.2,3.9,1.2,1.1,2.4,2.2,3.9,3.1-2-1.3-3.8-2.8-5.4-4.5,2,2.1,4.5,4.1,7.2,5.6,2.8,1.5,5.8,2.7,9,3.2,1.1,.2,2.2,.7,3.4,1,1.2,.3,2.6,.4,4.3,0-4.2,0-8.5-.9-12.3-2.5-3.9-1.7-7.4-4.1-10.4-7.1,0,0,0,0,0,0-2.7-2.6-4.6-5.5-6.1-8.8,.5,1,1.1,2,1.5,2.9-2.4-4.7-3.6-9.8-3.6-14.9,.3,3.6,1.2,7.2,2.7,10.6,1.5,3.4,3.5,6.5,6.1,9.2,2.6,2.7,5.7,4.8,9.1,6.3,3.4,1.5,7,2.2,10.6,2.2-2-.3-4.3-.6-6.4-1.1-2.2-.5-4.2-1.3-5.6-2.5,5.7,2.9,12.4,4,18.9,2.7l-1.4,.4c2.1-.1,4.2-.7,6.1-1.5,2-.8,3.8-1.9,5.6-3.1,.3-.2,.6-.4,.9-.6l-.9,.6c-3.2,2.1-6.7,3.5-10.3,4.2,1.6-.5,3.3-1,5.3-1.8-1.1,.2-2.7,.7-4.3,1-2.1,.5-4.2,.8-6.3,.8,3.3-.1,6.4-1,9-2.3-4.1,1.3-8.7,1.9-12.9,1.2,2.4,.2,4.7,.2,7.1-.2,3.9-.5,7.8-1.8,11.2-4l-.4,.3c.3-.2,.5-.4,.8-.5,1.3-.9,2.6-1.9,3.7-3.1,1-1,1.8-2.2,2.4-3.5l.4-.6c-.2,.4-.2,.7,.4,0,1.2-1.5,2-3.2,2.7-5.1,.7-1.9,1.2-3.9,1.7-6,.3-1.1,.3-2.6,.2-4.3,0-.4,0-.7,0-.9,0-.3,0-.7-.1-1.1,0-.9-.2-1.7-.5-2.5,.2,.8,.3,1.7,.5,2.5v1c0-.2-.1-.4-.2-.9,.2,3,0,6-.8,8.9-.8,2.9-2.1,5.8-3.7,8.3,.1-.4,.3-.8,.4-1.1-.2,.6-.5,1.1-.8,1.6-1.1,1.6-2.4,3.1-3.9,4.5,.4-.4,.7-.9,1-1.3-2,2-4.3,3.7-6.8,5-2.5,1.3-5.2,2.2-8,2.7-5.3,.6-10.7-.4-15.3-2.8,2.4,1.5,5.2,2.6,8.2,3-4-.4-8-1.8-11.4-4-3.4-2.2-6.3-5.3-8.2-8.8,1.1,1,2.5,2.4,3.5,2.7,.1-.2-1.3-2.2-.3-1.2,1.9,1.8,3.5,3.2,5,4.2,1.5,1,2.9,1.5,4.1,1.3,.3,0-.7-1.1-1.3-2-.6-.9-1-1.8-.3-1.4,1.2,.7,3.3,1.8,5.7,2.4,.7,.3,1.4,.5,2.2,.6,0,0,.3,0,.5,0,2.7,.5,5.2,.3,6.7,.2,.5,0,1.1-.1,1.6-.2,.3,0,.5,0,.8,.1,.3-.2,.6-.3,.9-.5,1.4-.4,2.7-.9,4-1.5,.7-.3,1.5-.6,2.2-.9,0,0-.2,0-.2-.3,1.5-1,2.8-2.1,3.9-3.5,.6-.5,1.1-.9,1.6-1.2,.2-1,1-2.4,1.7-4,.7-1.6,1.3-3.4,1.5-4.9h0c.3-1.5,.4-3.1,.3-4.6,0-.3,.1-.5,.2-.8-.2-.4-.2-.8-.3-1,0-1.3-.1-2.4-.2-3.5-.1-.2-.5-.4-.6-.8-.2-.8-.6-1.5-.9-2.2-.4-.8-.8-1.7-1.3-2.5-1.6-2.7-3.8-5.2-6.4-7,0-.1,0-.3,0-.4-.5-.1-1.1-.6-1.5-.7,0,0,.2,0,.2,0-.7-.2-1.1-.5-1.5-.7-.4-.2-.7-.5-1.3-.8-.3,0-.6,0-.9-.1-.1,0-.3-.1-.4-.2-1.3-1-2.9-1.1-4.6-1.3-1.7-.3-3.4-.4-5.2-.3-1.4,.1-2-.1-3-.1"/><path class="al" d="M205.2,196.4c.6-1.4,1.1-2.8,1.4-4.3-.2,1.6-.4,3.1-1.4,4.3"/><path class="al" d="M172,205.6c-.3-.5-.7-1.1-1.1-1.6,2.6,2.5,5.8,4.2,9.4,5h0c-1.4-.2-3.1-.9-4.6-1.6-1.5-.7-2.7-1.5-3.7-1.8"/><path class="al" d="M203.2,200c0,0,0-.1,0-.2,0,0,0,0,0,0,0,0,0,.2,0,.2"/><path class="al" d="M163,203.2l-.2-.4c.6,.9,1.3,1.8,2.1,2.6-.6-.6-1.3-1.4-1.8-2.3"/><path class="al" d="M159.4,191.9c-.3-2.2-.3-4.5,0-6.8,.6-2.9,1.7-5.6,3.3-7.7-2.5,4.3-3.7,9.4-3.4,14.5"/><path class="al" d="M167.5,200.2c-.3-.7-.5-1.4-.8-2.1,.3,.7,.6,1.3,1,2-.2,0-.2,0-.3,.2"/><path class="al" d="M169.6,209.7l-.5-.4c.5,.3,1,.6,1.6,.8-.2,0-.7-.3-1-.4"/><path class="al" d="M165.3,192.7c0,.5,.1,1.1,.3,1.6-.1-.3-.3-.6-.4-.9,0-.2,.2-.4,.2-.7"/><path class="al" d="M165.6,184.4c.2-.7,.4-1.4,.7-2-.3,.8-.5,1.6-.7,2.5,0-.2,0-.4,0-.5"/><path class="am" d="M172.1,150.5c2.2,.9,4.2,2.3,6,3.9,1.7,1.6,3.2,3.5,4.3,5.4-.9-1.5-2-2.9-3.2-4.2,.9,1,1.6,1.9,2.3,3,.6,1,1.2,2.2,1.6,3.4-.3-.3-.5-.9-.8-1.4-.3-.5-.6-.9-.8-1.1-1.6-2.7-3.8-5.1-6.3-7-2.5-1.9-5.5-3.3-8.5-4,1.3,0,2.3,.3,3.1,.7,.8,.4,1.5,1,2.3,1.3"/><path class="am" d="M184.6,168.8c0-.6-.2-1.2-.3-1.8,.1,.6,.3,1.3,.3,1.8"/><path class="am" d="M142.5,168.2c0,.6,0,1.3-.1,1.9,0-.6,0-1.3,.1-1.9"/><path class="am" d="M163.9,149.9h-1.1c-2.7,0-5.5,.3-8.2,1.3,1.5-.5,3-1,4.6-1.3,1.6-.3,3.2-.3,4.7,0"/><path class="am" d="M166.7,150.9c2.7,.5,5.2,1.8,7.2,3.5-2-1.6-4.5-2.9-7.2-3.5"/><path class="am" d="M151.3,183.6s0,0,.2,0c0,0,.1,0,.2,0,.6,.6,1.3,1.2,2,1.7-.2,0-.4-.1-.6-.2-.4-.3-.6-.6-.8-.8-.2-.2-.5-.4-.9-.7"/><path class="am" d="M142.6,167.5h0c0-.3,0-.5,0-.7h0c0,.2,0,.5-.1,.7"/><path class="am" d="M150.5,182.8c0,0,.1-.2,.1-.3,.3,.4,.7,.7,1,1.1,0,0-.1,0-.2,0-.3-.2-.6-.6-1-.8"/><path class="am" d="M146.6,172.5c0-.3-.3-.6-.3-.7,.1-.8,.3-1.6,.4-2.5,0-.1,0-.5,0-.8,.1-.2,.2-.3,.3-.5-.4,2-.5,4.1,0,6.3-.1-.6-.2-1.2-.3-1.8"/><path class="am" d="M181.2,169.7c.2,1.6,0,3.4-.4,5.1-.4,1.7-1,3.3-1.4,4.8,1-1.6,1.8-3.7,2.3-5.5,.5-1.8,.7-3.3,1.1-3.6,.4-.3,.6,1.1,.3,3-.1,.9-.4,2-.7,2.9-.3,1-.7,1.9-1,2.6,.2-.4,.2-.4,.5-.7-.2,.4-.5,.7-.5,1.1,.3-.3,.6-.9,.9-1.4,.3-.5,.6-1,.8-1.2,0,.3,0,.5,0,.8,.7-1,1.3-2.5,1.6-4.2,.4-1.6,.5-3.3,.8-4.6-.3,3-.9,6-2.1,9-1.2,3-3,5.9-5.4,8.3-2.4,2.4-5.4,4.4-8.7,5.5-3.3,1.1-6.9,1.5-10.2,1-7.6-.9-14.2-5.3-18.1-11.4-.3-.6-.8-1.7-1.2-2.9-.4-1.2-.7-2.6-.8-3.8-.8-4.1-.5-8.3,.7-12.4,1.4-4.3,4.2-8,7.8-10.7,3.6-2.7,8-4.5,12.7-5,.9-.1,2.1,0,2.4,.3,.2,.1,0,.3-.3,.4-.4,.1-1.1,.2-2.2,.4-3.6,.7-7.2,2.1-10.2,4.2,.1-.2,.5-.6,1.1-.9,.5-.3,1.1-.6,1.4-.9-1.3,.5-2.4,1.1-3.4,1.9-1,.7-2,1.5-3,2.5,1.3-1.3,2.7-2.5,4.2-3.5-1.9,1.2-3.8,2.8-5.4,4.7-1.6,1.9-2.9,4-3.8,6.4-.3,.8-.8,1.6-1.2,2.5-.4,.9-.7,1.9-.6,3.3,.6-3.2,1.9-6.3,3.8-9,1.8-2.7,4.2-5,6.9-6.8,0,0,0,0,0,0,2.4-1.6,4.9-2.7,7.6-3.3-.8,.2-1.7,.5-2.4,.7,3.9-1.1,8-1.3,11.9-.5-2.8-.3-5.7-.2-8.5,.5-2.8,.6-5.5,1.7-7.9,3.3-2.4,1.6-4.5,3.6-6.2,6-1.6,2.4-2.7,5-3.2,7.7,.6-1.5,1.1-3.2,1.8-4.7,.7-1.6,1.7-3,2.7-3.9-3.1,3.9-4.9,8.8-4.8,14v-1.1c-.3,1.6-.2,3.3,.1,4.9,.3,1.6,.9,3.2,1.5,4.7,.1,.3,.2,.5,.3,.8l-.3-.8c-1.1-2.7-1.7-5.6-1.7-8.5,.1,1.3,.3,2.7,.6,4.3,0-.9-.1-2.2-.1-3.4,0-1.7,0-3.3,.3-4.9-.4,2.5-.2,5,.4,7.2-.4-3.3-.2-6.9,1-10-.5,1.8-.8,3.6-.9,5.4-.2,3,.2,6.2,1.4,9.1l-.2-.3c0,.2,.2,.4,.3,.7,.5,1.1,1.1,2.2,1.8,3.3,.6,.9,1.4,1.7,2.3,2.4l.4,.4c-.3-.2-.5-.2,0,.3,.9,1.1,2.2,2,3.5,2.8,1.3,.8,2.8,1.5,4.3,2.2,.8,.4,2,.7,3.2,.8,.3,.1,.5,.1,.7,0,.3,0,.6,0,.8,0,.7,0,1.3,0,2,0-.7,0-1.3,0-2,0h-.8c.2-.1,.4-.2,.7-.2-2.3-.3-4.6-.9-6.7-1.9-2.1-1-4.1-2.4-5.8-4.1,.3,.1,.6,.4,.8,.4-.4-.3-.8-.5-1.1-.8-1.1-1.1-2-2.3-2.9-3.6,.3,.4,.6,.7,.9,.9-1.2-1.8-2.2-3.8-2.8-5.9-.6-2.1-.9-4.3-.9-6.5,.3-4.1,1.9-8.1,4.4-11.2-1.5,1.6-2.7,3.6-3.5,5.8,.9-3,2.5-5.8,4.7-8.1,2.2-2.3,4.9-4,7.9-4.9-1,.7-2.2,1.5-2.6,2.3,.1,.1,1.8-.6,.9,0-1.6,1.2-3,2.2-3.9,3.2-1,1-1.6,1.9-1.6,2.9,0,.2,.9-.3,1.7-.7,.8-.4,1.5-.5,1.1,0-.7,.8-1.8,2.2-2.7,4-.3,.5-.6,1-.8,1.5,0,0,0,.2,0,.4-.7,2-1,4-1.1,5,0,.4,0,.8,0,1.2,0,.2-.1,.4-.2,.6,0,.3,.2,.5,.2,.8,0,1.1,.2,2.2,.5,3.2,0,.6,.2,1.2,.4,1.8,0,0,.1-.2,.2,0,.5,1.3,1.2,2.4,2.1,3.5,.3,.5,.5,1,.7,1.4,.8,.3,1.7,1.1,2.8,1.9,1.1,.8,2.4,1.5,3.5,1.9h0c1.1,.4,2.3,.7,3.5,.9,.2,0,.4,.2,.5,.3,.3,0,.6,0,.8-.1,1,.1,1.8,.3,2.7,.3,.1,0,.4-.3,.7-.4,.6,0,1.3-.2,1.8-.4,.7-.2,1.4-.4,2.1-.6,2.3-.8,4.5-2.1,6.3-3.8,.1,0,.2,0,.3,.1,.2-.4,.6-.7,.8-1,0,0,0,.1,0,.2,.3-.5,.5-.8,.7-1,.2-.2,.5-.5,.8-.9,.1-.2,.1-.4,.2-.7,0,0,.1-.2,.2-.3,1-.8,1.3-2,1.7-3.3,.5-1.2,.8-2.6,1-3.9,.1-1.1,.4-1.5,.6-2.3"/><path class="am" d="M153.9,185.5c1,.7,2,1.3,3.1,1.7-1.2-.4-2.3-.8-3.1-1.7"/><path class="am" d="M151.8,158.9c.5-.1,.9-.3,1.4-.6-2.3,1.6-4.1,3.8-5.2,6.4h0c.4-1.1,1.2-2.2,2-3.2,.8-1,1.6-1.9,1.9-2.6"/><path class="am" d="M151.5,183.5c0,0,.1,0,.2,0,0,0,0,0,0,0,0,0-.1,0-.2,0"/><path class="am" d="M155,152.5h.3c-.8,.2-1.6,.6-2.3,1.1,.6-.4,1.3-.8,2-1.1"/><path class="am" d="M164.2,151.4c1.7,.1,3.5,.5,5.2,1.1,2.1,.9,4,2.1,5.4,3.7-2.9-2.5-6.6-4.2-10.6-4.7"/><path class="am" d="M156.6,156.3c.6-.1,1.2-.2,1.7-.3-.6,.1-1.1,.3-1.7,.5,0-.1,0-.2,0-.2"/><path class="am" d="M149,156.5l.4-.4c-.3,.3-.6,.7-.8,1.1,0-.1,.3-.5,.5-.7"/><path class="am" d="M162.7,155.7c-.4,0-.8,0-1.3,0,.2,0,.5-.1,.7-.2,.1,.1,.3,.2,.5,.3"/><path class="am" d="M168.9,157.2c.5,.2,1,.5,1.4,.8-.6-.3-1.2-.6-1.8-.9,.2,0,.3,0,.4,0"/><path class="al" d="M249.6,179.8c-1.4-1.9-3.8-2.8-6.3-2.8s-5.9,1.3-5.9,4.6c0,7.2,17,3.1,17,15.8s-6.1,11.4-13.1,11.4-8.8-1.4-11.8-4.9l4.8-4.7c1.6,2.4,4.3,3.7,7.1,3.7s6.3-1.6,6.3-4.9c0-7.8-17-3.3-17-16.2s6.6-10.8,13.2-10.8,7.5,1.1,10.3,3.7l-4.7,4.9Z"/><path class="al" d="M276.1,191c-1.4-1.5-3-2.4-4.6-2.4-4.5,0-7.1,3.5-7.1,7.3s2.7,7.3,7.1,7.3,3.6-.8,4.7-2.3l4.1,4.4c-2.5,2.5-6.6,3.4-8.8,3.4-7.4,0-13.2-5.1-13.2-12.8s5.9-12.8,13.2-12.8,6.5,1.1,8.8,3.7l-4.2,4.2Z"/><path class="al" d="M284.6,183.7h6.1v3.8h.1c1.3-2.8,4-4.5,7.2-4.5s1.5,.2,2.2,.4v5.9c-1-.3-2-.5-2.9-.5-5.7,0-6.5,4.8-6.5,6.1v13h-6.1v-24.3Z"/><path class="al" d="M326.8,208h-5.8v-3.9h-.1c-1.1,2.4-3.4,4.5-7.5,4.5-6.5,0-8.9-4.6-8.9-9.6v-15.3h6.1v12.3c0,2.7,.2,7.1,4.5,7.1s5.6-2.9,5.6-6.2v-13.3h6.1v24.3Z"/><path class="al" d="M332.7,183.7h5.8v3.8h.1c1.1-2.3,3.4-4.4,7.5-4.4s6.3,1.5,7.6,4.5c1.8-3.1,4.4-4.5,8-4.5,6.5,0,8.8,4.6,8.8,10.4v14.5h-6.1v-13.8c0-3-.9-5.7-4.5-5.7s-5.2,3.1-5.2,6.3v13.2h-6.1v-14.5c0-3-1.2-5-4.2-5s-5.6,2.9-5.6,6.2v13.3h-6.1v-24.3Z"/><path class="al" d="M379.2,203.4c1.4,0,2.4,1.1,2.4,2.4s-1.1,2.4-2.4,2.4-2.4-1.1-2.4-2.4,1.1-2.4,2.4-2.4"/><path class="al" d="M398.5,205.9c5.7,0,9.3-4.3,9.3-9.6s-3.5-9.6-9.3-9.6-9.3,4.3-9.3,9.6,3.5,9.6,9.3,9.6m0-21.9c7.2,0,12.3,5.2,12.3,12.3s-5.1,12.3-12.3,12.3-12.3-5.2-12.3-12.3,5.1-12.3,12.3-12.3"/><path class="al" d="M416.4,191.2c0-1.7-.3-5.4-.3-6.6h3c0,1.7,.1,3.6,.2,4.1,1.5-2.7,4-4.7,7.5-4.7s1.2,.1,1.8,.3l-.4,3c-.5-.2-.9-.2-1.2-.2-5.3,0-7.7,3.6-7.7,8.2v12.8h-3v-16.8Z"/><path class="al" d="M442.7,186.7c-5.1,0-9.3,4.2-9.3,9.3s4.2,9.3,9.3,9.3,9.3-4.2,9.3-9.3-4.2-9.3-9.3-9.3m12.2,19.7c0,11.6-7.7,13.7-12.5,13.7s-9.2-1.8-11.6-4.9l2.4-2.2c2.1,3,5.6,4.4,9.2,4.4,9.3,0,9.4-8.1,9.4-10.7v-3.2h-.1c-1.8,2.8-4.9,4.6-8.9,4.6-6.9,0-12.5-5.4-12.5-12s5.6-12,12.5-12,7.1,1.8,8.9,4.6h.1v-3.9h3v21.9Z"/></g><path class="al" d="M461.5,179.7h1.7l1.2,3.1,1.2-3.1h1.7v4.8h-1.3v-3.1h0l-1.2,3.1h-.8l-1.2-3.1h0v3.1h-1.3v-4.8Zm-3.7,1.1h-1.4v-1.1h4.1v1.1h-1.4v3.7h-1.3v-3.7Z"/></g></svg>