<?xml version="1.0" encoding="UTF-8"?>
<svg id="Layer_2" data-name="Layer 2" xmlns="http://www.w3.org/2000/svg" viewBox="0 0 597.93 597.43">
  <defs>
    <style>
      .cls-1 {
        stroke: #f8b917;
        stroke-width: 19.95px;
      }

      .cls-1, .cls-2 {
        fill: none;
      }

      .cls-2 {
        stroke: #f7921e;
        stroke-width: 49.87px;
      }

      .cls-3 {
        fill: #1899b5;
      }

      .cls-3, .cls-4, .cls-5, .cls-6 {
        stroke-width: 0px;
      }

      .cls-4 {
        fill: #405a70;
      }

      .cls-5 {
        fill: #fff;
      }

      .cls-6 {
        fill: #f7921e;
      }
    </style>
  </defs>
  <g id="Layer_1-2" data-name="Layer 1">
    <g>
      <g>
        <path class="cls-5" d="m298.85,597.43c164.98,0,298.72-133.74,298.72-298.72S463.82,0,298.85,0,.13,133.74.13,298.72s133.74,298.72,298.72,298.72"/>
        <ellipse class="cls-2" cx="298.96" cy="298.72" rx="274.03" ry="273.78"/>
        <circle class="cls-1" cx="297.85" cy="299.71" r="240.37"/>
      </g>
      <g>
        <path class="cls-6" d="m169.25,265.36h40.92c5.7,0,11.1.52,16.18,1.56,5.08,1.04,9.52,2.83,13.3,5.37,3.79,2.54,6.79,5.97,9.02,10.27,2.23,4.31,3.34,9.72,3.34,16.26s-1.04,11.82-3.11,16.18c-2.08,4.36-4.93,7.83-8.56,10.42-3.63,2.59-7.93,4.43-12.91,5.52-4.98,1.09-10.37,1.63-16.18,1.63h-17.74v42.94h-24.27v-110.16Zm24.27,46.68h16.18c2.18,0,4.28-.21,6.3-.62,2.02-.41,3.84-1.11,5.45-2.1,1.61-.98,2.9-2.33,3.89-4.04.98-1.71,1.48-3.86,1.48-6.46,0-2.8-.65-5.06-1.95-6.77-1.3-1.71-2.96-3.03-4.98-3.97s-4.28-1.53-6.77-1.79c-2.49-.26-4.88-.39-7.16-.39h-12.45v26.14Z"/>
        <path class="cls-6" d="m321.73,292.27c-1.97-2.49-4.64-4.33-8.01-5.52-3.37-1.19-6.56-1.79-9.57-1.79-1.77,0-3.58.21-5.45.62-1.87.42-3.63,1.06-5.29,1.95-1.66.88-3.01,2.05-4.04,3.5-1.04,1.45-1.56,3.22-1.56,5.29,0,3.32,1.25,5.86,3.73,7.62,2.49,1.77,5.63,3.27,9.41,4.51,3.79,1.24,7.86,2.49,12.21,3.73,4.36,1.24,8.43,3.01,12.21,5.29,3.79,2.28,6.92,5.34,9.41,9.18,2.49,3.84,3.73,8.97,3.73,15.4s-1.14,11.46-3.42,16.03c-2.28,4.57-5.37,8.35-9.26,11.36-3.89,3.01-8.4,5.24-13.54,6.69-5.13,1.45-10.56,2.18-16.26,2.18-7.16,0-13.8-1.09-19.92-3.27-6.12-2.18-11.83-5.7-17.12-10.58l17.27-18.98c2.49,3.32,5.63,5.89,9.41,7.7,3.79,1.82,7.7,2.72,11.75,2.72,1.97,0,3.97-.23,5.99-.7,2.02-.47,3.84-1.17,5.45-2.1,1.61-.93,2.9-2.12,3.89-3.58.98-1.45,1.48-3.16,1.48-5.13,0-3.32-1.27-5.94-3.81-7.86-2.54-1.92-5.73-3.55-9.57-4.9-3.84-1.35-7.99-2.7-12.45-4.04-4.46-1.35-8.61-3.16-12.45-5.45-3.84-2.28-7.03-5.29-9.57-9.02-2.54-3.73-3.81-8.66-3.81-14.78s1.17-11.1,3.5-15.56c2.33-4.46,5.45-8.19,9.34-11.2,3.89-3.01,8.38-5.26,13.46-6.77,5.08-1.5,10.32-2.26,15.71-2.26,6.22,0,12.24.88,18.05,2.64,5.81,1.77,11.05,4.72,15.71,8.87l-16.65,18.2Z"/>
        <path class="cls-6" d="m357.52,265.36h73.91v22.41h-49.63v22.4h45.9v22.41h-45.9v42.94h-24.27v-110.16Z"/>
      </g>
      <g>
        <path class="cls-6" d="m211.82,416.89c-.91-1.15-2.14-2-3.7-2.55-1.56-.55-3.03-.83-4.42-.83-.81,0-1.65.1-2.51.29-.86.19-1.68.49-2.44.9-.77.41-1.39.95-1.87,1.62-.48.67-.72,1.48-.72,2.44,0,1.53.57,2.71,1.72,3.52,1.15.81,2.6,1.51,4.34,2.08,1.75.57,3.63,1.15,5.64,1.72,2.01.58,3.89,1.39,5.64,2.44,1.75,1.05,3.2,2.47,4.34,4.24,1.15,1.77,1.72,4.14,1.72,7.11s-.53,5.29-1.58,7.4c-1.05,2.11-2.48,3.85-4.27,5.24-1.79,1.39-3.88,2.42-6.25,3.09-2.37.67-4.87,1.01-7.5,1.01-3.3,0-6.37-.5-9.19-1.51-2.83-1-5.46-2.63-7.9-4.88l7.97-8.76c1.15,1.53,2.6,2.72,4.34,3.55,1.75.84,3.55,1.26,5.42,1.26.91,0,1.83-.11,2.76-.32.93-.22,1.77-.54,2.51-.97.74-.43,1.34-.98,1.79-1.65.46-.67.68-1.46.68-2.37,0-1.53-.59-2.74-1.76-3.63s-2.65-1.64-4.42-2.26c-1.77-.62-3.69-1.24-5.75-1.87-2.06-.62-3.97-1.46-5.75-2.51s-3.24-2.44-4.42-4.17c-1.17-1.72-1.76-4-1.76-6.82s.54-5.12,1.62-7.18c1.08-2.06,2.51-3.78,4.31-5.17s3.87-2.43,6.21-3.12c2.34-.69,4.76-1.04,7.25-1.04,2.87,0,5.65.41,8.33,1.22,2.68.81,5.1,2.18,7.25,4.09l-7.68,8.4Z"/>
        <path class="cls-6" d="m228.34,404.46h11.2v21.11l19.75-21.11h14.65l-22.62,23.63,24.56,27.22h-15.66l-20.68-24.13v24.13h-11.2v-50.84Z"/>
        <path class="cls-6" d="m279.61,404.46h11.2v50.84h-11.2v-50.84Z"/>
        <path class="cls-6" d="m301.44,404.46h11.2v40.5h20.75v10.34h-31.96v-50.84Z"/>
        <path class="cls-6" d="m340,404.46h11.2v40.5h20.75v10.34h-31.96v-50.84Z"/>
        <path class="cls-6" d="m403.26,416.89c-.91-1.15-2.14-2-3.7-2.55-1.56-.55-3.03-.83-4.42-.83-.81,0-1.65.1-2.51.29-.86.19-1.68.49-2.44.9-.77.41-1.39.95-1.87,1.62-.48.67-.72,1.48-.72,2.44,0,1.53.57,2.71,1.72,3.52,1.15.81,2.6,1.51,4.34,2.08,1.75.57,3.63,1.15,5.64,1.72,2.01.58,3.89,1.39,5.64,2.44,1.75,1.05,3.2,2.47,4.34,4.24,1.15,1.77,1.72,4.14,1.72,7.11s-.53,5.29-1.58,7.4c-1.05,2.11-2.48,3.85-4.27,5.24-1.79,1.39-3.88,2.42-6.25,3.09-2.37.67-4.87,1.01-7.5,1.01-3.3,0-6.37-.5-9.19-1.51-2.83-1-5.46-2.63-7.9-4.88l7.97-8.76c1.15,1.53,2.6,2.72,4.34,3.55,1.75.84,3.55,1.26,5.42,1.26.91,0,1.83-.11,2.76-.32.93-.22,1.77-.54,2.51-.97.74-.43,1.34-.98,1.79-1.65.46-.67.68-1.46.68-2.37,0-1.53-.59-2.74-1.76-3.63s-2.65-1.64-4.42-2.26c-1.77-.62-3.69-1.24-5.75-1.87-2.06-.62-3.97-1.46-5.75-2.51s-3.24-2.44-4.42-4.17c-1.17-1.72-1.76-4-1.76-6.82s.54-5.12,1.62-7.18c1.08-2.06,2.51-3.78,4.31-5.17s3.87-2.43,6.21-3.12c2.34-.69,4.76-1.04,7.25-1.04,2.87,0,5.65.41,8.33,1.22,2.68.81,5.1,2.18,7.25,4.09l-7.68,8.4Z"/>
      </g>
      <path class="cls-5" d="m29.74,220.75l2.38-7.5c.33-1.04.74-2,1.23-2.87.49-.87,1.07-1.58,1.76-2.13.69-.55,1.49-.9,2.41-1.06.92-.16,1.98-.05,3.17.33,1.18.37,2.11.88,2.78,1.51.68.63,1.15,1.36,1.41,2.18.26.82.35,1.71.26,2.69-.09.98-.3,2-.64,3.06l-1.03,3.25,7.87,2.5-1.41,4.45-20.19-6.42Zm9.97-1.73l.94-2.97c.13-.4.21-.8.25-1.19.04-.4.02-.77-.07-1.12-.09-.35-.26-.67-.51-.95-.26-.28-.62-.5-1.1-.65-.51-.16-.96-.18-1.35-.04-.39.14-.73.37-1.02.68-.29.32-.53.69-.72,1.14-.19.44-.35.87-.49,1.29l-.73,2.28,4.79,1.52Z"/>
      <path class="cls-5" d="m36.2,201.34l3.05-7.61c.4-1,.88-1.91,1.43-2.73.55-.82,1.19-1.48,1.92-1.97.72-.49,1.55-.79,2.48-.88.93-.09,1.96.1,3.11.56,1.39.56,2.42,1.39,3.11,2.5.68,1.11.87,2.41.58,3.91l10.31-1.67-2.08,5.19-9.51.96-.86,2.14,7.86,3.15-1.74,4.33-19.66-7.89Zm9.88-1.07l1.03-2.55c.16-.39.31-.81.46-1.25.15-.45.22-.87.22-1.28,0-.41-.1-.79-.3-1.14-.2-.35-.57-.63-1.11-.85-.5-.2-.94-.26-1.32-.17-.38.09-.71.25-.99.5-.28.25-.54.57-.75.96-.22.38-.41.77-.56,1.16l-1.14,2.83,4.47,1.79Z"/>
      <path class="cls-5" d="m53.19,187.5c-1.51-.76-2.76-1.71-3.73-2.84-.97-1.13-1.66-2.36-2.07-3.71-.41-1.34-.53-2.76-.36-4.24s.62-2.96,1.37-4.44c.75-1.48,1.67-2.72,2.76-3.74,1.09-1.01,2.3-1.76,3.62-2.23s2.73-.65,4.21-.54c1.49.11,2.99.55,4.5,1.31s2.76,1.71,3.73,2.84c.97,1.13,1.66,2.36,2.07,3.71.41,1.34.53,2.76.36,4.24-.17,1.48-.62,2.96-1.37,4.44s-1.66,2.72-2.76,3.74c-1.09,1.01-2.3,1.75-3.62,2.23-1.32.47-2.73.65-4.21.54-1.49-.11-2.98-.55-4.5-1.31Zm2.18-4.33c.89.45,1.77.72,2.65.82.88.1,1.72.02,2.52-.22.8-.24,1.54-.65,2.21-1.22s1.22-1.3,1.67-2.19c.45-.89.71-1.77.77-2.65.06-.87-.05-1.71-.33-2.5-.28-.79-.72-1.51-1.32-2.16-.6-.65-1.34-1.2-2.24-1.65-.87-.44-1.75-.71-2.64-.81-.89-.1-1.73-.03-2.54.21-.8.24-1.54.65-2.21,1.22-.67.57-1.23,1.3-1.67,2.19s-.7,1.77-.77,2.65c-.06.87.05,1.71.33,2.5.28.79.73,1.51,1.34,2.17.61.65,1.35,1.2,2.22,1.64Z"/>
      <path class="cls-5" d="m56.64,157.95l7.45-12.1,3.67,2.26-5.01,8.13,3.67,2.26,4.63-7.52,3.67,2.26-4.63,7.52,7.03,4.33-2.45,3.97-18.04-11.11Z"/>
      <path class="cls-5" d="m66.96,141.57l8.41-11.68,3.5,2.52-5.68,7.89,3.21,2.31,5.37-7.45,3.5,2.52-5.37,7.45,3.5,2.52,6-8.33,3.5,2.52-8.73,12.12-17.19-12.38Z"/>
      <path class="cls-5" d="m89.62,120.55c-.61-.02-1.21.15-1.8.5-.59.35-1.07.75-1.44,1.19-.22.26-.41.55-.58.88-.17.33-.29.67-.37,1.02-.08.35-.07.7.02,1.03.09.33.28.63.59.88.49.41,1.02.54,1.59.39.57-.15,1.18-.43,1.83-.83s1.34-.85,2.06-1.34c.72-.49,1.48-.87,2.29-1.15.8-.28,1.64-.36,2.52-.26.87.11,1.78.56,2.73,1.35.9.75,1.55,1.58,1.94,2.48.39.9.57,1.82.54,2.77s-.26,1.89-.68,2.82c-.42.94-.98,1.83-1.68,2.67-.88,1.06-1.86,1.9-2.94,2.54s-2.3,1.04-3.67,1.22l-.67-4.89c.8.04,1.56-.11,2.3-.44.74-.33,1.35-.8,1.85-1.4.24-.29.46-.61.64-.97.18-.36.3-.71.36-1.06.06-.35.04-.69-.05-1.01-.09-.32-.29-.61-.58-.85-.49-.41-1.03-.54-1.63-.41-.6.14-1.23.41-1.9.81-.67.4-1.38.85-2.13,1.34-.75.49-1.53.88-2.34,1.17-.81.29-1.65.38-2.51.3-.87-.09-1.75-.51-2.65-1.26-.87-.73-1.49-1.54-1.87-2.43-.37-.89-.54-1.81-.5-2.76.04-.94.25-1.88.66-2.82s.94-1.8,1.6-2.6c.77-.92,1.64-1.7,2.62-2.34.98-.64,2.06-1.05,3.25-1.23l.63,4.7Z"/>
      <path class="cls-5" d="m101.79,107.16c-.61-.05-1.22.08-1.83.39-.61.32-1.12.68-1.51,1.1-.23.25-.44.53-.63.84-.19.32-.33.65-.42,1-.09.35-.11.69-.04,1.03.07.34.24.64.53.92.46.44.99.6,1.56.48.58-.12,1.2-.36,1.87-.72.67-.37,1.39-.77,2.13-1.22.75-.45,1.53-.78,2.35-1.01.82-.23,1.66-.26,2.53-.11.87.16,1.75.66,2.65,1.51.86.81,1.45,1.67,1.79,2.59.34.92.46,1.85.37,2.79-.09.94-.37,1.87-.85,2.78-.47.91-1.09,1.76-1.84,2.56-.94,1-1.97,1.79-3.08,2.36-1.11.57-2.36.9-3.74,1l-.38-4.92c.79.09,1.56-.01,2.32-.3.75-.29,1.4-.72,1.93-1.29.26-.28.49-.59.69-.93.2-.34.34-.69.42-1.04.08-.35.08-.69.01-1.02-.07-.33-.25-.62-.52-.88-.46-.44-1-.6-1.6-.5-.6.1-1.25.33-1.95.69-.7.36-1.43.76-2.21,1.21-.78.45-1.58.79-2.4,1.02-.83.24-1.67.29-2.53.15-.86-.14-1.72-.61-2.57-1.42-.83-.78-1.4-1.63-1.72-2.54-.32-.92-.43-1.84-.34-2.79.09-.94.37-1.87.83-2.78.46-.91,1.05-1.74,1.76-2.5.82-.87,1.74-1.6,2.75-2.18,1.01-.58,2.12-.92,3.31-1.03l.35,4.73Z"/>
      <path class="cls-5" d="m103.39,98.24l3.36-3.24,14.71,15.25-3.36,3.24-14.71-15.25Z"/>
      <path class="cls-5" d="m116.75,99.82c-1.09-1.3-1.85-2.66-2.3-4.08-.45-1.42-.59-2.83-.43-4.22.16-1.4.61-2.74,1.35-4.03.74-1.29,1.74-2.47,3.02-3.53,1.27-1.06,2.61-1.84,4.01-2.34,1.41-.5,2.81-.7,4.21-.61,1.4.09,2.76.48,4.08,1.17,1.32.69,2.52,1.69,3.61,2.99s1.85,2.66,2.3,4.08c.45,1.42.59,2.83.43,4.22-.16,1.39-.61,2.74-1.35,4.03-.74,1.29-1.74,2.47-3.01,3.53-1.27,1.06-2.61,1.84-4.01,2.34-1.4.5-2.81.7-4.21.61-1.4-.09-2.76-.48-4.08-1.17-1.32-.69-2.52-1.69-3.61-2.99Zm3.72-3.11c.64.77,1.34,1.37,2.11,1.8.77.44,1.57.7,2.4.8.83.1,1.67.02,2.51-.24s1.64-.71,2.4-1.35c.76-.64,1.35-1.35,1.75-2.12.4-.78.63-1.59.68-2.42.05-.84-.07-1.67-.36-2.51-.29-.83-.76-1.63-1.4-2.4-.63-.75-1.33-1.35-2.1-1.79-.77-.44-1.58-.71-2.41-.81-.83-.1-1.67-.02-2.51.24-.84.26-1.64.71-2.4,1.34-.77.64-1.35,1.35-1.75,2.13-.4.78-.63,1.59-.69,2.42-.05.84.07,1.68.37,2.52.3.84.76,1.64,1.39,2.39Z"/>
      <path class="cls-5" d="m131.64,73.86l5.24-3.58,15.75,7.06.05-.03-8.31-12.15,3.85-2.64,11.96,17.48-5.04,3.45-16.15-7.22-.05.03,8.52,12.44-3.85,2.64-11.96-17.48Z"/>
      <path class="cls-5" d="m159.53,55.78l3.36-1.9,18.46,13.88-4.58,2.6-3.8-3-7.16,4.06.68,4.78-4.48,2.54-2.48-22.95Zm4.6,4.48l1.01,7,4.5-2.55-5.51-4.44Z"/>
      <path class="cls-5" d="m174.33,47.77l4.22-2,7.23,15.25,7.81-3.71,1.85,3.89-12.03,5.71-9.08-19.14Z"/>
      <path class="cls-5" d="m210.58,38.39c-.52-.32-1.12-.48-1.81-.48-.69,0-1.3.1-1.85.3-.32.12-.63.27-.95.47-.31.2-.59.43-.83.7-.24.27-.41.57-.5.9s-.07.68.06,1.06c.22.6.61.98,1.17,1.14.56.16,1.23.23,2,.21.77-.02,1.58-.06,2.45-.12.87-.06,1.72,0,2.55.16.83.17,1.6.52,2.3,1.05.7.53,1.26,1.38,1.68,2.54.4,1.11.54,2.15.42,3.12-.12.98-.43,1.86-.94,2.66-.51.8-1.18,1.5-2.01,2.09-.83.59-1.77,1.08-2.8,1.45-1.3.46-2.57.7-3.82.7-1.25,0-2.51-.26-3.79-.8l1.89-4.56c.67.44,1.4.7,2.2.78.8.08,1.57,0,2.3-.27.36-.13.7-.3,1.04-.52.34-.22.62-.46.85-.73.23-.27.39-.57.47-.9.08-.33.06-.67-.07-1.03-.21-.6-.62-.99-1.2-1.17s-1.27-.27-2.05-.26c-.78,0-1.62.03-2.52.08-.89.05-1.76-.01-2.61-.18-.84-.16-1.62-.5-2.32-1.01-.7-.51-1.25-1.32-1.65-2.43-.38-1.07-.51-2.08-.38-3.04s.45-1.84.96-2.63c.51-.8,1.17-1.5,2-2.1s1.72-1.08,2.7-1.43c1.13-.4,2.27-.64,3.44-.69s2.31.14,3.42.58l-1.83,4.38Z"/>
      <path class="cls-5" d="m231.46,32.52c-.59-.42-1.25-.68-1.97-.79-.72-.11-1.51-.05-2.35.19-.85.23-1.58.62-2.21,1.14-.63.53-1.13,1.16-1.49,1.89s-.59,1.54-.66,2.43c-.07.89.02,1.81.28,2.75.27.96.66,1.8,1.18,2.51.52.72,1.12,1.29,1.8,1.74.68.44,1.42.73,2.21.86.79.13,1.59.09,2.4-.14.92-.26,1.69-.67,2.29-1.26.6-.58,1.04-1.28,1.31-2.1l4.52,1.76c-.53,1.45-1.38,2.65-2.54,3.59-1.17.95-2.45,1.61-3.85,2-1.6.44-3.14.6-4.62.47-1.48-.12-2.85-.52-4.08-1.18-1.24-.66-2.32-1.58-3.23-2.75-.92-1.17-1.6-2.58-2.05-4.21s-.59-3.19-.41-4.67c.18-1.48.63-2.82,1.35-4.02.72-1.2,1.69-2.24,2.89-3.12,1.21-.87,2.61-1.53,4.2-1.97.58-.16,1.19-.27,1.85-.34.65-.07,1.32-.07,1.98,0,.67.06,1.34.21,2,.44.67.23,1.29.56,1.89,1l-2.68,3.79Z"/>
      <path class="cls-5" d="m238.06,25.31l8.04-1.59c1.06-.21,2.08-.3,3.07-.29s1.89.2,2.7.53c.81.34,1.5.87,2.09,1.6.58.73.99,1.7,1.23,2.91.29,1.47.16,2.79-.4,3.97-.56,1.18-1.55,2.05-2.96,2.62l7.02,7.73-5.49,1.09-5.99-7.45-2.26.45,1.65,8.31-4.58.91-4.12-20.78Zm6.28,7.69l2.7-.54c.41-.08.84-.18,1.3-.3.46-.12.85-.29,1.2-.51.34-.22.6-.51.79-.87.18-.36.22-.83.1-1.39-.1-.53-.3-.93-.57-1.2s-.6-.46-.96-.56c-.37-.1-.77-.14-1.21-.11-.44.03-.87.08-1.28.16l-2.99.59.94,4.73Z"/>
      <path class="cls-5" d="m278.12,32.44c.13,1.25.07,2.42-.19,3.51-.26,1.09-.73,2.06-1.39,2.92-.66.85-1.52,1.56-2.58,2.11-1.06.56-2.32.92-3.77,1.07-1.47.16-2.78.08-3.94-.24-1.16-.32-2.15-.82-2.98-1.51-.83-.69-1.49-1.54-1.98-2.55s-.8-2.14-.94-3.39l-1.4-12.94,4.64-.5,1.38,12.76c.07.65.24,1.25.51,1.78.27.53.61.98,1.03,1.35s.91.63,1.46.81c.55.17,1.13.22,1.75.16.61-.07,1.17-.24,1.66-.53.49-.28.9-.65,1.24-1.1.33-.45.57-.96.72-1.54.15-.58.19-1.19.12-1.85l-1.38-12.76,4.64-.5,1.4,12.94Z"/>
      <path class="cls-5" d="m282.84,19l7.06-.13,5.14,13.73h.06s4.64-13.92,4.64-13.92l7.03-.13.4,21.18-4.67.09-.31-16.24h-.06s-5.26,16.35-5.26,16.35l-3.56.07-5.66-16.14h-.06s.31,16.25.31,16.25l-4.67.09-.4-21.18Z"/>
      <path class="cls-5" d="m322.85,19.69l14.13,1.53-.46,4.28-9.49-1.02-.46,4.28,8.78.95-.46,4.28-8.78-.95-.89,8.21-4.64-.5,2.27-21.06Z"/>
      <path class="cls-5" d="m347.15,22.84l3.8.7,5.21,22.51-5.18-.96-.98-4.75-8.09-1.5-2.55,4.09-5.06-.94,12.86-19.16Zm.64,6.39l-3.73,6,5.09.94-1.36-6.95Z"/>
      <path class="cls-5" d="m375.55,35.01c-.3-.66-.74-1.21-1.31-1.67-.57-.46-1.28-.8-2.13-1.03-.85-.22-1.68-.27-2.49-.13-.81.14-1.56.43-2.24.88-.69.45-1.29,1.04-1.8,1.77-.51.73-.89,1.57-1.14,2.51-.25.96-.34,1.89-.25,2.77.09.88.31,1.68.68,2.41.37.73.86,1.35,1.47,1.86s1.33.88,2.14,1.09c.93.24,1.8.27,2.61.07.81-.2,1.55-.58,2.19-1.15l3.02,3.8c-1.19.99-2.53,1.59-4.01,1.82-1.48.23-2.93.16-4.34-.22-1.6-.42-3.01-1.06-4.23-1.92-1.22-.86-2.19-1.88-2.93-3.08-.74-1.2-1.2-2.53-1.4-4.01-.2-1.48-.08-3.03.35-4.67.43-1.64,1.1-3.05,2-4.24.9-1.19,1.97-2.12,3.2-2.79s2.59-1.09,4.07-1.23c1.48-.14,3.02,0,4.63.42.58.15,1.17.37,1.77.64.6.27,1.17.6,1.72,1,.55.39,1.05.85,1.51,1.39.46.53.83,1.14,1.13,1.81l-4.22,1.92Z"/>
      <path class="cls-5" d="m384.51,32.06l4.43,1.47-6.67,20.11-4.43-1.47,6.67-20.11Z"/>
      <path class="cls-5" d="m394.02,35.27l4.35,1.69-6.09,15.74,8.06,3.12-1.56,4.02-12.42-4.81,7.65-19.75Z"/>
      <path class="cls-5" d="m409.8,41.49l4.27,1.9-8.61,19.36-4.27-1.9,8.61-19.36Z"/>
      <path class="cls-5" d="m420.44,50.99l-5.43-2.66,1.82-3.71,15.05,7.37-1.82,3.71-5.43-2.66-7.5,15.32-4.19-2.05,7.5-15.32Z"/>
      <path class="cls-5" d="m438.84,56.19l3.33,1.95-2.71,22.94-4.55-2.65.68-4.8-7.11-4.14-3.79,2.99-4.45-2.59,18.58-13.69Zm-1.55,6.23l-5.54,4.39,4.47,2.61,1.07-7Z"/>
      <path class="cls-5" d="m451.96,69.11l-4.99-3.41,2.33-3.41,13.83,9.46-2.33,3.41-4.99-3.41-9.63,14.08-3.85-2.64,9.63-14.08Z"/>
      <path class="cls-5" d="m465.65,73.76l3.72,2.82-12.79,16.89-3.72-2.82,12.79-16.89Z"/>
      <path class="cls-5" d="m466.14,87.25c1.1-1.29,2.32-2.27,3.64-2.95,1.33-.68,2.69-1.05,4.09-1.12,1.4-.07,2.8.15,4.2.66,1.4.51,2.73,1.31,3.98,2.39,1.26,1.08,2.25,2.27,2.97,3.57.72,1.3,1.16,2.65,1.3,4.05.14,1.4-.01,2.8-.48,4.22-.46,1.42-1.25,2.77-2.35,4.06s-2.32,2.27-3.64,2.95c-1.33.68-2.69,1.05-4.09,1.12-1.4.07-2.8-.15-4.2-.66-1.4-.51-2.73-1.31-3.98-2.39s-2.25-2.27-2.97-3.57c-.72-1.3-1.16-2.65-1.3-4.05s.02-2.8.48-4.22c.46-1.42,1.25-2.77,2.35-4.06Zm3.68,3.15c-.65.76-1.12,1.55-1.43,2.38-.3.83-.43,1.67-.39,2.5.04.84.26,1.65.66,2.43.39.78.97,1.5,1.73,2.15.76.65,1.55,1.11,2.39,1.38.83.27,1.67.36,2.5.27.84-.08,1.64-.34,2.41-.77.77-.43,1.48-1.02,2.13-1.78.64-.74,1.11-1.53,1.42-2.37.31-.84.44-1.67.4-2.51-.04-.84-.26-1.65-.66-2.43-.39-.78-.97-1.5-1.73-2.15-.76-.65-1.55-1.11-2.39-1.38-.83-.27-1.67-.36-2.5-.27-.84.09-1.64.35-2.42.78-.78.43-1.49,1.02-2.12,1.77Z"/>
      <path class="cls-5" d="m494.02,97.79l4.4,4.56-4.34,16.7.04.04,10.59-10.22,3.24,3.36-15.25,14.71-4.24-4.39,4.43-17.12-.04-.04-10.85,10.47-3.24-3.36,15.25-14.71Z"/>
      <path class="cls-5" d="m520.14,135.72c.15-.59.12-1.22-.08-1.87-.21-.66-.49-1.21-.84-1.67-.21-.27-.45-.52-.73-.76-.28-.24-.58-.43-.91-.58-.33-.15-.66-.22-1.01-.21-.34,0-.67.13-.99.38-.51.39-.75.87-.74,1.46.02.59.15,1.24.4,1.97.25.73.53,1.49.85,2.31s.52,1.64.61,2.49-.01,1.68-.31,2.51c-.3.83-.94,1.61-1.93,2.36-.94.71-1.89,1.15-2.85,1.33s-1.9.15-2.82-.1c-.91-.25-1.78-.68-2.6-1.3-.82-.62-1.56-1.37-2.22-2.24-.83-1.1-1.43-2.24-1.81-3.43-.38-1.19-.5-2.47-.36-3.85l4.92.44c-.22.77-.25,1.55-.09,2.34.16.79.48,1.5.95,2.12.23.3.5.58.8.84.31.25.62.45.95.59.33.14.66.2,1,.18.34-.02.66-.14.96-.37.51-.38.76-.88.76-1.5,0-.61-.12-1.29-.36-2.04-.24-.74-.51-1.54-.82-2.38-.31-.84-.52-1.69-.61-2.54-.1-.85,0-1.69.27-2.51.28-.82.88-1.59,1.82-2.3.91-.69,1.84-1.11,2.79-1.27.96-.16,1.89-.12,2.8.13s1.78.67,2.6,1.28,1.54,1.32,2.17,2.15c.72.95,1.29,1.98,1.69,3.07.4,1.09.56,2.24.46,3.44l-4.72-.44Z"/>
      <path class="cls-5" d="m529.24,139.38l2.54,3.91-7.38,4.79,11.86,2.11,3.33,5.12-13.39-2.54-3.93,14.76-3.55-5.47,3.74-12.7-8.43,5.48-2.54-3.91,17.76-11.54Z"/>
      <path class="cls-5" d="m541.36,158.58l2.3,4.06-18.43,10.45-2.3-4.06,18.43-10.45Z"/>
      <path class="cls-5" d="m546.3,167.47l2.1,4.17-15.07,7.6,3.9,7.72-3.85,1.94-6-11.89,18.91-9.54Z"/>
      <path class="cls-5" d="m553.9,182.98l1.84,4.29-15.5,6.67,3.42,7.94-3.96,1.7-5.26-12.23,19.46-8.37Z"/>
      <path class="cls-5" d="m559.27,210.52c.32-.52.48-1.12.48-1.81,0-.69-.1-1.3-.3-1.85-.12-.32-.27-.63-.47-.95-.2-.31-.43-.59-.7-.83-.27-.24-.57-.41-.9-.5-.33-.09-.68-.07-1.06.06-.6.22-.98.61-1.14,1.17-.16.56-.22,1.23-.2,2,.02.77.06,1.58.12,2.45.06.87,0,1.72-.16,2.55-.17.83-.52,1.6-1.05,2.3-.53.7-1.38,1.26-2.54,1.68-1.11.4-2.15.54-3.12.42-.97-.12-1.86-.43-2.66-.94s-1.49-1.18-2.09-2.02c-.6-.83-1.08-1.77-1.45-2.8-.46-1.29-.7-2.57-.7-3.82,0-1.25.26-2.51.8-3.79l4.56,1.89c-.44.67-.7,1.4-.78,2.21-.08.8,0,1.57.27,2.3.13.36.3.7.52,1.04.22.34.46.62.73.85.27.23.57.39.9.47.33.08.67.06,1.03-.07.6-.22.99-.62,1.17-1.2.18-.59.27-1.27.27-2.05,0-.78-.03-1.62-.08-2.52-.05-.89.01-1.76.18-2.61.16-.84.5-1.62,1.01-2.32.51-.7,1.32-1.25,2.43-1.65,1.07-.38,2.08-.51,3.04-.38.96.13,1.84.45,2.63.96.8.51,1.5,1.17,2.1,2s1.08,1.72,1.43,2.7c.4,1.12.63,2.27.69,3.44.06,1.17-.14,2.31-.58,3.42l-4.38-1.83Z"/>
      <path class="cls-5" d="m569.44,215.52l-.48-1.66.8-.23,1.27,4.37-.79.23-.48-1.66-4.17,1.21-.3-1.04,4.17-1.21Zm1.89,3.53l.46,1.6-3.38,2.6v.04s4.25.38,4.25.38l.46,1.59-4.97,1.44-.3-1.04,4.15-1.21v-.03s-4.62-.4-4.62-.4l-.25-.84,3.68-2.81v-.03s-4.16,1.21-4.16,1.21l-.3-1.05,4.97-1.44Z"/>
      <g>
        <path class="cls-4" d="m155.95,181.58c.66-3.01,1.88-5.92,3.49-8.51,1.61-2.59,3.61-4.85,5.76-6.71-1.72,1.49-3.25,3.19-4.57,5.02.99-1.38,2.04-2.55,3.2-3.61,1.16-1.06,2.43-2.02,3.91-2.9-.35.4-1,.89-1.56,1.38-.57.48-1.06.97-1.13,1.28-3,2.72-5.51,6-7.29,9.66-1.79,3.65-2.84,7.68-3.01,11.74-.42-1.62-.22-2.96.11-4.11.35-1.16.83-2.14,1.09-3.23"/>
        <path class="cls-4" d="m176.04,161.34c-.77.25-1.52.51-2.25.79.76-.34,1.53-.63,2.25-.79"/>
        <path class="cls-4" d="m185.52,214.5c.83-.09,1.66-.22,2.46-.35-.79.2-1.62.29-2.46.35"/>
        <path class="cls-4" d="m157.24,192.07l.36,1.36c.52,3.47,1.7,6.91,3.57,10.07-1.03-1.7-2-3.53-2.72-5.46-.72-1.93-1.18-3.97-1.21-5.97"/>
        <path class="cls-4" d="m157.81,188.27c.02-3.5.99-7.04,2.65-9.87-1.58,2.87-2.52,6.32-2.65,9.87"/>
        <path class="cls-4" d="m202.81,199.64c-.07-.02-.09-.1-.09-.19.03-.08.04-.16.04-.24.64-.94,1.21-1.94,1.71-2.98-.06.28-.04.58-.15.85-.3.57-.56.87-.8,1.2-.24.33-.45.69-.71,1.36"/>
        <path class="cls-4" d="m184.6,214.55l-.09.04c-.29.02-.57.04-.85.05l-.1-.02c.35-.02.69-.04,1.04-.06"/>
        <path class="cls-4" d="m201.99,200.86c-.12-.06-.25-.11-.39-.09.4-.49.79-1.01,1.15-1.54-.01.08-.02.16-.03.22-.13.42-.6.92-.73,1.41"/>
        <path class="cls-4" d="m190.01,208.34c-.38.12-.65.47-.82.58-1.05.07-2.09.07-3.29.06-.18.09-.57.12-.94.27-.23-.1-.46-.19-.71-.27,2.61.03,5.31-.43,7.93-1.42-.68.31-1.4.58-2.17.77"/>
        <path class="cls-4" d="m177.92,165.44c2-.64,4.28-.84,6.51-.76,2.24.08,4.41.41,6.48.62-2.26-.9-5.15-1.4-7.58-1.53-2.42-.15-4.38-.03-4.88-.52-.52-.47,1.24-.99,3.67-1.07,1.21-.04,2.57.03,3.87.19,1.3.16,2.54.4,3.54.59q-.51-.23-1.02-.44c.52.21,1.02.43,1.52.41-.5-.24-1.27-.51-1.99-.75-.72-.24-1.39-.46-1.69-.67.34-.07.68-.13,1.03-.18-1.38-.61-3.5-.97-5.66-1.04-2.17-.08-4.35.13-5.95.15,3.79-.39,7.86-.38,11.95.42,4.08.79,8.19,2.36,11.85,4.8,3.67,2.43,6.89,5.74,9.14,9.64,2.27,3.89,3.57,8.31,3.75,12.66.7,9.74-3.15,19.22-9.95,25.63-.66.58-1.88,1.45-3.34,2.23-1.45.79-3.13,1.48-4.56,1.93-4.93,1.97-10.42,2.67-15.81,2.18-5.73-.73-11.11-3.32-15.43-7.16-4.33-3.85-7.62-8.98-9.46-14.82-.38-1.16-.42-2.64-.17-3.08.12-.22.3-.19.55.25.26.43.57,1.27,1.07,2.62,1.78,4.43,4.4,8.51,7.76,11.88-.32-.07-.85-.55-1.38-1.12-.53-.56-1.07-1.2-1.5-1.55.99,1.48,2.04,2.74,3.19,3.89,1.16,1.14,2.42,2.17,3.89,3.13-1.96-1.28-3.79-2.78-5.41-4.48,2.03,2.12,4.46,4.08,7.22,5.63,2.75,1.55,5.82,2.67,8.97,3.22,1.15.22,2.19.66,3.41.96,1.21.29,2.61.43,4.26-.07-4.21.02-8.44-.87-12.31-2.54-3.87-1.66-7.39-4.09-10.34-7.07.02,0,.03.01.05,0-2.67-2.63-4.56-5.52-6.05-8.79.5,1,1.09,1.98,1.53,2.87-2.36-4.69-3.64-9.75-3.59-14.86.32,3.6,1.19,7.18,2.65,10.54,1.46,3.37,3.52,6.53,6.12,9.19,2.59,2.66,5.71,4.83,9.09,6.28,3.38,1.46,7.03,2.21,10.57,2.19-1.98-.35-4.25-.58-6.43-1.11-2.17-.52-4.23-1.34-5.57-2.46,5.65,2.92,12.34,3.97,18.83,2.68l-1.39.43c2.07-.13,4.16-.7,6.13-1.53,1.98-.83,3.83-1.93,5.54-3.08.31-.2.61-.41.92-.63l-.92.63c-3.19,2.09-6.71,3.48-10.28,4.18,1.6-.5,3.28-1.02,5.26-1.79-1.15.24-2.71.71-4.31,1.01-2.07.53-4.2.81-6.31.83,3.27-.11,6.43-.99,9.02-2.31-4.12,1.33-8.63,1.89-12.9,1.23,2.35.24,4.72.16,7.04-.24,3.91-.46,7.78-1.81,11.18-4.04l-.38.28c.26-.17.51-.35.76-.53,1.31-.89,2.55-1.91,3.69-3.05,1-1.04,1.79-2.23,2.44-3.47l.39-.58c-.16.43-.18.68.35,0,1.16-1.45,2.03-3.21,2.7-5.09.68-1.89,1.18-3.88,1.7-5.96.28-1.1.34-2.63.21-4.26.08-.44,0-.68-.09-.88-.04-.35-.09-.7-.14-1.05-.1-.86-.23-1.72-.47-2.53.17.82.34,1.67.47,2.53l.1.96c-.11-.21-.24-.44-.29-.91.24,2.94-.03,5.98-.81,8.9-.77,2.92-2.05,5.74-3.73,8.29.12-.36.32-.84.38-1.06-.23.56-.49,1.1-.77,1.64-1.13,1.62-2.42,3.14-3.86,4.51.4-.44.73-.89.97-1.33-1.99,1.97-4.28,3.64-6.78,4.94-2.5,1.29-5.21,2.21-8.01,2.68-5.3.63-10.65-.41-15.23-2.78,2.35,1.52,5.2,2.57,8.2,3.02-4.01-.4-7.95-1.77-11.35-3.97-3.41-2.19-6.26-5.24-8.17-8.76,1.09,1.04,2.5,2.41,3.48,2.7.14-.2-1.26-2.17-.28-1.15,1.86,1.78,3.48,3.19,4.98,4.17,1.49.97,2.85,1.49,4.05,1.27.25-.1-.66-1.06-1.28-1.98-.64-.92-1.03-1.77-.31-1.42,1.15.65,3.24,1.75,5.66,2.42.67.26,1.4.48,2.15.65.09.05.27,0,.48-.06,2.67.45,5.24.28,6.65.15.53-.04,1.05-.11,1.57-.19.29.02.54.06.76.15.3-.18.6-.35.91-.5,1.38-.35,2.7-.85,3.95-1.48.74-.26,1.49-.55,2.19-.91-.07-.07-.24-.1-.17-.26,1.46-.97,2.78-2.14,3.94-3.45.55-.46,1.09-.88,1.64-1.22.23-1.03,1-2.39,1.7-3.97.71-1.56,1.34-3.34,1.53-4.87h-.03c.28-1.51.4-3.06.35-4.63.07-.26.15-.52.24-.76-.17-.38-.22-.78-.32-.97-.05-1.26-.11-2.35-.25-3.44-.12-.17-.49-.45-.63-.83-.24-.8-.55-1.54-.91-2.24-.37-.84-.79-1.67-1.27-2.49-1.6-2.74-3.77-5.14-6.34-7.03-.03-.14.02-.27.07-.39-.52-.12-1.06-.58-1.5-.7.1,0,.17-.02.19-.09-.71-.25-1.09-.45-1.45-.68-.36-.23-.69-.49-1.3-.77-.29-.1-.6-.06-.89-.12-.14-.06-.27-.11-.41-.17-1.3-1-2.89-1.12-4.58-1.28-1.7-.29-3.44-.39-5.19-.29-1.38.1-1.99-.14-3.01-.13"/>
        <path class="cls-4" d="m204.64,195.85c.62-1.37,1.11-2.82,1.44-4.31-.22,1.61-.4,3.12-1.44,4.31"/>
        <path class="cls-4" d="m171.57,205.05c-.3-.54-.66-1.08-1.07-1.63,2.57,2.47,5.83,4.22,9.36,5.03v.03c-1.44-.25-3.11-.92-4.57-1.67-1.47-.73-2.73-1.52-3.72-1.77"/>
        <path class="cls-4" d="m202.73,199.45c0-.07.01-.14.03-.23,0,0,0,0,0-.01,0,.07,0,.15-.03.24"/>
        <path class="cls-4" d="m162.59,202.64l-.23-.38c.64.92,1.33,1.8,2.06,2.64-.64-.62-1.26-1.41-1.83-2.26"/>
        <path class="cls-4" d="m158.98,191.36c-.28-2.23-.26-4.52.07-6.76.57-2.86,1.71-5.54,3.29-7.72-2.48,4.29-3.73,9.37-3.36,14.48"/>
        <path class="cls-4" d="m167.12,199.69c-.31-.68-.55-1.4-.76-2.13.3.68.64,1.33,1.02,1.96-.15-.07-.2.1-.27.16"/>
        <path class="cls-4" d="m169.15,209.2l-.54-.4c.51.29,1.02.56,1.55.8-.21-.06-.67-.27-1.01-.4"/>
        <path class="cls-4" d="m164.88,192.16c.06.53.14,1.07.25,1.59-.13-.3-.28-.59-.45-.88.1-.2.15-.44.19-.71"/>
        <path class="cls-4" d="m165.16,183.9c.19-.71.43-1.39.71-2.01-.27.8-.49,1.64-.67,2.48-.05-.21-.09-.38-.04-.47"/>
        <path class="cls-3" d="m171.65,150.12c2.2.95,4.24,2.31,5.97,3.92,1.73,1.61,3.16,3.46,4.27,5.37-.88-1.53-1.95-2.94-3.15-4.22.9.96,1.64,1.93,2.28,2.97.64,1.04,1.18,2.15,1.63,3.4-.25-.33-.53-.89-.82-1.39-.29-.5-.58-.95-.81-1.05-1.63-2.69-3.76-5.08-6.28-6.97-2.52-1.9-5.44-3.29-8.51-4.03,1.29-.08,2.29.27,3.12.7.83.43,1.51.95,2.3,1.31"/>
        <path class="cls-3" d="m184.11,168.39c-.07-.63-.16-1.23-.27-1.83.15.63.25,1.26.27,1.83"/>
        <path class="cls-3" d="m142.17,167.73c-.05.65-.08,1.29-.1,1.92-.04-.63.02-1.28.1-1.92"/>
        <path class="cls-3" d="m163.46,149.55l-1.09.07c-2.72-.12-5.52.27-8.21,1.22,1.45-.53,2.99-1,4.57-1.26,1.58-.26,3.2-.31,4.73-.03"/>
        <path class="cls-3" d="m166.27,150.54c2.67.53,5.22,1.8,7.14,3.48-1.96-1.63-4.45-2.86-7.14-3.48"/>
        <path class="cls-3" d="m150.93,183.07s.09-.05.16-.04c.06.03.12.05.18.06.63.63,1.3,1.21,2.02,1.74-.21-.09-.44-.12-.63-.24-.39-.31-.58-.56-.8-.79-.22-.23-.46-.45-.93-.74"/>
        <path class="cls-3" d="m142.26,167.02l-.02-.07c.03-.22.05-.44.09-.66l.03-.07c-.03.27-.07.53-.11.8"/>
        <path class="cls-3" d="m150.13,182.27c.06-.08.12-.17.13-.28.32.38.65.75,1,1.1-.06-.02-.12-.04-.17-.05-.3-.16-.61-.6-.96-.77"/>
        <path class="cls-3" d="m146.2,172.05c-.03-.3-.26-.56-.32-.71.1-.81.25-1.6.44-2.51-.04-.15,0-.45-.07-.75.11-.16.21-.33.31-.5-.41,1.98-.46,4.1-.1,6.24-.13-.56-.23-1.15-.27-1.77"/>
        <path class="cls-3" d="m180.71,169.21c.19,1.62,0,3.38-.39,5.06-.39,1.69-.96,3.29-1.43,4.84,1.02-1.58,1.83-3.71,2.28-5.53.48-1.82.68-3.32,1.12-3.64.43-.32.57,1.09.27,2.95-.15.93-.4,1.95-.72,2.92-.31.97-.68,1.87-.98,2.6.25-.35.25-.35.49-.71-.24.36-.48.71-.53,1.1.26-.34.58-.89.87-1.4.29-.51.56-.99.76-1.18,0,.27,0,.54-.01.81.67-.96,1.26-2.52,1.63-4.15.38-1.63.54-3.32.76-4.54-.26,2.94-.87,6.03-2.09,9.02-1.2,2.99-3.01,5.87-5.42,8.3-2.39,2.43-5.4,4.38-8.7,5.52-3.3,1.15-6.86,1.48-10.21.98-7.53-.91-14.19-5.24-18.07-11.36-.34-.59-.83-1.65-1.2-2.87-.39-1.22-.66-2.6-.8-3.75-.77-4.04-.49-8.32.68-12.34,1.41-4.25,4.17-7.96,7.74-10.67,3.58-2.72,7.98-4.46,12.7-5,.94-.12,2.08.07,2.38.33.15.12.1.26-.27.38-.37.13-1.05.24-2.16.43-3.64.7-7.14,2.09-10.21,4.14.1-.23.54-.56,1.05-.88.51-.32,1.08-.63,1.41-.91-1.28.53-2.39,1.15-3.44,1.85-1.04.71-2.02,1.52-2.97,2.49,1.27-1.3,2.68-2.47,4.22-3.45-1.92,1.23-3.77,2.79-5.36,4.65-1.58,1.86-2.9,4.03-3.78,6.34-.34.84-.83,1.56-1.24,2.45-.4.88-.71,1.92-.58,3.25.61-3.21,1.91-6.29,3.76-8.98,1.84-2.7,4.21-5.02,6.92-6.82,0,.01-.01.02-.02.04,2.4-1.64,4.88-2.65,7.6-3.3-.84.23-1.67.53-2.41.74,3.93-1.1,7.97-1.32,11.87-.53-2.79-.29-5.65-.16-8.43.45-2.79.61-5.5,1.71-7.91,3.29-2.41,1.58-4.53,3.63-6.14,5.98-1.62,2.35-2.73,5.02-3.23,7.71.56-1.45,1.07-3.15,1.8-4.72.72-1.57,1.65-3.02,2.7-3.87-3.06,3.87-4.85,8.8-4.83,13.92l-.12-1.12c-.21,1.59-.08,3.27.26,4.89.34,1.63.9,3.19,1.52,4.67.11.27.22.53.34.79l-.34-.79c-1.12-2.73-1.66-5.62-1.66-8.44.15,1.29.29,2.65.59,4.26-.01-.9-.14-2.17-.13-3.43-.09-1.65,0-3.31.3-4.92-.4,2.5-.2,5.03.42,7.2-.41-3.33-.16-6.84.98-9.99-.53,1.75-.82,3.57-.86,5.39-.23,3.04.23,6.18,1.42,9.1l-.15-.33c.09.22.19.44.29.66.49,1.13,1.08,2.22,1.78,3.26.65.91,1.44,1.69,2.28,2.37l.38.39c-.3-.18-.49-.24-.05.27.93,1.1,2.15,2.02,3.48,2.81,1.34.8,2.78,1.47,4.29,2.18.79.37,1.95.65,3.21.79.33.12.52.11.68.06.27.02.55.04.82.05.67.06,1.34.08,2,.02-.65,0-1.32,0-2-.02l-.75-.07c.18-.05.37-.12.74-.09-2.28-.25-4.55-.91-6.66-1.93-2.12-1.02-4.07-2.4-5.77-4.06.26.15.6.37.75.45-.39-.26-.76-.54-1.14-.83-1.07-1.1-2.03-2.31-2.87-3.61.28.37.57.69.87.93-1.21-1.81-2.15-3.79-2.76-5.89-.62-2.09-.91-4.29-.86-6.49.3-4.12,1.9-8.03,4.38-11.17-1.51,1.56-2.73,3.57-3.52,5.78.9-2.99,2.52-5.78,4.71-8.04,2.18-2.27,4.92-3.98,7.89-4.92-.95.67-2.21,1.54-2.58,2.25.13.13,1.84-.64.92-.04-1.63,1.15-2.95,2.17-3.92,3.17-.96.99-1.56,1.94-1.57,2.89.03.2.9-.34,1.7-.68.8-.35,1.5-.52,1.13-.02-.67.78-1.82,2.21-2.69,3.95-.3.47-.57.99-.81,1.54-.05.06-.04.2-.03.38-.74,1.96-.99,3.94-1.1,5.04-.05.41-.07.81-.09,1.22-.06.22-.13.4-.23.55.09.26.18.51.25.76.06,1.1.25,2.18.54,3.22.09.6.2,1.21.37,1.8.06-.04.11-.17.22-.09.52,1.25,1.22,2.43,2.05,3.51.27.49.51.96.69,1.43.75.32,1.68,1.12,2.77,1.88,1.09.77,2.35,1.51,3.48,1.89v-.02c1.12.43,2.28.76,3.48.95.19.09.37.19.54.29.32-.07.63-.05.79-.1.97.15,1.8.26,2.66.32.15-.07.41-.31.73-.36.64-.07,1.26-.2,1.84-.36.7-.16,1.39-.35,2.08-.6,2.33-.81,4.48-2.1,6.3-3.78.11,0,.2.06.29.11.17-.37.6-.72.76-1.04-.01.07,0,.13.04.16.29-.5.51-.76.74-1,.23-.24.47-.45.78-.88.12-.2.14-.44.22-.66.07-.09.13-.19.19-.29.96-.84,1.28-2.03,1.65-3.3.47-1.25.81-2.56.99-3.9.13-1.07.4-1.49.55-2.27"/>
        <path class="cls-3" d="m153.55,185.03c.96.68,1.98,1.26,3.07,1.73-1.19-.4-2.32-.76-3.07-1.73"/>
        <path class="cls-3" d="m151.44,158.52c.46-.14.92-.34,1.4-.57-2.26,1.59-4.08,3.81-5.23,6.37h-.02c.4-1.06,1.16-2.23,1.95-3.23.78-1.01,1.57-1.85,1.9-2.57"/>
        <path class="cls-3" d="m151.09,183.04c.05.01.11.03.17.05,0,0,0,0,0,0-.06,0-.12-.03-.18-.06"/>
        <path class="cls-3" d="m154.61,152.05l.32-.12c-.8.35-1.57.74-2.31,1.18.57-.4,1.26-.75,1.99-1.06"/>
        <path class="cls-3" d="m163.74,150.97c1.74.12,3.48.47,5.14,1.06,2.1.86,3.97,2.12,5.4,3.64-2.9-2.52-6.59-4.22-10.54-4.7"/>
        <path class="cls-3" d="m156.18,155.93c.57-.13,1.15-.21,1.73-.26-.56.13-1.11.29-1.65.49.08-.1-.05-.16-.08-.23"/>
        <path class="cls-3" d="m148.63,156.06l.39-.35c-.3.34-.58.7-.84,1.06.08-.15.31-.47.46-.71"/>
        <path class="cls-3" d="m162.26,155.34c-.42-.03-.84-.05-1.25-.04.24-.06.49-.12.74-.21.14.1.31.18.51.25"/>
        <path class="cls-3" d="m168.52,156.78c.51.25.99.53,1.43.84-.57-.33-1.18-.62-1.79-.87.17,0,.3-.01.36.04"/>
        <path class="cls-4" d="m248.93,179.36c-1.37-1.92-3.79-2.83-6.27-2.83-2.93,0-5.87,1.31-5.87,4.59,0,7.17,16.99,3.08,16.99,15.81,0,7.68-6.07,11.41-13.1,11.41-4.45,0-8.8-1.36-11.73-4.85l4.8-4.65c1.57,2.37,4.25,3.74,7.08,3.74s6.27-1.62,6.27-4.9c0-7.83-16.99-3.33-16.99-16.11,0-7.37,6.57-10.81,13.2-10.81,3.74,0,7.48,1.06,10.27,3.69l-4.65,4.9Z"/>
        <path class="cls-4" d="m275.43,190.47c-1.42-1.46-2.98-2.42-4.6-2.42-4.45,0-7.13,3.48-7.13,7.27s2.68,7.27,7.13,7.27c1.87,0,3.59-.81,4.7-2.27l4.05,4.34c-2.48,2.47-6.63,3.38-8.75,3.38-7.33,0-13.2-5.1-13.2-12.73s5.87-12.73,13.2-12.73c3.08,0,6.47,1.11,8.8,3.69l-4.2,4.19Z"/>
        <path class="cls-4" d="m283.82,183.2h6.07v3.84h.1c1.32-2.78,4-4.44,7.18-4.44.76,0,1.47.15,2.18.35v5.86c-1.01-.25-1.97-.45-2.93-.45-5.71,0-6.52,4.8-6.52,6.11v12.98h-6.07v-24.24Z"/>
        <path class="cls-4" d="m326,207.44h-5.77v-3.89h-.1c-1.11,2.42-3.39,4.49-7.43,4.49-6.52,0-8.85-4.59-8.85-9.54v-15.3h6.07v12.27c0,2.68.2,7.12,4.45,7.12,4,0,5.56-2.93,5.56-6.16v-13.23h6.07v24.24Z"/>
        <path class="cls-4" d="m331.82,183.2h5.77v3.79h.1c1.06-2.27,3.39-4.39,7.43-4.39,3.74,0,6.32,1.46,7.59,4.49,1.77-3.08,4.35-4.49,7.99-4.49,6.47,0,8.75,4.6,8.75,10.4v14.44h-6.07v-13.74c0-3.03-.91-5.66-4.5-5.66-3.79,0-5.21,3.13-5.21,6.26v13.13h-6.07v-14.44c0-2.98-1.21-4.95-4.15-4.95-3.99,0-5.56,2.93-5.56,6.16v13.23h-6.07v-24.24Z"/>
        <path class="cls-4" d="m378.2,202.89c1.37,0,2.43,1.06,2.43,2.42s-1.06,2.42-2.43,2.42-2.43-1.06-2.43-2.42,1.06-2.42,2.43-2.42"/>
        <path class="cls-4" d="m397.52,205.32c5.71,0,9.25-4.29,9.25-9.54s-3.54-9.54-9.25-9.54-9.25,4.29-9.25,9.54,3.54,9.54,9.25,9.54m0-21.82c7.18,0,12.29,5.15,12.29,12.27s-5.11,12.27-12.29,12.27-12.29-5.15-12.29-12.27,5.11-12.27,12.29-12.27"/>
        <path class="cls-4" d="m415.32,190.67c0-1.72-.25-5.35-.25-6.56h3.03c.05,1.72.1,3.64.2,4.09,1.52-2.73,3.94-4.7,7.43-4.7.61,0,1.16.1,1.77.25l-.36,2.98c-.45-.15-.86-.2-1.16-.2-5.26,0-7.64,3.64-7.64,8.18v12.73h-3.03v-16.77Z"/>
        <path class="cls-4" d="m441.52,186.23c-5.11,0-9.25,4.14-9.25,9.24s4.15,9.24,9.25,9.24,9.25-4.14,9.25-9.24-4.15-9.24-9.25-9.24m12.19,19.7c0,11.61-7.69,13.64-12.44,13.64s-9.2-1.82-11.58-4.9l2.38-2.22c2.12,2.98,5.56,4.39,9.2,4.39,9.26,0,9.41-8.08,9.41-10.71v-3.23h-.1c-1.77,2.78-4.85,4.55-8.85,4.55-6.88,0-12.49-5.4-12.49-11.97s5.61-11.97,12.49-11.97c4,0,7.08,1.77,8.85,4.55h.1v-3.94h3.03v21.82Z"/>
      </g>
      <path class="cls-4" d="m460.26,179.27h1.7l1.15,3.14,1.15-3.14h1.7v4.82h-1.27v-3.14h-.02l-1.15,3.14h-.82l-1.15-3.14h-.02v3.14h-1.27v-4.82Zm-3.69,1.12h-1.4v-1.12h4.06v1.12h-1.4v3.7h-1.27v-3.7Z"/>
    </g>
  </g>
</svg>