<?xml version="1.0" encoding="UTF-8"?><svg id="b" xmlns="http://www.w3.org/2000/svg" viewBox="0 0 599.5 599"><defs><style>.d{fill:#f7921e;}.e{fill:#fff;}.f{fill:#405a70;}.g{fill:#1899b5;}.h{stroke:#f8b917;stroke-width:20px;}.h,.i{fill:none;}.i{stroke:#f7921e;stroke-width:50px;}</style></defs><g id="c"><circle class="e" cx="303.4" cy="292.2" r="238.8"/><g><ellipse class="i" cx="299.8" cy="299.5" rx="274.8" ry="274.5"/><circle class="h" cx="298.6" cy="300.5" r="241"/></g><g><path class="d" d="M137.2,262.8h38.1c5.3,0,10.3,.5,15.1,1.5,4.7,1,8.9,2.6,12.4,5,3.5,2.4,6.3,5.6,8.4,9.6,2.1,4,3.1,9.1,3.1,15.2s-1,11-2.9,15.1c-1.9,4.1-4.6,7.3-8,9.7-3.4,2.4-7.4,4.1-12,5.1-4.6,1-9.7,1.5-15.1,1.5h-16.5v40h-22.6v-102.7Zm22.6,43.5h15.1c2,0,4-.2,5.9-.6,1.9-.4,3.6-1,5.1-2,1.5-.9,2.7-2.2,3.6-3.8,.9-1.6,1.4-3.6,1.4-6s-.6-4.7-1.8-6.3c-1.2-1.6-2.8-2.8-4.6-3.7-1.9-.9-4-1.4-6.3-1.7-2.3-.2-4.5-.4-6.7-.4h-11.6v24.4Z"/><path class="d" d="M279.3,287.9c-1.8-2.3-4.3-4-7.5-5.1-3.1-1.1-6.1-1.7-8.9-1.7s-3.3,.2-5.1,.6c-1.7,.4-3.4,1-4.9,1.8-1.5,.8-2.8,1.9-3.8,3.3-1,1.4-1.5,3-1.5,4.9,0,3.1,1.2,5.5,3.5,7.1,2.3,1.6,5.2,3,8.8,4.2,3.5,1.2,7.3,2.3,11.4,3.5,4.1,1.2,7.9,2.8,11.4,4.9,3.5,2.1,6.5,5,8.8,8.6,2.3,3.6,3.5,8.4,3.5,14.4s-1.1,10.7-3.2,14.9c-2.1,4.3-5,7.8-8.6,10.6-3.6,2.8-7.8,4.9-12.6,6.2s-9.8,2-15.2,2-12.9-1-18.6-3c-5.7-2-11-5.3-15.9-9.9l16.1-17.7c2.3,3.1,5.2,5.5,8.8,7.2,3.5,1.7,7.2,2.5,10.9,2.5s3.7-.2,5.6-.7c1.9-.4,3.6-1.1,5.1-2,1.5-.9,2.7-2,3.6-3.3,.9-1.4,1.4-2.9,1.4-4.8,0-3.1-1.2-5.5-3.6-7.3-2.4-1.8-5.3-3.3-8.9-4.6-3.6-1.3-7.4-2.5-11.6-3.8-4.2-1.3-8-2.9-11.6-5.1-3.6-2.1-6.5-4.9-8.9-8.4-2.4-3.5-3.6-8.1-3.6-13.8s1.1-10.3,3.3-14.5c2.2-4.2,5.1-7.6,8.7-10.4,3.6-2.8,7.8-4.9,12.5-6.3,4.7-1.4,9.6-2.1,14.6-2.1s11.4,.8,16.8,2.5c5.4,1.6,10.3,4.4,14.6,8.3l-15.5,17Z"/><path class="d" d="M312.6,262.8h68.9v20.9h-46.3v20.9h42.8v20.9h-42.8v40h-22.6v-102.7Z"/><path class="d" d="M448.5,287.9c-1.8-2.3-4.3-4-7.5-5.1-3.1-1.1-6.1-1.7-8.9-1.7s-3.3,.2-5.1,.6c-1.7,.4-3.4,1-4.9,1.8-1.5,.8-2.8,1.9-3.8,3.3-1,1.4-1.5,3-1.5,4.9,0,3.1,1.2,5.5,3.5,7.1,2.3,1.6,5.2,3,8.8,4.2,3.5,1.2,7.3,2.3,11.4,3.5,4.1,1.2,7.9,2.8,11.4,4.9,3.5,2.1,6.5,5,8.8,8.6,2.3,3.6,3.5,8.4,3.5,14.4s-1.1,10.7-3.2,14.9c-2.1,4.3-5,7.8-8.6,10.6-3.6,2.8-7.8,4.9-12.6,6.2s-9.8,2-15.2,2-12.9-1-18.6-3c-5.7-2-11-5.3-16-9.9l16.1-17.7c2.3,3.1,5.2,5.5,8.8,7.2,3.5,1.7,7.2,2.5,10.9,2.5s3.7-.2,5.6-.7c1.9-.4,3.6-1.1,5.1-2,1.5-.9,2.7-2,3.6-3.3,.9-1.4,1.4-2.9,1.4-4.8,0-3.1-1.2-5.5-3.6-7.3-2.4-1.8-5.3-3.3-8.9-4.6-3.6-1.3-7.4-2.5-11.6-3.8-4.2-1.3-8-2.9-11.6-5.1-3.6-2.1-6.5-4.9-8.9-8.4-2.4-3.5-3.6-8.1-3.6-13.8s1.1-10.3,3.3-14.5c2.2-4.2,5.1-7.6,8.7-10.4,3.6-2.8,7.8-4.9,12.5-6.3,4.7-1.4,9.6-2.1,14.6-2.1s11.4,.8,16.8,2.5c5.4,1.6,10.3,4.4,14.6,8.3l-15.5,17Z"/></g><path class="e" d="M29.9,221.3l2.4-7.5c.3-1,.7-2,1.2-2.9,.5-.9,1.1-1.6,1.8-2.1,.7-.5,1.5-.9,2.4-1.1s2,0,3.2,.3c1.2,.4,2.1,.9,2.8,1.5s1.2,1.4,1.4,2.2c.3,.8,.4,1.7,.3,2.7,0,1-.3,2-.6,3.1l-1,3.3,7.9,2.5-1.4,4.5-20.2-6.4Zm10-1.7l.9-3c.1-.4,.2-.8,.3-1.2,0-.4,0-.8,0-1.1,0-.4-.3-.7-.5-1-.3-.3-.6-.5-1.1-.6-.5-.2-1-.2-1.4,0-.4,.1-.7,.4-1,.7-.3,.3-.5,.7-.7,1.1-.2,.4-.4,.9-.5,1.3l-.7,2.3,4.8,1.5Z"/><path class="e" d="M36.3,201.8l3.1-7.6c.4-1,.9-1.9,1.4-2.7,.6-.8,1.2-1.5,1.9-2,.7-.5,1.6-.8,2.5-.9,.9,0,2,0,3.1,.6,1.4,.6,2.4,1.4,3.1,2.5,.7,1.1,.9,2.4,.6,3.9l10.3-1.7-2.1,5.2-9.5,1-.9,2.1,7.9,3.2-1.7,4.3-19.7-7.9Zm9.9-1.1l1-2.6c.2-.4,.3-.8,.5-1.3s.2-.9,.2-1.3,0-.8-.3-1.1c-.2-.4-.6-.6-1.1-.9-.5-.2-.9-.3-1.3-.2-.4,0-.7,.3-1,.5-.3,.3-.5,.6-.8,1-.2,.4-.4,.8-.6,1.2l-1.1,2.8,4.5,1.8Z"/><path class="e" d="M53.3,188c-1.5-.8-2.8-1.7-3.7-2.8-1-1.1-1.7-2.4-2.1-3.7-.4-1.3-.5-2.8-.4-4.2,.2-1.5,.6-3,1.4-4.4,.7-1.5,1.7-2.7,2.8-3.7,1.1-1,2.3-1.8,3.6-2.2,1.3-.5,2.7-.7,4.2-.5,1.5,.1,3,.6,4.5,1.3s2.8,1.7,3.7,2.8c1,1.1,1.7,2.4,2.1,3.7,.4,1.3,.5,2.8,.4,4.2-.2,1.5-.6,3-1.4,4.4-.7,1.5-1.7,2.7-2.8,3.7-1.1,1-2.3,1.8-3.6,2.2-1.3,.5-2.7,.7-4.2,.5-1.5-.1-3-.6-4.5-1.3Zm2.2-4.3c.9,.5,1.8,.7,2.7,.8,.9,0,1.7,0,2.5-.2,.8-.2,1.5-.6,2.2-1.2,.7-.6,1.2-1.3,1.7-2.2,.4-.9,.7-1.8,.8-2.7,0-.9,0-1.7-.3-2.5-.3-.8-.7-1.5-1.3-2.2-.6-.7-1.3-1.2-2.2-1.7-.9-.4-1.8-.7-2.6-.8-.9-.1-1.7,0-2.5,.2s-1.5,.6-2.2,1.2c-.7,.6-1.2,1.3-1.7,2.2-.4,.9-.7,1.8-.8,2.7,0,.9,0,1.7,.3,2.5,.3,.8,.7,1.5,1.3,2.2,.6,.7,1.4,1.2,2.2,1.6Z"/><path class="e" d="M56.8,158.4l7.5-12.1,3.7,2.3-5,8.1,3.7,2.3,4.6-7.5,3.7,2.3-4.6,7.5,7,4.3-2.5,4-18.1-11.1Z"/><path class="e" d="M67.1,141.9l8.4-11.7,3.5,2.5-5.7,7.9,3.2,2.3,5.4-7.5,3.5,2.5-5.4,7.5,3.5,2.5,6-8.4,3.5,2.5-8.8,12.1-17.2-12.4Z"/><path class="e" d="M89.8,120.8c-.6,0-1.2,.2-1.8,.5-.6,.4-1.1,.8-1.4,1.2-.2,.3-.4,.6-.6,.9-.2,.3-.3,.7-.4,1s0,.7,0,1c0,.3,.3,.6,.6,.9,.5,.4,1,.5,1.6,.4,.6-.1,1.2-.4,1.8-.8,.7-.4,1.3-.9,2.1-1.3,.7-.5,1.5-.9,2.3-1.2,.8-.3,1.6-.4,2.5-.3,.9,.1,1.8,.6,2.7,1.4,.9,.8,1.6,1.6,1.9,2.5,.4,.9,.6,1.8,.5,2.8,0,.9-.3,1.9-.7,2.8-.4,.9-1,1.8-1.7,2.7-.9,1.1-1.9,1.9-2.9,2.5-1.1,.6-2.3,1-3.7,1.2l-.7-4.9c.8,0,1.6-.1,2.3-.4s1.4-.8,1.9-1.4c.2-.3,.5-.6,.6-1,.2-.4,.3-.7,.4-1.1,0-.4,0-.7,0-1,0-.3-.3-.6-.6-.9-.5-.4-1-.5-1.6-.4-.6,.1-1.2,.4-1.9,.8-.7,.4-1.4,.8-2.1,1.3-.8,.5-1.5,.9-2.3,1.2-.8,.3-1.7,.4-2.5,.3-.9,0-1.8-.5-2.7-1.3-.9-.7-1.5-1.5-1.9-2.4-.4-.9-.5-1.8-.5-2.8,0-.9,.3-1.9,.7-2.8,.4-.9,.9-1.8,1.6-2.6,.8-.9,1.6-1.7,2.6-2.3,1-.6,2.1-1.1,3.3-1.2l.6,4.7Z"/><path class="e" d="M102,107.4c-.6,0-1.2,0-1.8,.4-.6,.3-1.1,.7-1.5,1.1-.2,.2-.4,.5-.6,.8-.2,.3-.3,.7-.4,1s-.1,.7,0,1c0,.3,.2,.6,.5,.9,.5,.4,1,.6,1.6,.5,.6-.1,1.2-.4,1.9-.7,.7-.4,1.4-.8,2.1-1.2,.8-.4,1.5-.8,2.4-1,.8-.2,1.7-.3,2.5-.1,.9,.2,1.8,.7,2.7,1.5,.9,.8,1.5,1.7,1.8,2.6,.3,.9,.5,1.9,.4,2.8,0,.9-.4,1.9-.9,2.8-.5,.9-1.1,1.8-1.8,2.6-.9,1-2,1.8-3.1,2.4-1.1,.6-2.4,.9-3.7,1l-.4-4.9c.8,0,1.6,0,2.3-.3,.8-.3,1.4-.7,1.9-1.3,.3-.3,.5-.6,.7-.9,.2-.3,.3-.7,.4-1,0-.3,0-.7,0-1,0-.3-.2-.6-.5-.9-.5-.4-1-.6-1.6-.5-.6,.1-1.3,.3-2,.7-.7,.4-1.4,.8-2.2,1.2-.8,.4-1.6,.8-2.4,1-.8,.2-1.7,.3-2.5,.1-.9-.1-1.7-.6-2.6-1.4-.8-.8-1.4-1.6-1.7-2.5-.3-.9-.4-1.8-.3-2.8,0-.9,.4-1.9,.8-2.8,.5-.9,1-1.7,1.8-2.5,.8-.9,1.7-1.6,2.8-2.2s2.1-.9,3.3-1l.4,4.7Z"/><path class="e" d="M103.7,98.5l3.4-3.2,14.7,15.3-3.4,3.2-14.7-15.3Z"/><path class="e" d="M117.1,100.1c-1.1-1.3-1.9-2.7-2.3-4.1-.4-1.4-.6-2.8-.4-4.2,.2-1.4,.6-2.7,1.4-4,.7-1.3,1.7-2.5,3-3.5s2.6-1.8,4-2.3c1.4-.5,2.8-.7,4.2-.6,1.4,0,2.8,.5,4.1,1.2s2.5,1.7,3.6,3c1.1,1.3,1.9,2.7,2.3,4.1,.4,1.4,.6,2.8,.4,4.2-.2,1.4-.6,2.7-1.4,4s-1.7,2.5-3,3.5-2.6,1.8-4,2.3c-1.4,.5-2.8,.7-4.2,.6-1.4,0-2.8-.5-4.1-1.2-1.3-.7-2.5-1.7-3.6-3Zm3.7-3.1c.6,.8,1.3,1.4,2.1,1.8,.8,.4,1.6,.7,2.4,.8,.8,0,1.7,0,2.5-.2,.8-.3,1.6-.7,2.4-1.3s1.4-1.4,1.8-2.1c.4-.8,.6-1.6,.7-2.4,0-.8,0-1.7-.4-2.5-.3-.8-.8-1.6-1.4-2.4-.6-.8-1.3-1.4-2.1-1.8-.8-.4-1.6-.7-2.4-.8-.8,0-1.7,0-2.5,.2-.8,.3-1.6,.7-2.4,1.3s-1.4,1.4-1.8,2.1c-.4,.8-.6,1.6-.7,2.4,0,.8,0,1.7,.4,2.5,.3,.8,.8,1.6,1.4,2.4Z"/><path class="e" d="M132,74l5.2-3.6,15.8,7.1h0l-8.3-12.2,3.9-2.6,12,17.5-5.1,3.5-16.2-7.2h0l8.5,12.5-3.9,2.6-12-17.5Z"/><path class="e" d="M159.9,55.9l3.4-1.9,18.5,13.9-4.6,2.6-3.8-3-7.2,4.1,.7,4.8-4.5,2.5-2.5-23Zm4.6,4.5l1,7,4.5-2.6-5.5-4.5Z"/><path class="e" d="M174.8,47.9l4.2-2,7.3,15.3,7.8-3.7,1.9,3.9-12.1,5.7-9.1-19.2Z"/><path class="e" d="M211.1,38.5c-.5-.3-1.1-.5-1.8-.5-.7,0-1.3,.1-1.9,.3-.3,.1-.6,.3-.9,.5-.3,.2-.6,.4-.8,.7-.2,.3-.4,.6-.5,.9s0,.7,0,1.1c.2,.6,.6,1,1.2,1.1,.6,.2,1.2,.2,2,.2,.8,0,1.6,0,2.5-.1,.9,0,1.7,0,2.6,.2,.8,.2,1.6,.5,2.3,1.1,.7,.5,1.3,1.4,1.7,2.6,.4,1.1,.5,2.2,.4,3.1s-.4,1.9-.9,2.7c-.5,.8-1.2,1.5-2,2.1-.8,.6-1.8,1.1-2.8,1.5-1.3,.5-2.6,.7-3.8,.7-1.3,0-2.5-.3-3.8-.8l1.9-4.6c.7,.4,1.4,.7,2.2,.8,.8,0,1.6,0,2.3-.3,.4-.1,.7-.3,1-.5,.3-.2,.6-.5,.9-.7s.4-.6,.5-.9,0-.7,0-1c-.2-.6-.6-1-1.2-1.2-.6-.2-1.3-.3-2.1-.3-.8,0-1.6,0-2.5,0-.9,0-1.8,0-2.6-.2-.8-.2-1.6-.5-2.3-1-.7-.5-1.3-1.3-1.7-2.4-.4-1.1-.5-2.1-.4-3.1s.5-1.8,1-2.6c.5-.8,1.2-1.5,2-2.1,.8-.6,1.7-1.1,2.7-1.4,1.1-.4,2.3-.6,3.4-.7,1.2,0,2.3,.1,3.4,.6l-1.8,4.4Z"/><path class="e" d="M232.1,32.6c-.6-.4-1.3-.7-2-.8s-1.5,0-2.4,.2-1.6,.6-2.2,1.1c-.6,.5-1.1,1.2-1.5,1.9-.4,.7-.6,1.5-.7,2.4s0,1.8,.3,2.8c.3,1,.7,1.8,1.2,2.5,.5,.7,1.1,1.3,1.8,1.7,.7,.4,1.4,.7,2.2,.9s1.6,0,2.4-.1c.9-.3,1.7-.7,2.3-1.3,.6-.6,1-1.3,1.3-2.1l4.5,1.8c-.5,1.5-1.4,2.7-2.5,3.6s-2.5,1.6-3.9,2c-1.6,.4-3.1,.6-4.6,.5-1.5-.1-2.9-.5-4.1-1.2s-2.3-1.6-3.2-2.8c-.9-1.2-1.6-2.6-2.1-4.2s-.6-3.2-.4-4.7c.2-1.5,.6-2.8,1.4-4,.7-1.2,1.7-2.2,2.9-3.1,1.2-.9,2.6-1.5,4.2-2,.6-.2,1.2-.3,1.9-.3s1.3,0,2,0c.7,0,1.3,.2,2,.4,.7,.2,1.3,.6,1.9,1l-2.7,3.8Z"/><path class="e" d="M238.7,25.4l8.1-1.6c1.1-.2,2.1-.3,3.1-.3,1,0,1.9,.2,2.7,.5s1.5,.9,2.1,1.6c.6,.7,1,1.7,1.2,2.9,.3,1.5,.2,2.8-.4,4-.6,1.2-1.6,2.1-3,2.6l7,7.7-5.5,1.1-6-7.5-2.3,.4,1.7,8.3-4.6,.9-4.1-20.8Zm6.3,7.7l2.7-.5c.4,0,.8-.2,1.3-.3,.5-.1,.9-.3,1.2-.5,.3-.2,.6-.5,.8-.9,.2-.4,.2-.8,.1-1.4-.1-.5-.3-.9-.6-1.2-.3-.3-.6-.5-1-.6-.4,0-.8-.1-1.2-.1-.4,0-.9,0-1.3,.2l-3,.6,.9,4.7Z"/><path class="e" d="M278.9,32.5c.1,1.3,0,2.4-.2,3.5s-.7,2.1-1.4,2.9c-.7,.9-1.5,1.6-2.6,2.1-1.1,.6-2.3,.9-3.8,1.1-1.5,.2-2.8,0-3.9-.2-1.2-.3-2.2-.8-3-1.5-.8-.7-1.5-1.5-2-2.6-.5-1-.8-2.1-.9-3.4l-1.4-13,4.7-.5,1.4,12.8c0,.7,.2,1.3,.5,1.8,.3,.5,.6,1,1,1.4,.4,.4,.9,.6,1.5,.8,.6,.2,1.1,.2,1.8,.2,.6,0,1.2-.2,1.7-.5s.9-.7,1.2-1.1c.3-.4,.6-1,.7-1.5,.2-.6,.2-1.2,.1-1.9l-1.4-12.8,4.7-.5,1.4,13Z"/><path class="e" d="M283.6,19h7.1l5.2,13.6h0l4.7-14h7l.4,21.1h-4.7l-.3-16.2h0l-5.3,16.4h-3.6l-5.7-16.1h0l.3,16.3h-4.7l-.4-21.1Z"/><path class="e" d="M323.7,19.7l14.2,1.5-.5,4.3-9.5-1-.5,4.3,8.8,.9-.5,4.3-8.8-1-.9,8.2-4.7-.5,2.3-21.1Z"/><path class="e" d="M348,22.9l3.8,.7,5.2,22.6-5.2-1-1-4.8-8.1-1.5-2.6,4.1-5.1-.9,12.9-19.2Zm.6,6.4l-3.7,6,5.1,.9-1.4-7Z"/><path class="e" d="M376.5,35.1c-.3-.7-.7-1.2-1.3-1.7-.6-.5-1.3-.8-2.1-1-.8-.2-1.7-.3-2.5-.1-.8,.1-1.6,.4-2.2,.9-.7,.4-1.3,1-1.8,1.8-.5,.7-.9,1.6-1.1,2.5-.3,1-.3,1.9-.2,2.8,0,.9,.3,1.7,.7,2.4,.4,.7,.9,1.3,1.5,1.9,.6,.5,1.3,.9,2.1,1.1,.9,.2,1.8,.3,2.6,0,.8-.2,1.5-.6,2.2-1.2l3,3.8c-1.2,1-2.5,1.6-4,1.8-1.5,.2-2.9,.2-4.3-.2-1.6-.4-3-1.1-4.2-1.9-1.2-.9-2.2-1.9-2.9-3.1s-1.2-2.5-1.4-4c-.2-1.5,0-3,.4-4.7,.4-1.6,1.1-3.1,2-4.2,.9-1.2,2-2.1,3.2-2.8s2.6-1.1,4.1-1.2c1.5-.1,3,0,4.6,.4,.6,.2,1.2,.4,1.8,.6,.6,.3,1.2,.6,1.7,1,.5,.4,1.1,.9,1.5,1.4,.5,.5,.8,1.1,1.1,1.8l-4.2,1.9Z"/><path class="e" d="M385.5,32.1l4.4,1.5-6.7,20.2-4.4-1.5,6.7-20.2Z"/><path class="e" d="M395.1,35.3l4.4,1.7-6.1,15.8,8.1,3.1-1.6,4-12.4-4.8,7.7-19.8Z"/><path class="e" d="M410.9,41.6l4.3,1.9-8.6,19.4-4.3-1.9,8.6-19.4Z"/><path class="e" d="M421.6,51.1l-5.4-2.7,1.8-3.7,15.1,7.4-1.8,3.7-5.4-2.7-7.5,15.4-4.2-2.1,7.5-15.4Z"/><path class="e" d="M440,56.3l3.3,1.9-2.7,23-4.6-2.7,.7-4.8-7.1-4.2-3.8,3-4.5-2.6,18.6-13.7Zm-1.6,6.2l-5.6,4.4,4.5,2.6,1.1-7Z"/><path class="e" d="M453.1,69.3l-5-3.4,2.3-3.4,13.9,9.5-2.3,3.4-5-3.4-9.7,14.1-3.9-2.6,9.7-14.1Z"/><path class="e" d="M466.9,74l3.7,2.8-12.8,16.9-3.7-2.8,12.8-16.9Z"/><path class="e" d="M467.3,87.5c1.1-1.3,2.3-2.3,3.7-3,1.3-.7,2.7-1.1,4.1-1.1s2.8,.1,4.2,.7c1.4,.5,2.7,1.3,4,2.4s2.3,2.3,3,3.6c.7,1.3,1.2,2.7,1.3,4.1s0,2.8-.5,4.2c-.5,1.4-1.2,2.8-2.4,4.1s-2.3,2.3-3.7,3-2.7,1.1-4.1,1.1c-1.4,0-2.8-.1-4.2-.7-1.4-.5-2.7-1.3-4-2.4-1.3-1.1-2.3-2.3-3-3.6-.7-1.3-1.2-2.7-1.3-4.1-.1-1.4,0-2.8,.5-4.2,.5-1.4,1.2-2.8,2.4-4.1Zm3.7,3.2c-.7,.8-1.1,1.6-1.4,2.4-.3,.8-.4,1.7-.4,2.5,0,.8,.3,1.7,.7,2.4s1,1.5,1.7,2.2,1.6,1.1,2.4,1.4c.8,.3,1.7,.4,2.5,.3,.8,0,1.6-.3,2.4-.8,.8-.4,1.5-1,2.1-1.8,.6-.7,1.1-1.5,1.4-2.4,.3-.8,.4-1.7,.4-2.5,0-.8-.3-1.7-.7-2.4-.4-.8-1-1.5-1.7-2.2s-1.6-1.1-2.4-1.4c-.8-.3-1.7-.4-2.5-.3-.8,0-1.6,.3-2.4,.8-.8,.4-1.5,1-2.1,1.8Z"/><path class="e" d="M495.3,98l4.4,4.6-4.4,16.7h0l10.6-10.2,3.2,3.4-15.3,14.7-4.2-4.4,4.4-17.2h0l-10.9,10.5-3.2-3.4,15.3-14.7Z"/><path class="e" d="M521.6,136.1c.2-.6,.1-1.2,0-1.9-.2-.7-.5-1.2-.8-1.7-.2-.3-.4-.5-.7-.8s-.6-.4-.9-.6c-.3-.2-.7-.2-1-.2-.3,0-.7,.1-1,.4-.5,.4-.8,.9-.7,1.5,0,.6,.2,1.2,.4,2,.2,.7,.5,1.5,.8,2.3,.3,.8,.5,1.6,.6,2.5s0,1.7-.3,2.5c-.3,.8-.9,1.6-1.9,2.4-.9,.7-1.9,1.2-2.9,1.3-1,.2-1.9,.1-2.8-.1-.9-.2-1.8-.7-2.6-1.3-.8-.6-1.6-1.4-2.2-2.2-.8-1.1-1.4-2.2-1.8-3.4-.4-1.2-.5-2.5-.4-3.9l4.9,.4c-.2,.8-.2,1.5,0,2.3,.2,.8,.5,1.5,.9,2.1,.2,.3,.5,.6,.8,.8,.3,.3,.6,.5,1,.6,.3,.1,.7,.2,1,.2,.3,0,.7-.1,1-.4,.5-.4,.8-.9,.8-1.5,0-.6-.1-1.3-.4-2-.2-.7-.5-1.5-.8-2.4-.3-.8-.5-1.7-.6-2.5,0-.9,0-1.7,.3-2.5,.3-.8,.9-1.6,1.8-2.3,.9-.7,1.8-1.1,2.8-1.3,1-.2,1.9-.1,2.8,.1,.9,.2,1.8,.7,2.6,1.3,.8,.6,1.5,1.3,2.2,2.2,.7,1,1.3,2,1.7,3.1,.4,1.1,.6,2.2,.5,3.4l-4.7-.4Z"/><path class="e" d="M530.7,139.7l2.5,3.9-7.4,4.8,11.9,2.1,3.3,5.1-13.4-2.5-3.9,14.8-3.6-5.5,3.7-12.7-8.5,5.5-2.6-3.9,17.8-11.6Z"/><path class="e" d="M542.8,159l2.3,4.1-18.5,10.5-2.3-4.1,18.5-10.5Z"/><path class="e" d="M547.7,167.9l2.1,4.2-15.1,7.6,3.9,7.7-3.9,1.9-6-11.9,19-9.6Z"/><path class="e" d="M555.4,183.4l1.8,4.3-15.5,6.7,3.4,8-4,1.7-5.3-12.3,19.5-8.4Z"/><path class="e" d="M560.7,211.1c.3-.5,.5-1.1,.5-1.8,0-.7-.1-1.3-.3-1.9-.1-.3-.3-.6-.5-.9-.2-.3-.4-.6-.7-.8-.3-.2-.6-.4-.9-.5-.3,0-.7,0-1.1,0-.6,.2-1,.6-1.1,1.2-.2,.6-.2,1.2-.2,2s0,1.6,.1,2.5c0,.9,0,1.7-.2,2.6-.2,.8-.5,1.6-1.1,2.3-.5,.7-1.4,1.3-2.6,1.7-1.1,.4-2.2,.5-3.1,.4-1-.1-1.9-.4-2.7-.9-.8-.5-1.5-1.2-2.1-2-.6-.8-1.1-1.8-1.5-2.8-.5-1.3-.7-2.6-.7-3.8,0-1.3,.3-2.5,.8-3.8l4.6,1.9c-.4,.7-.7,1.4-.8,2.2,0,.8,0,1.6,.3,2.3,.1,.4,.3,.7,.5,1,.2,.3,.5,.6,.7,.9,.3,.2,.6,.4,.9,.5,.3,0,.7,0,1,0,.6-.2,1-.6,1.2-1.2,.2-.6,.3-1.3,.3-2.1,0-.8,0-1.6,0-2.5,0-.9,0-1.8,.2-2.6,.2-.8,.5-1.6,1-2.3,.5-.7,1.3-1.3,2.4-1.7,1.1-.4,2.1-.5,3.1-.4,1,.1,1.8,.5,2.6,1,.8,.5,1.5,1.2,2.1,2,.6,.8,1.1,1.7,1.4,2.7,.4,1.1,.6,2.3,.7,3.4s-.1,2.3-.6,3.4l-4.4-1.8Z"/><path class="e" d="M571,216.1l-.5-1.7,.8-.2,1.3,4.4-.8,.2-.5-1.7-4.2,1.2-.3-1,4.2-1.2Zm1.9,3.5l.5,1.6-3.4,2.6h0l4.3,.4,.5,1.6-5,1.4-.3-1,4.2-1.2h0l-4.6-.4-.2-.8,3.7-2.8h0l-4.2,1.2-.3-1,5-1.4Z"/><g><g><path class="f" d="M150.2,182.1c.7-3,1.9-5.9,3.5-8.5,1.6-2.6,3.6-4.9,5.8-6.7-1.7,1.5-3.3,3.2-4.6,5,1-1.4,2-2.6,3.2-3.6,1.2-1.1,2.4-2,3.9-2.9-.4,.4-1,.9-1.6,1.4-.6,.5-1.1,1-1.1,1.3-3,2.7-5.5,6-7.3,9.7-1.8,3.7-2.8,7.7-3,11.8-.4-1.6-.2-3,.1-4.1,.3-1.2,.8-2.2,1.1-3.2"/><path class="f" d="M170.4,161.7c-.8,.2-1.5,.5-2.3,.8,.8-.3,1.5-.6,2.3-.8"/><path class="f" d="M179.9,215.1c.8,0,1.7-.2,2.5-.3-.8,.2-1.6,.3-2.5,.3"/><path class="f" d="M151.5,192.6l.4,1.4c.5,3.5,1.7,6.9,3.6,10.1-1-1.7-2-3.5-2.7-5.5-.7-1.9-1.2-4-1.2-6"/><path class="f" d="M152.1,188.8c0-3.5,1-7.1,2.7-9.9-1.6,2.9-2.5,6.3-2.7,9.9"/><path class="f" d="M197.2,200.2c0,0,0,0,0-.2,0,0,0-.2,0-.2,.6-.9,1.2-2,1.7-3,0,.3,0,.6-.1,.9-.3,.6-.6,.9-.8,1.2-.2,.3-.5,.7-.7,1.4"/><path class="f" d="M178.9,215.2h0c-.3,0-.6,0-.9,0h-.1c.3,0,.7,0,1,0"/><path class="f" d="M196.4,201.4c-.1,0-.2-.1-.4,0,.4-.5,.8-1,1.2-1.5,0,0,0,.2,0,.2-.1,.4-.6,.9-.7,1.4"/><path class="f" d="M184.4,208.9c-.4,.1-.7,.5-.8,.6-1.1,0-2.1,0-3.3,0-.2,0-.6,.1-.9,.3-.2-.1-.5-.2-.7-.3,2.6,0,5.3-.4,8-1.4-.7,.3-1.4,.6-2.2,.8"/><path class="f" d="M172.2,165.8c2-.6,4.3-.8,6.5-.8,2.2,0,4.4,.4,6.5,.6-2.3-.9-5.2-1.4-7.6-1.5-2.4-.2-4.4,0-4.9-.5-.5-.5,1.2-1,3.7-1.1,1.2,0,2.6,0,3.9,.2,1.3,.2,2.5,.4,3.5,.6q-.5-.2-1-.4c.5,.2,1,.4,1.5,.4-.5-.2-1.3-.5-2-.8-.7-.2-1.4-.5-1.7-.7,.3,0,.7-.1,1-.2-1.4-.6-3.5-1-5.7-1-2.2,0-4.4,.1-6,.2,3.8-.4,7.9-.4,12,.4,4.1,.8,8.2,2.4,11.9,4.8,3.7,2.4,6.9,5.8,9.2,9.7,2.3,3.9,3.6,8.3,3.8,12.7,.7,9.8-3.2,19.3-10,25.7-.7,.6-1.9,1.5-3.3,2.2-1.5,.8-3.1,1.5-4.6,1.9-4.9,2-10.4,2.7-15.9,2.2-5.7-.7-11.1-3.3-15.5-7.2-4.3-3.9-7.6-9-9.5-14.9-.4-1.2-.4-2.7-.2-3.1,.1-.2,.3-.2,.6,.3,.3,.4,.6,1.3,1.1,2.6,1.8,4.4,4.4,8.5,7.8,11.9-.3,0-.9-.6-1.4-1.1-.5-.6-1.1-1.2-1.5-1.6,1,1.5,2,2.8,3.2,3.9,1.2,1.1,2.4,2.2,3.9,3.1-2-1.3-3.8-2.8-5.4-4.5,2,2.1,4.5,4.1,7.2,5.6,2.8,1.6,5.8,2.7,9,3.2,1.1,.2,2.2,.7,3.4,1,1.2,.3,2.6,.4,4.3,0-4.2,0-8.5-.9-12.3-2.5-3.9-1.7-7.4-4.1-10.4-7.1,0,0,0,0,0,0-2.7-2.6-4.6-5.5-6.1-8.8,.5,1,1.1,2,1.5,2.9-2.4-4.7-3.6-9.8-3.6-14.9,.3,3.6,1.2,7.2,2.7,10.6,1.5,3.4,3.5,6.6,6.1,9.2,2.6,2.7,5.7,4.8,9.1,6.3,3.4,1.5,7,2.2,10.6,2.2-2-.3-4.3-.6-6.4-1.1-2.2-.5-4.2-1.3-5.6-2.5,5.7,2.9,12.4,4,18.9,2.7l-1.4,.4c2.1-.1,4.2-.7,6.1-1.5,2-.8,3.8-1.9,5.6-3.1,.3-.2,.6-.4,.9-.6l-.9,.6c-3.2,2.1-6.7,3.5-10.3,4.2,1.6-.5,3.3-1,5.3-1.8-1.1,.2-2.7,.7-4.3,1-2.1,.5-4.2,.8-6.3,.8,3.3-.1,6.4-1,9-2.3-4.1,1.3-8.7,1.9-12.9,1.2,2.4,.2,4.7,.2,7.1-.2,3.9-.5,7.8-1.8,11.2-4.1l-.4,.3c.3-.2,.5-.4,.8-.5,1.3-.9,2.6-1.9,3.7-3.1,1-1,1.8-2.2,2.4-3.5l.4-.6c-.2,.4-.2,.7,.4,0,1.2-1.5,2-3.2,2.7-5.1,.7-1.9,1.2-3.9,1.7-6,.3-1.1,.3-2.6,.2-4.3,0-.4,0-.7,0-.9,0-.4,0-.7-.1-1.1,0-.9-.2-1.7-.5-2.5,.2,.8,.3,1.7,.5,2.5v1c0-.2-.1-.4-.2-.9,.2,3,0,6-.8,8.9-.8,2.9-2.1,5.8-3.7,8.3,.1-.4,.3-.8,.4-1.1-.2,.6-.5,1.1-.8,1.6-1.1,1.6-2.4,3.2-3.9,4.5,.4-.4,.7-.9,1-1.3-2,2-4.3,3.7-6.8,5-2.5,1.3-5.2,2.2-8,2.7-5.3,.6-10.7-.4-15.3-2.8,2.4,1.5,5.2,2.6,8.2,3-4-.4-8-1.8-11.4-4-3.4-2.2-6.3-5.3-8.2-8.8,1.1,1,2.5,2.4,3.5,2.7,.1-.2-1.3-2.2-.3-1.2,1.9,1.8,3.5,3.2,5,4.2,1.5,1,2.9,1.5,4.1,1.3,.3,0-.7-1.1-1.3-2-.6-.9-1-1.8-.3-1.4,1.2,.7,3.3,1.8,5.7,2.4,.7,.3,1.4,.5,2.2,.6,0,0,.3,0,.5,0,2.7,.5,5.2,.3,6.7,.2,.5,0,1.1-.1,1.6-.2,.3,0,.5,0,.8,.1,.3-.2,.6-.4,.9-.5,1.4-.4,2.7-.9,4-1.5,.7-.3,1.5-.6,2.2-.9,0,0-.2-.1-.2-.3,1.5-1,2.8-2.1,3.9-3.5,.6-.5,1.1-.9,1.6-1.2,.2-1,1-2.4,1.7-4,.7-1.6,1.3-3.4,1.5-4.9h0c.3-1.5,.4-3.1,.3-4.7,0-.3,.1-.5,.2-.8-.2-.4-.2-.8-.3-1,0-1.3-.1-2.4-.2-3.5-.1-.2-.5-.4-.6-.8-.2-.8-.6-1.5-.9-2.2-.4-.8-.8-1.7-1.3-2.5-1.6-2.8-3.8-5.2-6.4-7.1,0-.1,0-.3,0-.4-.5-.1-1.1-.6-1.5-.7,0,0,.2,0,.2,0-.7-.2-1.1-.5-1.5-.7-.4-.2-.7-.5-1.3-.8-.3,0-.6,0-.9-.1-.1,0-.3-.1-.4-.2-1.3-1-2.9-1.1-4.6-1.3-1.7-.3-3.4-.4-5.2-.3-1.4,.1-2-.1-3-.1"/><path class="f" d="M199,196.4c.6-1.4,1.1-2.8,1.4-4.3-.2,1.6-.4,3.1-1.4,4.3"/><path class="f" d="M165.9,205.6c-.3-.5-.7-1.1-1.1-1.6,2.6,2.5,5.8,4.2,9.4,5.1h0c-1.4-.2-3.1-.9-4.6-1.6-1.5-.7-2.7-1.5-3.7-1.8"/><path class="f" d="M197.1,200c0,0,0-.1,0-.2,0,0,0,0,0,0,0,0,0,.2,0,.2"/><path class="f" d="M156.9,203.2l-.2-.4c.6,.9,1.3,1.8,2.1,2.6-.6-.6-1.3-1.4-1.8-2.3"/><path class="f" d="M153.3,191.9c-.3-2.2-.3-4.5,0-6.8,.6-2.9,1.7-5.6,3.3-7.8-2.5,4.3-3.7,9.4-3.4,14.5"/><path class="f" d="M161.4,200.2c-.3-.7-.5-1.4-.8-2.1,.3,.7,.6,1.3,1,2-.2,0-.2,0-.3,.2"/><path class="f" d="M163.5,209.8l-.5-.4c.5,.3,1,.6,1.6,.8-.2,0-.7-.3-1-.4"/><path class="f" d="M159.2,192.7c0,.5,.1,1.1,.3,1.6-.1-.3-.3-.6-.4-.9,0-.2,.2-.4,.2-.7"/><path class="f" d="M159.5,184.4c.2-.7,.4-1.4,.7-2-.3,.8-.5,1.7-.7,2.5,0-.2,0-.4,0-.5"/><path class="g" d="M166,150.5c2.2,.9,4.2,2.3,6,3.9,1.7,1.6,3.2,3.5,4.3,5.4-.9-1.5-2-3-3.2-4.2,.9,1,1.6,1.9,2.3,3,.6,1,1.2,2.2,1.6,3.4-.3-.3-.5-.9-.8-1.4-.3-.5-.6-1-.8-1.1-1.6-2.7-3.8-5.1-6.3-7-2.5-1.9-5.5-3.3-8.5-4,1.3,0,2.3,.3,3.1,.7,.8,.4,1.5,1,2.3,1.3"/><path class="g" d="M178.4,168.8c0-.6-.2-1.2-.3-1.8,.1,.6,.3,1.3,.3,1.8"/><path class="g" d="M136.4,168.1c0,.6,0,1.3-.1,1.9,0-.6,0-1.3,.1-1.9"/><path class="g" d="M157.7,149.9h-1.1c-2.7,0-5.5,.3-8.2,1.3,1.5-.5,3-1,4.6-1.3,1.6-.3,3.2-.3,4.7,0"/><path class="g" d="M160.6,150.9c2.7,.5,5.2,1.8,7.2,3.5-2-1.6-4.5-2.9-7.2-3.5"/><path class="g" d="M145.2,183.6s0,0,.2,0c0,0,.1,0,.2,0,.6,.6,1.3,1.2,2,1.7-.2,0-.4-.1-.6-.2-.4-.3-.6-.6-.8-.8-.2-.2-.5-.4-.9-.7"/><path class="g" d="M136.5,167.4h0c0-.3,0-.5,0-.7h0c0,.2,0,.5-.1,.7"/><path class="g" d="M144.4,182.8c0,0,.1-.2,.1-.3,.3,.4,.7,.7,1,1.1,0,0-.1,0-.2,0-.3-.2-.6-.6-1-.8"/><path class="g" d="M140.4,172.5c0-.3-.3-.6-.3-.7,.1-.8,.3-1.6,.4-2.5,0-.2,0-.5,0-.8,.1-.2,.2-.3,.3-.5-.4,2-.5,4.1,0,6.3-.1-.6-.2-1.2-.3-1.8"/><path class="g" d="M175,169.6c.2,1.6,0,3.4-.4,5.1-.4,1.7-1,3.3-1.4,4.9,1-1.6,1.8-3.7,2.3-5.6,.5-1.8,.7-3.3,1.1-3.6,.4-.3,.6,1.1,.3,3-.1,.9-.4,2-.7,2.9-.3,1-.7,1.9-1,2.6,.2-.4,.2-.4,.5-.7-.2,.4-.5,.7-.5,1.1,.3-.3,.6-.9,.9-1.4,.3-.5,.6-1,.8-1.2,0,.3,0,.5,0,.8,.7-1,1.3-2.5,1.6-4.2,.4-1.6,.5-3.3,.8-4.6-.3,3-.9,6.1-2.1,9.1-1.2,3-3,5.9-5.4,8.3-2.4,2.4-5.4,4.4-8.7,5.5-3.3,1.2-6.9,1.5-10.2,1-7.6-.9-14.2-5.3-18.1-11.4-.3-.6-.8-1.7-1.2-2.9-.4-1.2-.7-2.6-.8-3.8-.8-4.1-.5-8.3,.7-12.4,1.4-4.3,4.2-8,7.8-10.7,3.6-2.7,8-4.5,12.7-5,.9-.1,2.1,0,2.4,.3,.2,.1,0,.3-.3,.4-.4,.1-1.1,.2-2.2,.4-3.6,.7-7.2,2.1-10.2,4.2,.1-.2,.5-.6,1.1-.9,.5-.3,1.1-.6,1.4-.9-1.3,.5-2.4,1.2-3.4,1.9-1,.7-2,1.5-3,2.5,1.3-1.3,2.7-2.5,4.2-3.5-1.9,1.2-3.8,2.8-5.4,4.7-1.6,1.9-2.9,4-3.8,6.4-.3,.8-.8,1.6-1.2,2.5-.4,.9-.7,1.9-.6,3.3,.6-3.2,1.9-6.3,3.8-9,1.8-2.7,4.2-5,6.9-6.8,0,0,0,0,0,0,2.4-1.6,4.9-2.7,7.6-3.3-.8,.2-1.7,.5-2.4,.7,3.9-1.1,8-1.3,11.9-.5-2.8-.3-5.7-.2-8.5,.5-2.8,.6-5.5,1.7-7.9,3.3-2.4,1.6-4.5,3.6-6.2,6-1.6,2.4-2.7,5-3.2,7.7,.6-1.5,1.1-3.2,1.8-4.7,.7-1.6,1.7-3,2.7-3.9-3.1,3.9-4.9,8.8-4.8,14v-1.1c-.3,1.6-.2,3.3,.1,4.9,.3,1.6,.9,3.2,1.5,4.7,.1,.3,.2,.5,.3,.8l-.3-.8c-1.1-2.7-1.7-5.6-1.7-8.5,.1,1.3,.3,2.7,.6,4.3,0-.9-.1-2.2-.1-3.4,0-1.7,0-3.3,.3-4.9-.4,2.5-.2,5.1,.4,7.2-.4-3.3-.2-6.9,1-10-.5,1.8-.8,3.6-.9,5.4-.2,3.1,.2,6.2,1.4,9.1l-.2-.3c0,.2,.2,.4,.3,.7,.5,1.1,1.1,2.2,1.8,3.3,.6,.9,1.4,1.7,2.3,2.4l.4,.4c-.3-.2-.5-.2,0,.3,.9,1.1,2.2,2,3.5,2.8,1.3,.8,2.8,1.5,4.3,2.2,.8,.4,2,.7,3.2,.8,.3,.1,.5,.1,.7,0,.3,0,.6,0,.8,0,.7,0,1.3,0,2,0-.7,0-1.3,0-2,0h-.8c.2-.1,.4-.2,.7-.2-2.3-.3-4.6-.9-6.7-1.9-2.1-1-4.1-2.4-5.8-4.1,.3,.1,.6,.4,.8,.4-.4-.3-.8-.5-1.1-.8-1.1-1.1-2-2.3-2.9-3.6,.3,.4,.6,.7,.9,.9-1.2-1.8-2.2-3.8-2.8-5.9-.6-2.1-.9-4.3-.9-6.5,.3-4.1,1.9-8.1,4.4-11.2-1.5,1.6-2.7,3.6-3.5,5.8,.9-3,2.5-5.8,4.7-8.1,2.2-2.3,4.9-4,7.9-4.9-1,.7-2.2,1.6-2.6,2.3,.1,.1,1.8-.6,.9,0-1.6,1.2-3,2.2-3.9,3.2-1,1-1.6,2-1.6,2.9,0,.2,.9-.3,1.7-.7,.8-.4,1.5-.5,1.1,0-.7,.8-1.8,2.2-2.7,4-.3,.5-.6,1-.8,1.5,0,0,0,.2,0,.4-.7,2-1,4-1.1,5.1,0,.4,0,.8,0,1.2,0,.2-.1,.4-.2,.6,0,.3,.2,.5,.2,.8,0,1.1,.2,2.2,.5,3.2,0,.6,.2,1.2,.4,1.8,0,0,.1-.2,.2,0,.5,1.3,1.2,2.4,2.1,3.5,.3,.5,.5,1,.7,1.4,.8,.3,1.7,1.1,2.8,1.9,1.1,.8,2.4,1.5,3.5,1.9h0c1.1,.4,2.3,.7,3.5,.9,.2,0,.4,.2,.5,.3,.3,0,.6,0,.8-.1,1,.1,1.8,.3,2.7,.3,.1,0,.4-.3,.7-.4,.6,0,1.3-.2,1.8-.4,.7-.2,1.4-.4,2.1-.6,2.3-.8,4.5-2.1,6.3-3.8,.1,0,.2,0,.3,.1,.2-.4,.6-.7,.8-1,0,0,0,.1,0,.2,.3-.5,.5-.8,.7-1,.2-.2,.5-.5,.8-.9,.1-.2,.1-.4,.2-.7,0,0,.1-.2,.2-.3,1-.8,1.3-2,1.7-3.3,.5-1.3,.8-2.6,1-3.9,.1-1.1,.4-1.5,.6-2.3"/><path class="g" d="M147.8,185.5c1,.7,2,1.3,3.1,1.7-1.2-.4-2.3-.8-3.1-1.7"/><path class="g" d="M145.7,158.9c.5-.1,.9-.3,1.4-.6-2.3,1.6-4.1,3.8-5.2,6.4h0c.4-1.1,1.2-2.2,2-3.2,.8-1,1.6-1.9,1.9-2.6"/><path class="g" d="M145.3,183.5c0,0,.1,0,.2,0h0c0,0-.1,0-.2,0"/><path class="g" d="M148.9,152.4h.3c-.8,.2-1.6,.6-2.3,1.1,.6-.4,1.3-.8,2-1.1"/><path class="g" d="M158,151.3c1.8,.1,3.5,.5,5.2,1.1,2.1,.9,4,2.1,5.4,3.7-2.9-2.5-6.6-4.2-10.6-4.7"/><path class="g" d="M150.5,156.3c.6-.1,1.2-.2,1.7-.3-.6,.1-1.1,.3-1.7,.5,0-.1,0-.2,0-.2"/><path class="g" d="M142.9,156.4l.4-.4c-.3,.3-.6,.7-.8,1.1,0-.1,.3-.5,.5-.7"/><path class="g" d="M156.5,155.7c-.4,0-.8,0-1.3,0,.2,0,.5-.1,.7-.2,.1,.1,.3,.2,.5,.3"/><path class="g" d="M162.8,157.2c.5,.3,1,.5,1.4,.8-.6-.3-1.2-.6-1.8-.9,.2,0,.3,0,.4,0"/></g><g><path class="f" d="M242.6,181.6c-.6-.8-1.4-1.3-2.5-1.7-1-.4-2-.6-3-.6s-1.1,0-1.7,.2c-.6,.1-1.1,.3-1.6,.6-.5,.3-.9,.6-1.3,1.1-.3,.5-.5,1-.5,1.6,0,1,.4,1.8,1.2,2.4,.8,.5,1.7,1,2.9,1.4,1.2,.4,2.4,.8,3.8,1.2,1.4,.4,2.6,.9,3.8,1.6,1.2,.7,2.1,1.7,2.9,2.8,.8,1.2,1.2,2.8,1.2,4.8s-.4,3.6-1.1,5c-.7,1.4-1.7,2.6-2.9,3.5-1.2,.9-2.6,1.6-4.2,2.1-1.6,.5-3.3,.7-5,.7s-4.3-.3-6.2-1c-1.9-.7-3.7-1.8-5.3-3.3l5.4-5.9c.8,1,1.7,1.8,2.9,2.4,1.2,.6,2.4,.8,3.6,.8s1.2,0,1.9-.2c.6-.1,1.2-.4,1.7-.7s.9-.7,1.2-1.1c.3-.4,.5-1,.5-1.6,0-1-.4-1.8-1.2-2.4-.8-.6-1.8-1.1-3-1.5-1.2-.4-2.5-.8-3.9-1.3-1.4-.4-2.7-1-3.9-1.7-1.2-.7-2.2-1.6-3-2.8-.8-1.2-1.2-2.7-1.2-4.6s.4-3.4,1.1-4.8c.7-1.4,1.7-2.5,2.9-3.5,1.2-.9,2.6-1.6,4.2-2.1,1.6-.5,3.2-.7,4.9-.7s3.8,.3,5.6,.8c1.8,.5,3.4,1.5,4.9,2.8l-5.2,5.6Z"/><path class="f" d="M268.4,191.6c-.4-.5-.9-.9-1.5-1.3-.6-.3-1.3-.5-2.1-.5-1.8,0-3.3,.5-4.3,1.6-1,1.1-1.5,2.5-1.5,4.3s.5,3.2,1.5,4.3c1,1.1,2.4,1.6,4.3,1.6s1.5-.2,2.1-.5c.6-.4,1.1-.8,1.5-1.3l4.8,5c-1.1,1.2-2.5,2-4,2.4-1.5,.5-3,.7-4.4,.7s-3.5-.3-5.1-.9c-1.6-.6-3-1.4-4.1-2.5-1.2-1.1-2.1-2.4-2.8-3.9-.7-1.5-1-3.2-1-5.1s.3-3.6,1-5.1c.7-1.5,1.6-2.8,2.8-3.9,1.2-1.1,2.6-1.9,4.1-2.5,1.6-.6,3.3-.9,5.1-.9s2.8,.2,4.4,.7c1.5,.5,2.9,1.3,4,2.4l-4.8,5Z"/><path class="f" d="M275.7,184h7.2v3.8h0c.8-1.4,1.7-2.5,2.8-3.3s2.4-1.1,4-1.1,.8,0,1.3,0c.4,0,.8,0,1.2,.2v6.6c-.5-.2-1-.3-1.5-.4-.5,0-1-.1-1.6-.1-1.4,0-2.5,.2-3.3,.6-.8,.4-1.4,.9-1.9,1.6-.4,.7-.7,1.5-.8,2.5-.1,1-.2,2-.2,3.2v9.8h-7.2v-23.5Z"/><path class="f" d="M318,207.4h-6.9v-3.2h0c-.3,.5-.6,.9-1,1.4-.4,.5-.9,.9-1.5,1.2-.6,.4-1.2,.6-2,.9-.7,.2-1.5,.3-2.4,.3-1.8,0-3.3-.3-4.5-.8-1.1-.6-2-1.3-2.7-2.3-.6-1-1-2.2-1.3-3.5-.2-1.4-.3-2.8-.3-4.4v-12.9h7.2v11.5c0,.7,0,1.4,0,2.1,0,.7,.2,1.4,.4,2,.2,.6,.6,1.1,1.1,1.5s1.2,.6,2.1,.6,1.7-.2,2.3-.5c.6-.3,1-.8,1.3-1.4,.3-.6,.5-1.2,.6-1.9,0-.7,.1-1.4,.1-2.2v-11.7h7.2v23.5Z"/><path class="f" d="M323.1,184h6.9v3.2h0c.2-.4,.5-.9,1-1.4,.4-.5,.9-.9,1.5-1.2,.6-.4,1.2-.6,2-.9,.7-.2,1.5-.3,2.4-.3,1.6,0,3.1,.3,4.4,1,1.3,.7,2.2,1.7,2.9,3.2,.8-1.5,1.8-2.6,3-3.2,1.2-.6,2.7-1,4.4-1s2.9,.3,4,.8c1.1,.5,1.9,1.3,2.6,2.2,.6,.9,1.1,2,1.4,3.2,.3,1.2,.4,2.6,.4,4v13.8h-7.2v-13.7c0-1.1-.2-2-.7-2.8-.5-.8-1.3-1.2-2.5-1.2s-1.5,.1-2.1,.4c-.6,.3-1,.7-1.4,1.1s-.6,1-.7,1.7c-.1,.6-.2,1.3-.2,2v12.4h-7.2v-12.4c0-.4,0-.9,0-1.5,0-.6-.1-1.2-.3-1.7-.2-.5-.5-1-.9-1.4-.4-.4-1.1-.6-1.9-.6s-1.7,.2-2.3,.5-1,.8-1.3,1.4c-.3,.6-.5,1.2-.6,1.9,0,.7-.1,1.4-.1,2.2v11.7h-7.2v-23.5Z"/></g><g><path class="f" d="M369.2,207.7c-.9,0-1.6-.3-2.2-.9-.6-.6-.9-1.4-.9-2.2s.3-1.6,.9-2.2c.6-.6,1.4-.9,2.2-.9s1.6,.3,2.2,.9c.6,.6,.9,1.4,.9,2.2s-.3,1.6-.9,2.2c-.6,.6-1.4,.9-2.2,.9Z"/><path class="f" d="M378.1,196c0-1.7,.3-3.2,.9-4.7,.6-1.4,1.5-2.7,2.6-3.8,1.1-1.1,2.4-2,3.9-2.6,1.5-.6,3.1-.9,4.8-.9s3.3,.3,4.8,.9c1.5,.6,2.8,1.5,3.9,2.6,1.1,1.1,2,2.4,2.6,3.8,.6,1.4,.9,3,.9,4.7s-.3,3.2-.9,4.7c-.6,1.5-1.5,2.7-2.6,3.8-1.1,1.1-2.4,1.9-3.9,2.6-1.5,.6-3.1,.9-4.8,.9s-3.3-.3-4.8-.9c-1.5-.6-2.8-1.5-3.9-2.6s-2-2.3-2.6-3.8c-.6-1.5-.9-3-.9-4.7Zm4.6,0c0,1.2,.2,2.2,.5,3.2,.4,1,.9,1.8,1.5,2.5,.6,.7,1.4,1.2,2.4,1.6,.9,.4,2,.6,3.1,.6s2.2-.2,3.1-.6c.9-.4,1.7-.9,2.4-1.6,.6-.7,1.1-1.5,1.5-2.5,.4-1,.5-2.1,.5-3.2s-.2-2.2-.5-3.2c-.4-1-.9-1.8-1.5-2.5-.6-.7-1.4-1.2-2.4-1.6-.9-.4-2-.6-3.1-.6s-2.2,.2-3.1,.6c-.9,.4-1.7,.9-2.4,1.6-.6,.7-1.1,1.5-1.5,2.5-.4,1-.5,2.1-.5,3.2Z"/><path class="f" d="M407.9,184.6h4.3v3.5h0c.3-.6,.7-1.2,1.2-1.7,.5-.5,1-.9,1.6-1.3,.6-.4,1.2-.6,2-.8,.7-.2,1.4-.3,2.1-.3s1.4,0,1.9,.3l-.2,4.7c-.4,0-.7-.2-1.1-.2-.4,0-.7,0-1.1,0-2.1,0-3.7,.6-4.9,1.8-1.1,1.2-1.7,3-1.7,5.5v11.5h-4.3v-22.9Z"/></g><path class="f" d="M447.8,207.3c0,1.7-.3,3.3-.9,4.8-.6,1.4-1.4,2.7-2.5,3.7-1.1,1-2.4,1.9-4,2.4-1.5,.6-3.2,.9-5.1,.9s-4.2-.3-6-.9c-1.8-.6-3.5-1.7-5.2-3.2l2.9-3.7c1.1,1.2,2.3,2.1,3.7,2.8,1.3,.6,2.8,.9,4.5,.9s2.9-.2,4-.7c1.1-.5,1.9-1.1,2.5-1.8,.6-.7,1.1-1.6,1.3-2.5,.3-.9,.4-1.9,.4-2.9v-3.4h-.1c-.8,1.4-2,2.4-3.4,3.1-1.4,.7-2.9,1-4.5,1s-3.2-.3-4.7-.9c-1.4-.6-2.7-1.4-3.7-2.5-1-1-1.8-2.3-2.4-3.7-.6-1.4-.9-3-.9-4.7s.3-3.2,.8-4.7c.5-1.5,1.3-2.7,2.3-3.8,1-1.1,2.2-1.9,3.7-2.6,1.4-.6,3-.9,4.8-.9s3,.3,4.5,1c1.5,.7,2.6,1.6,3.4,2.8h0v-3.3h4.3v22.7Zm-11.9-19.2c-1.2,0-2.2,.2-3.1,.6-.9,.4-1.7,.9-2.4,1.6-.6,.7-1.1,1.5-1.5,2.5-.4,1-.5,2.1-.5,3.2,0,2.3,.7,4.2,2,5.6,1.4,1.4,3.2,2.1,5.5,2.1s4.2-.7,5.5-2.1c1.4-1.4,2-3.3,2-5.6s-.2-2.2-.5-3.2c-.4-1-.9-1.8-1.5-2.5-.6-.7-1.4-1.2-2.4-1.6-.9-.4-2-.6-3.1-.6Z"/><path class="f" d="M455.3,179.7h1.7l1.2,3.2,1.2-3.2h1.7v4.8h-1.3v-3.2h0l-1.2,3.2h-.8l-1.2-3.2h0v3.2h-1.3v-4.8Zm-3.7,1.1h-1.4v-1.1h4.1v1.1h-1.4v3.7h-1.3v-3.7Z"/></g></g></svg>