<?xml version="1.0" encoding="UTF-8"?>
<svg id="Layer_2" data-name="Layer 2" xmlns="http://www.w3.org/2000/svg" viewBox="0 0 599.5 599">
  <defs>
    <style>
      .cls-1 {
        stroke: #8ab0c2;
        stroke-width: 20px;
      }

      .cls-1, .cls-2 {
        fill: none;
      }

      .cls-2 {
        stroke: #3c7d99;
        stroke-width: 50px;
      }

      .cls-3 {
        fill: #3c7d99;
      }

      .cls-3, .cls-4, .cls-5, .cls-6 {
        stroke-width: 0px;
      }

      .cls-4 {
        fill: #1899b5;
      }

      .cls-5 {
        fill: #405a70;
      }

      .cls-6 {
        fill: #fff;
      }
    </style>
  </defs>
  <g id="Layer_1-2" data-name="Layer 1">
    <g>
      <circle class="cls-6" cx="300.33" cy="300.35" r="238.84"/>
      <g>
        <ellipse class="cls-2" cx="299.75" cy="299.5" rx="274.75" ry="274.5"/>
        <path class="cls-6" d="M76.38,129.06l4.99-6.11c.7-.85,1.43-1.6,2.2-2.23.78-.63,1.58-1.08,2.42-1.33.84-.26,1.72-.29,2.63-.1.91.19,1.86.69,2.84,1.48.96.78,1.64,1.6,2.04,2.44.4.84.57,1.69.51,2.55-.05.86-.3,1.73-.75,2.6-.44.88-1.02,1.75-1.73,2.62l-2.16,2.65,6.42,5.23-2.96,3.63-16.46-13.42ZM86.31,131.12l1.97-2.42c.27-.33.49-.66.68-1.02.18-.35.3-.71.35-1.07.05-.36,0-.72-.13-1.07-.14-.36-.4-.69-.79-1.01-.42-.34-.83-.52-1.25-.53-.41-.01-.81.07-1.2.26-.39.19-.75.45-1.09.79-.34.34-.65.68-.93,1.02l-1.52,1.86,3.91,3.18Z"/>
        <path class="cls-6" d="M89.38,113.28l5.64-5.98c.74-.79,1.52-1.46,2.34-2.02.82-.56,1.66-.94,2.51-1.14.86-.19,1.74-.16,2.63.09.9.26,1.8.81,2.7,1.66,1.09,1.03,1.75,2.19,1.98,3.47.23,1.29-.07,2.57-.89,3.86l10.23,2.22-3.85,4.08-9.22-2.59-1.58,1.68,6.18,5.82-3.21,3.41-15.46-14.56ZM98.99,115.9l1.89-2.01c.29-.31.58-.64.88-1s.53-.73.68-1.11c.15-.38.2-.77.13-1.17s-.3-.8-.72-1.2c-.39-.37-.78-.59-1.17-.65-.38-.06-.75-.02-1.11.11-.36.13-.71.34-1.05.62-.35.28-.66.57-.95.88l-2.1,2.23,3.52,3.31Z"/>
        <path class="cls-6" d="M110.21,106.51c-1.13-1.26-1.95-2.6-2.45-4.01-.5-1.41-.69-2.81-.58-4.22.11-1.4.51-2.77,1.21-4.09.69-1.32,1.66-2.54,2.89-3.65,1.23-1.11,2.55-1.94,3.94-2.49,1.39-.55,2.79-.8,4.2-.76,1.41.04,2.78.38,4.13,1.03,1.35.65,2.59,1.6,3.72,2.87,1.14,1.27,1.95,2.6,2.45,4.01s.69,2.81.58,4.22c-.11,1.4-.51,2.77-1.21,4.09-.69,1.32-1.66,2.54-2.89,3.65-1.24,1.11-2.55,1.94-3.94,2.49-1.39.55-2.79.8-4.19.76-1.41-.04-2.78-.38-4.13-1.03-1.35-.65-2.59-1.6-3.72-2.87ZM113.83,103.27c.67.74,1.4,1.32,2.18,1.73.79.41,1.6.65,2.44.72.84.07,1.67-.04,2.5-.33.83-.29,1.62-.77,2.36-1.43.74-.67,1.3-1.4,1.68-2.19.38-.79.58-1.61.6-2.45.03-.84-.12-1.67-.45-2.5-.32-.82-.82-1.61-1.49-2.35-.65-.73-1.38-1.3-2.17-1.72-.79-.42-1.61-.66-2.45-.73-.84-.07-1.67.04-2.5.33-.83.29-1.62.77-2.36,1.43-.74.67-1.3,1.4-1.68,2.19-.38.79-.57,1.61-.6,2.45-.02.84.13,1.68.46,2.51.33.83.82,1.61,1.48,2.34Z"/>
        <path class="cls-6" d="M124.15,80.18l11.36-8.6,2.61,3.44-7.63,5.78,2.61,3.44,7.06-5.34,2.61,3.44-7.06,5.34,5,6.6-3.73,2.83-12.82-16.93Z"/>
        <path class="cls-6" d="M139.63,68.6l12.1-7.86,2.35,3.62-8.18,5.31,2.16,3.32,7.72-5.02,2.35,3.62-7.72,5.02,2.35,3.62,8.63-5.61,2.35,3.62-12.55,8.16-11.57-17.81Z"/>
        <path class="cls-6" d="M168.26,57.16c-.57-.23-1.19-.29-1.87-.16-.68.12-1.27.32-1.78.61-.3.17-.58.38-.85.62-.27.25-.51.52-.7.83-.2.31-.31.63-.35.97-.04.34.04.69.24,1.03.32.56.77.87,1.35.92.59.06,1.25.01,2.01-.14.75-.15,1.55-.33,2.4-.54.85-.21,1.7-.3,2.55-.27.85.02,1.67.24,2.45.64.78.41,1.48,1.15,2.09,2.23.58,1.03.9,2.03.95,3.01.05.98-.11,1.91-.47,2.79-.37.88-.91,1.68-1.63,2.41-.72.73-1.56,1.37-2.52,1.91-1.2.68-2.42,1.13-3.65,1.35-1.23.22-2.53.17-3.88-.15l1.09-4.83c.73.32,1.5.45,2.31.4.81-.06,1.55-.28,2.23-.66.33-.19.64-.42.94-.69s.53-.56.71-.87c.18-.31.29-.63.31-.97.03-.34-.05-.67-.24-1-.32-.56-.78-.87-1.39-.96-.61-.08-1.3-.05-2.07.09-.77.14-1.6.31-2.47.51-.88.2-1.75.29-2.61.27-.86-.02-1.68-.22-2.46-.6-.78-.38-1.46-1.09-2.04-2.12-.56-.99-.86-1.97-.89-2.94-.03-.97.13-1.89.5-2.77.37-.87.9-1.68,1.61-2.42.71-.74,1.52-1.36,2.42-1.87,1.04-.59,2.14-1.02,3.28-1.27,1.14-.26,2.3-.26,3.48,0l-1.06,4.64Z"/>
        <path class="cls-6" d="M184.65,49c-.55-.27-1.17-.37-1.85-.3-.69.07-1.29.23-1.81.48-.31.15-.61.33-.9.56s-.55.49-.76.78c-.22.29-.36.61-.42.94-.06.34,0,.69.17,1.05.27.58.7.92,1.28,1.02.58.1,1.25.1,2.01,0,.76-.1,1.58-.22,2.44-.36.86-.14,1.72-.17,2.56-.09.85.08,1.65.36,2.4.82s1.39,1.25,1.92,2.37c.51,1.07.75,2.09.73,3.08-.02.98-.25,1.9-.67,2.74-.43.85-1.03,1.61-1.8,2.28-.77.68-1.66,1.25-2.65,1.72-1.25.59-2.49.95-3.74,1.08-1.25.13-2.53-.02-3.86-.43l1.44-4.73c.71.37,1.47.56,2.28.56.81,0,1.57-.16,2.27-.5.34-.16.67-.37.99-.62.31-.25.57-.52.78-.82.2-.3.33-.61.38-.94.05-.33,0-.67-.17-1.02-.27-.58-.71-.93-1.31-1.05-.6-.12-1.29-.14-2.07-.06-.78.08-1.62.19-2.5.32-.89.13-1.76.16-2.62.08-.86-.08-1.66-.34-2.41-.78-.75-.44-1.38-1.19-1.89-2.26-.49-1.03-.71-2.03-.68-3,.04-.97.27-1.88.7-2.72.43-.85,1.02-1.61,1.79-2.29.76-.68,1.61-1.25,2.55-1.69,1.08-.51,2.21-.86,3.36-1.03,1.16-.17,2.31-.09,3.47.25l-1.4,4.55Z"/>
        <path class="cls-6" d="M189.57,41.18l4.32-1.8,8.15,19.61-4.32,1.8-8.15-19.61Z"/>
        <path class="cls-6" d="M201.4,47.6c-.55-1.61-.79-3.16-.7-4.65.09-1.49.46-2.86,1.1-4.11s1.55-2.35,2.7-3.3c1.15-.95,2.51-1.69,4.08-2.23,1.57-.54,3.1-.8,4.59-.76,1.49.04,2.88.34,4.16.93,1.28.58,2.42,1.44,3.4,2.55.99,1.12,1.76,2.48,2.32,4.09.55,1.61.79,3.16.7,4.65-.09,1.49-.46,2.86-1.1,4.11-.65,1.25-1.55,2.35-2.7,3.3-1.15.95-2.51,1.69-4.08,2.24-1.57.54-3.1.79-4.59.76-1.49-.03-2.88-.34-4.16-.93-1.28-.58-2.42-1.44-3.4-2.55-.99-1.12-1.76-2.48-2.32-4.09ZM206,46.01c.33.95.77,1.76,1.34,2.44.56.68,1.22,1.22,1.97,1.61.75.39,1.56.61,2.44.67.88.06,1.79-.08,2.73-.4.95-.33,1.74-.78,2.4-1.37s1.16-1.26,1.51-2.03c.35-.77.53-1.59.56-2.48.02-.89-.13-1.8-.46-2.75-.32-.93-.76-1.74-1.33-2.43-.57-.69-1.22-1.23-1.97-1.62-.75-.39-1.56-.61-2.44-.67-.88-.06-1.79.08-2.73.4-.95.33-1.75.78-2.4,1.37-.65.59-1.16,1.26-1.51,2.03-.35.77-.53,1.6-.55,2.49-.02.9.13,1.81.45,2.73Z"/>
        <path class="cls-6" d="M224.62,28.7l6.19-1.47,12.2,12.28h.06s-3.41-14.38-3.41-14.38l4.55-1.08,4.91,20.67-5.96,1.41-12.51-12.57h-.06s3.49,14.73,3.49,14.73l-4.55,1.08-4.91-20.67Z"/>
        <path class="cls-6" d="M257.3,21.93l3.83-.56,12.22,19.68-5.22.76-2.46-4.19-8.16,1.19-1.1,4.71-5.11.75,6.01-22.35ZM259.98,27.78l-1.6,6.9,5.14-.75-3.54-6.15Z"/>
        <path class="cls-6" d="M274.16,19.89l4.67-.33,1.18,16.88,8.65-.6.3,4.31-13.32.93-1.48-21.19Z"/>
        <path class="cls-6" d="M311.47,24.17c-.37-.49-.87-.86-1.51-1.11-.64-.25-1.25-.39-1.83-.4-.34-.01-.69.02-1.05.09-.36.07-.71.18-1.03.34-.33.16-.59.38-.8.65-.21.27-.32.61-.33,1.01-.02.64.2,1.14.67,1.49.47.36,1.06.66,1.79.93.72.26,1.5.53,2.33.79.83.27,1.6.63,2.32,1.09.71.46,1.3,1.07,1.76,1.83.46.75.67,1.75.63,2.99-.04,1.18-.29,2.2-.76,3.07-.47.87-1.08,1.58-1.85,2.13-.77.56-1.65.96-2.65,1.21s-2.05.36-3.15.32c-1.38-.04-2.65-.29-3.82-.75-1.17-.46-2.24-1.17-3.23-2.14l3.44-3.55c.46.65,1.05,1.17,1.77,1.54.72.37,1.47.57,2.25.6.38.01.77-.02,1.16-.1.39-.08.75-.2,1.06-.37.32-.17.57-.39.77-.67s.3-.6.32-.98c.02-.64-.21-1.15-.69-1.54-.48-.39-1.08-.72-1.81-1-.73-.28-1.52-.57-2.37-.86s-1.64-.66-2.37-1.13c-.73-.46-1.32-1.06-1.79-1.8-.47-.74-.68-1.69-.64-2.87.04-1.14.29-2.13.77-2.98s1.1-1.55,1.87-2.1c.77-.56,1.65-.96,2.64-1.22.99-.26,2-.37,3.04-.34,1.2.04,2.35.24,3.46.62,1.11.38,2.1.98,2.97,1.81l-3.32,3.41Z"/>
        <path class="cls-6" d="M332.95,26.19c-.41-.6-.93-1.08-1.57-1.44s-1.4-.58-2.27-.67c-.88-.08-1.7,0-2.48.28-.78.27-1.47.68-2.08,1.23s-1.1,1.24-1.49,2.04c-.39.81-.63,1.7-.72,2.67-.09,1-.03,1.92.2,2.78.23.86.58,1.61,1.06,2.27.48.66,1.07,1.19,1.76,1.6.69.41,1.46.65,2.3.73.96.09,1.82-.03,2.6-.36.77-.33,1.43-.83,1.98-1.5l3.61,3.27c-1.02,1.17-2.24,1.99-3.67,2.45-1.43.47-2.87.63-4.33.49-1.65-.16-3.15-.56-4.5-1.21-1.34-.65-2.48-1.51-3.4-2.57-.92-1.06-1.6-2.31-2.04-3.73-.44-1.43-.57-2.99-.41-4.68s.59-3.2,1.29-4.52c.7-1.32,1.6-2.41,2.71-3.28,1.11-.87,2.38-1.5,3.83-1.88,1.44-.38,2.99-.5,4.64-.34.6.06,1.21.17,1.85.34s1.26.41,1.86.7c.6.3,1.18.67,1.72,1.13s1.01.99,1.41,1.61l-3.86,2.59Z"/>
        <path class="cls-6" d="M341.67,21.77l8.1,1.39c1.06.18,2.06.46,2.98.83.92.37,1.7.86,2.33,1.47.64.61,1.1,1.36,1.38,2.25s.32,1.95.11,3.17c-.25,1.48-.86,2.67-1.8,3.57-.95.9-2.18,1.36-3.71,1.39l3.8,9.76-5.53-.95-2.94-9.12-2.28-.39-1.44,8.37-4.61-.79,3.6-20.93ZM344.79,31.23l2.72.47c.41.07.85.13,1.32.18.47.05.9.03,1.3-.05.4-.08.75-.26,1.05-.53.3-.27.5-.7.6-1.27.09-.53.06-.98-.11-1.33-.16-.35-.4-.64-.7-.87-.31-.22-.67-.41-1.09-.54-.42-.13-.84-.24-1.26-.31l-3.02-.52-.82,4.76Z"/>
        <path class="cls-6" d="M376.62,42.91c-.32,1.22-.8,2.29-1.44,3.22-.64.93-1.42,1.67-2.34,2.24-.92.56-1.98.92-3.18,1.05-1.2.14-2.5.02-3.91-.35-1.43-.38-2.63-.92-3.6-1.63s-1.72-1.54-2.25-2.49c-.53-.95-.84-1.98-.93-3.1-.1-1.12.02-2.29.34-3.51l3.33-12.62,4.52,1.19-3.28,12.44c-.17.64-.22,1.25-.16,1.85.06.6.22,1.14.48,1.63.26.49.62.92,1.08,1.28.45.36.98.62,1.58.77.6.16,1.18.19,1.74.1.56-.09,1.08-.28,1.55-.58.47-.3.88-.69,1.23-1.18.35-.49.6-1.05.77-1.69l3.28-12.44,4.53,1.19-3.33,12.62Z"/>
        <path class="cls-6" d="M386.17,32.05l6.63,2.48-.26,14.69.06.02,9.45-11.26,6.61,2.46-7.42,19.9-4.38-1.64,5.69-15.26-.06-.02-10.92,13.31-3.34-1.25.66-17.14-.06-.02-5.7,15.26-4.38-1.64,7.43-19.9Z"/>
        <path class="cls-6" d="M423.53,47.19l6.2,3.42-2.41,14.5.05.03,11-9.76,6.17,3.4-10.25,18.6-4.1-2.26,7.86-14.27-.05-.03-12.75,11.57-3.13-1.72,3.16-16.86-.05-.03-7.86,14.27-4.1-2.26,10.25-18.6Z"/>
        <path class="cls-6" d="M455.76,66.1l3.19,2.19-4.37,22.75-4.36-2.98,1.03-4.75-6.81-4.66-4,2.71-4.26-2.91,19.57-12.34ZM453.75,72.22l-5.86,3.99,4.28,2.93,1.57-6.92Z"/>
        <path class="cls-6" d="M474.39,86.42c0-.61-.18-1.21-.54-1.8-.37-.58-.78-1.06-1.23-1.42-.27-.21-.56-.4-.9-.56-.33-.16-.68-.28-1.03-.34s-.7-.05-1.03.04c-.33.09-.62.3-.87.61-.4.5-.52,1.03-.35,1.6.16.57.46,1.17.88,1.81s.89,1.32,1.39,2.03c.51.71.91,1.47,1.21,2.26.3.8.4,1.64.32,2.51-.08.88-.51,1.8-1.29,2.77-.73.92-1.55,1.59-2.44,2.01-.89.41-1.81.62-2.76.6-.95-.01-1.9-.22-2.85-.62s-1.85-.94-2.71-1.62c-1.08-.86-1.95-1.82-2.61-2.88-.66-1.06-1.1-2.28-1.31-3.65l4.88-.79c-.02.8.14,1.56.5,2.29s.83,1.34,1.45,1.82c.3.24.63.44.99.61.36.17.72.29,1.07.34.36.05.69.03,1.02-.07.32-.1.6-.3.84-.6.4-.5.52-1.05.37-1.64-.15-.59-.44-1.22-.86-1.89-.42-.66-.88-1.37-1.39-2.1-.51-.74-.92-1.51-1.22-2.32-.31-.8-.43-1.64-.36-2.51.06-.87.46-1.76,1.2-2.69.71-.89,1.51-1.54,2.4-1.93s1.8-.58,2.75-.57c.95.01,1.89.21,2.84.59.95.38,1.83.9,2.64,1.55.94.75,1.74,1.6,2.41,2.57.67.96,1.1,2.04,1.31,3.23l-4.7.75Z"/>
        <path class="cls-6" d="M484.16,93.41l-4.46-4.1,2.8-3.05,12.36,11.37-2.8,3.05-4.46-4.1-11.58,12.58-3.44-3.17,11.58-12.58Z"/>
        <path class="cls-6" d="M497.55,100.36l10.02,10.38-3.11,3-6.77-7.02-2.85,2.75,6.39,6.63-3.11,3-6.39-6.63-3.11,3,7.14,7.41-3.11,3-10.39-10.77,15.29-14.75Z"/>
        <path class="cls-6" d="M511.64,115.27l5.19,6.37c.68.84,1.25,1.7,1.7,2.58.45.88.72,1.76.8,2.64.08.88-.06,1.74-.43,2.6-.37.86-1.04,1.68-2,2.46-1.16.95-2.4,1.45-3.7,1.51-1.31.06-2.54-.41-3.71-1.39l-3.54,9.85-3.55-4.35,3.78-8.81-1.46-1.79-6.58,5.37-2.96-3.63,16.46-13.42ZM507.79,124.45l1.74,2.14c.27.33.56.66.88,1.01.32.34.66.62,1.01.82.36.2.74.29,1.14.29.41,0,.83-.2,1.28-.56.42-.34.68-.7.79-1.07.11-.37.12-.75.04-1.12-.08-.37-.24-.75-.47-1.12-.23-.38-.48-.73-.75-1.06l-1.93-2.37-3.74,3.05Z"/>
        <path class="cls-6" d="M527.02,129.7l-1.01-1.41.67-.49,2.67,3.7-.67.49-1.01-1.41-3.54,2.55-.64-.89,3.54-2.55ZM529.99,132.4l.97,1.35-2.32,3.59.02.04,4.14-1.07.97,1.35-4.21,3.03-.64-.88,3.52-2.53-.02-.02-4.5,1.17-.51-.72,2.53-3.89-.02-.02-3.51,2.53-.64-.88,4.21-3.03Z"/>
        <circle class="cls-1" cx="298.63" cy="300.5" r="241"/>
        <g>
          <path class="cls-3" d="M142.22,266.05h41.03c5.72,0,11.13.52,16.22,1.56,5.09,1.04,9.54,2.83,13.34,5.38,3.79,2.55,6.81,5.98,9.05,10.3,2.24,4.32,3.35,9.75,3.35,16.3s-1.04,11.86-3.12,16.22c-2.08,4.37-4.94,7.85-8.58,10.45-3.64,2.6-7.96,4.45-12.95,5.54-4.99,1.09-10.4,1.64-16.22,1.64h-17.78v43.06h-24.34v-110.45ZM166.56,312.85h16.22c2.18,0,4.29-.21,6.32-.62,2.03-.41,3.85-1.12,5.46-2.11,1.61-.99,2.91-2.34,3.9-4.06.99-1.72,1.48-3.87,1.48-6.47,0-2.81-.65-5.07-1.95-6.79-1.3-1.72-2.96-3.04-4.99-3.98-2.03-.94-4.29-1.53-6.79-1.79-2.5-.26-4.89-.39-7.18-.39h-12.48v26.21Z"/>
          <path class="cls-3" d="M295.1,293.04c-1.98-2.5-4.66-4.34-8.03-5.54-3.38-1.19-6.58-1.79-9.59-1.79-1.77,0-3.59.21-5.46.62-1.87.42-3.64,1.07-5.3,1.95-1.67.88-3.02,2.05-4.06,3.51-1.04,1.46-1.56,3.22-1.56,5.3,0,3.33,1.25,5.88,3.74,7.64,2.5,1.77,5.64,3.28,9.44,4.52,3.8,1.25,7.88,2.5,12.25,3.74s8.45,3.02,12.25,5.3c3.79,2.29,6.94,5.36,9.44,9.2,2.5,3.85,3.74,9,3.74,15.44s-1.15,11.49-3.43,16.07c-2.29,4.58-5.38,8.37-9.28,11.39-3.9,3.02-8.42,5.25-13.57,6.71-5.15,1.46-10.58,2.18-16.3,2.18-7.18,0-13.83-1.09-19.97-3.28-6.14-2.18-11.86-5.72-17.16-10.61l17.32-19.03c2.5,3.33,5.64,5.9,9.44,7.72,3.8,1.82,7.72,2.73,11.78,2.73,1.97,0,3.98-.23,6.01-.7,2.03-.47,3.85-1.17,5.46-2.11,1.61-.94,2.91-2.13,3.9-3.59.99-1.46,1.48-3.17,1.48-5.15,0-3.33-1.28-5.95-3.82-7.88-2.55-1.92-5.75-3.56-9.59-4.91-3.85-1.35-8.01-2.7-12.48-4.06-4.47-1.35-8.63-3.17-12.48-5.46-3.85-2.29-7.05-5.3-9.59-9.05-2.55-3.74-3.82-8.68-3.82-14.82s1.17-11.13,3.51-15.6c2.34-4.47,5.46-8.21,9.36-11.23,3.9-3.02,8.4-5.28,13.49-6.79,5.09-1.51,10.35-2.26,15.76-2.26,6.24,0,12.27.88,18.1,2.65,5.82,1.77,11.08,4.73,15.76,8.89l-16.69,18.25Z"/>
          <path class="cls-3" d="M330.04,266.05h36.82l25.43,72.07h.31l25.58-72.07h36.66v110.45h-24.34v-84.71h-.31l-29.02,84.71h-18.56l-27.92-84.71h-.31v84.71h-24.34v-110.45Z"/>
        </g>
      </g>
      <g>
        <g>
          <path class="cls-5" d="M150.1,182.05c.66-3.03,1.89-5.94,3.5-8.54,1.62-2.6,3.62-4.87,5.77-6.74-1.72,1.5-3.26,3.2-4.58,5.04,1-1.38,2.05-2.56,3.21-3.63,1.16-1.07,2.43-2.03,3.91-2.91-.35.4-1,.89-1.57,1.38-.57.49-1.06.97-1.13,1.29-3.01,2.73-5.52,6.02-7.3,9.7-1.79,3.66-2.84,7.71-3.02,11.79-.43-1.62-.22-2.97.11-4.13.35-1.17.83-2.15,1.09-3.25"/>
          <path class="cls-5" d="M170.25,161.73c-.78.25-1.53.51-2.26.8.76-.34,1.54-.63,2.26-.8"/>
          <path class="cls-5" d="M179.75,215.11c.83-.09,1.66-.22,2.46-.35-.79.2-1.63.29-2.46.35"/>
          <path class="cls-5" d="M151.39,192.59l.36,1.36c.52,3.48,1.7,6.94,3.58,10.11-1.03-1.71-2.01-3.54-2.73-5.48-.72-1.94-1.18-3.99-1.21-5.99"/>
          <path class="cls-5" d="M151.96,188.77c.02-3.52.99-7.07,2.66-9.91-1.58,2.88-2.53,6.34-2.66,9.91"/>
          <path class="cls-5" d="M197.08,200.19c-.07-.02-.09-.1-.09-.19.03-.08.04-.16.04-.24.64-.95,1.21-1.95,1.71-3-.07.28-.04.58-.15.85-.3.57-.56.88-.8,1.21-.24.33-.46.69-.71,1.36"/>
          <path class="cls-5" d="M178.82,215.16l-.09.04c-.29.02-.57.04-.85.05l-.1-.02c.35-.02.69-.04,1.05-.06"/>
          <path class="cls-5" d="M196.26,201.41c-.12-.06-.25-.11-.39-.09.41-.5.79-1.01,1.15-1.55-.01.08-.02.16-.03.23-.13.43-.6.92-.73,1.41"/>
          <path class="cls-5" d="M184.25,208.92c-.38.12-.65.47-.82.58-1.06.07-2.1.08-3.3.07-.18.09-.57.12-.94.27-.23-.1-.46-.19-.71-.27,2.62.04,5.33-.43,7.95-1.42-.68.31-1.41.58-2.18.77"/>
          <path class="cls-5" d="M172.12,165.84c2-.65,4.29-.85,6.53-.76,2.24.08,4.42.41,6.5.62-2.26-.9-5.17-1.4-7.6-1.53-2.43-.15-4.39-.03-4.89-.52-.52-.47,1.25-.99,3.68-1.08,1.21-.04,2.58.03,3.88.19,1.3.16,2.54.4,3.55.6q-.51-.23-1.02-.44c.52.21,1.02.43,1.52.41-.5-.24-1.27-.52-1.99-.76-.72-.24-1.4-.46-1.69-.68.34-.07.68-.13,1.03-.18-1.39-.61-3.51-.97-5.68-1.04-2.17-.08-4.36.13-5.96.15,3.8-.4,7.88-.38,11.98.42,4.09.79,8.21,2.37,11.89,4.82,3.68,2.43,6.9,5.76,9.17,9.68,2.27,3.9,3.58,8.34,3.76,12.72.7,9.78-3.16,19.3-9.98,25.74-.66.58-1.89,1.46-3.35,2.24-1.46.8-3.14,1.48-4.57,1.94-4.95,1.98-10.44,2.68-15.85,2.19-5.75-.73-11.14-3.33-15.47-7.19-4.34-3.86-7.64-9.02-9.49-14.88-.38-1.17-.42-2.65-.17-3.1.12-.22.31-.19.56.25.26.44.57,1.28,1.08,2.63,1.79,4.44,4.41,8.54,7.78,11.93-.33-.07-.85-.55-1.38-1.12-.53-.56-1.07-1.21-1.5-1.56.99,1.49,2.05,2.76,3.2,3.91,1.16,1.15,2.43,2.18,3.9,3.15-1.97-1.29-3.8-2.79-5.42-4.5,2.03,2.13,4.47,4.1,7.24,5.65,2.76,1.55,5.83,2.68,8.99,3.23,1.15.22,2.19.67,3.41.96,1.21.29,2.62.43,4.27-.07-4.23.02-8.46-.87-12.34-2.55-3.88-1.67-7.41-4.11-10.37-7.09.02,0,.03.01.05,0-2.67-2.64-4.57-5.54-6.07-8.83.5,1.01,1.09,1.99,1.54,2.88-2.37-4.71-3.65-9.79-3.6-14.92.32,3.61,1.19,7.2,2.65,10.59,1.46,3.38,3.53,6.56,6.14,9.23,2.6,2.67,5.72,4.85,9.12,6.31,3.39,1.47,7.05,2.22,10.6,2.2-1.98-.35-4.26-.58-6.45-1.11-2.18-.52-4.24-1.35-5.59-2.47,5.67,2.93,12.37,3.98,18.88,2.69l-1.4.43c2.07-.13,4.17-.7,6.15-1.54,1.98-.83,3.84-1.94,5.56-3.09.31-.21.62-.41.92-.63l-.92.63c-3.2,2.1-6.73,3.49-10.31,4.19,1.6-.5,3.29-1.02,5.27-1.8-1.15.24-2.72.71-4.32,1.02-2.07.53-4.21.82-6.32.84,3.28-.11,6.44-1,9.04-2.32-4.13,1.34-8.65,1.9-12.93,1.23,2.36.24,4.74.16,7.06-.24,3.92-.46,7.8-1.82,11.21-4.05l-.38.28c.26-.17.51-.35.76-.53,1.32-.9,2.56-1.92,3.7-3.06,1-1.05,1.79-2.24,2.45-3.48l.4-.58c-.16.43-.18.68.35,0,1.17-1.46,2.03-3.23,2.71-5.12.68-1.89,1.18-3.89,1.71-5.98.28-1.1.34-2.64.21-4.27.08-.45,0-.68-.09-.88-.04-.35-.09-.7-.14-1.06-.1-.86-.23-1.72-.47-2.54.17.82.34,1.68.47,2.54l.1.97c-.11-.22-.24-.44-.29-.91.24,2.96-.03,6-.81,8.94-.77,2.94-2.05,5.76-3.74,8.33.12-.36.33-.85.38-1.06-.23.56-.5,1.11-.78,1.65-1.13,1.63-2.43,3.15-3.87,4.53.4-.44.73-.9.97-1.33-2,1.98-4.29,3.66-6.8,4.96-2.51,1.3-5.22,2.22-8.03,2.7-5.31.64-10.68-.42-15.27-2.8,2.36,1.53,5.21,2.58,8.22,3.04-4.02-.4-7.97-1.77-11.38-3.98-3.41-2.2-6.27-5.26-8.19-8.8,1.09,1.04,2.51,2.42,3.49,2.71.14-.2-1.27-2.18-.28-1.16,1.86,1.79,3.49,3.2,4.99,4.19,1.49.98,2.86,1.49,4.06,1.27.25-.1-.66-1.06-1.29-1.99-.64-.93-1.03-1.77-.31-1.43,1.15.66,3.25,1.76,5.68,2.43.67.26,1.4.48,2.16.65.09.05.27,0,.48-.06,2.68.45,5.25.28,6.67.15.53-.04,1.05-.11,1.58-.19.29.02.54.06.76.15.3-.18.61-.35.91-.5,1.38-.35,2.71-.85,3.96-1.48.74-.26,1.49-.55,2.19-.92-.07-.07-.24-.1-.17-.26,1.46-.98,2.79-2.15,3.95-3.46.55-.46,1.1-.88,1.64-1.23.23-1.03,1.01-2.4,1.71-3.98.71-1.57,1.34-3.36,1.54-4.89h-.03c.28-1.52.4-3.08.35-4.65.07-.26.15-.52.24-.76-.17-.38-.23-.79-.32-.97-.05-1.26-.11-2.36-.25-3.46-.12-.17-.49-.45-.63-.84-.24-.8-.56-1.55-.91-2.25-.37-.84-.79-1.68-1.27-2.5-1.61-2.75-3.78-5.16-6.36-7.06-.03-.14.02-.27.07-.4-.52-.12-1.06-.59-1.51-.71.1,0,.17-.02.19-.09-.71-.25-1.1-.45-1.46-.68-.36-.23-.69-.49-1.31-.78-.29-.1-.6-.06-.9-.12-.14-.06-.27-.11-.41-.17-1.3-1.01-2.9-1.13-4.6-1.28-1.7-.29-3.45-.4-5.21-.3-1.39.11-1.99-.14-3.02-.14"/>
          <path class="cls-5" d="M198.92,196.38c.62-1.38,1.11-2.83,1.44-4.32-.22,1.61-.4,3.14-1.44,4.32"/>
          <path class="cls-5" d="M165.76,205.62c-.3-.55-.67-1.08-1.08-1.63,2.57,2.48,5.84,4.23,9.39,5.05v.03c-1.45-.25-3.12-.93-4.58-1.67-1.47-.73-2.74-1.53-3.73-1.77"/>
          <path class="cls-5" d="M197,200c0-.07.02-.14.03-.23,0,0,0,0,0-.01,0,.08,0,.15-.03.24"/>
          <path class="cls-5" d="M156.76,203.2l-.23-.38c.64.92,1.33,1.8,2.07,2.64-.64-.63-1.27-1.41-1.84-2.27"/>
          <path class="cls-5" d="M153.14,191.88c-.28-2.24-.26-4.53.07-6.78.57-2.87,1.71-5.56,3.29-7.75-2.48,4.31-3.74,9.41-3.36,14.54"/>
          <path class="cls-5" d="M161.3,200.24c-.31-.69-.55-1.41-.76-2.13.3.68.65,1.34,1.03,1.97-.15-.07-.2.1-.27.16"/>
          <path class="cls-5" d="M163.33,209.78l-.54-.4c.51.29,1.03.56,1.55.81-.21-.06-.67-.27-1.01-.4"/>
          <path class="cls-5" d="M159.05,192.67c.06.54.14,1.07.25,1.6-.13-.3-.28-.59-.45-.88.1-.2.15-.45.19-.72"/>
          <path class="cls-5" d="M159.33,184.38c.19-.71.43-1.39.71-2.02-.27.81-.49,1.65-.67,2.49-.05-.21-.09-.38-.04-.47"/>
          <path class="cls-4" d="M165.84,150.47c2.21.95,4.25,2.32,5.98,3.93,1.74,1.62,3.17,3.48,4.28,5.39-.88-1.53-1.95-2.95-3.16-4.24.9.96,1.65,1.94,2.29,2.98.64,1.04,1.18,2.15,1.64,3.41-.25-.33-.53-.89-.82-1.4-.29-.5-.59-.95-.81-1.05-1.63-2.7-3.77-5.1-6.3-7-2.52-1.91-5.45-3.31-8.53-4.05,1.3-.08,2.29.27,3.13.7.84.44,1.51.95,2.31,1.31"/>
          <path class="cls-4" d="M178.33,168.82c-.07-.63-.16-1.24-.27-1.84.15.63.25,1.26.27,1.84"/>
          <path class="cls-4" d="M136.28,168.15c-.05.65-.08,1.3-.1,1.93-.04-.63.02-1.28.1-1.93"/>
          <path class="cls-4" d="M157.62,149.89l-1.09.08c-2.73-.12-5.54.27-8.23,1.23,1.46-.53,3-1.01,4.58-1.27,1.58-.26,3.21-.31,4.74-.03"/>
          <path class="cls-4" d="M160.45,150.89c2.68.53,5.24,1.8,7.16,3.49-1.96-1.63-4.46-2.87-7.16-3.49"/>
          <path class="cls-4" d="M145.07,183.55s.09-.05.16-.04c.06.03.12.05.18.06.63.63,1.31,1.21,2.03,1.75-.21-.09-.44-.11-.63-.24-.39-.32-.58-.56-.8-.79-.22-.23-.46-.45-.93-.75"/>
          <path class="cls-4" d="M136.38,167.43l-.02-.07c.03-.22.05-.44.09-.66l.03-.08c-.03.27-.07.54-.11.8"/>
          <path class="cls-4" d="M144.26,182.75c.06-.08.12-.17.13-.28.32.38.65.75,1.01,1.1-.06-.02-.12-.04-.17-.05-.3-.16-.61-.6-.97-.77"/>
          <path class="cls-4" d="M140.32,172.49c-.04-.3-.26-.56-.32-.71.1-.81.25-1.61.44-2.52-.04-.15,0-.45-.07-.76.11-.16.21-.33.31-.5-.42,1.99-.46,4.12-.1,6.27-.13-.57-.23-1.16-.27-1.78"/>
          <path class="cls-4" d="M174.92,169.63c.19,1.62,0,3.4-.39,5.08-.39,1.7-.97,3.3-1.44,4.86,1.02-1.59,1.84-3.73,2.29-5.56.48-1.83.68-3.34,1.12-3.65.44-.32.57,1.1.27,2.96-.15.93-.4,1.96-.72,2.93-.31.97-.68,1.88-.98,2.61.25-.35.25-.35.49-.71-.24.36-.48.71-.54,1.1.26-.35.58-.89.87-1.41.29-.51.56-1,.77-1.19,0,.27,0,.54-.01.81.67-.96,1.26-2.53,1.64-4.17.38-1.64.54-3.34.76-4.56-.26,2.95-.88,6.05-2.09,9.06-1.21,3-3.02,5.9-5.43,8.34-2.4,2.44-5.41,4.4-8.73,5.55-3.31,1.15-6.88,1.49-10.24.98-7.55-.91-14.23-5.26-18.12-11.41-.34-.59-.83-1.65-1.21-2.88-.39-1.23-.66-2.61-.8-3.77-.78-4.06-.49-8.35.68-12.39,1.41-4.27,4.18-7.99,7.76-10.71,3.59-2.73,8-4.48,12.73-5.02.95-.12,2.09.07,2.38.33.15.12.1.26-.28.39-.37.13-1.06.24-2.16.43-3.65.7-7.16,2.1-10.23,4.16.1-.23.54-.57,1.06-.88.51-.32,1.08-.64,1.41-.91-1.28.54-2.4,1.15-3.45,1.86-1.05.71-2.02,1.52-2.98,2.5,1.27-1.31,2.69-2.48,4.24-3.46-1.93,1.23-3.78,2.8-5.38,4.67-1.59,1.87-2.91,4.04-3.79,6.37-.34.84-.83,1.57-1.24,2.46-.4.88-.72,1.93-.58,3.27.61-3.22,1.92-6.32,3.77-9.02,1.85-2.71,4.23-5.04,6.94-6.85,0,.01-.01.03-.02.04,2.4-1.64,4.9-2.66,7.62-3.31-.84.23-1.68.53-2.42.74,3.94-1.1,7.99-1.33,11.9-.53-2.8-.29-5.66-.16-8.46.45-2.79.61-5.52,1.72-7.93,3.31-2.42,1.59-4.54,3.64-6.16,6.01-1.62,2.36-2.74,5.04-3.24,7.75.56-1.46,1.08-3.16,1.8-4.74.72-1.58,1.65-3.03,2.71-3.89-3.07,3.88-4.86,8.83-4.84,13.98l-.12-1.13c-.21,1.6-.08,3.28.26,4.91.34,1.63.9,3.21,1.53,4.69.11.27.22.53.34.79l-.34-.79c-1.12-2.74-1.66-5.64-1.67-8.47.15,1.3.29,2.66.59,4.28-.01-.91-.14-2.17-.13-3.44-.1-1.66,0-3.33.3-4.94-.4,2.51-.2,5.05.42,7.23-.41-3.34-.16-6.87.98-10.03-.53,1.76-.82,3.59-.86,5.41-.23,3.05.23,6.21,1.43,9.13l-.15-.33c.09.22.19.44.29.66.49,1.13,1.08,2.23,1.78,3.27.65.92,1.44,1.7,2.29,2.38l.39.39c-.3-.18-.49-.24-.05.27.94,1.1,2.16,2.03,3.49,2.82,1.34.8,2.79,1.48,4.3,2.19.8.37,1.96.65,3.22.79.33.12.52.11.69.06.27.02.55.04.82.05.67.06,1.35.08,2,.02-.65,0-1.33,0-2-.02l-.75-.07c.18-.05.37-.12.74-.09-2.29-.26-4.56-.91-6.68-1.94-2.12-1.02-4.08-2.41-5.79-4.08.26.15.6.37.75.45-.39-.26-.77-.54-1.14-.84-1.07-1.1-2.04-2.32-2.88-3.62.28.37.58.69.87.94-1.21-1.81-2.15-3.81-2.77-5.91-.62-2.1-.91-4.31-.86-6.52.3-4.14,1.9-8.07,4.39-11.22-1.52,1.57-2.74,3.58-3.53,5.81.9-3.01,2.53-5.81,4.72-8.07,2.18-2.28,4.94-4,7.91-4.94-.95.68-2.21,1.55-2.58,2.26.13.13,1.85-.64.92-.04-1.64,1.15-2.96,2.18-3.93,3.18-.97.99-1.56,1.95-1.57,2.91.04.2.91-.34,1.71-.68.8-.35,1.5-.52,1.13-.02-.67.78-1.82,2.22-2.69,3.96-.3.48-.57.99-.81,1.55-.05.06-.04.2-.03.38-.74,1.97-.99,3.96-1.1,5.06-.05.41-.07.82-.09,1.23-.06.22-.13.4-.23.56.1.26.18.51.25.77.06,1.1.25,2.19.55,3.24.09.61.2,1.22.37,1.81.06-.04.11-.17.22-.09.53,1.26,1.22,2.44,2.05,3.52.27.49.51.96.69,1.43.76.33,1.68,1.12,2.78,1.89,1.09.77,2.36,1.52,3.49,1.89v-.02c1.12.44,2.29.76,3.5.95.19.09.37.19.54.29.31-.07.63-.05.79-.1.97.15,1.81.26,2.67.32.15-.07.41-.31.73-.36.65-.07,1.26-.2,1.85-.36.7-.16,1.4-.35,2.09-.6,2.33-.82,4.49-2.11,6.32-3.8.11,0,.2.06.29.11.17-.38.6-.72.76-1.04-.01.07,0,.13.04.16.29-.5.51-.77.74-1.01.23-.24.47-.46.78-.88.12-.21.14-.45.22-.66.07-.1.13-.19.19-.29.96-.84,1.29-2.04,1.66-3.31.47-1.25.81-2.57.99-3.92.13-1.07.41-1.49.55-2.28"/>
          <path class="cls-4" d="M147.7,185.52c.96.68,1.99,1.26,3.08,1.74-1.2-.41-2.33-.77-3.08-1.74"/>
          <path class="cls-4" d="M145.58,158.9c.46-.14.92-.34,1.4-.58-2.27,1.6-4.09,3.82-5.24,6.4h-.02c.4-1.07,1.17-2.24,1.95-3.25.78-1.01,1.57-1.86,1.9-2.58"/>
          <path class="cls-4" d="M145.23,183.52c.05.01.11.03.17.05,0,0,0,0,0,0-.06,0-.12-.03-.18-.06"/>
          <path class="cls-4" d="M148.75,152.41l.32-.12c-.8.35-1.57.75-2.32,1.18.57-.4,1.26-.76,2-1.07"/>
          <path class="cls-4" d="M157.91,151.32c1.75.12,3.49.48,5.15,1.06,2.1.86,3.98,2.13,5.41,3.66-2.91-2.53-6.61-4.24-10.57-4.72"/>
          <path class="cls-4" d="M150.33,156.3c.57-.13,1.16-.21,1.74-.26-.56.13-1.12.3-1.65.49.08-.11-.04-.16-.08-.23"/>
          <path class="cls-4" d="M142.77,156.43l.39-.36c-.29.35-.58.7-.84,1.07.08-.15.31-.47.46-.71"/>
          <path class="cls-4" d="M156.43,155.71c-.42-.03-.84-.05-1.26-.04.24-.06.49-.12.74-.21.14.1.32.18.52.25"/>
          <path class="cls-4" d="M162.7,157.15c.52.25,1,.53,1.43.84-.58-.33-1.18-.62-1.79-.88.17,0,.3-.01.36.04"/>
        </g>
        <g>
          <path class="cls-5" d="M242.47,181.63c-.61-.77-1.44-1.34-2.49-1.71-1.05-.37-2.04-.55-2.97-.55-.55,0-1.11.06-1.69.19-.58.13-1.13.33-1.64.6-.51.27-.93.64-1.25,1.09-.32.45-.48,1-.48,1.64,0,1.03.39,1.82,1.16,2.36.77.55,1.75,1.01,2.92,1.4,1.17.39,2.44.77,3.79,1.16,1.35.39,2.61.93,3.79,1.64,1.17.71,2.15,1.66,2.92,2.85.77,1.19,1.16,2.78,1.16,4.78s-.35,3.55-1.06,4.97c-.71,1.42-1.67,2.59-2.87,3.52-1.21.93-2.61,1.62-4.2,2.07-1.59.45-3.27.68-5.04.68-2.22,0-4.28-.34-6.18-1.01-1.9-.68-3.67-1.77-5.31-3.28l5.36-5.89c.77,1.03,1.75,1.83,2.92,2.39,1.17.56,2.39.84,3.64.84.61,0,1.23-.07,1.86-.22.63-.14,1.19-.36,1.69-.65s.9-.66,1.21-1.11c.3-.45.46-.98.46-1.59,0-1.03-.39-1.84-1.18-2.44-.79-.59-1.78-1.1-2.97-1.52-1.19-.42-2.48-.84-3.86-1.25-1.38-.42-2.67-.98-3.86-1.69-1.19-.71-2.18-1.64-2.97-2.8-.79-1.16-1.18-2.69-1.18-4.58s.36-3.44,1.09-4.83c.72-1.38,1.69-2.54,2.89-3.47,1.21-.93,2.6-1.63,4.17-2.1,1.58-.47,3.2-.7,4.87-.7,1.93,0,3.79.27,5.6.82,1.8.55,3.43,1.46,4.87,2.75l-5.16,5.65Z"/>
          <path class="cls-5" d="M268.24,191.57c-.35-.51-.85-.94-1.5-1.28-.64-.34-1.34-.51-2.08-.51-1.83,0-3.26.55-4.27,1.64-1.01,1.09-1.52,2.53-1.52,4.29s.51,3.2,1.52,4.29c1.01,1.09,2.44,1.64,4.27,1.64.8,0,1.5-.18,2.08-.53.58-.35,1.08-.77,1.5-1.25l4.78,5.02c-1.13,1.16-2.45,1.97-3.98,2.44-1.53.47-2.98.7-4.37.7-1.8,0-3.5-.29-5.09-.87-1.59-.58-2.98-1.41-4.15-2.48-1.17-1.08-2.1-2.37-2.77-3.88-.68-1.51-1.01-3.2-1.01-5.07s.34-3.55,1.01-5.07c.68-1.51,1.6-2.81,2.77-3.88,1.17-1.08,2.56-1.91,4.15-2.48,1.59-.58,3.29-.87,5.09-.87,1.38,0,2.84.23,4.37.7,1.53.47,2.85,1.28,3.98,2.44l-4.78,5.02Z"/>
          <path class="cls-5" d="M275.62,184h7.24v3.76h.1c.77-1.45,1.69-2.53,2.75-3.26s2.4-1.09,4-1.09c.42,0,.84.02,1.25.05.42.03.8.1,1.16.19v6.61c-.52-.16-1.02-.28-1.52-.36-.5-.08-1.02-.12-1.57-.12-1.38,0-2.48.19-3.28.58-.8.39-1.42.93-1.86,1.62-.43.69-.72,1.52-.84,2.48-.13.96-.19,2.03-.19,3.18v9.79h-7.24v-23.45Z"/>
          <path class="cls-5" d="M317.84,207.45h-6.95v-3.18h-.1c-.26.45-.59.9-.99,1.35-.4.45-.89.85-1.47,1.21-.58.35-1.24.64-1.98.87-.74.22-1.54.34-2.41.34-1.83,0-3.32-.28-4.46-.84-1.14-.56-2.03-1.34-2.65-2.34-.63-1-1.04-2.17-1.25-3.52-.21-1.35-.31-2.81-.31-4.39v-12.93h7.24v11.48c0,.68.02,1.38.07,2.1.05.72.19,1.39.43,2,.24.61.61,1.11,1.11,1.5s1.21.58,2.15.58,1.69-.17,2.27-.51c.58-.34,1.02-.79,1.33-1.35.31-.56.51-1.2.6-1.91.1-.71.14-1.45.14-2.22v-11.68h7.24v23.45Z"/>
          <path class="cls-5" d="M322.95,184h6.95v3.18h.1c.22-.45.55-.9.97-1.35.42-.45.92-.85,1.5-1.21.58-.35,1.24-.64,1.98-.87.74-.22,1.54-.34,2.41-.34,1.64,0,3.1.34,4.37,1.01,1.27.68,2.23,1.74,2.87,3.18.84-1.51,1.85-2.59,3.04-3.23,1.19-.64,2.65-.96,4.39-.96,1.58,0,2.9.27,3.98.8,1.08.53,1.93,1.25,2.56,2.17.63.92,1.08,1.99,1.35,3.23.27,1.24.41,2.57.41,3.98v13.85h-7.24v-13.66c0-1.09-.23-2.03-.7-2.82-.47-.79-1.29-1.18-2.48-1.18-.84,0-1.54.14-2.1.41-.56.27-1.01.65-1.35,1.13s-.58,1.05-.72,1.69c-.14.64-.22,1.32-.22,2.03v12.4h-7.24v-12.4c0-.42-.02-.93-.05-1.54-.03-.61-.14-1.19-.34-1.74-.19-.55-.51-1.01-.94-1.4-.43-.39-1.07-.58-1.91-.58-.93,0-1.69.17-2.27.51s-1.02.79-1.33,1.35c-.31.56-.51,1.2-.6,1.91-.1.71-.14,1.45-.14,2.22v11.68h-7.24v-23.45Z"/>
        </g>
        <g>
          <path class="cls-5" d="M369.08,207.74c-.87,0-1.62-.31-2.24-.94-.63-.63-.94-1.38-.94-2.24s.31-1.62.94-2.24c.63-.63,1.38-.94,2.24-.94s1.62.31,2.24.94c.63.63.94,1.38.94,2.24s-.31,1.62-.94,2.24c-.63.63-1.38.94-2.24.94Z"/>
          <path class="cls-5" d="M377.96,196.01c0-1.67.31-3.23.94-4.68.63-1.45,1.49-2.72,2.58-3.81,1.09-1.09,2.38-1.95,3.86-2.58,1.48-.63,3.07-.94,4.78-.94s3.3.31,4.78.94c1.48.63,2.77,1.49,3.86,2.58,1.09,1.09,1.95,2.36,2.58,3.81.63,1.45.94,3.01.94,4.68s-.31,3.24-.94,4.7c-.63,1.46-1.49,2.73-2.58,3.81-1.09,1.08-2.38,1.93-3.86,2.56-1.48.63-3.07.94-4.78.94s-3.3-.31-4.78-.94c-1.48-.63-2.77-1.48-3.86-2.56s-1.95-2.35-2.58-3.81c-.63-1.46-.94-3.03-.94-4.7ZM382.59,196.01c0,1.16.18,2.23.53,3.21.35.98.85,1.82,1.5,2.51.64.69,1.43,1.24,2.36,1.64.93.4,1.98.6,3.14.6s2.2-.2,3.14-.6c.93-.4,1.72-.95,2.36-1.64.64-.69,1.14-1.53,1.5-2.51.35-.98.53-2.05.53-3.21s-.18-2.23-.53-3.21c-.35-.98-.85-1.82-1.5-2.51-.64-.69-1.43-1.24-2.36-1.64-.93-.4-1.98-.6-3.14-.6s-2.2.2-3.14.6c-.93.4-1.72.95-2.36,1.64-.64.69-1.14,1.53-1.5,2.51-.35.98-.53,2.05-.53,3.21Z"/>
          <path class="cls-5" d="M407.73,184.58h4.34v3.52h.1c.29-.61.68-1.17,1.16-1.66.48-.5,1.02-.92,1.62-1.28.6-.35,1.25-.63,1.96-.84.71-.21,1.42-.31,2.12-.31s1.35.1,1.93.29l-.19,4.68c-.35-.1-.71-.18-1.06-.24-.35-.06-.71-.1-1.06-.1-2.12,0-3.75.6-4.87,1.79-1.13,1.19-1.69,3.04-1.69,5.55v11.48h-4.34v-22.87Z"/>
        </g>
        <path class="cls-5" d="M447.63,207.26c0,1.74-.3,3.32-.89,4.75-.6,1.43-1.44,2.67-2.53,3.72-1.09,1.04-2.41,1.86-3.96,2.44-1.54.58-3.25.87-5.12.87-2.19,0-4.19-.31-6.01-.92-1.82-.61-3.55-1.67-5.19-3.18l2.94-3.67c1.13,1.22,2.35,2.15,3.67,2.77,1.32.63,2.81.94,4.49.94s2.94-.23,4-.7c1.06-.47,1.91-1.07,2.53-1.81.63-.74,1.07-1.58,1.33-2.53.26-.95.39-1.91.39-2.87v-3.38h-.14c-.84,1.38-1.97,2.41-3.4,3.06-1.43.66-2.94.99-4.51.99-1.67,0-3.23-.3-4.66-.89-1.43-.59-2.66-1.42-3.69-2.46-1.03-1.04-1.83-2.28-2.41-3.72-.58-1.43-.87-2.98-.87-4.66s.27-3.24.82-4.7c.55-1.46,1.33-2.74,2.34-3.84,1.01-1.09,2.24-1.95,3.67-2.56,1.43-.61,3.03-.92,4.8-.92,1.54,0,3.05.34,4.51,1.01,1.46.68,2.61,1.62,3.45,2.85h.1v-3.28h4.34v22.68ZM435.76,188.05c-1.16,0-2.2.2-3.14.6-.93.4-1.72.95-2.36,1.64-.64.69-1.14,1.53-1.5,2.51-.35.98-.53,2.05-.53,3.21,0,2.32.67,4.17,2.03,5.57,1.35,1.4,3.18,2.1,5.5,2.1s4.15-.7,5.5-2.1c1.35-1.4,2.03-3.26,2.03-5.57,0-1.16-.18-2.23-.53-3.21-.35-.98-.85-1.82-1.5-2.51-.64-.69-1.43-1.24-2.36-1.64-.93-.4-1.98-.6-3.14-.6Z"/>
        <path class="cls-5" d="M455.21,179.73h1.7l1.15,3.15,1.15-3.15h1.71v4.84h-1.27v-3.15h-.02l-1.15,3.15h-.82l-1.15-3.15h-.02v3.15h-1.27v-4.84ZM451.51,180.86h-1.4v-1.13h4.07v1.13h-1.4v3.72h-1.27v-3.72Z"/>
      </g>
    </g>
    <g>
      <path class="cls-3" d="M133.16,390.16h4.74l18.06,42.48h-5.88l-4.32-10.44h-21.24l-4.38,10.44h-5.7l18.72-42.48ZM135.44,396.64h-.12l-8.82,20.88h17.34l-8.4-20.88Z"/>
      <path class="cls-3" d="M166.82,390.16h16.32c1.4,0,2.88.16,4.44.48,1.56.32,3.11.83,4.65,1.53,1.54.7,3.02,1.61,4.44,2.73,1.42,1.12,2.67,2.47,3.75,4.05,1.08,1.58,1.94,3.4,2.58,5.46.64,2.06.96,4.39.96,6.99s-.32,4.93-.96,6.99c-.64,2.06-1.5,3.88-2.58,5.46-1.08,1.58-2.33,2.93-3.75,4.05-1.42,1.12-2.9,2.03-4.44,2.73-1.54.7-3.09,1.21-4.65,1.53-1.56.32-3.04.48-4.44.48h-16.32v-42.48ZM171.86,427.96h9.6c2.44,0,4.7-.32,6.78-.96,2.08-.64,3.88-1.63,5.4-2.97,1.52-1.34,2.72-3.05,3.6-5.13.88-2.08,1.32-4.58,1.32-7.5s-.44-5.42-1.32-7.5c-.88-2.08-2.08-3.79-3.6-5.13-1.52-1.34-3.32-2.33-5.4-2.97-2.08-.64-4.34-.96-6.78-.96h-9.6v33.12Z"/>
      <path class="cls-3" d="M212.24,390.16h5.7l13.08,34.92h.12l13.5-34.92h5.34l-16.62,42.48h-4.86l-16.26-42.48Z"/>
      <path class="cls-3" d="M271.76,390.16h4.74l18.06,42.48h-5.88l-4.32-10.44h-21.24l-4.38,10.44h-5.7l18.72-42.48ZM274.04,396.64h-.12l-8.82,20.88h17.34l-8.4-20.88Z"/>
      <path class="cls-3" d="M306.2,390.16h6.36l24.6,35.28h.12v-35.28h5.04v42.48h-6.36l-24.6-35.28h-.12v35.28h-5.04v-42.48Z"/>
      <path class="cls-3" d="M388.64,398.92c-1.28-1.72-2.86-3.01-4.74-3.87-1.88-.86-3.84-1.29-5.88-1.29-2.36,0-4.53.48-6.51,1.44-1.98.96-3.69,2.25-5.13,3.87-1.44,1.62-2.56,3.5-3.36,5.64-.8,2.14-1.2,4.37-1.2,6.69,0,2.48.4,4.79,1.2,6.93.8,2.14,1.91,4,3.33,5.58,1.42,1.58,3.12,2.83,5.1,3.75,1.98.92,4.17,1.38,6.57,1.38,2.6,0,4.92-.51,6.96-1.53s3.82-2.49,5.34-4.41l3.78,3.18c-1.92,2.56-4.23,4.44-6.93,5.64-2.7,1.2-5.75,1.8-9.15,1.8-3.04,0-5.88-.56-8.52-1.68-2.64-1.12-4.93-2.67-6.87-4.65-1.94-1.98-3.46-4.33-4.56-7.05-1.1-2.72-1.65-5.7-1.65-8.94s.53-6.04,1.59-8.76c1.06-2.72,2.55-5.08,4.47-7.08,1.92-2,4.2-3.58,6.84-4.74,2.64-1.16,5.54-1.74,8.7-1.74,2.88,0,5.65.52,8.31,1.56,2.66,1.04,4.89,2.74,6.69,5.1l-4.38,3.18Z"/>
      <path class="cls-3" d="M407.12,390.16h26.7v4.68h-21.66v13.32h20.22v4.68h-20.22v15.12h22.74v4.68h-27.78v-42.48Z"/>
      <path class="cls-3" d="M447.92,390.16h16.32c1.4,0,2.88.16,4.44.48,1.56.32,3.11.83,4.65,1.53,1.54.7,3.02,1.61,4.44,2.73,1.42,1.12,2.67,2.47,3.75,4.05,1.08,1.58,1.94,3.4,2.58,5.46.64,2.06.96,4.39.96,6.99s-.32,4.93-.96,6.99c-.64,2.06-1.5,3.88-2.58,5.46-1.08,1.58-2.33,2.93-3.75,4.05-1.42,1.12-2.9,2.03-4.44,2.73-1.54.7-3.09,1.21-4.65,1.53-1.56.32-3.04.48-4.44.48h-16.32v-42.48ZM452.96,427.96h9.6c2.44,0,4.7-.32,6.78-.96,2.08-.64,3.88-1.63,5.4-2.97,1.52-1.34,2.72-3.05,3.6-5.13.88-2.08,1.32-4.58,1.32-7.5s-.44-5.42-1.32-7.5c-.88-2.08-2.08-3.79-3.6-5.13-1.52-1.34-3.32-2.33-5.4-2.97-2.08-.64-4.34-.96-6.78-.96h-9.6v33.12Z"/>
    </g>
  </g>
</svg>