<?xml version="1.0" encoding="UTF-8"?><svg id="b" xmlns="http://www.w3.org/2000/svg" viewBox="0 0 599.5 599"><defs><style>.d{fill:#fff;}.e{fill:#405a70;}.f{fill:#1899b5;}.g{fill:#3c7d99;}.h{stroke:#8ab0c2;stroke-width:20px;}.h,.i{fill:none;}.i{stroke:#3c7d99;stroke-width:50px;}</style></defs><g id="c"><circle class="d" cx="300.3" cy="300.3" r="238.8"/><g><ellipse class="i" cx="299.8" cy="299.5" rx="274.8" ry="274.5"/><path class="d" d="M76.4,129.1l5-6.1c.7-.9,1.4-1.6,2.2-2.2,.8-.6,1.6-1.1,2.4-1.3,.8-.3,1.7-.3,2.6,0,.9,.2,1.9,.7,2.8,1.5,1,.8,1.6,1.6,2,2.4,.4,.8,.6,1.7,.5,2.5,0,.9-.3,1.7-.7,2.6-.4,.9-1,1.7-1.7,2.6l-2.2,2.7,6.4,5.2-3,3.6-16.5-13.4Zm9.9,2.1l2-2.4c.3-.3,.5-.7,.7-1,.2-.4,.3-.7,.3-1.1,0-.4,0-.7-.1-1.1-.1-.4-.4-.7-.8-1-.4-.3-.8-.5-1.2-.5-.4,0-.8,0-1.2,.3-.4,.2-.8,.5-1.1,.8-.3,.3-.7,.7-.9,1l-1.5,1.9,3.9,3.2Z"/><path class="d" d="M89.4,113.3l5.6-6c.7-.8,1.5-1.5,2.3-2,.8-.6,1.7-.9,2.5-1.1,.9-.2,1.7-.2,2.6,0,.9,.3,1.8,.8,2.7,1.7,1.1,1,1.8,2.2,2,3.5,.2,1.3,0,2.6-.9,3.9l10.2,2.2-3.8,4.1-9.2-2.6-1.6,1.7,6.2,5.8-3.2,3.4-15.5-14.6Zm9.6,2.6l1.9-2c.3-.3,.6-.6,.9-1s.5-.7,.7-1.1c.2-.4,.2-.8,.1-1.2s-.3-.8-.7-1.2c-.4-.4-.8-.6-1.2-.6-.4,0-.8,0-1.1,.1-.4,.1-.7,.3-1.1,.6-.3,.3-.7,.6-1,.9l-2.1,2.2,3.5,3.3Z"/><path class="d" d="M110.2,106.5c-1.1-1.3-2-2.6-2.5-4-.5-1.4-.7-2.8-.6-4.2,.1-1.4,.5-2.8,1.2-4.1,.7-1.3,1.7-2.5,2.9-3.6,1.2-1.1,2.5-1.9,3.9-2.5,1.4-.5,2.8-.8,4.2-.8,1.4,0,2.8,.4,4.1,1,1.3,.6,2.6,1.6,3.7,2.9,1.1,1.3,2,2.6,2.5,4s.7,2.8,.6,4.2c-.1,1.4-.5,2.8-1.2,4.1-.7,1.3-1.7,2.5-2.9,3.6-1.2,1.1-2.5,1.9-3.9,2.5-1.4,.5-2.8,.8-4.2,.8-1.4,0-2.8-.4-4.1-1-1.3-.6-2.6-1.6-3.7-2.9Zm3.6-3.2c.7,.7,1.4,1.3,2.2,1.7,.8,.4,1.6,.6,2.4,.7,.8,0,1.7,0,2.5-.3,.8-.3,1.6-.8,2.4-1.4,.7-.7,1.3-1.4,1.7-2.2,.4-.8,.6-1.6,.6-2.5,0-.8-.1-1.7-.4-2.5-.3-.8-.8-1.6-1.5-2.4-.7-.7-1.4-1.3-2.2-1.7-.8-.4-1.6-.7-2.4-.7-.8,0-1.7,0-2.5,.3-.8,.3-1.6,.8-2.4,1.4-.7,.7-1.3,1.4-1.7,2.2-.4,.8-.6,1.6-.6,2.5,0,.8,.1,1.7,.5,2.5,.3,.8,.8,1.6,1.5,2.3Z"/><path class="d" d="M124.1,80.2l11.4-8.6,2.6,3.4-7.6,5.8,2.6,3.4,7.1-5.3,2.6,3.4-7.1,5.3,5,6.6-3.7,2.8-12.8-16.9Z"/><path class="d" d="M139.6,68.6l12.1-7.9,2.4,3.6-8.2,5.3,2.2,3.3,7.7-5,2.4,3.6-7.7,5,2.4,3.6,8.6-5.6,2.4,3.6-12.6,8.2-11.6-17.8Z"/><path class="d" d="M168.3,57.2c-.6-.2-1.2-.3-1.9-.2-.7,.1-1.3,.3-1.8,.6-.3,.2-.6,.4-.9,.6-.3,.2-.5,.5-.7,.8-.2,.3-.3,.6-.3,1,0,.3,0,.7,.2,1,.3,.6,.8,.9,1.4,.9,.6,0,1.3,0,2-.1,.8-.2,1.6-.3,2.4-.5,.8-.2,1.7-.3,2.6-.3,.9,0,1.7,.2,2.5,.6,.8,.4,1.5,1.1,2.1,2.2,.6,1,.9,2,1,3,0,1-.1,1.9-.5,2.8-.4,.9-.9,1.7-1.6,2.4-.7,.7-1.6,1.4-2.5,1.9-1.2,.7-2.4,1.1-3.7,1.3-1.2,.2-2.5,.2-3.9-.1l1.1-4.8c.7,.3,1.5,.5,2.3,.4,.8,0,1.6-.3,2.2-.7,.3-.2,.6-.4,.9-.7s.5-.6,.7-.9c.2-.3,.3-.6,.3-1,0-.3,0-.7-.2-1-.3-.6-.8-.9-1.4-1-.6,0-1.3,0-2.1,0-.8,.1-1.6,.3-2.5,.5-.9,.2-1.7,.3-2.6,.3-.9,0-1.7-.2-2.5-.6-.8-.4-1.5-1.1-2-2.1-.6-1-.9-2-.9-2.9,0-1,.1-1.9,.5-2.8,.4-.9,.9-1.7,1.6-2.4,.7-.7,1.5-1.4,2.4-1.9,1-.6,2.1-1,3.3-1.3,1.1-.3,2.3-.3,3.5,0l-1.1,4.6Z"/><path class="d" d="M184.6,49c-.5-.3-1.2-.4-1.9-.3-.7,0-1.3,.2-1.8,.5-.3,.1-.6,.3-.9,.6s-.5,.5-.8,.8c-.2,.3-.4,.6-.4,.9,0,.3,0,.7,.2,1,.3,.6,.7,.9,1.3,1,.6,.1,1.2,.1,2,0,.8,0,1.6-.2,2.4-.4,.9-.1,1.7-.2,2.6,0,.8,0,1.6,.4,2.4,.8s1.4,1.3,1.9,2.4c.5,1.1,.7,2.1,.7,3.1,0,1-.2,1.9-.7,2.7-.4,.8-1,1.6-1.8,2.3-.8,.7-1.7,1.3-2.7,1.7-1.2,.6-2.5,1-3.7,1.1-1.2,.1-2.5,0-3.9-.4l1.4-4.7c.7,.4,1.5,.6,2.3,.6,.8,0,1.6-.2,2.3-.5,.3-.2,.7-.4,1-.6,.3-.2,.6-.5,.8-.8,.2-.3,.3-.6,.4-.9,0-.3,0-.7-.2-1-.3-.6-.7-.9-1.3-1.1-.6-.1-1.3-.1-2.1,0-.8,0-1.6,.2-2.5,.3-.9,.1-1.8,.2-2.6,0-.9,0-1.7-.3-2.4-.8-.8-.4-1.4-1.2-1.9-2.3-.5-1-.7-2-.7-3,0-1,.3-1.9,.7-2.7,.4-.8,1-1.6,1.8-2.3,.8-.7,1.6-1.2,2.6-1.7,1.1-.5,2.2-.9,3.4-1,1.2-.2,2.3,0,3.5,.2l-1.4,4.5Z"/><path class="d" d="M189.6,41.2l4.3-1.8,8.2,19.6-4.3,1.8-8.2-19.6Z"/><path class="d" d="M201.4,47.6c-.6-1.6-.8-3.2-.7-4.6,0-1.5,.5-2.9,1.1-4.1s1.5-2.3,2.7-3.3c1.2-.9,2.5-1.7,4.1-2.2,1.6-.5,3.1-.8,4.6-.8,1.5,0,2.9,.3,4.2,.9,1.3,.6,2.4,1.4,3.4,2.6,1,1.1,1.8,2.5,2.3,4.1,.6,1.6,.8,3.2,.7,4.6,0,1.5-.5,2.9-1.1,4.1-.6,1.2-1.5,2.3-2.7,3.3-1.2,.9-2.5,1.7-4.1,2.2-1.6,.5-3.1,.8-4.6,.8-1.5,0-2.9-.3-4.2-.9-1.3-.6-2.4-1.4-3.4-2.6-1-1.1-1.8-2.5-2.3-4.1Zm4.6-1.6c.3,.9,.8,1.8,1.3,2.4,.6,.7,1.2,1.2,2,1.6,.7,.4,1.6,.6,2.4,.7,.9,0,1.8,0,2.7-.4,.9-.3,1.7-.8,2.4-1.4s1.2-1.3,1.5-2c.3-.8,.5-1.6,.6-2.5,0-.9-.1-1.8-.5-2.7-.3-.9-.8-1.7-1.3-2.4-.6-.7-1.2-1.2-2-1.6-.7-.4-1.6-.6-2.4-.7-.9,0-1.8,0-2.7,.4-.9,.3-1.7,.8-2.4,1.4-.7,.6-1.2,1.3-1.5,2-.3,.8-.5,1.6-.6,2.5,0,.9,.1,1.8,.5,2.7Z"/><path class="d" d="M224.6,28.7l6.2-1.5,12.2,12.3h0l-3.4-14.4,4.6-1.1,4.9,20.7-6,1.4-12.5-12.6h0l3.5,14.7-4.6,1.1-4.9-20.7Z"/><path class="d" d="M257.3,21.9l3.8-.6,12.2,19.7-5.2,.8-2.5-4.2-8.2,1.2-1.1,4.7-5.1,.7,6-22.3Zm2.7,5.9l-1.6,6.9,5.1-.8-3.5-6.2Z"/><path class="d" d="M274.2,19.9l4.7-.3,1.2,16.9,8.6-.6,.3,4.3-13.3,.9-1.5-21.2Z"/><path class="d" d="M311.5,24.2c-.4-.5-.9-.9-1.5-1.1-.6-.3-1.3-.4-1.8-.4-.3,0-.7,0-1.1,0-.4,0-.7,.2-1,.3-.3,.2-.6,.4-.8,.6-.2,.3-.3,.6-.3,1,0,.6,.2,1.1,.7,1.5,.5,.4,1.1,.7,1.8,.9,.7,.3,1.5,.5,2.3,.8,.8,.3,1.6,.6,2.3,1.1,.7,.5,1.3,1.1,1.8,1.8,.5,.8,.7,1.8,.6,3,0,1.2-.3,2.2-.8,3.1-.5,.9-1.1,1.6-1.9,2.1-.8,.6-1.7,1-2.6,1.2s-2,.4-3.1,.3c-1.4,0-2.7-.3-3.8-.8-1.2-.5-2.2-1.2-3.2-2.1l3.4-3.6c.5,.7,1,1.2,1.8,1.5,.7,.4,1.5,.6,2.2,.6,.4,0,.8,0,1.2,0,.4,0,.7-.2,1.1-.4,.3-.2,.6-.4,.8-.7s.3-.6,.3-1c0-.6-.2-1.2-.7-1.5-.5-.4-1.1-.7-1.8-1-.7-.3-1.5-.6-2.4-.9s-1.6-.7-2.4-1.1c-.7-.5-1.3-1.1-1.8-1.8-.5-.7-.7-1.7-.6-2.9,0-1.1,.3-2.1,.8-3s1.1-1.5,1.9-2.1c.8-.6,1.6-1,2.6-1.2,1-.3,2-.4,3-.3,1.2,0,2.4,.2,3.5,.6,1.1,.4,2.1,1,3,1.8l-3.3,3.4Z"/><path class="d" d="M332.9,26.2c-.4-.6-.9-1.1-1.6-1.4s-1.4-.6-2.3-.7c-.9,0-1.7,0-2.5,.3-.8,.3-1.5,.7-2.1,1.2s-1.1,1.2-1.5,2c-.4,.8-.6,1.7-.7,2.7,0,1,0,1.9,.2,2.8,.2,.9,.6,1.6,1.1,2.3,.5,.7,1.1,1.2,1.8,1.6,.7,.4,1.5,.7,2.3,.7,1,0,1.8,0,2.6-.4,.8-.3,1.4-.8,2-1.5l3.6,3.3c-1,1.2-2.2,2-3.7,2.5-1.4,.5-2.9,.6-4.3,.5-1.7-.2-3.2-.6-4.5-1.2-1.3-.7-2.5-1.5-3.4-2.6-.9-1.1-1.6-2.3-2-3.7-.4-1.4-.6-3-.4-4.7s.6-3.2,1.3-4.5c.7-1.3,1.6-2.4,2.7-3.3,1.1-.9,2.4-1.5,3.8-1.9,1.4-.4,3-.5,4.6-.3,.6,0,1.2,.2,1.9,.3s1.3,.4,1.9,.7c.6,.3,1.2,.7,1.7,1.1s1,1,1.4,1.6l-3.9,2.6Z"/><path class="d" d="M341.7,21.8l8.1,1.4c1.1,.2,2.1,.5,3,.8,.9,.4,1.7,.9,2.3,1.5,.6,.6,1.1,1.4,1.4,2.2s.3,1.9,.1,3.2c-.3,1.5-.9,2.7-1.8,3.6-.9,.9-2.2,1.4-3.7,1.4l3.8,9.8-5.5-1-2.9-9.1-2.3-.4-1.4,8.4-4.6-.8,3.6-20.9Zm3.1,9.5l2.7,.5c.4,0,.9,.1,1.3,.2,.5,0,.9,0,1.3,0,.4,0,.8-.3,1.1-.5,.3-.3,.5-.7,.6-1.3,0-.5,0-1-.1-1.3-.2-.4-.4-.6-.7-.9-.3-.2-.7-.4-1.1-.5-.4-.1-.8-.2-1.3-.3l-3-.5-.8,4.8Z"/><path class="d" d="M376.6,42.9c-.3,1.2-.8,2.3-1.4,3.2-.6,.9-1.4,1.7-2.3,2.2-.9,.6-2,.9-3.2,1.1-1.2,.1-2.5,0-3.9-.3-1.4-.4-2.6-.9-3.6-1.6s-1.7-1.5-2.2-2.5c-.5-.9-.8-2-.9-3.1,0-1.1,0-2.3,.3-3.5l3.3-12.6,4.5,1.2-3.3,12.4c-.2,.6-.2,1.3-.2,1.8,0,.6,.2,1.1,.5,1.6,.3,.5,.6,.9,1.1,1.3,.5,.4,1,.6,1.6,.8,.6,.2,1.2,.2,1.7,.1,.6,0,1.1-.3,1.6-.6,.5-.3,.9-.7,1.2-1.2,.3-.5,.6-1,.8-1.7l3.3-12.4,4.5,1.2-3.3,12.6Z"/><path class="d" d="M386.2,32l6.6,2.5-.3,14.7h0l9.5-11.2,6.6,2.5-7.4,19.9-4.4-1.6,5.7-15.3h0l-10.9,13.3-3.3-1.2,.7-17.1h0l-5.7,15.2-4.4-1.6,7.4-19.9Z"/><path class="d" d="M423.5,47.2l6.2,3.4-2.4,14.5h0l11-9.7,6.2,3.4-10.3,18.6-4.1-2.3,7.9-14.3h0l-12.7,11.5-3.1-1.7,3.2-16.9h0l-7.9,14.2-4.1-2.3,10.3-18.6Z"/><path class="d" d="M455.8,66.1l3.2,2.2-4.4,22.7-4.4-3,1-4.7-6.8-4.7-4,2.7-4.3-2.9,19.6-12.3Zm-2,6.1l-5.9,4,4.3,2.9,1.6-6.9Z"/><path class="d" d="M474.4,86.4c0-.6-.2-1.2-.5-1.8-.4-.6-.8-1.1-1.2-1.4-.3-.2-.6-.4-.9-.6-.3-.2-.7-.3-1-.3s-.7,0-1,0c-.3,0-.6,.3-.9,.6-.4,.5-.5,1-.4,1.6,.2,.6,.5,1.2,.9,1.8s.9,1.3,1.4,2c.5,.7,.9,1.5,1.2,2.3,.3,.8,.4,1.6,.3,2.5,0,.9-.5,1.8-1.3,2.8-.7,.9-1.5,1.6-2.4,2-.9,.4-1.8,.6-2.8,.6-.9,0-1.9-.2-2.8-.6s-1.9-.9-2.7-1.6c-1.1-.9-2-1.8-2.6-2.9-.7-1.1-1.1-2.3-1.3-3.7l4.9-.8c0,.8,.1,1.6,.5,2.3s.8,1.3,1.4,1.8c.3,.2,.6,.4,1,.6,.4,.2,.7,.3,1.1,.3,.4,0,.7,0,1,0,.3,0,.6-.3,.8-.6,.4-.5,.5-1,.4-1.6-.2-.6-.4-1.2-.9-1.9-.4-.7-.9-1.4-1.4-2.1-.5-.7-.9-1.5-1.2-2.3-.3-.8-.4-1.6-.4-2.5,0-.9,.5-1.8,1.2-2.7,.7-.9,1.5-1.5,2.4-1.9s1.8-.6,2.8-.6c.9,0,1.9,.2,2.8,.6,.9,.4,1.8,.9,2.6,1.5,.9,.7,1.7,1.6,2.4,2.6,.7,1,1.1,2,1.3,3.2l-4.7,.7Z"/><path class="d" d="M484.2,93.4l-4.5-4.1,2.8-3,12.4,11.4-2.8,3-4.5-4.1-11.6,12.6-3.4-3.2,11.6-12.6Z"/><path class="d" d="M497.6,100.4l10,10.4-3.1,3-6.8-7-2.8,2.7,6.4,6.6-3.1,3-6.4-6.6-3.1,3,7.1,7.4-3.1,3-10.4-10.8,15.3-14.7Z"/><path class="d" d="M511.6,115.3l5.2,6.4c.7,.8,1.2,1.7,1.7,2.6,.5,.9,.7,1.8,.8,2.6,0,.9,0,1.7-.4,2.6-.4,.9-1,1.7-2,2.5-1.2,.9-2.4,1.5-3.7,1.5-1.3,0-2.5-.4-3.7-1.4l-3.5,9.9-3.5-4.3,3.8-8.8-1.5-1.8-6.6,5.4-3-3.6,16.5-13.4Zm-3.9,9.2l1.7,2.1c.3,.3,.6,.7,.9,1,.3,.3,.7,.6,1,.8,.4,.2,.7,.3,1.1,.3,.4,0,.8-.2,1.3-.6,.4-.3,.7-.7,.8-1.1,.1-.4,.1-.7,0-1.1,0-.4-.2-.7-.5-1.1-.2-.4-.5-.7-.7-1.1l-1.9-2.4-3.7,3.1Z"/><path class="d" d="M527,129.7l-1-1.4,.7-.5,2.7,3.7-.7,.5-1-1.4-3.5,2.5-.6-.9,3.5-2.5Zm3,2.7l1,1.4-2.3,3.6h0l4.1-1,1,1.4-4.2,3-.6-.9,3.5-2.5h0l-4.5,1.1-.5-.7,2.5-3.9h0l-3.5,2.5-.6-.9,4.2-3Z"/><circle class="h" cx="298.6" cy="300.5" r="241"/><g><path class="g" d="M142.2,266.1h41c5.7,0,11.1,.5,16.2,1.6,5.1,1,9.5,2.8,13.3,5.4,3.8,2.5,6.8,6,9,10.3,2.2,4.3,3.4,9.8,3.4,16.3s-1,11.9-3.1,16.2c-2.1,4.4-4.9,7.9-8.6,10.5-3.6,2.6-8,4.4-12.9,5.5-5,1.1-10.4,1.6-16.2,1.6h-17.8v43.1h-24.3v-110.4Zm24.3,46.8h16.2c2.2,0,4.3-.2,6.3-.6,2-.4,3.8-1.1,5.5-2.1,1.6-1,2.9-2.3,3.9-4.1,1-1.7,1.5-3.9,1.5-6.5s-.7-5.1-2-6.8c-1.3-1.7-3-3-5-4-2-.9-4.3-1.5-6.8-1.8-2.5-.3-4.9-.4-7.2-.4h-12.5v26.2Z"/><path class="g" d="M295.1,293c-2-2.5-4.7-4.3-8-5.5-3.4-1.2-6.6-1.8-9.6-1.8s-3.6,.2-5.5,.6c-1.9,.4-3.6,1.1-5.3,2-1.7,.9-3,2.1-4.1,3.5-1,1.5-1.6,3.2-1.6,5.3,0,3.3,1.2,5.9,3.7,7.6,2.5,1.8,5.6,3.3,9.4,4.5,3.8,1.2,7.9,2.5,12.2,3.7s8.4,3,12.2,5.3c3.8,2.3,6.9,5.4,9.4,9.2,2.5,3.8,3.7,9,3.7,15.4s-1.1,11.5-3.4,16.1c-2.3,4.6-5.4,8.4-9.3,11.4-3.9,3-8.4,5.3-13.6,6.7-5.1,1.5-10.6,2.2-16.3,2.2s-13.8-1.1-20-3.3c-6.1-2.2-11.9-5.7-17.2-10.6l17.3-19c2.5,3.3,5.6,5.9,9.4,7.7,3.8,1.8,7.7,2.7,11.8,2.7s4-.2,6-.7c2-.5,3.8-1.2,5.5-2.1,1.6-.9,2.9-2.1,3.9-3.6,1-1.5,1.5-3.2,1.5-5.1,0-3.3-1.3-6-3.8-7.9-2.5-1.9-5.7-3.6-9.6-4.9-3.8-1.4-8-2.7-12.5-4.1-4.5-1.4-8.6-3.2-12.5-5.5-3.8-2.3-7-5.3-9.6-9-2.5-3.7-3.8-8.7-3.8-14.8s1.2-11.1,3.5-15.6c2.3-4.5,5.5-8.2,9.4-11.2,3.9-3,8.4-5.3,13.5-6.8,5.1-1.5,10.3-2.3,15.8-2.3s12.3,.9,18.1,2.7c5.8,1.8,11.1,4.7,15.8,8.9l-16.7,18.3Z"/><path class="g" d="M330,266.1h36.8l25.4,72.1h.3l25.6-72.1h36.7v110.4h-24.3v-84.7h-.3l-29,84.7h-18.6l-27.9-84.7h-.3v84.7h-24.3v-110.4Z"/></g></g><g><g><path class="e" d="M150.1,182.1c.7-3,1.9-5.9,3.5-8.5,1.6-2.6,3.6-4.9,5.8-6.7-1.7,1.5-3.3,3.2-4.6,5,1-1.4,2-2.6,3.2-3.6,1.2-1.1,2.4-2,3.9-2.9-.4,.4-1,.9-1.6,1.4-.6,.5-1.1,1-1.1,1.3-3,2.7-5.5,6-7.3,9.7-1.8,3.7-2.8,7.7-3,11.8-.4-1.6-.2-3,.1-4.1,.3-1.2,.8-2.2,1.1-3.2"/><path class="e" d="M170.2,161.7c-.8,.2-1.5,.5-2.3,.8,.8-.3,1.5-.6,2.3-.8"/><path class="e" d="M179.8,215.1c.8,0,1.7-.2,2.5-.3-.8,.2-1.6,.3-2.5,.3"/><path class="e" d="M151.4,192.6l.4,1.4c.5,3.5,1.7,6.9,3.6,10.1-1-1.7-2-3.5-2.7-5.5-.7-1.9-1.2-4-1.2-6"/><path class="e" d="M152,188.8c0-3.5,1-7.1,2.7-9.9-1.6,2.9-2.5,6.3-2.7,9.9"/><path class="e" d="M197.1,200.2c0,0,0,0,0-.2,0,0,0-.2,0-.2,.6-.9,1.2-2,1.7-3,0,.3,0,.6-.1,.9-.3,.6-.6,.9-.8,1.2-.2,.3-.5,.7-.7,1.4"/><path class="e" d="M178.8,215.2h0c-.3,0-.6,0-.9,0h-.1c.3,0,.7,0,1,0"/><path class="e" d="M196.3,201.4c-.1,0-.2-.1-.4,0,.4-.5,.8-1,1.2-1.5,0,0,0,.2,0,.2-.1,.4-.6,.9-.7,1.4"/><path class="e" d="M184.3,208.9c-.4,.1-.7,.5-.8,.6-1.1,0-2.1,0-3.3,0-.2,0-.6,.1-.9,.3-.2-.1-.5-.2-.7-.3,2.6,0,5.3-.4,8-1.4-.7,.3-1.4,.6-2.2,.8"/><path class="e" d="M172.1,165.8c2-.6,4.3-.8,6.5-.8,2.2,0,4.4,.4,6.5,.6-2.3-.9-5.2-1.4-7.6-1.5-2.4-.2-4.4,0-4.9-.5-.5-.5,1.2-1,3.7-1.1,1.2,0,2.6,0,3.9,.2,1.3,.2,2.5,.4,3.5,.6q-.5-.2-1-.4c.5,.2,1,.4,1.5,.4-.5-.2-1.3-.5-2-.8-.7-.2-1.4-.5-1.7-.7,.3,0,.7-.1,1-.2-1.4-.6-3.5-1-5.7-1-2.2,0-4.4,.1-6,.2,3.8-.4,7.9-.4,12,.4,4.1,.8,8.2,2.4,11.9,4.8,3.7,2.4,6.9,5.8,9.2,9.7,2.3,3.9,3.6,8.3,3.8,12.7,.7,9.8-3.2,19.3-10,25.7-.7,.6-1.9,1.5-3.3,2.2-1.5,.8-3.1,1.5-4.6,1.9-4.9,2-10.4,2.7-15.9,2.2-5.7-.7-11.1-3.3-15.5-7.2-4.3-3.9-7.6-9-9.5-14.9-.4-1.2-.4-2.7-.2-3.1,.1-.2,.3-.2,.6,.3,.3,.4,.6,1.3,1.1,2.6,1.8,4.4,4.4,8.5,7.8,11.9-.3,0-.9-.6-1.4-1.1-.5-.6-1.1-1.2-1.5-1.6,1,1.5,2,2.8,3.2,3.9,1.2,1.1,2.4,2.2,3.9,3.1-2-1.3-3.8-2.8-5.4-4.5,2,2.1,4.5,4.1,7.2,5.6,2.8,1.6,5.8,2.7,9,3.2,1.1,.2,2.2,.7,3.4,1,1.2,.3,2.6,.4,4.3,0-4.2,0-8.5-.9-12.3-2.5-3.9-1.7-7.4-4.1-10.4-7.1,0,0,0,0,0,0-2.7-2.6-4.6-5.5-6.1-8.8,.5,1,1.1,2,1.5,2.9-2.4-4.7-3.6-9.8-3.6-14.9,.3,3.6,1.2,7.2,2.7,10.6,1.5,3.4,3.5,6.6,6.1,9.2,2.6,2.7,5.7,4.8,9.1,6.3,3.4,1.5,7,2.2,10.6,2.2-2-.3-4.3-.6-6.4-1.1-2.2-.5-4.2-1.3-5.6-2.5,5.7,2.9,12.4,4,18.9,2.7l-1.4,.4c2.1-.1,4.2-.7,6.1-1.5,2-.8,3.8-1.9,5.6-3.1,.3-.2,.6-.4,.9-.6l-.9,.6c-3.2,2.1-6.7,3.5-10.3,4.2,1.6-.5,3.3-1,5.3-1.8-1.1,.2-2.7,.7-4.3,1-2.1,.5-4.2,.8-6.3,.8,3.3-.1,6.4-1,9-2.3-4.1,1.3-8.7,1.9-12.9,1.2,2.4,.2,4.7,.2,7.1-.2,3.9-.5,7.8-1.8,11.2-4.1l-.4,.3c.3-.2,.5-.4,.8-.5,1.3-.9,2.6-1.9,3.7-3.1,1-1,1.8-2.2,2.4-3.5l.4-.6c-.2,.4-.2,.7,.4,0,1.2-1.5,2-3.2,2.7-5.1,.7-1.9,1.2-3.9,1.7-6,.3-1.1,.3-2.6,.2-4.3,0-.4,0-.7,0-.9,0-.4,0-.7-.1-1.1,0-.9-.2-1.7-.5-2.5,.2,.8,.3,1.7,.5,2.5v1c0-.2-.1-.4-.2-.9,.2,3,0,6-.8,8.9-.8,2.9-2.1,5.8-3.7,8.3,.1-.4,.3-.8,.4-1.1-.2,.6-.5,1.1-.8,1.6-1.1,1.6-2.4,3.2-3.9,4.5,.4-.4,.7-.9,1-1.3-2,2-4.3,3.7-6.8,5-2.5,1.3-5.2,2.2-8,2.7-5.3,.6-10.7-.4-15.3-2.8,2.4,1.5,5.2,2.6,8.2,3-4-.4-8-1.8-11.4-4-3.4-2.2-6.3-5.3-8.2-8.8,1.1,1,2.5,2.4,3.5,2.7,.1-.2-1.3-2.2-.3-1.2,1.9,1.8,3.5,3.2,5,4.2,1.5,1,2.9,1.5,4.1,1.3,.3,0-.7-1.1-1.3-2-.6-.9-1-1.8-.3-1.4,1.2,.7,3.3,1.8,5.7,2.4,.7,.3,1.4,.5,2.2,.6,0,0,.3,0,.5,0,2.7,.5,5.2,.3,6.7,.2,.5,0,1.1-.1,1.6-.2,.3,0,.5,0,.8,.1,.3-.2,.6-.4,.9-.5,1.4-.4,2.7-.9,4-1.5,.7-.3,1.5-.6,2.2-.9,0,0-.2-.1-.2-.3,1.5-1,2.8-2.1,3.9-3.5,.6-.5,1.1-.9,1.6-1.2,.2-1,1-2.4,1.7-4,.7-1.6,1.3-3.4,1.5-4.9h0c.3-1.5,.4-3.1,.3-4.7,0-.3,.1-.5,.2-.8-.2-.4-.2-.8-.3-1,0-1.3-.1-2.4-.2-3.5-.1-.2-.5-.4-.6-.8-.2-.8-.6-1.5-.9-2.2-.4-.8-.8-1.7-1.3-2.5-1.6-2.8-3.8-5.2-6.4-7.1,0-.1,0-.3,0-.4-.5-.1-1.1-.6-1.5-.7,0,0,.2,0,.2,0-.7-.2-1.1-.5-1.5-.7-.4-.2-.7-.5-1.3-.8-.3,0-.6,0-.9-.1-.1,0-.3-.1-.4-.2-1.3-1-2.9-1.1-4.6-1.3-1.7-.3-3.4-.4-5.2-.3-1.4,.1-2-.1-3-.1"/><path class="e" d="M198.9,196.4c.6-1.4,1.1-2.8,1.4-4.3-.2,1.6-.4,3.1-1.4,4.3"/><path class="e" d="M165.8,205.6c-.3-.5-.7-1.1-1.1-1.6,2.6,2.5,5.8,4.2,9.4,5.1h0c-1.4-.2-3.1-.9-4.6-1.6-1.5-.7-2.7-1.5-3.7-1.8"/><path class="e" d="M197,200c0,0,0-.1,0-.2,0,0,0,0,0,0,0,0,0,.2,0,.2"/><path class="e" d="M156.8,203.2l-.2-.4c.6,.9,1.3,1.8,2.1,2.6-.6-.6-1.3-1.4-1.8-2.3"/><path class="e" d="M153.1,191.9c-.3-2.2-.3-4.5,0-6.8,.6-2.9,1.7-5.6,3.3-7.8-2.5,4.3-3.7,9.4-3.4,14.5"/><path class="e" d="M161.3,200.2c-.3-.7-.5-1.4-.8-2.1,.3,.7,.6,1.3,1,2-.2,0-.2,0-.3,.2"/><path class="e" d="M163.3,209.8l-.5-.4c.5,.3,1,.6,1.6,.8-.2,0-.7-.3-1-.4"/><path class="e" d="M159.1,192.7c0,.5,.1,1.1,.3,1.6-.1-.3-.3-.6-.4-.9,0-.2,.2-.4,.2-.7"/><path class="e" d="M159.3,184.4c.2-.7,.4-1.4,.7-2-.3,.8-.5,1.7-.7,2.5,0-.2,0-.4,0-.5"/><path class="f" d="M165.8,150.5c2.2,.9,4.2,2.3,6,3.9,1.7,1.6,3.2,3.5,4.3,5.4-.9-1.5-2-3-3.2-4.2,.9,1,1.6,1.9,2.3,3,.6,1,1.2,2.2,1.6,3.4-.3-.3-.5-.9-.8-1.4-.3-.5-.6-1-.8-1.1-1.6-2.7-3.8-5.1-6.3-7-2.5-1.9-5.5-3.3-8.5-4,1.3,0,2.3,.3,3.1,.7,.8,.4,1.5,1,2.3,1.3"/><path class="f" d="M178.3,168.8c0-.6-.2-1.2-.3-1.8,.1,.6,.3,1.3,.3,1.8"/><path class="f" d="M136.3,168.1c0,.6,0,1.3-.1,1.9,0-.6,0-1.3,.1-1.9"/><path class="f" d="M157.6,149.9h-1.1c-2.7,0-5.5,.3-8.2,1.3,1.5-.5,3-1,4.6-1.3,1.6-.3,3.2-.3,4.7,0"/><path class="f" d="M160.4,150.9c2.7,.5,5.2,1.8,7.2,3.5-2-1.6-4.5-2.9-7.2-3.5"/><path class="f" d="M145.1,183.6s0,0,.2,0c0,0,.1,0,.2,0,.6,.6,1.3,1.2,2,1.7-.2,0-.4-.1-.6-.2-.4-.3-.6-.6-.8-.8-.2-.2-.5-.4-.9-.7"/><path class="f" d="M136.4,167.4h0c0-.3,0-.5,0-.7h0c0,.2,0,.5-.1,.7"/><path class="f" d="M144.3,182.7c0,0,.1-.2,.1-.3,.3,.4,.7,.7,1,1.1,0,0-.1,0-.2,0-.3-.2-.6-.6-1-.8"/><path class="f" d="M140.3,172.5c0-.3-.3-.6-.3-.7,.1-.8,.3-1.6,.4-2.5,0-.2,0-.5,0-.8,.1-.2,.2-.3,.3-.5-.4,2-.5,4.1,0,6.3-.1-.6-.2-1.2-.3-1.8"/><path class="f" d="M174.9,169.6c.2,1.6,0,3.4-.4,5.1-.4,1.7-1,3.3-1.4,4.9,1-1.6,1.8-3.7,2.3-5.6,.5-1.8,.7-3.3,1.1-3.6,.4-.3,.6,1.1,.3,3-.1,.9-.4,2-.7,2.9-.3,1-.7,1.9-1,2.6,.2-.4,.2-.4,.5-.7-.2,.4-.5,.7-.5,1.1,.3-.3,.6-.9,.9-1.4,.3-.5,.6-1,.8-1.2,0,.3,0,.5,0,.8,.7-1,1.3-2.5,1.6-4.2,.4-1.6,.5-3.3,.8-4.6-.3,3-.9,6.1-2.1,9.1-1.2,3-3,5.9-5.4,8.3-2.4,2.4-5.4,4.4-8.7,5.5-3.3,1.2-6.9,1.5-10.2,1-7.6-.9-14.2-5.3-18.1-11.4-.3-.6-.8-1.7-1.2-2.9-.4-1.2-.7-2.6-.8-3.8-.8-4.1-.5-8.3,.7-12.4,1.4-4.3,4.2-8,7.8-10.7,3.6-2.7,8-4.5,12.7-5,.9-.1,2.1,0,2.4,.3,.2,.1,0,.3-.3,.4-.4,.1-1.1,.2-2.2,.4-3.6,.7-7.2,2.1-10.2,4.2,.1-.2,.5-.6,1.1-.9,.5-.3,1.1-.6,1.4-.9-1.3,.5-2.4,1.2-3.4,1.9-1,.7-2,1.5-3,2.5,1.3-1.3,2.7-2.5,4.2-3.5-1.9,1.2-3.8,2.8-5.4,4.7-1.6,1.9-2.9,4-3.8,6.4-.3,.8-.8,1.6-1.2,2.5-.4,.9-.7,1.9-.6,3.3,.6-3.2,1.9-6.3,3.8-9,1.8-2.7,4.2-5,6.9-6.8,0,0,0,0,0,0,2.4-1.6,4.9-2.7,7.6-3.3-.8,.2-1.7,.5-2.4,.7,3.9-1.1,8-1.3,11.9-.5-2.8-.3-5.7-.2-8.5,.5-2.8,.6-5.5,1.7-7.9,3.3-2.4,1.6-4.5,3.6-6.2,6-1.6,2.4-2.7,5-3.2,7.7,.6-1.5,1.1-3.2,1.8-4.7,.7-1.6,1.7-3,2.7-3.9-3.1,3.9-4.9,8.8-4.8,14v-1.1c-.3,1.6-.2,3.3,.1,4.9,.3,1.6,.9,3.2,1.5,4.7,.1,.3,.2,.5,.3,.8l-.3-.8c-1.1-2.7-1.7-5.6-1.7-8.5,.1,1.3,.3,2.7,.6,4.3,0-.9-.1-2.2-.1-3.4,0-1.7,0-3.3,.3-4.9-.4,2.5-.2,5.1,.4,7.2-.4-3.3-.2-6.9,1-10-.5,1.8-.8,3.6-.9,5.4-.2,3.1,.2,6.2,1.4,9.1l-.2-.3c0,.2,.2,.4,.3,.7,.5,1.1,1.1,2.2,1.8,3.3,.6,.9,1.4,1.7,2.3,2.4l.4,.4c-.3-.2-.5-.2,0,.3,.9,1.1,2.2,2,3.5,2.8,1.3,.8,2.8,1.5,4.3,2.2,.8,.4,2,.7,3.2,.8,.3,.1,.5,.1,.7,0,.3,0,.6,0,.8,0,.7,0,1.3,0,2,0-.7,0-1.3,0-2,0h-.8c.2-.1,.4-.2,.7-.2-2.3-.3-4.6-.9-6.7-1.9-2.1-1-4.1-2.4-5.8-4.1,.3,.1,.6,.4,.8,.4-.4-.3-.8-.5-1.1-.8-1.1-1.1-2-2.3-2.9-3.6,.3,.4,.6,.7,.9,.9-1.2-1.8-2.2-3.8-2.8-5.9-.6-2.1-.9-4.3-.9-6.5,.3-4.1,1.9-8.1,4.4-11.2-1.5,1.6-2.7,3.6-3.5,5.8,.9-3,2.5-5.8,4.7-8.1,2.2-2.3,4.9-4,7.9-4.9-1,.7-2.2,1.6-2.6,2.3,.1,.1,1.8-.6,.9,0-1.6,1.2-3,2.2-3.9,3.2-1,1-1.6,2-1.6,2.9,0,.2,.9-.3,1.7-.7,.8-.4,1.5-.5,1.1,0-.7,.8-1.8,2.2-2.7,4-.3,.5-.6,1-.8,1.5,0,0,0,.2,0,.4-.7,2-1,4-1.1,5.1,0,.4,0,.8,0,1.2,0,.2-.1,.4-.2,.6,0,.3,.2,.5,.2,.8,0,1.1,.2,2.2,.5,3.2,0,.6,.2,1.2,.4,1.8,0,0,.1-.2,.2,0,.5,1.3,1.2,2.4,2.1,3.5,.3,.5,.5,1,.7,1.4,.8,.3,1.7,1.1,2.8,1.9,1.1,.8,2.4,1.5,3.5,1.9h0c1.1,.4,2.3,.7,3.5,.9,.2,0,.4,.2,.5,.3,.3,0,.6,0,.8-.1,1,.1,1.8,.3,2.7,.3,.1,0,.4-.3,.7-.4,.6,0,1.3-.2,1.8-.4,.7-.2,1.4-.4,2.1-.6,2.3-.8,4.5-2.1,6.3-3.8,.1,0,.2,0,.3,.1,.2-.4,.6-.7,.8-1,0,0,0,.1,0,.2,.3-.5,.5-.8,.7-1,.2-.2,.5-.5,.8-.9,.1-.2,.1-.4,.2-.7,0,0,.1-.2,.2-.3,1-.8,1.3-2,1.7-3.3,.5-1.3,.8-2.6,1-3.9,.1-1.1,.4-1.5,.6-2.3"/><path class="f" d="M147.7,185.5c1,.7,2,1.3,3.1,1.7-1.2-.4-2.3-.8-3.1-1.7"/><path class="f" d="M145.6,158.9c.5-.1,.9-.3,1.4-.6-2.3,1.6-4.1,3.8-5.2,6.4h0c.4-1.1,1.2-2.2,2-3.2,.8-1,1.6-1.9,1.9-2.6"/><path class="f" d="M145.2,183.5c0,0,.1,0,.2,0h0c0,0-.1,0-.2,0"/><path class="f" d="M148.8,152.4h.3c-.8,.2-1.6,.6-2.3,1.1,.6-.4,1.3-.8,2-1.1"/><path class="f" d="M157.9,151.3c1.8,.1,3.5,.5,5.2,1.1,2.1,.9,4,2.1,5.4,3.7-2.9-2.5-6.6-4.2-10.6-4.7"/><path class="f" d="M150.3,156.3c.6-.1,1.2-.2,1.7-.3-.6,.1-1.1,.3-1.7,.5,0-.1,0-.2,0-.2"/><path class="f" d="M142.8,156.4l.4-.4c-.3,.3-.6,.7-.8,1.1,0-.1,.3-.5,.5-.7"/><path class="f" d="M156.4,155.7c-.4,0-.8,0-1.3,0,.2,0,.5-.1,.7-.2,.1,.1,.3,.2,.5,.3"/><path class="f" d="M162.7,157.2c.5,.3,1,.5,1.4,.8-.6-.3-1.2-.6-1.8-.9,.2,0,.3,0,.4,0"/></g><g><path class="e" d="M242.5,181.6c-.6-.8-1.4-1.3-2.5-1.7-1-.4-2-.6-3-.6s-1.1,0-1.7,.2c-.6,.1-1.1,.3-1.6,.6-.5,.3-.9,.6-1.3,1.1-.3,.5-.5,1-.5,1.6,0,1,.4,1.8,1.2,2.4,.8,.5,1.7,1,2.9,1.4,1.2,.4,2.4,.8,3.8,1.2,1.4,.4,2.6,.9,3.8,1.6,1.2,.7,2.1,1.7,2.9,2.8,.8,1.2,1.2,2.8,1.2,4.8s-.4,3.6-1.1,5c-.7,1.4-1.7,2.6-2.9,3.5-1.2,.9-2.6,1.6-4.2,2.1-1.6,.5-3.3,.7-5,.7s-4.3-.3-6.2-1c-1.9-.7-3.7-1.8-5.3-3.3l5.4-5.9c.8,1,1.7,1.8,2.9,2.4,1.2,.6,2.4,.8,3.6,.8s1.2,0,1.9-.2c.6-.1,1.2-.4,1.7-.7s.9-.7,1.2-1.1c.3-.4,.5-1,.5-1.6,0-1-.4-1.8-1.2-2.4-.8-.6-1.8-1.1-3-1.5-1.2-.4-2.5-.8-3.9-1.3-1.4-.4-2.7-1-3.9-1.7-1.2-.7-2.2-1.6-3-2.8-.8-1.2-1.2-2.7-1.2-4.6s.4-3.4,1.1-4.8c.7-1.4,1.7-2.5,2.9-3.5,1.2-.9,2.6-1.6,4.2-2.1,1.6-.5,3.2-.7,4.9-.7s3.8,.3,5.6,.8c1.8,.5,3.4,1.5,4.9,2.8l-5.2,5.6Z"/><path class="e" d="M268.2,191.6c-.4-.5-.9-.9-1.5-1.3-.6-.3-1.3-.5-2.1-.5-1.8,0-3.3,.5-4.3,1.6-1,1.1-1.5,2.5-1.5,4.3s.5,3.2,1.5,4.3c1,1.1,2.4,1.6,4.3,1.6s1.5-.2,2.1-.5c.6-.4,1.1-.8,1.5-1.3l4.8,5c-1.1,1.2-2.5,2-4,2.4-1.5,.5-3,.7-4.4,.7s-3.5-.3-5.1-.9c-1.6-.6-3-1.4-4.1-2.5-1.2-1.1-2.1-2.4-2.8-3.9-.7-1.5-1-3.2-1-5.1s.3-3.6,1-5.1c.7-1.5,1.6-2.8,2.8-3.9,1.2-1.1,2.6-1.9,4.1-2.5,1.6-.6,3.3-.9,5.1-.9s2.8,.2,4.4,.7c1.5,.5,2.9,1.3,4,2.4l-4.8,5Z"/><path class="e" d="M275.6,184h7.2v3.8h0c.8-1.4,1.7-2.5,2.8-3.3s2.4-1.1,4-1.1,.8,0,1.3,0c.4,0,.8,0,1.2,.2v6.6c-.5-.2-1-.3-1.5-.4-.5,0-1-.1-1.6-.1-1.4,0-2.5,.2-3.3,.6-.8,.4-1.4,.9-1.9,1.6-.4,.7-.7,1.5-.8,2.5-.1,1-.2,2-.2,3.2v9.8h-7.2v-23.5Z"/><path class="e" d="M317.8,207.4h-6.9v-3.2h0c-.3,.5-.6,.9-1,1.4-.4,.5-.9,.9-1.5,1.2-.6,.4-1.2,.6-2,.9-.7,.2-1.5,.3-2.4,.3-1.8,0-3.3-.3-4.5-.8-1.1-.6-2-1.3-2.7-2.3-.6-1-1-2.2-1.3-3.5-.2-1.4-.3-2.8-.3-4.4v-12.9h7.2v11.5c0,.7,0,1.4,0,2.1,0,.7,.2,1.4,.4,2,.2,.6,.6,1.1,1.1,1.5s1.2,.6,2.1,.6,1.7-.2,2.3-.5c.6-.3,1-.8,1.3-1.4,.3-.6,.5-1.2,.6-1.9,0-.7,.1-1.4,.1-2.2v-11.7h7.2v23.5Z"/><path class="e" d="M323,184h6.9v3.2h0c.2-.4,.5-.9,1-1.4,.4-.5,.9-.9,1.5-1.2,.6-.4,1.2-.6,2-.9,.7-.2,1.5-.3,2.4-.3,1.6,0,3.1,.3,4.4,1,1.3,.7,2.2,1.7,2.9,3.2,.8-1.5,1.8-2.6,3-3.2,1.2-.6,2.7-1,4.4-1s2.9,.3,4,.8c1.1,.5,1.9,1.3,2.6,2.2,.6,.9,1.1,2,1.4,3.2,.3,1.2,.4,2.6,.4,4v13.8h-7.2v-13.7c0-1.1-.2-2-.7-2.8-.5-.8-1.3-1.2-2.5-1.2s-1.5,.1-2.1,.4c-.6,.3-1,.7-1.4,1.1s-.6,1-.7,1.7c-.1,.6-.2,1.3-.2,2v12.4h-7.2v-12.4c0-.4,0-.9,0-1.5,0-.6-.1-1.2-.3-1.7-.2-.5-.5-1-.9-1.4-.4-.4-1.1-.6-1.9-.6s-1.7,.2-2.3,.5-1,.8-1.3,1.4c-.3,.6-.5,1.2-.6,1.9,0,.7-.1,1.4-.1,2.2v11.7h-7.2v-23.5Z"/></g><g><path class="e" d="M369.1,207.7c-.9,0-1.6-.3-2.2-.9-.6-.6-.9-1.4-.9-2.2s.3-1.6,.9-2.2c.6-.6,1.4-.9,2.2-.9s1.6,.3,2.2,.9c.6,.6,.9,1.4,.9,2.2s-.3,1.6-.9,2.2c-.6,.6-1.4,.9-2.2,.9Z"/><path class="e" d="M378,196c0-1.7,.3-3.2,.9-4.7,.6-1.4,1.5-2.7,2.6-3.8,1.1-1.1,2.4-2,3.9-2.6,1.5-.6,3.1-.9,4.8-.9s3.3,.3,4.8,.9c1.5,.6,2.8,1.5,3.9,2.6,1.1,1.1,2,2.4,2.6,3.8,.6,1.4,.9,3,.9,4.7s-.3,3.2-.9,4.7c-.6,1.5-1.5,2.7-2.6,3.8-1.1,1.1-2.4,1.9-3.9,2.6-1.5,.6-3.1,.9-4.8,.9s-3.3-.3-4.8-.9c-1.5-.6-2.8-1.5-3.9-2.6s-2-2.3-2.6-3.8c-.6-1.5-.9-3-.9-4.7Zm4.6,0c0,1.2,.2,2.2,.5,3.2,.4,1,.9,1.8,1.5,2.5,.6,.7,1.4,1.2,2.4,1.6,.9,.4,2,.6,3.1,.6s2.2-.2,3.1-.6c.9-.4,1.7-.9,2.4-1.6,.6-.7,1.1-1.5,1.5-2.5,.4-1,.5-2.1,.5-3.2s-.2-2.2-.5-3.2c-.4-1-.9-1.8-1.5-2.5-.6-.7-1.4-1.2-2.4-1.6-.9-.4-2-.6-3.1-.6s-2.2,.2-3.1,.6c-.9,.4-1.7,.9-2.4,1.6-.6,.7-1.1,1.5-1.5,2.5-.4,1-.5,2.1-.5,3.2Z"/><path class="e" d="M407.7,184.6h4.3v3.5h0c.3-.6,.7-1.2,1.2-1.7,.5-.5,1-.9,1.6-1.3,.6-.4,1.2-.6,2-.8,.7-.2,1.4-.3,2.1-.3s1.4,0,1.9,.3l-.2,4.7c-.4,0-.7-.2-1.1-.2-.4,0-.7,0-1.1,0-2.1,0-3.7,.6-4.9,1.8-1.1,1.2-1.7,3-1.7,5.5v11.5h-4.3v-22.9Z"/></g><path class="e" d="M447.6,207.3c0,1.7-.3,3.3-.9,4.8-.6,1.4-1.4,2.7-2.5,3.7-1.1,1-2.4,1.9-4,2.4-1.5,.6-3.2,.9-5.1,.9s-4.2-.3-6-.9c-1.8-.6-3.5-1.7-5.2-3.2l2.9-3.7c1.1,1.2,2.3,2.1,3.7,2.8,1.3,.6,2.8,.9,4.5,.9s2.9-.2,4-.7c1.1-.5,1.9-1.1,2.5-1.8,.6-.7,1.1-1.6,1.3-2.5,.3-.9,.4-1.9,.4-2.9v-3.4h-.1c-.8,1.4-2,2.4-3.4,3.1-1.4,.7-2.9,1-4.5,1s-3.2-.3-4.7-.9c-1.4-.6-2.7-1.4-3.7-2.5-1-1-1.8-2.3-2.4-3.7-.6-1.4-.9-3-.9-4.7s.3-3.2,.8-4.7c.5-1.5,1.3-2.7,2.3-3.8,1-1.1,2.2-1.9,3.7-2.6,1.4-.6,3-.9,4.8-.9s3,.3,4.5,1c1.5,.7,2.6,1.6,3.4,2.8h0v-3.3h4.3v22.7Zm-11.9-19.2c-1.2,0-2.2,.2-3.1,.6-.9,.4-1.7,.9-2.4,1.6-.6,.7-1.1,1.5-1.5,2.5-.4,1-.5,2.1-.5,3.2,0,2.3,.7,4.2,2,5.6,1.4,1.4,3.2,2.1,5.5,2.1s4.2-.7,5.5-2.1c1.4-1.4,2-3.3,2-5.6s-.2-2.2-.5-3.2c-.4-1-.9-1.8-1.5-2.5-.6-.7-1.4-1.2-2.4-1.6-.9-.4-2-.6-3.1-.6Z"/><path class="e" d="M455.2,179.7h1.7l1.2,3.2,1.2-3.2h1.7v4.8h-1.3v-3.2h0l-1.2,3.2h-.8l-1.2-3.2h0v3.2h-1.3v-4.8Zm-3.7,1.1h-1.4v-1.1h4.1v1.1h-1.4v3.7h-1.3v-3.7Z"/></g></g></svg>