<svg viewBox="0 0 599.5 599" xmlns="http://www.w3.org/2000/svg"><circle cx="297.4" cy="292.2" fill="#fff" r="238.8"/><ellipse cx="299.8" cy="299.5" fill="none" rx="274.8" ry="274.5" stroke="#3c7d99" stroke-width="50"/><g fill="#fff"><path d="m67.6 141.2 4.6-6.4c.6-.9 1.3-1.7 2.1-2.4.7-.7 1.5-1.2 2.3-1.5s1.7-.4 2.6-.3 1.9.6 2.9 1.3 1.7 1.5 2.2 2.3c.4.8.7 1.7.7 2.5 0 .9-.2 1.7-.6 2.6s-.9 1.8-1.6 2.7l-2 2.8 6.7 4.8-2.7 3.8-17.2-12.4zm10 1.5 1.8-2.5c.2-.3.5-.7.6-1.1.2-.4.3-.7.3-1.1s0-.7-.2-1.1c-.2-.3-.4-.7-.8-1s-.9-.5-1.3-.5-.8.1-1.2.3-.7.5-1 .9-.6.7-.9 1.1l-1.4 1.9 4.1 2.9z"/><path d="m79.8 124.8 5.3-6.3c.7-.8 1.4-1.5 2.2-2.2.8-.6 1.6-1 2.4-1.3.8-.2 1.7-.3 2.6 0 .9.2 1.8.7 2.8 1.5 1.2 1 1.9 2.1 2.2 3.4s0 2.6-.7 3.9l10.3 1.6-3.6 4.3-9.4-2-1.5 1.8 6.5 5.4-3 3.6-16.3-13.6zm9.7 2 1.8-2.1c.3-.3.5-.7.8-1.1s.5-.8.6-1.2.2-.8 0-1.2c0-.4-.3-.8-.8-1.2-.4-.3-.8-.5-1.2-.6-.4 0-.8 0-1.1.2s-.7.4-1 .7-.6.6-.9.9l-2 2.3 3.7 3.1z"/><path d="m100.3 116.9c-1.2-1.2-2.1-2.5-2.7-3.9s-.9-2.8-.8-4.2c0-1.4.3-2.8 1-4.2.6-1.4 1.5-2.6 2.7-3.8s2.4-2.1 3.8-2.7 2.7-1 4.1-1 2.8.2 4.2.8 2.7 1.4 3.9 2.6 2.1 2.5 2.7 3.9.9 2.8.8 4.2-.3 2.8-1 4.2c-.6 1.4-1.5 2.6-2.7 3.8s-2.4 2.1-3.8 2.7-2.7 1-4.1 1-2.8-.2-4.2-.8-2.7-1.4-3.9-2.6zm3.4-3.5c.7.7 1.5 1.2 2.3 1.6s1.6.6 2.5.6c.8 0 1.7-.1 2.5-.5.8-.3 1.6-.9 2.3-1.6s1.2-1.5 1.5-2.3.5-1.6.5-2.5c0-.8-.2-1.7-.6-2.5s-.9-1.6-1.6-2.3-1.5-1.2-2.3-1.6-1.6-.6-2.5-.6c-.8 0-1.7.1-2.5.5-.8.3-1.6.9-2.3 1.6s-1.2 1.5-1.5 2.3-.5 1.6-.5 2.5c0 .8.2 1.7.6 2.5s.9 1.6 1.6 2.2z"/><path d="m112.8 89.9 10.8-9.3 2.8 3.3-7.3 6.2 2.8 3.3 6.7-5.8 2.8 3.3-6.7 5.8 5.4 6.3-3.6 3-13.8-16.1z"/><path d="m127.6 77.6 11.6-8.6 2.6 3.5-7.8 5.8 2.4 3.2 7.4-5.5 2.6 3.5-7.4 5.5 2.6 3.5 8.3-6.1 2.6 3.5-12 8.9-12.6-17.1z"/><path d="m155.7 64.4c-.6-.2-1.2-.2-1.9 0s-1.3.4-1.7.7c-.3.2-.6.4-.8.7-.3.3-.5.5-.7.9-.2.3-.3.6-.3 1s0 .7.3 1c.3.5.8.8 1.4.9.6 0 1.3 0 2-.2s1.5-.4 2.4-.7c.8-.2 1.7-.4 2.5-.4.9 0 1.7.2 2.5.5.8.4 1.5 1.1 2.2 2.1.6 1 1 2 1.1 3s0 1.9-.3 2.8-.8 1.7-1.5 2.5-1.5 1.4-2.4 2c-1.2.7-2.4 1.2-3.6 1.5s-2.5.3-3.9 0l.9-4.9c.7.3 1.5.4 2.3.3.8 0 1.5-.3 2.2-.8.3-.2.6-.4.9-.7s.5-.6.7-.9.3-.6.3-1c0-.3 0-.7-.3-1-.3-.5-.8-.8-1.4-.9-.6 0-1.3 0-2.1.2s-1.6.4-2.4.6c-.9.2-1.7.4-2.6.4s-1.7-.1-2.5-.5c-.8-.3-1.5-1-2.1-2s-1-1.9-1-2.9 0-1.9.4-2.8c.3-.9.8-1.7 1.5-2.5s1.4-1.4 2.3-2c1-.6 2.1-1.1 3.2-1.4s2.3-.4 3.5-.2l-.8 4.7z"/><path d="m171.5 55.5c-.6-.2-1.2-.3-1.9-.2s-1.3.3-1.8.6c-.3.2-.6.4-.9.6s-.5.5-.7.8-.3.6-.4 1c0 .3 0 .7.2 1 .3.6.8.9 1.3.9.6 0 1.3 0 2-.1.8-.1 1.6-.3 2.4-.5.9-.2 1.7-.3 2.6-.2.9 0 1.7.3 2.4.7.8.4 1.5 1.2 2.1 2.3.6 1 .9 2 .9 3s-.1 1.9-.5 2.8-.9 1.7-1.7 2.4c-.7.7-1.6 1.4-2.5 1.9-1.2.7-2.4 1.1-3.7 1.3s-2.5.1-3.9-.2l1.2-4.8c.7.3 1.5.5 2.3.4.8 0 1.6-.3 2.2-.6.3-.2.6-.4.9-.7s.5-.6.7-.9.3-.6.3-1 0-.7-.2-1c-.3-.6-.8-.9-1.4-1-.6 0-1.3 0-2.1 0-.8.1-1.6.3-2.5.5s-1.7.3-2.6.2c-.9 0-1.7-.2-2.5-.6s-1.5-1.1-2-2.1-.8-2-.9-3c0-1 .2-1.9.5-2.8.4-.9.9-1.7 1.6-2.4s1.5-1.3 2.4-1.8c1.1-.6 2.1-1 3.3-1.2 1.1-.2 2.3-.2 3.5 0l-1.1 4.6z"/><path d="m176.1 47.3 4.2-2 9.1 19.2-4.2 2z"/><path d="m188.2 53.1c-.6-1.6-.9-3.1-.9-4.6s.3-2.9.9-4.2 1.4-2.4 2.5-3.4 2.4-1.8 4-2.4c1.5-.6 3.1-.9 4.5-1 1.5 0 2.9.2 4.2.7s2.5 1.3 3.5 2.4 1.9 2.4 2.5 4 .9 3.1.9 4.6-.3 2.9-.9 4.2-1.4 2.4-2.5 3.4-2.4 1.8-4 2.4c-1.5.6-3.1.9-4.5 1-1.5 0-2.9-.2-4.2-.7s-2.5-1.3-3.5-2.4-1.9-2.4-2.5-4zm4.5-1.8c.4.9.9 1.7 1.5 2.4s1.3 1.2 2 1.5c.8.4 1.6.5 2.5.5s1.8-.2 2.7-.5c.9-.4 1.7-.9 2.3-1.5s1.1-1.3 1.4-2.1.5-1.6.4-2.5c0-.9-.2-1.8-.6-2.7s-.8-1.7-1.4-2.4-1.3-1.2-2-1.5-1.6-.5-2.5-.5-1.8.2-2.7.5-1.7.9-2.3 1.5-1.1 1.3-1.4 2.1-.5 1.6-.4 2.5.2 1.8.6 2.7z"/><path d="m210.5 33 6.1-1.8 12.8 11.7-4.1-14.2 4.5-1.3 5.9 20.4-5.9 1.7-13.1-11.9 4.2 14.5-4.5 1.3z"/><path d="m242.8 24.6 3.8-.8 13.2 19-5.2 1-2.7-4.1-8.1 1.6-.9 4.8-5.1 1 4.9-22.6zm3 5.7-1.2 7 5.1-1-3.8-6z"/><path d="m259.4 21.6 4.6-.6 2 16.8 8.6-1 .5 4.3-13.3 1.6-2.5-21.1z"/><path d="m296.9 24c-.4-.5-.9-.8-1.6-1s-1.3-.3-1.9-.3c-.3 0-.7 0-1 .1-.4 0-.7.2-1 .4s-.6.4-.8.7-.3.6-.3 1c0 .6.3 1.1.7 1.5.5.3 1.1.6 1.8.8s1.5.5 2.4.7c.8.2 1.6.5 2.4 1 .7.4 1.4 1 1.8 1.7.5.7.8 1.7.8 3 0 1.2-.2 2.2-.6 3.1s-1 1.6-1.7 2.2-1.6 1-2.6 1.3-2 .5-3.1.5c-1.4 0-2.7-.2-3.9-.6s-2.3-1.1-3.3-2l3.3-3.7c.5.6 1.1 1.1 1.8 1.5.7.3 1.5.5 2.3.5.4 0 .8 0 1.2-.2.4 0 .7-.2 1-.4s.6-.4.7-.7c.2-.3.3-.6.3-1 0-.6-.3-1.1-.8-1.5s-1.1-.7-1.9-.9c-.7-.2-1.5-.5-2.4-.7s-1.7-.6-2.4-1-1.4-1-1.9-1.7-.8-1.7-.8-2.8.2-2.1.6-3 1-1.6 1.8-2.2c.7-.6 1.6-1 2.6-1.4 1-.3 2-.5 3-.5 1.2 0 2.4.1 3.5.4s2.1.9 3.1 1.7l-3.1 3.6z"/><path d="m318.5 24.9c-.4-.6-1-1-1.6-1.4-.7-.3-1.4-.5-2.3-.6s-1.7 0-2.5.4c-.8.3-1.4.8-2 1.3-.6.6-1 1.3-1.4 2.1-.3.8-.5 1.7-.6 2.7 0 1 0 1.9.3 2.8.3.8.7 1.6 1.2 2.2s1.1 1.1 1.8 1.5 1.5.6 2.3.6c1 0 1.8-.1 2.6-.5s1.4-.9 1.9-1.6l3.8 3.1c-1 1.2-2.1 2.1-3.5 2.6s-2.8.8-4.3.7c-1.7 0-3.2-.4-4.6-1s-2.6-1.4-3.5-2.4c-1-1-1.7-2.2-2.2-3.6s-.7-3-.6-4.7.4-3.2 1.1-4.6c.6-1.4 1.5-2.5 2.5-3.4 1.1-.9 2.3-1.6 3.7-2.1s3-.6 4.6-.6c.6 0 1.2.1 1.9.2.6.1 1.3.3 1.9.6s1.2.6 1.8 1 1.1.9 1.5 1.5l-3.7 2.8z"/><path d="m327 20 8.2 1c1.1.1 2.1.4 3 .7s1.7.8 2.4 1.3c.7.6 1.2 1.3 1.5 2.2s.4 1.9.3 3.2c-.2 1.5-.7 2.7-1.6 3.7-.9.9-2.1 1.5-3.6 1.6l4.3 9.6-5.6-.7-3.4-9-2.3-.3-1 8.4-4.6-.6 2.5-21.1zm3.6 9.3 2.7.3c.4 0 .9 0 1.3.1.5 0 .9 0 1.3-.1s.7-.3 1-.6.5-.7.5-1.3c0-.5 0-1-.2-1.3s-.4-.6-.7-.8-.7-.4-1.1-.5-.9-.2-1.3-.2l-3-.4-.6 4.8z"/><path d="m363 39.2c-.3 1.2-.7 2.3-1.3 3.3s-1.3 1.7-2.2 2.3-1.9 1-3.1 1.2-2.5.1-3.9-.2-2.7-.8-3.7-1.5-1.8-1.5-2.4-2.4-.9-1.9-1.1-3 0-2.3.2-3.5l2.7-12.8 4.6 1-2.7 12.6c-.1.6-.2 1.3 0 1.9 0 .6.3 1.1.6 1.6s.7.9 1.1 1.2c.5.3 1 .6 1.6.7s1.2.1 1.7 0c.6-.1 1.1-.3 1.5-.7.5-.3.8-.7 1.2-1.2.3-.5.5-1.1.7-1.7l2.7-12.6 4.6 1-2.7 12.8z"/><path d="m371.9 27.9 6.7 2.1.5 14.7 8.9-11.7 6.7 2.1-6.4 20.2-4.5-1.4 4.9-15.5-10.3 13.8-3.4-1.1-.2-17.2-4.9 15.5-4.5-1.4 6.4-20.2z"/><path d="m409.8 40.9 6.4 3-1.5 14.6 10.4-10.4 6.4 3-9.1 19.2-4.2-2 7-14.7-12 12.3-3.2-1.5 2.1-17-7 14.7-4.2-2 9.1-19.2z"/><path d="m443 58.2 3.3 2-3 23-4.5-2.7.7-4.8-7.1-4.2-3.8 3-4.4-2.7 18.8-13.5zm-1.6 6.2-5.6 4.3 4.5 2.7 1.2-7z"/><path d="m463 77.5c0-.6-.2-1.2-.6-1.8s-.8-1-1.3-1.4c-.3-.2-.6-.4-.9-.5s-.7-.2-1-.3-.7 0-1 0c-.3.1-.6.3-.8.7-.4.5-.5 1.1-.3 1.6.2.6.5 1.1 1 1.8.5.6.9 1.3 1.5 2 .5.7 1 1.4 1.3 2.2s.5 1.6.4 2.5c0 .9-.4 1.8-1.2 2.8-.7 1-1.5 1.7-2.3 2.1-.9.5-1.8.7-2.7.7s-1.9-.1-2.9-.5-1.9-.8-2.8-1.5c-1.1-.8-2-1.7-2.7-2.8-.7-1-1.2-2.2-1.5-3.6l4.8-1c0 .8.2 1.6.6 2.3s.9 1.3 1.5 1.8c.3.2.6.4 1 .6s.7.2 1.1.3c.4 0 .7 0 1-.1s.6-.3.8-.6c.4-.5.5-1.1.3-1.7s-.5-1.2-.9-1.8-.9-1.3-1.5-2c-.5-.7-1-1.5-1.3-2.3s-.5-1.6-.5-2.5.4-1.8 1.1-2.7 1.4-1.6 2.3-2 1.8-.7 2.7-.7 1.9.1 2.9.5c1 .3 1.9.8 2.7 1.4 1 .7 1.8 1.5 2.5 2.4s1.2 2 1.5 3.2l-4.7 1z"/><path d="m472.9 83.9-4.7-3.8 2.6-3.2 13 10.6-2.6 3.2-4.7-3.8-10.8 13.3-3.6-3z"/><path d="m486.9 90.3 10.5 9.9-3 3.1-7.1-6.7-2.7 2.9 6.7 6.3-3 3.1-6.7-6.3-3 3.1 7.5 7.1-3 3.1-10.9-10.3 14.6-15.5z"/><path d="m501.5 104.2 5.6 6c.7.8 1.3 1.6 1.9 2.5.5.9.8 1.7 1 2.6.1.9 0 1.7-.3 2.6s-.9 1.7-1.8 2.6c-1.1 1-2.3 1.6-3.6 1.7s-2.6-.3-3.8-1.2l-2.9 10-3.8-4.1 3.2-9-1.6-1.7-6.2 5.7-3.2-3.4 15.6-14.4zm-3.3 9.4 1.9 2c.3.3.6.6.9 1 .3.3.7.6 1.1.8s.8.3 1.2.2c.4 0 .8-.2 1.2-.6s.6-.7.7-1.1c0-.4 0-.8 0-1.1-.1-.4-.3-.7-.5-1.1s-.5-.7-.8-1l-2.1-2.3-3.6 3.3z"/><path d="m521.3 127.1 2.8 3.7-16.9 12.8-2.8-3.7z"/><path d="m526.9 134.7 2.7 3.8-17.2 12.4-2.7-3.8z"/><path d="m535.2 141.2-.9-1.5.7-.5 2.5 3.8-.7.5-.9-1.5-3.7 2.4-.6-.9 3.7-2.4zm2.8 2.8.9 1.4-2.5 3.5 4.2-.8.9 1.4-4.3 2.8-.6-.9 3.6-2.4-4.5.9-.5-.7 2.7-3.8-3.6 2.3-.6-.9z"/></g><circle cx="298.6" cy="300.5" fill="none" r="241" stroke="#8ab0c2" stroke-width="20"/><path d="m96.2 261.4h36.8c5.1 0 10 .5 14.6 1.4s8.6 2.5 12 4.8 6.1 5.4 8.1 9.2c2 3.9 3 8.8 3 14.6s-.9 10.6-2.8 14.6c-1.9 3.9-4.4 7-7.7 9.4-3.3 2.3-7.1 4-11.6 5s-9.3 1.5-14.6 1.5h-16v38.6h-21.8zm21.8 42h14.6c2 0 3.9-.2 5.7-.6s3.5-1 4.9-1.9 2.6-2.1 3.5-3.6 1.3-3.5 1.3-5.8-.6-4.5-1.8-6.1c-1.2-1.5-2.7-2.7-4.5-3.6-1.8-.8-3.8-1.4-6.1-1.6-2.2-.2-4.4-.4-6.4-.4h-11.2v23.5z" fill="#3c7d99"/><path d="m233.4 285.6c-1.8-2.2-4.2-3.9-7.2-5s-5.9-1.6-8.6-1.6-3.2.2-4.9.6-3.3 1-4.8 1.8-2.7 1.8-3.6 3.1-1.4 2.9-1.4 4.8c0 3 1.1 5.3 3.4 6.9 2.2 1.6 5.1 2.9 8.5 4.1 3.4 1.1 7.1 2.2 11 3.4s7.6 2.7 11 4.8 6.2 4.8 8.5 8.3c2.2 3.5 3.4 8.1 3.4 13.9s-1 10.3-3.1 14.4-4.8 7.5-8.3 10.2-7.6 4.7-12.2 6-9.5 2-14.6 2-12.4-1-17.9-2.9c-5.5-2-10.6-5.1-15.4-9.5l15.5-17.1c2.2 3 5.1 5.3 8.5 6.9s6.9 2.4 10.6 2.4 3.6-.2 5.4-.6 3.5-1 4.9-1.9c1.4-.8 2.6-1.9 3.5-3.2s1.3-2.8 1.3-4.6c0-3-1.1-5.3-3.4-7.1-2.3-1.7-5.2-3.2-8.6-4.4-3.5-1.2-7.2-2.4-11.2-3.6s-7.7-2.8-11.2-4.9-6.3-4.8-8.6-8.1c-2.3-3.4-3.4-7.8-3.4-13.3s1.1-10 3.2-14 4.9-7.4 8.4-10.1 7.5-4.7 12.1-6.1 9.3-2 14.1-2 11 .8 16.2 2.4 9.9 4.2 14.1 8l-15 16.4z" fill="#3c7d99"/><path d="m264.8 261.4h33l22.8 64.7h.3l23-64.7h32.9v99.1h-21.8v-76h-.3l-26 76h-16.7l-25.1-76h-.3v76h-21.8z" fill="#3c7d99"/><path d="m438.1 261.4h21.8v99.1h-21.8z" fill="#3c7d99"/><path d="m479.5 261.4h21.8v99.1h-21.8z" fill="#3c7d99"/><path d="m150.2 182.1c.7-3 1.9-5.9 3.5-8.5s3.6-4.9 5.8-6.7c-1.7 1.5-3.3 3.2-4.6 5 1-1.4 2-2.6 3.2-3.6 1.2-1.1 2.4-2 3.9-2.9-.4.4-1 .9-1.6 1.4s-1.1 1-1.1 1.3c-3 2.7-5.5 6-7.3 9.7s-2.8 7.7-3 11.8c-.4-1.6-.2-3 .1-4.1.3-1.2.8-2.2 1.1-3.2" fill="#405a70"/><path d="m170.3 161.7c-.8.2-1.5.5-2.3.8.8-.3 1.5-.6 2.3-.8" fill="#405a70"/><path d="m179.8 215.1c.8 0 1.7-.2 2.5-.3-.8.2-1.6.3-2.5.3" fill="#405a70"/><path d="m151.5 192.6.4 1.4c.5 3.5 1.7 6.9 3.6 10.1-1-1.7-2-3.5-2.7-5.5-.7-1.9-1.2-4-1.2-6" fill="#405a70"/><path d="m152.1 188.8c0-3.5 1-7.1 2.7-9.9-1.6 2.9-2.5 6.3-2.7 9.9" fill="#405a70"/><path d="m197.2 200.2s0 0 0-.2v-.2c.6-.9 1.2-2 1.7-3 0 .3 0 .6-.1.9-.3.6-.6.9-.8 1.2s-.5.7-.7 1.4" fill="#405a70"/><path d="m178.9 215.2c-.3 0-.6 0-.9 0h-.1z" fill="#405a70"/><path d="m196.4 201.4c-.1 0-.2-.1-.4 0 .4-.5.8-1 1.2-1.5v.2c-.1.4-.6.9-.7 1.4" fill="#405a70"/><path d="m184.3 208.9c-.4.1-.7.5-.8.6-1.1 0-2.1 0-3.3 0-.2 0-.6.1-.9.3-.2-.1-.5-.2-.7-.3 2.6 0 5.3-.4 8-1.4-.7.3-1.4.6-2.2.8" fill="#405a70"/><path d="m172.2 165.8c2-.6 4.3-.8 6.5-.8s4.4.4 6.5.6c-2.3-.9-5.2-1.4-7.6-1.5-2.4-.2-4.4 0-4.9-.5s1.2-1 3.7-1.1c1.2 0 2.6 0 3.9.2s2.5.4 3.5.6q-.5-.2-1-.4c.5.2 1 .4 1.5.4-.5-.2-1.3-.5-2-.8-.7-.2-1.4-.5-1.7-.7.3 0 .7-.1 1-.2-1.4-.6-3.5-1-5.7-1s-4.4.1-6 .2c3.8-.4 7.9-.4 12 .4s8.2 2.4 11.9 4.8 6.9 5.8 9.2 9.7 3.6 8.3 3.8 12.7c.7 9.8-3.2 19.3-10 25.7-.7.6-1.9 1.5-3.3 2.2-1.5.8-3.1 1.5-4.6 1.9-4.9 2-10.4 2.7-15.9 2.2-5.7-.7-11.1-3.3-15.5-7.2-4.3-3.9-7.6-9-9.5-14.9-.4-1.2-.4-2.7-.2-3.1.1-.2.3-.2.6.3.3.4.6 1.3 1.1 2.6 1.8 4.4 4.4 8.5 7.8 11.9-.3 0-.9-.6-1.4-1.1-.5-.6-1.1-1.2-1.5-1.6 1 1.5 2 2.8 3.2 3.9s2.4 2.2 3.9 3.1c-2-1.3-3.8-2.8-5.4-4.5 2 2.1 4.5 4.1 7.2 5.6 2.8 1.6 5.8 2.7 9 3.2 1.1.2 2.2.7 3.4 1s2.6.4 4.3 0c-4.2 0-8.5-.9-12.3-2.5-3.9-1.7-7.4-4.1-10.4-7.1-2.7-2.6-4.6-5.5-6.1-8.8.5 1 1.1 2 1.5 2.9-2.4-4.7-3.6-9.8-3.6-14.9.3 3.6 1.2 7.2 2.7 10.6s3.5 6.6 6.1 9.2c2.6 2.7 5.7 4.8 9.1 6.3s7 2.2 10.6 2.2c-2-.3-4.3-.6-6.4-1.1-2.2-.5-4.2-1.3-5.6-2.5 5.7 2.9 12.4 4 18.9 2.7l-1.4.4c2.1-.1 4.2-.7 6.1-1.5 2-.8 3.8-1.9 5.6-3.1.3-.2.6-.4.9-.6l-.9.6c-3.2 2.1-6.7 3.5-10.3 4.2 1.6-.5 3.3-1 5.3-1.8-1.1.2-2.7.7-4.3 1-2.1.5-4.2.8-6.3.8 3.3-.1 6.4-1 9-2.3-4.1 1.3-8.7 1.9-12.9 1.2 2.4.2 4.7.2 7.1-.2 3.9-.5 7.8-1.8 11.2-4.1l-.4.3c.3-.2.5-.4.8-.5 1.3-.9 2.6-1.9 3.7-3.1 1-1 1.8-2.2 2.4-3.5l.4-.6c-.2.4-.2.7.4 0 1.2-1.5 2-3.2 2.7-5.1s1.2-3.9 1.7-6c.3-1.1.3-2.6.2-4.3 0-.4 0-.7 0-.9 0-.4 0-.7-.1-1.1 0-.9-.2-1.7-.5-2.5.2.8.3 1.7.5 2.5v1c0-.2-.1-.4-.2-.9.2 3 0 6-.8 8.9s-2.1 5.8-3.7 8.3c.1-.4.3-.8.4-1.1-.2.6-.5 1.1-.8 1.6-1.1 1.6-2.4 3.2-3.9 4.5.4-.4.7-.9 1-1.3-2 2-4.3 3.7-6.8 5s-5.2 2.2-8 2.7c-5.3.6-10.7-.4-15.3-2.8 2.4 1.5 5.2 2.6 8.2 3-4-.4-8-1.8-11.4-4s-6.3-5.3-8.2-8.8c1.1 1 2.5 2.4 3.5 2.7.1-.2-1.3-2.2-.3-1.2 1.9 1.8 3.5 3.2 5 4.2s2.9 1.5 4.1 1.3c.3 0-.7-1.1-1.3-2s-1-1.8-.3-1.4c1.2.7 3.3 1.8 5.7 2.4.7.3 1.4.5 2.2.6h.5c2.7.5 5.2.3 6.7.2.5 0 1.1-.1 1.6-.2.3 0 .5 0 .8.1.3-.2.6-.4.9-.5 1.4-.4 2.7-.9 4-1.5.7-.3 1.5-.6 2.2-.9 0 0-.2-.1-.2-.3 1.5-1 2.8-2.1 3.9-3.5.6-.5 1.1-.9 1.6-1.2.2-1 1-2.4 1.7-4s1.3-3.4 1.5-4.9c.3-1.5.4-3.1.3-4.7 0-.3.1-.5.2-.8-.2-.4-.2-.8-.3-1 0-1.3-.1-2.4-.2-3.5-.1-.2-.5-.4-.6-.8-.2-.8-.6-1.5-.9-2.2-.4-.8-.8-1.7-1.3-2.5-1.6-2.8-3.8-5.2-6.4-7.1 0-.1 0-.3 0-.4-.5-.1-1.1-.6-1.5-.7h.2c-.7-.2-1.1-.5-1.5-.7s-.7-.5-1.3-.8c-.3 0-.6 0-.9-.1-.1 0-.3-.1-.4-.2-1.3-1-2.9-1.1-4.6-1.3-1.7-.3-3.4-.4-5.2-.3-1.4.1-2-.1-3-.1" fill="#405a70"/><path d="m199 196.4c.6-1.4 1.1-2.8 1.4-4.3-.2 1.6-.4 3.1-1.4 4.3" fill="#405a70"/><path d="m165.9 205.6c-.3-.5-.7-1.1-1.1-1.6 2.6 2.5 5.8 4.2 9.4 5.1-1.4-.2-3.1-.9-4.6-1.6s-2.7-1.5-3.7-1.8" fill="#405a70"/><path d="m197.1 200s0-.1 0-.2z" fill="#405a70"/><path d="m156.9 203.2-.2-.4c.6.9 1.3 1.8 2.1 2.6-.6-.6-1.3-1.4-1.8-2.3" fill="#405a70"/><path d="m153.2 191.9c-.3-2.2-.3-4.5 0-6.8.6-2.9 1.7-5.6 3.3-7.8-2.5 4.3-3.7 9.4-3.4 14.5" fill="#405a70"/><path d="m161.4 200.2c-.3-.7-.5-1.4-.8-2.1.3.7.6 1.3 1 2-.2 0-.2 0-.3.2" fill="#405a70"/><path d="m163.4 209.8-.5-.4c.5.3 1 .6 1.6.8-.2 0-.7-.3-1-.4" fill="#405a70"/><path d="m159.1 192.7c0 .5.1 1.1.3 1.6-.1-.3-.3-.6-.4-.9 0-.2.2-.4.2-.7" fill="#405a70"/><path d="m159.4 184.4c.2-.7.4-1.4.7-2-.3.8-.5 1.7-.7 2.5 0-.2 0-.4 0-.5" fill="#405a70"/><path d="m165.9 150.5c2.2.9 4.2 2.3 6 3.9 1.7 1.6 3.2 3.5 4.3 5.4-.9-1.5-2-3-3.2-4.2.9 1 1.6 1.9 2.3 3 .6 1 1.2 2.2 1.6 3.4-.3-.3-.5-.9-.8-1.4s-.6-1-.8-1.1c-1.6-2.7-3.8-5.1-6.3-7s-5.5-3.3-8.5-4c1.3 0 2.3.3 3.1.7s1.5 1 2.3 1.3" fill="#1899b5"/><path d="m178.4 168.8c0-.6-.2-1.2-.3-1.8.1.6.3 1.3.3 1.8" fill="#1899b5"/><path d="m136.4 168.1c0 .6 0 1.3-.1 1.9 0-.6 0-1.3.1-1.9" fill="#1899b5"/><path d="m157.7 149.9h-1.1c-2.7 0-5.5.3-8.2 1.3 1.5-.5 3-1 4.6-1.3s3.2-.3 4.7 0" fill="#1899b5"/><path d="m160.5 150.9c2.7.5 5.2 1.8 7.2 3.5-2-1.6-4.5-2.9-7.2-3.5" fill="#1899b5"/><path d="m145.2 183.6s0 0 .2 0h.2c.6.6 1.3 1.2 2 1.7-.2 0-.4-.1-.6-.2-.4-.3-.6-.6-.8-.8s-.5-.4-.9-.7" fill="#1899b5"/><path d="m136.5 167.4c0-.3 0-.5 0-.7 0 .2 0 .5-.1.7" fill="#1899b5"/><path d="m144.4 182.8s.1-.2.1-.3c.3.4.7.7 1 1.1 0 0-.1 0-.2 0-.3-.2-.6-.6-1-.8" fill="#1899b5"/><path d="m140.4 172.5c0-.3-.3-.6-.3-.7.1-.8.3-1.6.4-2.5 0-.2 0-.5 0-.8.1-.2.2-.3.3-.5-.4 2-.5 4.1 0 6.3-.1-.6-.2-1.2-.3-1.8" fill="#1899b5"/><path d="m175 169.6c.2 1.6 0 3.4-.4 5.1s-1 3.3-1.4 4.9c1-1.6 1.8-3.7 2.3-5.6.5-1.8.7-3.3 1.1-3.6s.6 1.1.3 3c-.1.9-.4 2-.7 2.9-.3 1-.7 1.9-1 2.6.2-.4.2-.4.5-.7-.2.4-.5.7-.5 1.1.3-.3.6-.9.9-1.4s.6-1 .8-1.2v.8c.7-1 1.3-2.5 1.6-4.2.4-1.6.5-3.3.8-4.6-.3 3-.9 6.1-2.1 9.1s-3 5.9-5.4 8.3-5.4 4.4-8.7 5.5c-3.3 1.2-6.9 1.5-10.2 1-7.6-.9-14.2-5.3-18.1-11.4-.3-.6-.8-1.7-1.2-2.9s-.7-2.6-.8-3.8c-.8-4.1-.5-8.3.7-12.4 1.4-4.3 4.2-8 7.8-10.7s8-4.5 12.7-5c.9-.1 2.1 0 2.4.3.2.1 0 .3-.3.4-.4.1-1.1.2-2.2.4-3.6.7-7.2 2.1-10.2 4.2.1-.2.5-.6 1.1-.9.5-.3 1.1-.6 1.4-.9-1.3.5-2.4 1.2-3.4 1.9s-2 1.5-3 2.5c1.3-1.3 2.7-2.5 4.2-3.5-1.9 1.2-3.8 2.8-5.4 4.7s-2.9 4-3.8 6.4c-.3.8-.8 1.6-1.2 2.5s-.7 1.9-.6 3.3c.6-3.2 1.9-6.3 3.8-9 1.8-2.7 4.2-5 6.9-6.8 2.4-1.6 4.9-2.7 7.6-3.3-.8.2-1.7.5-2.4.7 3.9-1.1 8-1.3 11.9-.5-2.8-.3-5.7-.2-8.5.5-2.8.6-5.5 1.7-7.9 3.3s-4.5 3.6-6.2 6c-1.6 2.4-2.7 5-3.2 7.7.6-1.5 1.1-3.2 1.8-4.7.7-1.6 1.7-3 2.7-3.9-3.1 3.9-4.9 8.8-4.8 14v-1.1c-.3 1.6-.2 3.3.1 4.9s.9 3.2 1.5 4.7c.1.3.2.5.3.8l-.3-.8c-1.1-2.7-1.7-5.6-1.7-8.5.1 1.3.3 2.7.6 4.3 0-.9-.1-2.2-.1-3.4 0-1.7 0-3.3.3-4.9-.4 2.5-.2 5.1.4 7.2-.4-3.3-.2-6.9 1-10-.5 1.8-.8 3.6-.9 5.4-.2 3.1.2 6.2 1.4 9.1l-.2-.3c0 .2.2.4.3.7.5 1.1 1.1 2.2 1.8 3.3.6.9 1.4 1.7 2.3 2.4l.4.4c-.3-.2-.5-.2 0 .3.9 1.1 2.2 2 3.5 2.8s2.8 1.5 4.3 2.2c.8.4 2 .7 3.2.8.3.1.5.1.7 0h.8 2c-.7 0-1.3 0-2 0h-.8c.2-.1.4-.2.7-.2-2.3-.3-4.6-.9-6.7-1.9s-4.1-2.4-5.8-4.1c.3.1.6.4.8.4-.4-.3-.8-.5-1.1-.8-1.1-1.1-2-2.3-2.9-3.6.3.4.6.7.9.9-1.2-1.8-2.2-3.8-2.8-5.9s-.9-4.3-.9-6.5c.3-4.1 1.9-8.1 4.4-11.2-1.5 1.6-2.7 3.6-3.5 5.8.9-3 2.5-5.8 4.7-8.1s4.9-4 7.9-4.9c-1 .7-2.2 1.6-2.6 2.3.1.1 1.8-.6.9 0-1.6 1.2-3 2.2-3.9 3.2-1 1-1.6 2-1.6 2.9 0 .2.9-.3 1.7-.7s1.5-.5 1.1 0c-.7.8-1.8 2.2-2.7 4-.3.5-.6 1-.8 1.5v.4c-.7 2-1 4-1.1 5.1v1.2c0 .2-.1.4-.2.6 0 .3.2.5.2.8 0 1.1.2 2.2.5 3.2 0 .6.2 1.2.4 1.8 0 0 .1-.2.2 0 .5 1.3 1.2 2.4 2.1 3.5.3.5.5 1 .7 1.4.8.3 1.7 1.1 2.8 1.9s2.4 1.5 3.5 1.9c1.1.4 2.3.7 3.5.9.2 0 .4.2.5.3.3 0 .6 0 .8-.1 1 .1 1.8.3 2.7.3.1 0 .4-.3.7-.4.6 0 1.3-.2 1.8-.4l2.1-.6c2.3-.8 4.5-2.1 6.3-3.8.1 0 .2 0 .3.1.2-.4.6-.7.8-1v.2c.3-.5.5-.8.7-1s.5-.5.8-.9c.1-.2.1-.4.2-.7 0 0 .1-.2.2-.3 1-.8 1.3-2 1.7-3.3.5-1.3.8-2.6 1-3.9.1-1.1.4-1.5.6-2.3" fill="#1899b5"/><path d="m147.8 185.5c1 .7 2 1.3 3.1 1.7-1.2-.4-2.3-.8-3.1-1.7" fill="#1899b5"/><path d="m145.7 158.9c.5-.1.9-.3 1.4-.6-2.3 1.6-4.1 3.8-5.2 6.4.4-1.1 1.2-2.2 2-3.2s1.6-1.9 1.9-2.6" fill="#1899b5"/><path d="m145.3 183.5h.2s-.1 0-.2 0" fill="#1899b5"/><path d="m148.8 152.4h.3c-.8.2-1.6.6-2.3 1.1.6-.4 1.3-.8 2-1.1" fill="#1899b5"/><path d="m158 151.3c1.8.1 3.5.5 5.2 1.1 2.1.9 4 2.1 5.4 3.7-2.9-2.5-6.6-4.2-10.6-4.7" fill="#1899b5"/><path d="m150.4 156.3c.6-.1 1.2-.2 1.7-.3-.6.1-1.1.3-1.7.5 0-.1 0-.2 0-.2" fill="#1899b5"/><path d="m142.9 156.4.4-.4c-.3.3-.6.7-.8 1.1 0-.1.3-.5.5-.7" fill="#1899b5"/><path d="m156.5 155.7c-.4 0-.8 0-1.3 0 .2 0 .5-.1.7-.2.1.1.3.2.5.3" fill="#1899b5"/><path d="m162.8 157.2c.5.3 1 .5 1.4.8-.6-.3-1.2-.6-1.8-.9h.4" fill="#1899b5"/><path d="m242.6 181.6c-.6-.8-1.4-1.3-2.5-1.7-1-.4-2-.6-3-.6s-1.1 0-1.7.2c-.6.1-1.1.3-1.6.6s-.9.6-1.3 1.1c-.3.5-.5 1-.5 1.6 0 1 .4 1.8 1.2 2.4.8.5 1.7 1 2.9 1.4s2.4.8 3.8 1.2 2.6.9 3.8 1.6 2.1 1.7 2.9 2.8c.8 1.2 1.2 2.8 1.2 4.8s-.4 3.6-1.1 5-1.7 2.6-2.9 3.5-2.6 1.6-4.2 2.1-3.3.7-5 .7-4.3-.3-6.2-1-3.7-1.8-5.3-3.3l5.4-5.9c.8 1 1.7 1.8 2.9 2.4s2.4.8 3.6.8 1.2 0 1.9-.2c.6-.1 1.2-.4 1.7-.7s.9-.7 1.2-1.1.5-1 .5-1.6c0-1-.4-1.8-1.2-2.4s-1.8-1.1-3-1.5-2.5-.8-3.9-1.3c-1.4-.4-2.7-1-3.9-1.7s-2.2-1.6-3-2.8-1.2-2.7-1.2-4.6.4-3.4 1.1-4.8 1.7-2.5 2.9-3.5c1.2-.9 2.6-1.6 4.2-2.1s3.2-.7 4.9-.7 3.8.3 5.6.8 3.4 1.5 4.9 2.8l-5.2 5.6z" fill="#405a70"/><path d="m268.3 191.6c-.4-.5-.9-.9-1.5-1.3-.6-.3-1.3-.5-2.1-.5-1.8 0-3.3.5-4.3 1.6s-1.5 2.5-1.5 4.3.5 3.2 1.5 4.3 2.4 1.6 4.3 1.6 1.5-.2 2.1-.5c.6-.4 1.1-.8 1.5-1.3l4.8 5c-1.1 1.2-2.5 2-4 2.4-1.5.5-3 .7-4.4.7s-3.5-.3-5.1-.9-3-1.4-4.1-2.5c-1.2-1.1-2.1-2.4-2.8-3.9s-1-3.2-1-5.1.3-3.6 1-5.1 1.6-2.8 2.8-3.9 2.6-1.9 4.1-2.5c1.6-.6 3.3-.9 5.1-.9s2.8.2 4.4.7c1.5.5 2.9 1.3 4 2.4l-4.8 5z" fill="#405a70"/><path d="m275.7 184h7.2v3.8c.8-1.4 1.7-2.5 2.8-3.3s2.4-1.1 4-1.1.8 0 1.3 0c.4 0 .8 0 1.2.2v6.6c-.5-.2-1-.3-1.5-.4-.5 0-1-.1-1.6-.1-1.4 0-2.5.2-3.3.6s-1.4.9-1.9 1.6c-.4.7-.7 1.5-.8 2.5s-.2 2-.2 3.2v9.8h-7.2v-23.5z" fill="#405a70"/><path d="m317.9 207.4h-6.9v-3.2c-.3.5-.6.9-1 1.4s-.9.9-1.5 1.2c-.6.4-1.2.6-2 .9-.7.2-1.5.3-2.4.3-1.8 0-3.3-.3-4.5-.8-1.1-.6-2-1.3-2.7-2.3-.6-1-1-2.2-1.3-3.5-.2-1.4-.3-2.8-.3-4.4v-12.9h7.2v11.5 2.1c0 .7.2 1.4.4 2s.6 1.1 1.1 1.5 1.2.6 2.1.6 1.7-.2 2.3-.5 1-.8 1.3-1.4.5-1.2.6-1.9c0-.7.1-1.4.1-2.2v-11.7h7.2v23.5z" fill="#405a70"/><path d="m323 184h6.9v3.2c.2-.4.5-.9 1-1.4.4-.5.9-.9 1.5-1.2.6-.4 1.2-.6 2-.9.7-.2 1.5-.3 2.4-.3 1.6 0 3.1.3 4.4 1s2.2 1.7 2.9 3.2c.8-1.5 1.8-2.6 3-3.2s2.7-1 4.4-1 2.9.3 4 .8 1.9 1.3 2.6 2.2c.6.9 1.1 2 1.4 3.2s.4 2.6.4 4v13.8h-7.2v-13.7c0-1.1-.2-2-.7-2.8s-1.3-1.2-2.5-1.2-1.5.1-2.1.4-1 .7-1.4 1.1-.6 1-.7 1.7c-.1.6-.2 1.3-.2 2v12.4h-7.2v-12.4c0-.4 0-.9 0-1.5s-.1-1.2-.3-1.7-.5-1-.9-1.4-1.1-.6-1.9-.6-1.7.2-2.3.5-1 .8-1.3 1.4-.5 1.2-.6 1.9c0 .7-.1 1.4-.1 2.2v11.7h-7.2v-23.5z" fill="#405a70"/><path d="m369.2 207.7c-.9 0-1.6-.3-2.2-.9s-.9-1.4-.9-2.2.3-1.6.9-2.2 1.4-.9 2.2-.9 1.6.3 2.2.9.9 1.4.9 2.2-.3 1.6-.9 2.2-1.4.9-2.2.9z" fill="#405a70"/><path d="m378.1 196c0-1.7.3-3.2.9-4.7.6-1.4 1.5-2.7 2.6-3.8s2.4-2 3.9-2.6 3.1-.9 4.8-.9 3.3.3 4.8.9 2.8 1.5 3.9 2.6 2 2.4 2.6 3.8.9 3 .9 4.7-.3 3.2-.9 4.7-1.5 2.7-2.6 3.8-2.4 1.9-3.9 2.6c-1.5.6-3.1.9-4.8.9s-3.3-.3-4.8-.9-2.8-1.5-3.9-2.6-2-2.3-2.6-3.8-.9-3-.9-4.7zm4.6 0c0 1.2.2 2.2.5 3.2.4 1 .9 1.8 1.5 2.5s1.4 1.2 2.4 1.6c.9.4 2 .6 3.1.6s2.2-.2 3.1-.6 1.7-.9 2.4-1.6c.6-.7 1.1-1.5 1.5-2.5s.5-2.1.5-3.2-.2-2.2-.5-3.2c-.4-1-.9-1.8-1.5-2.5s-1.4-1.2-2.4-1.6c-.9-.4-2-.6-3.1-.6s-2.2.2-3.1.6-1.7.9-2.4 1.6c-.6.7-1.1 1.5-1.5 2.5s-.5 2.1-.5 3.2z" fill="#405a70"/><path d="m407.8 184.6h4.3v3.5c.3-.6.7-1.2 1.2-1.7s1-.9 1.6-1.3 1.2-.6 2-.8c.7-.2 1.4-.3 2.1-.3s1.4 0 1.9.3l-.2 4.7c-.4 0-.7-.2-1.1-.2s-.7 0-1.1 0c-2.1 0-3.7.6-4.9 1.8-1.1 1.2-1.7 3-1.7 5.5v11.5h-4.3v-22.9z" fill="#405a70"/><path d="m447.7 207.3c0 1.7-.3 3.3-.9 4.8-.6 1.4-1.4 2.7-2.5 3.7s-2.4 1.9-4 2.4c-1.5.6-3.2.9-5.1.9s-4.2-.3-6-.9-3.5-1.7-5.2-3.2l2.9-3.7c1.1 1.2 2.3 2.1 3.7 2.8 1.3.6 2.8.9 4.5.9s2.9-.2 4-.7 1.9-1.1 2.5-1.8 1.1-1.6 1.3-2.5c.3-.9.4-1.9.4-2.9v-3.4h-.1c-.8 1.4-2 2.4-3.4 3.1s-2.9 1-4.5 1-3.2-.3-4.7-.9c-1.4-.6-2.7-1.4-3.7-2.5-1-1-1.8-2.3-2.4-3.7s-.9-3-.9-4.7.3-3.2.8-4.7 1.3-2.7 2.3-3.8 2.2-1.9 3.7-2.6c1.4-.6 3-.9 4.8-.9s3 .3 4.5 1 2.6 1.6 3.4 2.8v-3.3h4.3v22.7zm-11.9-19.2c-1.2 0-2.2.2-3.1.6s-1.7.9-2.4 1.6c-.6.7-1.1 1.5-1.5 2.5s-.5 2.1-.5 3.2c0 2.3.7 4.2 2 5.6 1.4 1.4 3.2 2.1 5.5 2.1s4.2-.7 5.5-2.1c1.4-1.4 2-3.3 2-5.6s-.2-2.2-.5-3.2c-.4-1-.9-1.8-1.5-2.5s-1.4-1.2-2.4-1.6c-.9-.4-2-.6-3.1-.6z" fill="#405a70"/><path d="m455.3 179.7h1.7l1.2 3.2 1.2-3.2h1.7v4.8h-1.3v-3.2l-1.2 3.2h-.8l-1.2-3.2v3.2h-1.3zm-3.7 1.1h-1.4v-1.1h4.1v1.1h-1.4v3.7h-1.3z" fill="#405a70"/></svg>