<?xml version="1.0" encoding="UTF-8"?>
<svg id="Layer_2" data-name="Layer 2" xmlns="http://www.w3.org/2000/svg" viewBox="0 0 597.16 596.66">
  <defs>
    <style>
      .cls-1 {
        stroke: #f8b917;
        stroke-width: 19.92px;
      }

      .cls-1, .cls-2 {
        fill: none;
      }

      .cls-2 {
        stroke: #f7921e;
        stroke-width: 49.8px;
      }

      .cls-3 {
        fill: #1899b5;
      }

      .cls-3, .cls-4, .cls-5, .cls-6 {
        stroke-width: 0px;
      }

      .cls-4 {
        fill: #405a70;
      }

      .cls-5 {
        fill: #fff;
      }

      .cls-6 {
        fill: #f7921e;
      }
    </style>
  </defs>
  <g id="Layer_1-2" data-name="Layer 1">
    <g>
      <g>
        <path class="cls-5" d="m298.46,596.66c164.76,0,298.33-133.57,298.33-298.33S463.23,0,298.46,0,.13,133.57.13,298.33s133.57,298.33,298.33,298.33"/>
        <ellipse class="cls-2" cx="298.58" cy="298.33" rx="273.68" ry="273.43"/>
        <circle class="cls-1" cx="297.47" cy="299.33" r="240.06"/>
      </g>
      <g>
        <path class="cls-6" d="m84.97,264.39h34.06c4.75,0,9.24.43,13.47,1.29,4.23.86,7.92,2.35,11.07,4.47,3.15,2.12,5.65,4.97,7.51,8.55,1.86,3.58,2.78,8.09,2.78,13.53s-.86,9.84-2.59,13.47c-1.73,3.63-4.1,6.52-7.12,8.68-3.02,2.16-6.6,3.69-10.75,4.6s-8.63,1.36-13.47,1.36h-14.76v35.74h-20.2v-91.68Zm20.2,38.85h13.47c1.81,0,3.56-.17,5.25-.52,1.68-.34,3.19-.93,4.53-1.75,1.34-.82,2.42-1.94,3.24-3.37.82-1.42,1.23-3.21,1.23-5.37,0-2.33-.54-4.21-1.62-5.63-1.08-1.42-2.46-2.53-4.14-3.3-1.68-.78-3.56-1.27-5.63-1.49-2.07-.21-4.06-.32-5.96-.32h-10.36v21.75Z"/>
        <path class="cls-6" d="m211.87,286.79c-1.64-2.07-3.86-3.6-6.67-4.6-2.81-.99-5.46-1.49-7.96-1.49-1.47,0-2.98.17-4.53.52-1.55.35-3.02.89-4.4,1.62-1.38.73-2.5,1.71-3.37,2.91-.86,1.21-1.29,2.68-1.29,4.4,0,2.76,1.04,4.88,3.11,6.35,2.07,1.47,4.68,2.72,7.83,3.75,3.15,1.04,6.54,2.07,10.17,3.11,3.63,1.04,7.01,2.5,10.17,4.4,3.15,1.9,5.76,4.45,7.83,7.64,2.07,3.2,3.11,7.47,3.11,12.82s-.95,9.54-2.85,13.34c-1.9,3.8-4.47,6.95-7.71,9.45-3.24,2.5-6.99,4.36-11.27,5.57s-8.79,1.81-13.53,1.81c-5.96,0-11.48-.91-16.58-2.72-5.09-1.81-9.84-4.75-14.24-8.81l14.37-15.8c2.07,2.76,4.68,4.9,7.83,6.41,3.15,1.51,6.41,2.27,9.78,2.27,1.64,0,3.3-.19,4.99-.58,1.68-.39,3.19-.97,4.53-1.75,1.34-.78,2.42-1.77,3.24-2.98.82-1.21,1.23-2.63,1.23-4.27,0-2.76-1.06-4.94-3.17-6.54-2.12-1.6-4.77-2.96-7.96-4.08-3.2-1.12-6.65-2.24-10.36-3.37-3.71-1.12-7.17-2.63-10.36-4.53-3.2-1.9-5.85-4.4-7.96-7.51-2.12-3.11-3.17-7.21-3.17-12.3s.97-9.24,2.91-12.95c1.94-3.71,4.53-6.82,7.77-9.32,3.24-2.5,6.97-4.38,11.2-5.63,4.23-1.25,8.59-1.88,13.08-1.88,5.18,0,10.19.73,15.02,2.2,4.83,1.47,9.19,3.93,13.08,7.38l-13.86,15.15Z"/>
        <path class="cls-6" d="m240.88,264.39h34.06c4.75,0,9.24.43,13.47,1.29,4.23.86,7.92,2.35,11.07,4.47,3.15,2.12,5.65,4.97,7.51,8.55,1.86,3.58,2.78,8.09,2.78,13.53s-.86,9.84-2.59,13.47c-1.73,3.63-4.1,6.52-7.12,8.68-3.02,2.16-6.6,3.69-10.75,4.6s-8.63,1.36-13.47,1.36h-14.76v35.74h-20.2v-91.68Zm20.2,38.85h13.47c1.81,0,3.56-.17,5.25-.52,1.68-.34,3.19-.93,4.53-1.75,1.34-.82,2.42-1.94,3.24-3.37.82-1.42,1.23-3.21,1.23-5.37,0-2.33-.54-4.21-1.62-5.63-1.08-1.42-2.46-2.53-4.14-3.3-1.68-.78-3.56-1.27-5.63-1.49-2.07-.21-4.06-.32-5.96-.32h-10.36v21.75Z"/>
        <path class="cls-6" d="m322.46,264.39h34.19c3.97,0,7.96.28,11.98.84,4.01.56,7.62,1.68,10.81,3.37,3.19,1.68,5.78,4.04,7.77,7.06,1.98,3.02,2.98,7.04,2.98,12.04s-1.45,9.47-4.34,12.88c-2.89,3.41-6.71,5.85-11.46,7.32v.26c3.02.43,5.76,1.27,8.22,2.52,2.46,1.25,4.58,2.85,6.35,4.79,1.77,1.94,3.13,4.21,4.08,6.8.95,2.59,1.42,5.35,1.42,8.29,0,4.83-1.04,8.87-3.11,12.11-2.07,3.24-4.75,5.85-8.03,7.83-3.28,1.99-6.97,3.41-11.07,4.27-4.1.86-8.18,1.29-12.24,1.29h-37.55v-91.68Zm20.2,36.65h14.63c1.55,0,3.08-.17,4.6-.52,1.51-.34,2.87-.91,4.08-1.68,1.21-.78,2.18-1.81,2.91-3.11.73-1.29,1.1-2.85,1.1-4.66s-.41-3.47-1.23-4.73c-.82-1.25-1.88-2.22-3.17-2.91-1.29-.69-2.76-1.19-4.4-1.49-1.64-.3-3.24-.45-4.79-.45h-13.73v19.55Zm0,37.94h18.13c1.55,0,3.13-.17,4.73-.52,1.6-.34,3.04-.95,4.34-1.81,1.29-.86,2.35-1.99,3.17-3.37.82-1.38,1.23-3.06,1.23-5.05,0-2.16-.54-3.91-1.62-5.24-1.08-1.34-2.44-2.35-4.08-3.04-1.64-.69-3.41-1.17-5.31-1.42-1.9-.26-3.67-.39-5.31-.39h-15.28v20.85Z"/>
        <path class="cls-6" d="m406.37,264.39h30.56l21.11,59.83h.26l21.24-59.83h30.43v91.68h-20.2v-70.31h-.26l-24.09,70.31h-15.41l-23.18-70.31h-.26v70.31h-20.2v-91.68Z"/>
      </g>
      <g>
        <path class="cls-6" d="m211.55,399.39c-.91-1.15-2.14-2-3.69-2.55-1.55-.55-3.02-.82-4.41-.82-.81,0-1.65.1-2.51.29-.86.19-1.67.49-2.44.9-.77.41-1.39.95-1.87,1.61-.48.67-.72,1.48-.72,2.44,0,1.53.57,2.7,1.72,3.51,1.15.81,2.59,1.51,4.34,2.08,1.74.57,3.62,1.15,5.63,1.72,2.01.57,3.88,1.39,5.63,2.44,1.74,1.05,3.19,2.46,4.34,4.23,1.15,1.77,1.72,4.14,1.72,7.1s-.53,5.28-1.58,7.39c-1.05,2.1-2.47,3.85-4.27,5.24s-3.87,2.42-6.24,3.08c-2.37.67-4.87,1-7.5,1-3.3,0-6.36-.5-9.18-1.51-2.82-1-5.45-2.63-7.89-4.88l7.96-8.75c1.15,1.53,2.59,2.71,4.34,3.55,1.75.84,3.55,1.26,5.42,1.26.91,0,1.83-.11,2.76-.32.93-.21,1.77-.54,2.51-.97.74-.43,1.34-.98,1.79-1.65.45-.67.68-1.46.68-2.37,0-1.53-.59-2.74-1.76-3.62-1.17-.88-2.64-1.64-4.41-2.26-1.77-.62-3.68-1.24-5.74-1.87-2.06-.62-3.97-1.46-5.74-2.51-1.77-1.05-3.24-2.44-4.41-4.16-1.17-1.72-1.76-3.99-1.76-6.81s.54-5.12,1.61-7.17,2.51-3.78,4.3-5.16,3.86-2.43,6.2-3.12c2.34-.69,4.76-1.04,7.24-1.04,2.87,0,5.64.41,8.32,1.22,2.68.81,5.09,2.18,7.24,4.09l-7.67,8.39Z"/>
        <path class="cls-6" d="m228.04,386.98h11.19v21.09l19.72-21.09h14.63l-22.59,23.6,24.53,27.18h-15.63l-20.66-24.1v24.1h-11.19v-50.78Z"/>
        <path class="cls-6" d="m279.25,386.98h11.19v50.78h-11.19v-50.78Z"/>
        <path class="cls-6" d="m301.05,386.98h11.19v40.45h20.73v10.33h-31.92v-50.78Z"/>
        <path class="cls-6" d="m339.56,386.98h11.19v40.45h20.73v10.33h-31.92v-50.78Z"/>
        <path class="cls-6" d="m402.75,399.39c-.91-1.15-2.14-2-3.69-2.55-1.55-.55-3.02-.82-4.41-.82-.81,0-1.65.1-2.51.29-.86.19-1.67.49-2.44.9-.77.41-1.39.95-1.87,1.61-.48.67-.72,1.48-.72,2.44,0,1.53.57,2.7,1.72,3.51,1.15.81,2.59,1.51,4.34,2.08,1.74.57,3.62,1.15,5.63,1.72,2.01.57,3.88,1.39,5.63,2.44,1.74,1.05,3.19,2.46,4.34,4.23,1.15,1.77,1.72,4.14,1.72,7.1s-.53,5.28-1.58,7.39c-1.05,2.1-2.47,3.85-4.27,5.24s-3.87,2.42-6.24,3.08c-2.37.67-4.87,1-7.5,1-3.3,0-6.36-.5-9.18-1.51-2.82-1-5.45-2.63-7.89-4.88l7.96-8.75c1.15,1.53,2.59,2.71,4.34,3.55,1.75.84,3.55,1.26,5.42,1.26.91,0,1.83-.11,2.76-.32.93-.21,1.77-.54,2.51-.97.74-.43,1.34-.98,1.79-1.65.45-.67.68-1.46.68-2.37,0-1.53-.59-2.74-1.76-3.62-1.17-.88-2.64-1.64-4.41-2.26-1.77-.62-3.68-1.24-5.74-1.87-2.06-.62-3.97-1.46-5.74-2.51-1.77-1.05-3.24-2.44-4.41-4.16-1.17-1.72-1.76-3.99-1.76-6.81s.54-5.12,1.61-7.17,2.51-3.78,4.3-5.16,3.86-2.43,6.2-3.12c2.34-.69,4.76-1.04,7.24-1.04,2.87,0,5.64.41,8.32,1.22,2.68.81,5.09,2.18,7.24,4.09l-7.67,8.39Z"/>
      </g>
      <path class="cls-5" d="m36.14,395.47l-2.57-7.43c-.36-1.04-.6-2.05-.73-3.03-.13-.99-.08-1.91.14-2.75.22-.85.66-1.61,1.3-2.28.64-.67,1.56-1.22,2.74-1.63,1.17-.4,2.21-.55,3.13-.45.92.1,1.73.4,2.43.9s1.3,1.16,1.81,2c.51.84.95,1.78,1.31,2.84l1.11,3.22,7.8-2.69,1.52,4.41-20,6.91Zm6.95-7.33l-1.01-2.94c-.14-.39-.31-.76-.51-1.11-.2-.34-.44-.62-.72-.86-.28-.23-.6-.38-.98-.45-.37-.07-.79-.03-1.26.14-.51.18-.88.43-1.11.78-.23.34-.36.73-.41,1.15-.04.43,0,.87.1,1.34s.24.91.38,1.32l.78,2.26,4.75-1.64Z"/>
      <path class="cls-5" d="m29.71,376.09l-2.09-7.92c-.27-1.04-.43-2.05-.48-3.04-.04-.99.08-1.89.36-2.72.29-.83.78-1.55,1.46-2.18.69-.62,1.63-1.09,2.83-1.41,1.44-.38,2.77-.33,3.98.15,1.21.49,2.14,1.41,2.79,2.79l7.27-7.48,1.43,5.4-7.05,6.43.59,2.22,8.18-2.16,1.19,4.51-20.46,5.4Zm7.28-6.74l-.7-2.66c-.11-.4-.23-.83-.38-1.27-.15-.45-.34-.83-.58-1.16-.24-.33-.55-.57-.92-.73-.37-.16-.84-.17-1.4-.02-.52.14-.91.35-1.16.65-.25.29-.42.63-.49,1-.08.37-.09.78-.04,1.21.05.44.13.86.24,1.26l.78,2.95,4.65-1.23Z"/>
      <path class="cls-5" d="m35.06,354.8c-1.67.29-3.23.27-4.68-.06-1.45-.33-2.74-.91-3.86-1.75-1.12-.84-2.06-1.9-2.81-3.19s-1.26-2.74-1.54-4.37c-.28-1.63-.28-3.17-.01-4.64.27-1.46.8-2.78,1.58-3.94.78-1.17,1.8-2.14,3.06-2.94,1.26-.79,2.72-1.33,4.39-1.62,1.67-.29,3.23-.27,4.68.06,1.45.33,2.74.91,3.86,1.75,1.12.84,2.06,1.9,2.81,3.19.75,1.29,1.26,2.74,1.54,4.37s.28,3.18,0,4.64-.8,2.78-1.58,3.94c-.78,1.17-1.8,2.14-3.06,2.94-1.26.79-2.72,1.33-4.39,1.62Zm-.82-4.77c.98-.17,1.85-.47,2.62-.92.76-.44,1.39-1,1.89-1.68.5-.67.85-1.43,1.05-2.29.2-.85.21-1.77.04-2.75-.17-.98-.49-1.84-.96-2.58s-1.05-1.34-1.75-1.81c-.7-.47-1.48-.78-2.34-.95-.87-.16-1.79-.16-2.77,0-.96.17-1.83.47-2.6.92s-1.41,1-1.91,1.68c-.5.67-.85,1.44-1.05,2.29-.2.85-.21,1.77-.04,2.75.17.98.49,1.84.96,2.58.47.74,1.05,1.34,1.75,1.8.7.47,1.48.78,2.36.94s1.8.16,2.76,0Z"/>
      <path class="cls-5" d="m20.43,328.89l-1.17-14.15,4.29-.35.78,9.5,4.29-.35-.72-8.79,4.29-.35.72,8.79,8.22-.68.38,4.65-21.09,1.74Z"/>
      <path class="cls-5" d="m18.96,309.93l-.27-14.37,4.3-.08.18,9.71,3.94-.08-.17-9.17,4.3-.08.17,9.17,4.3-.08-.19-10.25,4.3-.08.28,14.91-21.15.4Z"/>
      <path class="cls-5" d="m24.64,279.51c-.5.35-.88.84-1.15,1.48-.27.63-.42,1.24-.45,1.82-.02.34,0,.69.06,1.05.06.36.17.71.32,1.04.15.33.36.6.63.81.27.21.6.33,1,.36.64.04,1.14-.17,1.5-.63.37-.46.69-1.04.97-1.76s.56-1.48.85-2.3c.29-.82.67-1.58,1.15-2.28.48-.7,1.1-1.27,1.86-1.71.76-.44,1.76-.62,2.99-.55,1.17.07,2.19.34,3.04.83.85.49,1.54,1.12,2.08,1.9.54.78.91,1.67,1.13,2.67.22,1,.3,2.05.24,3.14-.08,1.37-.36,2.63-.84,3.78-.49,1.15-1.22,2.2-2.22,3.17l-3.45-3.52c.66-.44,1.19-1.01,1.58-1.72.39-.71.61-1.45.65-2.22.02-.38,0-.76-.07-1.16-.07-.39-.18-.75-.34-1.07-.16-.32-.38-.58-.64-.78-.27-.2-.59-.32-.97-.34-.64-.04-1.15.18-1.55.64-.4.47-.74,1.06-1.04,1.78-.3.72-.61,1.5-.91,2.34-.31.84-.7,1.62-1.18,2.33s-1.09,1.29-1.84,1.74c-.74.45-1.7.64-2.88.57-1.13-.06-2.11-.35-2.95-.84-.83-.5-1.51-1.13-2.04-1.91s-.92-1.66-1.15-2.66c-.23-.99-.32-2-.26-3.04.07-1.19.3-2.34.71-3.43.4-1.09,1.02-2.07,1.87-2.92l3.31,3.39Z"/>
      <path class="cls-5" d="m26.43,261.36c-.52.32-.93.79-1.24,1.4-.31.62-.49,1.21-.56,1.78-.04.34-.04.69,0,1.05s.12.72.25,1.05.32.62.57.85c.25.23.58.37.97.42.63.08,1.15-.1,1.54-.54s.75-1,1.08-1.69c.33-.69.66-1.44.99-2.24s.77-1.54,1.29-2.21c.52-.67,1.18-1.2,1.97-1.58.79-.38,1.8-.5,3.02-.36,1.17.14,2.16.48,2.98,1.02.82.54,1.47,1.22,1.95,2.03.48.81.8,1.72.96,2.73.16,1.01.17,2.06.04,3.15-.17,1.36-.52,2.61-1.08,3.72-.56,1.12-1.36,2.12-2.41,3.02l-3.22-3.73c.69-.4,1.25-.94,1.69-1.62.43-.68.7-1.41.79-2.18.04-.38.05-.76,0-1.16-.04-.4-.14-.76-.28-1.09-.14-.33-.34-.6-.59-.82-.25-.22-.57-.35-.95-.4-.63-.08-1.16.11-1.59.55s-.81,1.01-1.16,1.71c-.34.7-.7,1.46-1.06,2.28-.36.82-.8,1.57-1.32,2.25-.52.68-1.17,1.22-1.94,1.62-.77.4-1.74.53-2.91.39-1.13-.14-2.09-.48-2.88-1.03s-1.44-1.23-1.92-2.04c-.48-.81-.81-1.72-.98-2.72s-.19-2.02-.07-3.05c.14-1.19.45-2.31.92-3.38.47-1.07,1.16-2,2.05-2.79l3.09,3.59Z"/>
      <path class="cls-5" d="m22.43,253.12l.79-4.59,20.85,3.59-.79,4.59-20.85-3.59Z"/>
      <path class="cls-5" d="m34.13,246.57c-1.65-.39-3.07-1.02-4.28-1.89-1.21-.87-2.16-1.91-2.87-3.12-.71-1.21-1.15-2.55-1.33-4.03-.18-1.48-.08-3.02.3-4.63.38-1.61.99-3.03,1.81-4.27.83-1.24,1.83-2.24,3-3,1.17-.76,2.5-1.27,3.96-1.5,1.47-.23,3.03-.16,4.67.24,1.65.39,3.07,1.02,4.28,1.89,1.21.87,2.16,1.91,2.87,3.12.71,1.21,1.15,2.56,1.33,4.03.18,1.48.08,3.02-.3,4.63-.38,1.61-.99,3.03-1.81,4.27-.83,1.24-1.83,2.24-3,3-1.17.76-2.5,1.26-3.96,1.5s-3.03.16-4.67-.23Zm1.12-4.71c.97.23,1.89.29,2.77.18.88-.11,1.68-.37,2.4-.8.72-.42,1.34-.99,1.86-1.69.52-.71.89-1.54,1.12-2.51.23-.97.27-1.89.13-2.75-.14-.86-.44-1.65-.9-2.35-.46-.7-1.05-1.3-1.79-1.79-.73-.49-1.58-.85-2.55-1.08-.95-.23-1.87-.29-2.75-.18s-1.69.37-2.42.79c-.72.42-1.34.99-1.86,1.69s-.89,1.54-1.12,2.51c-.23.97-.27,1.89-.13,2.75.14.86.44,1.65.9,2.35s1.06,1.3,1.8,1.79c.74.49,1.59.85,2.54,1.08Z"/>
      <path class="cls-5" d="m30.68,216.99l2.07-5.99,16.83-3.7.02-.06-13.9-4.8,1.52-4.41,20,6.91-1.99,5.76-17.25,3.81-.02.06,14.24,4.92-1.52,4.41-20-6.91Z"/>
      <path class="cls-5" d="m42.38,185.88l1.57-3.52,23.07.19-2.14,4.81-4.84-.16-3.34,7.51,3.38,3.43-2.09,4.7-15.62-16.95Zm6.35.86l4.96,5.02,2.1-4.72-7.06-.3Z"/>
      <path class="cls-5" d="m49.53,170.63l2.2-4.11,14.86,7.96,4.08-7.61,3.79,2.03-6.28,11.72-18.65-9.99Z"/>
      <path class="cls-5" d="m72.97,141.67c-.61.05-1.19.28-1.74.69-.55.41-.98.86-1.3,1.34-.19.28-.35.59-.48.94s-.22.69-.25,1.05c-.04.36,0,.7.13,1.02.12.32.35.59.68.81.53.35,1.07.43,1.62.22.55-.21,1.12-.55,1.72-1.02.6-.47,1.24-.99,1.9-1.55.66-.56,1.38-1.03,2.15-1.39.77-.36,1.59-.54,2.47-.53.88.01,1.83.36,2.86,1.04.98.65,1.71,1.4,2.2,2.25.49.85.76,1.75.83,2.69s-.06,1.9-.37,2.88c-.31.97-.78,1.92-1.38,2.83-.76,1.14-1.64,2.09-2.64,2.83-1,.75-2.17,1.28-3.51,1.61l-1.19-4.78c.8-.04,1.54-.27,2.23-.68.69-.41,1.26-.94,1.69-1.59.21-.31.39-.66.53-1.03.14-.37.22-.74.24-1.09.02-.36-.03-.69-.16-1-.13-.31-.35-.57-.66-.78-.53-.35-1.08-.43-1.66-.23-.58.2-1.18.54-1.8,1.01-.62.47-1.28.99-1.97,1.56-.69.57-1.42,1.04-2.2,1.41-.77.37-1.59.56-2.46.57-.87,0-1.79-.31-2.77-.97-.94-.63-1.65-1.37-2.11-2.22-.46-.85-.73-1.74-.79-2.68-.07-.94.05-1.9.35-2.87.3-.97.74-1.89,1.31-2.75.66-.99,1.45-1.86,2.35-2.6.9-.74,1.93-1.26,3.09-1.57l1.13,4.6Z"/>
      <path class="cls-5" d="m86.55,124.42c-.72.01-1.41.18-2.06.52-.65.34-1.25.85-1.79,1.53-.55.69-.92,1.43-1.12,2.22-.2.8-.23,1.6-.1,2.4.13.81.43,1.59.9,2.36.46.76,1.08,1.45,1.84,2.06.78.62,1.59,1.07,2.43,1.34.84.27,1.67.39,2.48.35.81-.04,1.57-.24,2.29-.6.72-.36,1.34-.86,1.86-1.52.6-.75.97-1.53,1.11-2.36.15-.82.09-1.65-.17-2.47l4.69-1.24c.42,1.48.44,2.95.05,4.4-.39,1.45-1.04,2.74-1.94,3.88-1.03,1.29-2.18,2.33-3.46,3.09-1.27.77-2.6,1.25-3.99,1.44-1.39.19-2.8.09-4.23-.33-1.43-.41-2.81-1.14-4.13-2.2-1.33-1.05-2.35-2.23-3.07-3.53-.72-1.3-1.14-2.65-1.27-4.04-.12-1.4.05-2.8.51-4.22.46-1.41,1.21-2.77,2.24-4.06.37-.47.8-.92,1.29-1.36.49-.44,1.02-.83,1.6-1.17.58-.34,1.2-.61,1.87-.82.67-.2,1.38-.3,2.11-.3l.06,4.63Z"/>
      <path class="cls-5" d="m87.39,114.7l5.54-6.03c.73-.79,1.5-1.47,2.3-2.04.81-.57,1.64-.96,2.49-1.16.85-.2,1.73-.18,2.63.06.9.25,1.8.79,2.71,1.62,1.1,1.01,1.77,2.16,2.01,3.44.25,1.28-.04,2.56-.84,3.85l10.22,2.09-3.78,4.11-9.22-2.47-1.56,1.69,6.22,5.73-3.16,3.43-15.57-14.32Zm9.6,2.5l1.86-2.02c.28-.31.57-.64.87-1.01s.52-.74.66-1.12c.15-.38.19-.77.12-1.17-.07-.4-.31-.79-.74-1.18-.4-.36-.79-.57-1.17-.63-.38-.05-.75-.01-1.11.12-.35.13-.7.34-1.04.62-.34.28-.65.58-.94.89l-2.06,2.24,3.54,3.26Z"/>
      <path class="cls-5" d="m123.73,96.73c.85.92,1.49,1.9,1.93,2.94.44,1.03.64,2.09.62,3.17-.02,1.08-.3,2.16-.82,3.23-.53,1.08-1.32,2.11-2.39,3.09-1.08,1-2.19,1.71-3.3,2.15-1.12.43-2.21.62-3.29.55s-2.11-.36-3.1-.88c-.99-.52-1.92-1.24-2.76-2.17l-8.8-9.57,3.43-3.16,8.68,9.44c.45.48.93.86,1.46,1.13.53.27,1.08.43,1.63.47.55.05,1.1-.03,1.65-.22.54-.19,1.04-.49,1.5-.91s.79-.89,1.02-1.41c.23-.52.34-1.06.34-1.61,0-.56-.11-1.11-.33-1.66-.22-.55-.56-1.07-1-1.55l-8.68-9.44,3.43-3.16,8.8,9.57Z"/>
      <path class="cls-5" d="m119.61,82.89l5.62-4.26,12.22,8.07.05-.04-4.43-13.96,5.6-4.24,12.77,16.87-3.72,2.81-9.79-12.94-.05.04,5.36,16.29-2.83,2.15-14.06-9.71-.05.04,9.79,12.94-3.72,2.81-12.77-16.87Z"/>
      <path class="cls-5" d="m151.93,59.98l6.79-3.96c.95-.55,1.89-.99,2.84-1.31s1.85-.45,2.73-.4c.87.06,1.7.33,2.49.83.79.5,1.5,1.29,2.13,2.38.62,1.07.97,2.06,1.05,2.99.08.92-.06,1.78-.41,2.56-.35.78-.89,1.5-1.61,2.17-.72.66-1.56,1.28-2.53,1.84l-2.94,1.72,4.16,7.12-4.03,2.35-10.66-18.28Zm8.54,5.4l2.68-1.56c.36-.21.69-.45.99-.71.3-.26.53-.56.7-.88.17-.32.26-.67.25-1.05,0-.38-.13-.78-.38-1.21-.27-.46-.6-.78-.98-.93-.38-.16-.78-.22-1.21-.18-.43.04-.86.16-1.3.36-.44.2-.85.41-1.23.63l-2.07,1.2,2.53,4.34Z"/>
      <path class="cls-5" d="m169.61,49.96l7.36-3.6c.97-.47,1.93-.83,2.89-1.06s1.87-.3,2.74-.18c.87.12,1.68.46,2.42,1.01.75.56,1.39,1.39,1.94,2.5.66,1.34.87,2.65.63,3.93-.24,1.28-.97,2.38-2.19,3.28l8.76,5.66-5.02,2.46-7.69-5.65-2.07,1.01,3.72,7.6-4.19,2.05-9.3-19Zm8.04,5.82l2.47-1.21c.38-.18.77-.39,1.18-.62.41-.23.75-.5,1.02-.8.27-.3.45-.65.54-1.04.08-.4,0-.85-.26-1.37-.24-.48-.52-.82-.86-1.01-.34-.19-.69-.29-1.07-.29s-.78.06-1.2.2c-.42.14-.82.3-1.19.48l-2.74,1.34,2.12,4.32Z"/>
      <path class="cls-5" d="m191.55,51.06c-.61-1.58-.9-3.11-.87-4.6.03-1.49.35-2.86.95-4.13.6-1.27,1.46-2.4,2.57-3.38,1.11-.99,2.44-1.78,3.98-2.38,1.54-.6,3.06-.91,4.54-.93,1.49-.02,2.88.24,4.18.77,1.3.53,2.46,1.34,3.48,2.42,1.02,1.08,1.84,2.41,2.46,3.98s.9,3.11.87,4.6-.35,2.86-.95,4.13c-.6,1.27-1.46,2.4-2.57,3.38s-2.44,1.78-3.98,2.38c-1.54.6-3.06.91-4.54.93-1.49.02-2.88-.24-4.18-.77-1.29-.53-2.46-1.34-3.48-2.42-1.03-1.08-1.84-2.4-2.46-3.98Zm4.51-1.75c.36.93.83,1.72,1.42,2.38.59.66,1.26,1.17,2.02,1.53.76.36,1.57.55,2.45.57.88.03,1.78-.14,2.71-.5.93-.36,1.71-.84,2.34-1.45.63-.61,1.1-1.3,1.42-2.07.32-.77.47-1.6.46-2.49-.01-.88-.2-1.79-.56-2.72-.35-.91-.82-1.7-1.41-2.37-.59-.67-1.26-1.18-2.02-1.54-.76-.36-1.57-.55-2.45-.57-.88-.03-1.78.14-2.71.5-.93.36-1.71.84-2.34,1.45-.63.61-1.1,1.3-1.42,2.07-.32.78-.47,1.61-.46,2.5.01.89.2,1.79.55,2.7Z"/>
      <path class="cls-5" d="m214.03,31.53l6.74-1.87c1.63-.45,3.23-.7,4.8-.74,1.57-.04,3.01.19,4.33.71,1.32.51,2.48,1.33,3.49,2.46,1,1.13,1.77,2.62,2.28,4.48.46,1.65.55,3.19.27,4.62-.28,1.43-.82,2.72-1.64,3.87-.82,1.15-1.86,2.13-3.12,2.96-1.26.83-2.65,1.45-4.16,1.87l-7.34,2.04-5.65-20.39Zm9,15l2.33-.65c1.04-.29,1.97-.66,2.81-1.12.83-.46,1.51-1.02,2.03-1.69.52-.67.85-1.46,1.01-2.36.15-.9.07-1.93-.25-3.08-.28-1-.7-1.81-1.28-2.45-.58-.64-1.25-1.11-2.02-1.41-.77-.3-1.61-.46-2.53-.46-.92,0-1.85.13-2.79.39l-2.65.74,3.35,12.09Z"/>
      <path class="cls-5" d="m257.66,34.74c.23,1.23.25,2.4.07,3.51-.18,1.11-.57,2.11-1.16,3.01-.59.9-1.4,1.67-2.42,2.3s-2.24,1.08-3.67,1.35c-1.45.27-2.76.29-3.94.06s-2.2-.66-3.08-1.28c-.88-.63-1.6-1.43-2.16-2.4-.56-.97-.96-2.07-1.19-3.31l-2.37-12.78,4.58-.85,2.33,12.61c.12.65.33,1.22.64,1.73.31.51.68.93,1.13,1.26.45.33.95.56,1.51.69.56.13,1.14.14,1.75.03s1.14-.33,1.61-.65c.47-.32.85-.71,1.15-1.18.3-.47.5-1,.6-1.58.1-.59.1-1.2-.02-1.85l-2.33-12.61,4.58-.85,2.37,12.78Z"/>
      <path class="cls-5" d="m275.53,25.1c-.52-.5-1.12-.87-1.82-1.1-.7-.22-1.48-.29-2.35-.2-.87.09-1.66.35-2.37.77-.71.42-1.3.96-1.78,1.62-.48.66-.83,1.43-1.04,2.29-.22.87-.27,1.78-.17,2.75.11.99.36,1.88.75,2.67.4.79.89,1.46,1.49,2,.6.55,1.28.95,2.04,1.21.76.26,1.55.34,2.39.25.95-.1,1.77-.39,2.46-.87.69-.47,1.23-1.1,1.63-1.86l4.17,2.46c-.76,1.34-1.79,2.39-3.09,3.13-1.3.74-2.68,1.19-4.12,1.35-1.65.18-3.19.08-4.63-.28-1.44-.37-2.72-.97-3.83-1.83-1.11-.85-2.03-1.93-2.74-3.24-.71-1.31-1.16-2.8-1.34-4.48s-.06-3.24.35-4.67c.42-1.43,1.08-2.67,1.98-3.75.91-1.07,2.03-1.94,3.36-2.6,1.33-.67,2.82-1.09,4.46-1.26.59-.06,1.22-.08,1.87-.04.66.04,1.31.14,1.96.31.65.17,1.28.42,1.9.76.62.34,1.18.76,1.7,1.29l-3.25,3.3Z"/>
      <path class="cls-5" d="m287.33,23.07l-6.03.19-.13-4.12,16.73-.53.13,4.12-6.03.19.54,17.02-4.66.15-.54-17.02Z"/>
      <path class="cls-5" d="m311.32,18.88l7.87.55c.91.06,1.83.19,2.74.39s1.73.51,2.43.95c.71.44,1.27,1.02,1.67,1.75.41.73.57,1.67.49,2.82-.08,1.19-.48,2.16-1.21,2.9-.72.74-1.64,1.24-2.75,1.5v.06c.68.15,1.3.39,1.85.71.55.33,1.01.73,1.38,1.21s.65,1.02.83,1.63c.18.61.24,1.25.2,1.93-.08,1.11-.38,2.03-.91,2.74-.53.71-1.19,1.27-1.97,1.67-.79.41-1.66.67-2.62.81s-1.9.17-2.84.1l-8.65-.6,1.47-21.11Zm3.45,17.5l4.17.29c.36.02.72,0,1.1-.04.37-.05.71-.17,1.03-.35.31-.18.57-.42.78-.72.21-.3.33-.69.36-1.14.04-.5-.06-.91-.29-1.23-.23-.33-.52-.58-.89-.77-.37-.19-.77-.32-1.2-.41-.43-.09-.84-.15-1.22-.17l-3.52-.25-.33,4.8Zm.61-8.74l3.37.23c.36.03.71,0,1.07-.04.35-.06.67-.16.97-.32.29-.16.53-.38.72-.67.19-.29.3-.64.33-1.05.03-.44-.04-.81-.21-1.11-.17-.3-.4-.54-.68-.72-.29-.18-.62-.32-.99-.41-.37-.1-.74-.16-1.1-.18l-3.16-.22-.31,4.5Z"/>
      <path class="cls-5" d="m339.37,21.61l3.81.61,5.76,22.34-5.19-.83-1.1-4.71-8.12-1.29-2.45,4.15-5.08-.81,12.36-19.46Zm.8,6.36l-3.57,6.09,5.11.81-1.53-6.9Z"/>
      <path class="cls-5" d="m368.03,32.97c-.32-.65-.77-1.2-1.35-1.64-.58-.45-1.3-.77-2.15-.97-.85-.2-1.68-.23-2.49-.07-.81.16-1.54.47-2.22.93-.67.46-1.26,1.07-1.75,1.81-.5.74-.85,1.59-1.08,2.54-.23.97-.29,1.89-.18,2.77.11.88.36,1.67.74,2.39.38.72.89,1.32,1.52,1.82.63.5,1.35.84,2.17,1.04.93.22,1.8.22,2.61,0,.81-.22,1.53-.62,2.16-1.21l3.11,3.72c-1.16,1.01-2.48,1.65-3.96,1.92-1.48.26-2.92.23-4.34-.11-1.61-.38-3.03-.99-4.27-1.81-1.24-.83-2.24-1.83-3-3-.76-1.17-1.26-2.5-1.5-3.96-.24-1.47-.16-3.03.23-4.67.39-1.65,1.02-3.07,1.89-4.28.87-1.21,1.91-2.16,3.12-2.87,1.21-.71,2.56-1.15,4.03-1.33,1.48-.18,3.02-.08,4.63.3.58.14,1.17.33,1.78.59.6.26,1.18.57,1.74.95.55.38,1.07.83,1.54,1.35.47.52.86,1.12,1.17,1.78l-4.17,2.02Z"/>
      <path class="cls-5" d="m377.71,29.92l4.42,1.47-2.76,8.34,10.57-5.75,5.79,1.92-12.03,6.37,6.14,13.97-6.18-2.05-5.01-12.24-3.16,9.53-4.42-1.47,6.66-20.08Z"/>
      <path class="cls-5" d="m399.59,37.51l4.3,1.79-6.47,15.56,7.97,3.32-1.65,3.97-12.28-5.1,8.12-19.54Z"/>
      <path class="cls-5" d="m409.9,53.12c.76-1.51,1.71-2.75,2.83-3.72,1.13-.97,2.36-1.66,3.7-2.06,1.34-.4,2.75-.52,4.23-.36s2.96.62,4.43,1.37,2.72,1.66,3.73,2.75c1.01,1.09,1.75,2.3,2.23,3.62.47,1.32.65,2.72.54,4.2-.11,1.48-.55,2.98-1.31,4.49-.76,1.51-1.71,2.75-2.83,3.73-1.13.97-2.36,1.66-3.7,2.07-1.34.4-2.75.52-4.23.36-1.48-.17-2.96-.62-4.43-1.37s-2.72-1.66-3.73-2.75c-1.01-1.09-1.75-2.29-2.23-3.62-.47-1.32-.65-2.72-.54-4.21.11-1.48.55-2.98,1.31-4.49Zm4.32,2.18c-.45.89-.72,1.77-.82,2.65-.1.88-.02,1.72.22,2.52.24.8.65,1.54,1.21,2.2.57.67,1.3,1.22,2.19,1.67.89.45,1.77.7,2.64.76.87.06,1.7-.05,2.49-.33.79-.28,1.51-.72,2.16-1.32.65-.6,1.2-1.34,1.65-2.23.44-.87.71-1.75.81-2.64.1-.89.03-1.73-.21-2.53-.24-.8-.65-1.54-1.21-2.2-.57-.67-1.3-1.22-2.19-1.67s-1.77-.7-2.64-.76c-.87-.06-1.7.05-2.49.33-.79.28-1.51.73-2.16,1.33-.65.61-1.2,1.35-1.64,2.22Z"/>
      <path class="cls-5" d="m445.15,83.5c-1.54-.13-3.03-.46-4.47-.99-1.43-.53-2.81-1.21-4.12-2.04-1.4-.88-2.55-1.92-3.45-3.1-.9-1.18-1.52-2.46-1.87-3.82-.34-1.36-.38-2.77-.13-4.24.25-1.47.83-2.91,1.74-4.35.9-1.43,1.97-2.58,3.18-3.43,1.21-.86,2.51-1.42,3.88-1.7,1.38-.27,2.79-.26,4.25.05,1.46.31,2.88.9,4.28,1.79,1.43.9,2.64,1.91,3.62,3.02s1.67,2.37,2.04,3.79l-4.7,1.27c-.19-.9-.53-1.7-1.02-2.41-.49-.71-1.24-1.39-2.25-2.03-.84-.53-1.69-.87-2.56-1.02-.86-.14-1.7-.12-2.51.09-.81.21-1.57.58-2.28,1.12s-1.32,1.23-1.84,2.05c-.53.84-.89,1.69-1.07,2.56-.18.86-.19,1.71-.03,2.53.16.82.5,1.59,1,2.31s1.17,1.34,2.01,1.88c.86.54,1.66.91,2.41,1.11.75.2,1.37.32,1.87.35l1.84-2.9-3.21-2.03,2.3-3.64,6.99,4.43-5.91,9.34Z"/>
      <path class="cls-5" d="m468.58,75.97l5.41,4.52-5.11,13.72.05.04,12.61-7.45,5.39,4.5-13.56,16.24-3.58-2.99,10.4-12.45-.04-.04-14.67,8.89-2.73-2.28,6.3-15.88-.04-.04-10.4,12.45-3.58-2.99,13.56-16.24Z"/>
      <path class="cls-5" d="m496.31,100.7l2.71,2.74-8.58,21.42-3.7-3.74,1.91-4.45-5.78-5.84-4.43,1.9-3.61-3.66,21.48-8.37Zm-3.12,5.6l-6.48,2.79,3.63,3.68,2.85-6.47Z"/>
      <path class="cls-5" d="m508.26,113.1l4,4.91-5.71,16.26.04.05,11.4-9.29,2.95,3.61-16.4,13.37-3.85-4.72,5.84-16.67-.04-.05-11.67,9.52-2.95-3.61,16.4-13.37Z"/>
      <path class="cls-5" d="m528.45,139.31l2.18,3.18-12.26,19.54-2.97-4.34,2.67-4.04-4.64-6.78-4.69,1.08-2.9-4.24,22.62-4.4Zm-4.07,4.96l-6.88,1.59,2.92,4.27,3.96-5.86Z"/>
      <path class="cls-5" d="m530.19,179.76c-1.3-.84-2.46-1.83-3.47-2.98-1.01-1.14-1.9-2.39-2.67-3.74-.82-1.44-1.34-2.89-1.58-4.36-.24-1.47-.19-2.88.15-4.25.34-1.36.97-2.63,1.88-3.8.92-1.17,2.11-2.18,3.58-3.01,1.47-.83,2.95-1.34,4.42-1.53,1.48-.18,2.88-.07,4.23.33,1.34.41,2.58,1.09,3.72,2.05,1.14.96,2.12,2.15,2.93,3.59.83,1.47,1.43,2.93,1.77,4.37.35,1.44.35,2.87.02,4.3l-4.74-1.09c.26-.88.34-1.75.24-2.61-.1-.86-.44-1.81-1.03-2.85-.49-.87-1.08-1.57-1.78-2.1-.69-.54-1.45-.9-2.26-1.11-.81-.2-1.66-.23-2.54-.09-.88.14-1.75.46-2.59.94-.87.49-1.58,1.07-2.15,1.75-.57.67-.97,1.41-1.22,2.22-.24.8-.31,1.64-.21,2.51.1.87.4,1.74.89,2.6.5.88,1.03,1.59,1.6,2.12.56.53,1.06.92,1.48,1.19l2.99-1.7-1.87-3.3,3.74-2.12,4.08,7.2-9.62,5.45Z"/>
      <path class="cls-5" d="m549.86,175.54l6,13.06-3.91,1.8-4.06-8.82-3.58,1.65,3.83,8.34-3.91,1.8-3.83-8.34-3.91,1.8,4.28,9.31-3.91,1.8-6.23-13.55,19.22-8.83Z"/>
      <path class="cls-5" d="m558.57,194.47l2.3,6.67-11.46,9.11.02.05,14.65.13,2.29,6.64-20,6.91-1.52-4.41,15.34-5.3-.02-.06-17.15.04-1.16-3.36,13.59-10.35-.02-.06-15.34,5.3-1.52-4.41,20-6.91Z"/>
      <path class="cls-5" d="m567.94,223.1l3.49,13.94-4.17,1.05-2.36-9.42-3.83.96,2.23,8.9-4.17,1.05-2.23-8.9-4.17,1.05,2.49,9.94-4.17,1.05-3.62-14.46,20.52-5.14Z"/>
      <path class="cls-5" d="m572.84,243.12l1,6.26-13.11,11.2v.06s14.53-2.31,14.53-2.31l.73,4.6-20.89,3.33-.96-6.02,13.42-11.49v-.06s-14.88,2.37-14.88,2.37l-.73-4.6,20.89-3.33Z"/>
      <path class="cls-5" d="m572.9,273.15l-.5-6.02,4.11-.34,1.38,16.68-4.11.34-.5-6.02-16.98,1.4-.38-4.65,16.98-1.4Z"/>
      <path class="cls-5" d="m572.85,307.17c.49-.37.85-.88,1.09-1.52.24-.64.37-1.25.38-1.83,0-.34-.03-.69-.1-1.05-.07-.36-.19-.7-.35-1.02-.16-.32-.38-.59-.66-.79-.28-.2-.61-.31-1.01-.32-.64-.01-1.13.22-1.48.69s-.65,1.07-.9,1.79c-.25.72-.51,1.5-.76,2.33-.25.83-.61,1.61-1.06,2.33-.45.72-1.05,1.31-1.8,1.77s-1.74.68-2.97.66c-1.18-.02-2.2-.26-3.07-.72-.87-.46-1.58-1.06-2.15-1.82-.56-.76-.98-1.63-1.24-2.62-.26-.99-.38-2.04-.36-3.13.03-1.37.26-2.64.7-3.81.44-1.17,1.14-2.25,2.09-3.25l3.58,3.39c-.65.47-1.15,1.06-1.51,1.78-.36.72-.55,1.47-.56,2.25,0,.38.03.76.11,1.15.08.39.21.74.38,1.05.17.31.4.57.67.76.28.19.6.29.98.3.64.01,1.15-.22,1.52-.7.38-.48.7-1.09.98-1.82.27-.73.55-1.52.82-2.38.27-.85.64-1.64,1.09-2.37.45-.73,1.04-1.33,1.77-1.8.73-.47,1.68-.7,2.85-.68,1.13.02,2.13.27,2.97.73.85.46,1.55,1.08,2.12,1.83.56.76.98,1.63,1.25,2.61.27.98.4,1.99.38,3.03-.02,1.2-.21,2.35-.57,3.46-.36,1.11-.95,2.1-1.76,2.99l-3.44-3.26Z"/>
      <path class="cls-5" d="m577.72,315.77l-.44,4.64-8.75-.83,7.97,9.01-.58,6.07-8.9-10.3-12.24,9.1.62-6.49,10.81-7.62-10-.95.44-4.64,21.06,2Z"/>
      <path class="cls-5" d="m575.29,338.1l-.67,4.61-20.93-3.06.67-4.61,20.93,3.06Z"/>
      <path class="cls-5" d="m573.78,348.11l-.91,4.57-16.53-3.28-1.68,8.47-4.22-.84,2.58-13.04,20.75,4.11Z"/>
      <path class="cls-5" d="m570.15,365.08l-1.19,4.51-16.3-4.3-2.2,8.35-4.16-1.1,3.39-12.86,20.46,5.4Z"/>
      <path class="cls-5" d="m557.36,389.93c.57-.21,1.07-.58,1.49-1.13.42-.54.72-1.09.9-1.64.11-.32.18-.67.22-1.03.04-.37.03-.73-.04-1.08-.06-.36-.19-.67-.39-.95-.2-.28-.49-.48-.87-.6-.61-.2-1.14-.13-1.62.22-.47.35-.94.83-1.39,1.44-.46.62-.93,1.28-1.42,2-.49.72-1.06,1.35-1.7,1.91-.65.55-1.39.94-2.24,1.16-.85.22-1.86.14-3.03-.25-1.12-.37-2.02-.9-2.71-1.59-.69-.69-1.2-1.48-1.51-2.37s-.45-1.85-.4-2.87c.04-1.02.24-2.06.58-3.1.43-1.3,1.03-2.45,1.8-3.43.77-.99,1.75-1.81,2.96-2.48l2.42,4.3c-.75.25-1.41.67-1.97,1.25-.56.58-.96,1.24-1.21,1.98-.12.36-.2.74-.23,1.13-.04.4-.02.77.05,1.12.07.35.21.66.42.93.21.27.49.46.85.58.6.2,1.16.13,1.66-.22.5-.35,1-.83,1.47-1.45.48-.62.97-1.29,1.49-2.03.51-.73,1.1-1.38,1.74-1.94.65-.56,1.39-.96,2.22-1.2.83-.24,1.81-.17,2.92.2,1.08.36,1.95.88,2.63,1.58.67.7,1.16,1.49,1.48,2.38.31.89.45,1.85.42,2.86-.03,1.02-.21,2.02-.54,3-.38,1.13-.9,2.18-1.57,3.13-.67.95-1.53,1.73-2.57,2.33l-2.31-4.13Z"/>
      <path class="cls-5" d="m561.59,404.2l-.62,1.54-4.25-.04v.04s3.09,2.91,3.09,2.91l-.62,1.54-4.8-1.92.41-1.01,4,1.61v-.03s-3.37-3.16-3.37-3.16l.33-.81,4.63.06v-.03s-3.99-1.61-3.99-1.61l.4-1.01,4.8,1.92Zm.69-3.94l.64-1.6.77.31-1.69,4.22-.77-.31.64-1.6-4.03-1.62.4-1.01,4.03,1.62Z"/>
      <g>
        <path class="cls-4" d="m155.75,181.35c.66-3.01,1.88-5.91,3.49-8.49,1.61-2.58,3.61-4.84,5.75-6.71-1.72,1.49-3.25,3.18-4.57,5.02.99-1.37,2.04-2.55,3.2-3.61,1.16-1.06,2.42-2.02,3.9-2.9-.35.4-1,.89-1.56,1.38-.57.48-1.05.97-1.13,1.28-3,2.72-5.5,5.99-7.28,9.64-1.78,3.64-2.83,7.67-3.01,11.73-.42-1.61-.22-2.96.11-4.11.35-1.16.83-2.14,1.09-3.23"/>
        <path class="cls-4" d="m175.82,161.13c-.77.25-1.52.51-2.25.79.76-.34,1.53-.63,2.25-.79"/>
        <path class="cls-4" d="m185.29,214.22c.83-.09,1.66-.22,2.45-.34-.79.2-1.62.29-2.45.34"/>
        <path class="cls-4" d="m157.04,191.83l.36,1.35c.52,3.47,1.69,6.9,3.56,10.06-1.03-1.7-2-3.52-2.72-5.46-.72-1.93-1.17-3.96-1.21-5.96"/>
        <path class="cls-4" d="m157.61,188.03c.02-3.5.99-7.03,2.65-9.86-1.58,2.86-2.52,6.31-2.65,9.86"/>
        <path class="cls-4" d="m202.55,199.39c-.07-.02-.09-.1-.09-.19.03-.08.04-.16.04-.24.64-.94,1.21-1.94,1.71-2.98-.06.28-.04.58-.15.85-.3.57-.56.87-.8,1.2-.24.33-.45.69-.71,1.35"/>
        <path class="cls-4" d="m184.36,214.28l-.09.04c-.29.02-.57.04-.85.05l-.1-.02c.35-.02.69-.04,1.04-.06"/>
        <path class="cls-4" d="m201.73,200.6c-.12-.06-.25-.11-.39-.09.4-.49.79-1.01,1.15-1.54-.01.08-.02.16-.03.22-.13.42-.6.91-.73,1.41"/>
        <path class="cls-4" d="m189.77,208.07c-.38.12-.65.47-.82.58-1.05.07-2.09.07-3.29.06-.18.09-.57.12-.94.27-.23-.1-.46-.19-.71-.27,2.61.03,5.31-.43,7.92-1.41-.68.31-1.4.57-2.17.77"/>
        <path class="cls-4" d="m177.69,165.22c2-.64,4.28-.84,6.5-.76,2.24.08,4.4.41,6.47.62-2.25-.89-5.15-1.4-7.57-1.53-2.42-.15-4.37-.03-4.87-.52-.52-.47,1.24-.99,3.67-1.07,1.21-.04,2.57.03,3.87.19,1.3.16,2.53.4,3.53.59q-.51-.23-1.02-.44c.52.21,1.02.43,1.52.41-.5-.24-1.26-.51-1.98-.75-.72-.24-1.39-.46-1.69-.67.34-.07.68-.13,1.02-.18-1.38-.6-3.5-.97-5.66-1.04-2.16-.08-4.34.13-5.94.15,3.79-.39,7.85-.38,11.93.42,4.08.78,8.17,2.35,11.84,4.79,3.66,2.42,6.88,5.73,9.13,9.63,2.26,3.88,3.56,8.3,3.75,12.65.7,9.73-3.14,19.19-9.94,25.6-.66.58-1.88,1.45-3.34,2.22-1.45.79-3.12,1.48-4.55,1.93-4.93,1.97-10.4,2.67-15.79,2.18-5.73-.73-11.1-3.31-15.41-7.15-4.32-3.84-7.61-8.97-9.45-14.8-.38-1.16-.42-2.64-.17-3.08.12-.22.3-.19.55.25.26.43.56,1.27,1.07,2.62,1.78,4.42,4.4,8.49,7.75,11.86-.32-.07-.85-.55-1.38-1.12-.53-.56-1.07-1.2-1.49-1.55.99,1.48,2.04,2.74,3.19,3.89,1.16,1.14,2.42,2.17,3.89,3.13-1.96-1.28-3.78-2.78-5.4-4.48,2.03,2.12,4.46,4.08,7.21,5.62,2.75,1.54,5.81,2.67,8.96,3.21,1.15.22,2.19.66,3.4.96,1.21.29,2.61.43,4.26-.07-4.21.02-8.43-.87-12.29-2.53-3.87-1.66-7.38-4.09-10.33-7.06.02,0,.03.01.05,0-2.66-2.62-4.55-5.51-6.04-8.78.5,1,1.09,1.98,1.53,2.86-2.35-4.68-3.63-9.74-3.59-14.84.32,3.59,1.19,7.17,2.64,10.53,1.45,3.37,3.52,6.52,6.12,9.18,2.59,2.66,5.7,4.82,9.08,6.28,3.38,1.46,7.02,2.21,10.56,2.18-1.97-.34-4.25-.58-6.42-1.11-2.17-.52-4.23-1.34-5.57-2.45,5.65,2.92,12.33,3.96,18.81,2.67l-1.39.43c2.07-.13,4.15-.7,6.12-1.53,1.97-.83,3.82-1.93,5.54-3.07.31-.2.61-.41.92-.63l-.92.63c-3.18,2.08-6.7,3.47-10.27,4.17,1.6-.5,3.28-1.01,5.25-1.79-1.14.24-2.71.71-4.31,1.01-2.06.52-4.19.81-6.3.83,3.26-.11,6.42-.99,9.01-2.3-4.12,1.33-8.62,1.89-12.88,1.22,2.35.24,4.72.16,7.03-.24,3.9-.46,7.77-1.81,11.16-4.03l-.37.28c.26-.17.51-.35.76-.53,1.31-.89,2.55-1.91,3.68-3.05,1-1.04,1.79-2.23,2.44-3.47l.39-.58c-.16.43-.18.68.35,0,1.16-1.45,2.03-3.21,2.7-5.09.68-1.88,1.18-3.87,1.7-5.95.28-1.09.34-2.62.21-4.25.08-.44,0-.68-.09-.88-.04-.35-.09-.7-.14-1.05-.1-.86-.23-1.71-.47-2.53.17.82.34,1.67.47,2.53l.1.96c-.11-.21-.24-.44-.29-.91.24,2.94-.03,5.97-.81,8.89-.77,2.92-2.04,5.73-3.72,8.28.12-.36.32-.84.38-1.06-.23.56-.49,1.1-.77,1.64-1.13,1.62-2.42,3.14-3.86,4.51.4-.44.73-.89.97-1.33-1.99,1.97-4.28,3.64-6.77,4.93-2.5,1.29-5.2,2.21-8,2.68-5.29.63-10.64-.41-15.21-2.78,2.35,1.52,5.19,2.57,8.19,3.02-4.01-.4-7.94-1.76-11.34-3.96-3.4-2.19-6.25-5.24-8.16-8.75,1.09,1.03,2.5,2.41,3.48,2.7.14-.2-1.26-2.17-.28-1.15,1.86,1.78,3.48,3.19,4.97,4.17,1.49.97,2.84,1.48,4.05,1.27.25-.1-.66-1.06-1.28-1.98-.64-.92-1.03-1.76-.31-1.42,1.15.65,3.24,1.75,5.65,2.42.67.26,1.39.48,2.15.64.09.05.26,0,.48-.06,2.66.45,5.23.28,6.64.15.53-.04,1.05-.11,1.57-.19.29.02.54.06.76.15.3-.18.6-.35.91-.5,1.38-.35,2.7-.85,3.94-1.48.74-.26,1.48-.55,2.19-.91-.07-.07-.24-.1-.17-.26,1.46-.97,2.78-2.13,3.93-3.45.55-.46,1.09-.88,1.63-1.22.23-1.03,1-2.39,1.7-3.96.71-1.56,1.33-3.34,1.53-4.86h-.03c.27-1.51.4-3.06.34-4.63.07-.26.15-.51.24-.76-.17-.38-.22-.78-.32-.97-.05-1.26-.11-2.34-.25-3.44-.12-.17-.49-.45-.63-.83-.24-.79-.55-1.54-.91-2.24-.37-.84-.79-1.67-1.27-2.48-1.6-2.74-3.76-5.13-6.34-7.02-.03-.14.02-.27.07-.39-.51-.12-1.06-.58-1.5-.7.1,0,.17-.02.19-.09-.71-.25-1.09-.45-1.45-.68-.36-.23-.69-.49-1.3-.77-.29-.1-.6-.06-.89-.12-.14-.06-.27-.11-.41-.17-1.29-1-2.89-1.12-4.58-1.28-1.69-.28-3.43-.39-5.19-.29-1.38.1-1.98-.14-3.01-.13"/>
        <path class="cls-4" d="m204.38,195.6c.62-1.37,1.11-2.81,1.44-4.3-.22,1.6-.4,3.12-1.44,4.3"/>
        <path class="cls-4" d="m171.35,204.78c-.29-.54-.66-1.08-1.07-1.63,2.56,2.46,5.82,4.21,9.35,5.03v.03c-1.44-.25-3.11-.92-4.56-1.67-1.47-.73-2.73-1.52-3.72-1.76"/>
        <path class="cls-4" d="m202.47,199.2c0-.07.01-.14.03-.23,0,0,0,0,0-.01,0,.07,0,.15-.03.24"/>
        <path class="cls-4" d="m162.39,202.38l-.23-.38c.64.92,1.32,1.79,2.06,2.63-.64-.62-1.26-1.4-1.83-2.26"/>
        <path class="cls-4" d="m158.78,191.12c-.28-2.23-.26-4.51.07-6.75.57-2.85,1.71-5.53,3.28-7.71-2.47,4.28-3.72,9.36-3.35,14.46"/>
        <path class="cls-4" d="m166.91,199.44c-.31-.68-.54-1.4-.76-2.12.3.68.64,1.33,1.02,1.96-.15-.07-.2.1-.27.16"/>
        <path class="cls-4" d="m168.93,208.93l-.54-.4c.51.29,1.02.56,1.55.8-.21-.06-.67-.27-1.01-.4"/>
        <path class="cls-4" d="m164.67,191.91c.06.53.14,1.07.25,1.59-.13-.3-.28-.59-.45-.88.1-.2.15-.44.19-.71"/>
        <path class="cls-4" d="m164.95,183.66c.19-.71.43-1.38.71-2.01-.27.8-.49,1.64-.67,2.47-.05-.21-.09-.38-.04-.47"/>
        <path class="cls-3" d="m171.43,149.93c2.2.94,4.23,2.3,5.96,3.91,1.73,1.61,3.16,3.46,4.26,5.36-.88-1.53-1.95-2.94-3.15-4.21.9.96,1.64,1.93,2.28,2.97.64,1.04,1.18,2.14,1.63,3.4-.25-.33-.53-.89-.82-1.39-.28-.5-.58-.95-.81-1.05-1.63-2.68-3.75-5.07-6.28-6.96-2.52-1.9-5.43-3.29-8.5-4.02,1.29-.08,2.29.27,3.12.69.83.43,1.51.95,2.3,1.31"/>
        <path class="cls-3" d="m183.87,168.18c-.07-.63-.16-1.23-.27-1.83.15.63.25,1.26.27,1.83"/>
        <path class="cls-3" d="m141.98,167.52c-.05.65-.08,1.29-.1,1.92-.04-.63.02-1.28.1-1.92"/>
        <path class="cls-3" d="m163.25,149.35l-1.08.07c-2.72-.12-5.52.27-8.2,1.22,1.45-.53,2.98-1,4.56-1.26,1.57-.26,3.2-.3,4.72-.03"/>
        <path class="cls-3" d="m166.06,150.35c2.67.53,5.22,1.79,7.13,3.47-1.95-1.62-4.44-2.85-7.13-3.47"/>
        <path class="cls-3" d="m150.74,182.84s.09-.05.16-.04c.06.03.12.05.18.06.62.63,1.3,1.21,2.02,1.74-.21-.09-.44-.12-.63-.24-.39-.31-.58-.56-.8-.79-.22-.23-.46-.45-.93-.74"/>
        <path class="cls-3" d="m142.08,166.8l-.02-.07c.03-.22.05-.44.09-.65l.03-.07c-.03.27-.07.53-.11.8"/>
        <path class="cls-3" d="m149.93,182.04c.06-.08.12-.17.13-.28.32.38.65.75,1,1.1-.06-.02-.12-.04-.17-.05-.3-.16-.61-.6-.96-.77"/>
        <path class="cls-3" d="m146.01,171.83c-.03-.3-.26-.56-.32-.71.1-.81.25-1.6.44-2.51-.04-.15,0-.45-.07-.75.11-.16.21-.32.31-.5-.41,1.98-.46,4.1-.1,6.23-.13-.56-.23-1.15-.26-1.77"/>
        <path class="cls-3" d="m180.47,168.99c.19,1.61,0,3.38-.39,5.06-.39,1.69-.96,3.29-1.43,4.83,1.01-1.58,1.83-3.71,2.28-5.53.48-1.82.67-3.32,1.12-3.63.43-.32.57,1.09.27,2.95-.15.93-.4,1.95-.72,2.91-.31.96-.68,1.87-.98,2.6.25-.35.25-.35.49-.71-.24.36-.48.71-.53,1.09.26-.34.58-.88.87-1.4.29-.51.56-.99.76-1.18,0,.27,0,.53-.01.81.67-.96,1.26-2.52,1.63-4.15.38-1.63.54-3.32.76-4.54-.26,2.94-.87,6.02-2.08,9.01-1.2,2.98-3.01,5.87-5.41,8.29-2.39,2.43-5.39,4.38-8.69,5.52-3.3,1.15-6.86,1.48-10.2.97-7.52-.91-14.17-5.23-18.05-11.35-.34-.59-.83-1.65-1.2-2.87-.39-1.22-.66-2.59-.8-3.75-.77-4.04-.49-8.3.68-12.33,1.4-4.25,4.17-7.95,7.73-10.66,3.57-2.72,7.97-4.46,12.68-4.99.94-.12,2.08.07,2.37.33.15.12.1.26-.27.38-.37.13-1.05.24-2.15.43-3.63.7-7.13,2.08-10.19,4.14.1-.23.54-.56,1.05-.88.51-.32,1.08-.63,1.4-.91-1.28.53-2.39,1.15-3.44,1.85-1.04.71-2.01,1.52-2.96,2.49,1.27-1.3,2.68-2.46,4.22-3.44-1.92,1.23-3.77,2.78-5.35,4.65-1.58,1.86-2.89,4.02-3.77,6.34-.34.84-.83,1.56-1.23,2.44-.4.88-.71,1.92-.58,3.25.61-3.2,1.91-6.28,3.75-8.97,1.84-2.7,4.21-5.01,6.91-6.81,0,.01-.01.02-.02.04,2.39-1.64,4.88-2.64,7.59-3.29-.84.23-1.67.53-2.41.74,3.92-1.1,7.96-1.32,11.85-.53-2.79-.29-5.64-.16-8.42.45-2.78.61-5.49,1.71-7.9,3.29-2.41,1.58-4.52,3.62-6.13,5.98-1.61,2.35-2.72,5.01-3.23,7.7.56-1.45,1.07-3.14,1.8-4.72.72-1.57,1.65-3.02,2.7-3.87-3.06,3.86-4.85,8.79-4.82,13.9l-.12-1.12c-.21,1.59-.08,3.26.26,4.88.34,1.63.9,3.19,1.52,4.66.11.27.22.53.34.79l-.34-.79c-1.12-2.73-1.66-5.61-1.66-8.43.15,1.29.29,2.64.59,4.26-.01-.9-.14-2.16-.13-3.42-.09-1.65,0-3.31.3-4.91-.4,2.5-.2,5.03.42,7.19-.41-3.33-.16-6.83.97-9.98-.53,1.75-.82,3.57-.86,5.38-.23,3.04.23,6.18,1.42,9.09l-.15-.33c.09.22.19.44.29.66.49,1.13,1.08,2.22,1.78,3.25.65.91,1.44,1.69,2.28,2.36l.38.39c-.3-.18-.49-.24-.05.27.93,1.1,2.15,2.02,3.48,2.8,1.33.8,2.78,1.47,4.29,2.18.79.37,1.95.65,3.21.79.33.12.51.11.68.06.27.02.55.04.82.05.67.06,1.34.08,2,.02-.65,0-1.32,0-2-.02l-.75-.07c.18-.05.37-.12.73-.09-2.28-.25-4.55-.91-6.66-1.93-2.11-1.02-4.07-2.4-5.77-4.06.25.15.59.37.75.45-.39-.26-.76-.54-1.14-.83-1.07-1.1-2.03-2.3-2.86-3.6.28.37.57.69.87.93-1.21-1.8-2.14-3.79-2.76-5.88-.61-2.09-.91-4.28-.86-6.48.3-4.12,1.89-8.02,4.38-11.16-1.51,1.56-2.73,3.57-3.52,5.78.9-2.99,2.52-5.78,4.7-8.03,2.17-2.26,4.92-3.98,7.88-4.91-.95.67-2.21,1.54-2.57,2.25.13.13,1.84-.64.92-.04-1.63,1.15-2.95,2.17-3.91,3.16-.96.99-1.55,1.94-1.57,2.89.03.2.9-.34,1.7-.68.8-.35,1.5-.52,1.13-.02-.67.78-1.81,2.21-2.68,3.94-.3.47-.57.99-.81,1.54-.05.06-.04.2-.03.38-.74,1.96-.99,3.94-1.1,5.03-.05.41-.07.81-.09,1.22-.06.22-.13.4-.23.55.09.26.18.51.25.76.06,1.1.25,2.18.54,3.22.09.6.2,1.21.37,1.8.06-.04.11-.17.22-.09.52,1.25,1.22,2.43,2.05,3.5.27.49.51.96.69,1.43.75.32,1.67,1.11,2.77,1.88,1.08.77,2.35,1.51,3.48,1.88v-.02c1.11.43,2.28.76,3.48.95.19.09.37.19.54.29.31-.07.63-.05.79-.1.97.15,1.8.26,2.66.32.15-.07.41-.3.73-.36.64-.07,1.25-.2,1.84-.36.69-.16,1.39-.35,2.08-.6,2.32-.81,4.47-2.1,6.29-3.78.11,0,.2.06.29.11.17-.37.6-.72.76-1.04-.01.07,0,.13.04.16.29-.5.51-.76.73-1,.23-.24.47-.45.78-.88.12-.2.14-.44.22-.66.07-.09.13-.19.19-.29.95-.84,1.28-2.03,1.65-3.29.47-1.24.81-2.55.99-3.9.13-1.06.4-1.49.55-2.27"/>
        <path class="cls-3" d="m153.36,184.79c.95.67,1.98,1.26,3.07,1.73-1.19-.4-2.32-.76-3.07-1.73"/>
        <path class="cls-3" d="m151.24,158.32c.46-.14.92-.34,1.4-.57-2.26,1.59-4.08,3.8-5.22,6.37h-.02c.4-1.06,1.16-2.23,1.95-3.23.77-1.01,1.57-1.85,1.9-2.56"/>
        <path class="cls-3" d="m150.9,182.8c.05.01.11.03.17.05,0,0,0,0,0,0-.06,0-.12-.03-.18-.06"/>
        <path class="cls-3" d="m154.41,151.86l.32-.12c-.79.35-1.57.74-2.31,1.17.57-.4,1.26-.75,1.99-1.06"/>
        <path class="cls-3" d="m163.53,150.78c1.74.12,3.48.47,5.13,1.05,2.09.86,3.97,2.12,5.39,3.64-2.9-2.52-6.58-4.22-10.53-4.69"/>
        <path class="cls-3" d="m155.98,155.73c.57-.13,1.15-.21,1.73-.26-.56.13-1.11.29-1.65.49.08-.1-.05-.16-.08-.23"/>
        <path class="cls-3" d="m148.44,155.86l.39-.35c-.29.34-.58.7-.84,1.06.08-.15.3-.47.46-.71"/>
        <path class="cls-3" d="m162.05,155.14c-.42-.03-.83-.05-1.25-.04.24-.06.49-.12.74-.21.14.1.31.18.51.25"/>
        <path class="cls-3" d="m168.3,156.58c.51.25.99.53,1.43.84-.57-.33-1.18-.62-1.79-.87.17,0,.3-.01.36.04"/>
        <path class="cls-4" d="m248.61,179.13c-1.36-1.92-3.79-2.82-6.26-2.82-2.93,0-5.86,1.31-5.86,4.59,0,7.16,16.97,3.08,16.97,15.79,0,7.67-6.06,11.4-13.08,11.4-4.44,0-8.79-1.36-11.72-4.84l4.8-4.64c1.57,2.37,4.24,3.73,7.07,3.73s6.26-1.61,6.26-4.89c0-7.82-16.97-3.33-16.97-16.09,0-7.36,6.57-10.79,13.18-10.79,3.74,0,7.47,1.06,10.25,3.68l-4.65,4.89Z"/>
        <path class="cls-4" d="m275.07,190.23c-1.41-1.46-2.98-2.42-4.6-2.42-4.44,0-7.12,3.48-7.12,7.26s2.68,7.26,7.12,7.26c1.87,0,3.59-.81,4.7-2.27l4.04,4.34c-2.48,2.47-6.62,3.38-8.74,3.38-7.32,0-13.18-5.09-13.18-12.71s5.86-12.71,13.18-12.71c3.08,0,6.46,1.11,8.79,3.68l-4.19,4.19Z"/>
        <path class="cls-4" d="m283.46,182.96h6.06v3.83h.1c1.31-2.77,3.99-4.44,7.17-4.44.76,0,1.47.15,2.17.35v5.85c-1.01-.25-1.97-.45-2.93-.45-5.71,0-6.52,4.79-6.52,6.1v12.96h-6.06v-24.21Z"/>
        <path class="cls-4" d="m325.58,207.17h-5.76v-3.88h-.1c-1.11,2.42-3.38,4.49-7.42,4.49-6.52,0-8.84-4.59-8.84-9.53v-15.28h6.06v12.25c0,2.67.2,7.11,4.44,7.11,3.99,0,5.56-2.92,5.56-6.15v-13.21h6.06v24.21Z"/>
        <path class="cls-4" d="m331.39,182.96h5.76v3.78h.1c1.06-2.27,3.38-4.39,7.42-4.39,3.74,0,6.31,1.46,7.58,4.49,1.77-3.08,4.34-4.49,7.98-4.49,6.47,0,8.74,4.59,8.74,10.39v14.42h-6.06v-13.72c0-3.03-.91-5.65-4.5-5.65-3.79,0-5.2,3.13-5.2,6.25v13.11h-6.06v-14.42c0-2.98-1.21-4.94-4.14-4.94-3.99,0-5.56,2.93-5.56,6.15v13.21h-6.06v-24.21Z"/>
        <path class="cls-4" d="m377.71,202.63c1.36,0,2.42,1.06,2.42,2.42s-1.06,2.42-2.42,2.42-2.42-1.06-2.42-2.42,1.06-2.42,2.42-2.42"/>
        <path class="cls-4" d="m397.01,205.06c5.71,0,9.24-4.29,9.24-9.53s-3.54-9.53-9.24-9.53-9.24,4.29-9.24,9.53,3.54,9.53,9.24,9.53m0-21.79c7.17,0,12.27,5.14,12.27,12.26s-5.1,12.26-12.27,12.26-12.27-5.14-12.27-12.26,5.1-12.26,12.27-12.26"/>
        <path class="cls-4" d="m414.79,190.43c0-1.72-.25-5.35-.25-6.56h3.03c.05,1.71.1,3.63.2,4.08,1.52-2.72,3.94-4.69,7.42-4.69.61,0,1.16.1,1.77.25l-.35,2.98c-.45-.15-.86-.2-1.16-.2-5.25,0-7.63,3.63-7.63,8.17v12.71h-3.03v-16.74Z"/>
        <path class="cls-4" d="m440.95,185.99c-5.1,0-9.24,4.14-9.24,9.23s4.14,9.23,9.24,9.23,9.24-4.14,9.24-9.23-4.14-9.23-9.24-9.23m12.17,19.67c0,11.6-7.68,13.62-12.43,13.62s-9.19-1.82-11.57-4.89l2.37-2.22c2.12,2.98,5.56,4.39,9.19,4.39,9.24,0,9.4-8.07,9.4-10.69v-3.23h-.1c-1.77,2.77-4.85,4.54-8.84,4.54-6.87,0-12.48-5.4-12.48-11.95s5.61-11.95,12.48-11.95c3.99,0,7.07,1.77,8.84,4.54h.1v-3.93h3.03v21.79Z"/>
      </g>
      <path class="cls-4" d="m459.67,179.04h1.7l1.15,3.13,1.15-3.13h1.7v4.82h-1.27v-3.13h-.02l-1.15,3.13h-.82l-1.15-3.13h-.02v3.13h-1.26v-4.82Zm-3.69,1.12h-1.39v-1.12h4.05v1.12h-1.39v3.7h-1.27v-3.7Z"/>
    </g>
  </g>
</svg>