<svg enable-background="new 0 0 512 512" fill="#fff" viewBox="0 0 512 512" xmlns="http://www.w3.org/2000/svg"><path d="m507.413 93.394c-3.709-2.51-8.607-2.383-12.174.327-3.612 2.735-9.474 5.087-16.138 7.016 18.245-21.301 18.623-35.541 18.408-38.893-.245-3.801-2.541-7.168-5.985-8.791-3.459-1.612-7.51-1.23-10.587 1.005-21.893 15.908-43.689 19.373-56.791 19.76-20.337-19.342-46.704-29.944-74.74-29.944-60.271 0-109.307 49.684-109.307 110.751 0 4.944.327 9.878.969 14.771-102.892-1.751-186.403-100.241-187.265-101.277-2.184-2.617-5.5-4.041-8.929-3.714-3.398.296-6.444 2.235-8.148 5.189-29.005 50.322-11.286 94.725 6.505 121.327-1.837-1.092-3.342-2.097-4.372-2.857-3.143-2.337-7.337-2.725-10.852-.995-3.521 1.735-5.771 5.286-5.837 9.209-.786 48.255 21.764 76.49 43.674 92.49-2.372.327-4.597 1.459-6.266 3.276-2.51 2.724-3.393 6.576-2.311 10.122 15.194 49.735 52.041 67.352 76.373 73.587-49.22 37.138-120.557 25.016-121.348 24.867-4.73-.831-9.464 1.663-11.408 6.082-1.939 4.413-.612 9.587 3.225 12.51 52.464 40.041 115.21 48.913 160.53 48.913 34.272 0 58.573-5.077 60.91-5.582 228.617-54.179 235.864-263.063 235.394-298.66 42.888-39.929 49.633-55.255 50.684-59.067 1.184-4.314-.51-8.906-4.214-11.422zm-64.13 58.358c-2.33 2.143-3.56 5.235-3.346 8.398.036.561 3.536 57.179-21.694 120.266-33.709 84.291-100.164 138.725-197.307 161.746-1.041.219-90.905 18.831-169.792-18.689 33.725-1.414 80.429-10.913 113.292-47.806 2.745-3.077 3.398-7.833 1.709-11.593-1.689-3.75-5.439-6.51-9.551-6.51-.02 0-.041 0-.071 0-2.76 0-50.337-.357-73.133-46.306 9.219.398 20.24-.145 29.122-4.237 4.092-1.888 6.51-6.1 6.005-10.574-.505-4.475-3.821-8.079-8.23-9.008-2.556-.541-57.649-12.836-66.143-72.693 8.464 3.526 19.015 6.257 29.51 4.685 4.031-.602 7.332-3.5 8.474-7.413 1.138-3.908-.107-8.13-3.184-10.809-2.383-2.07-54.327-48.273-30.541-107.973 28.158 29.332 108.46 102.368 205.833 96.786 3.107-.179 5.975-1.74 7.82-4.25 1.843-2.51 2.471-5.709 1.71-8.728-1.837-7.316-2.77-14.857-2.77-22.418 0-49.546 39.658-89.853 88.409-89.853 23.842 0 46.203 9.515 62.97 26.796 1.923 1.985 4.556 3.122 7.322 3.174 9.658.092 25.561-.949 43.531-7.633-5.359 6.275-12.852 13.622-23.332 21.852-3.622 2.847-4.954 7.735-3.276 12.026 1.684 4.301 6.056 7.02 10.566 6.607 2.112-.168 12.352-1.071 24.352-3.505-6.876 7.31-16.044 16.433-28.255 27.662z"/></svg>