<svg fill="none" height="32" viewBox="0 0 130 32" width="130" xmlns="http://www.w3.org/2000/svg"><path d="m33.3692.151475c-.8953 1.484165-1.652 2.803345-2.4698 4.073455-7.2622 11.20277-17.2453 19.29207-28.90818 25.47337-.30001.164-.62218.2838-.9565.3556-.367663 0-1.0041406-1.5646-1.0041406-2.9947-.0021335-8.6127-.0049781-18.4415-.0305794-27.0592h31.8801c.4146 0 .827.0832044 1.4891.151475z" fill="#002082"/><path d="m7.50261 29.5893c1.0909-.6614 2.20101-1.2865 3.28479-1.9592 3.7309-2.3692 7.2504-5.0559 10.5193-8.0303 5.1068-4.6394 9.5236-9.98547 13.1164-15.87571.3865-.66389.7256-1.35424 1.0149-2.06589.3349.07112 1.4493 1.35545 1.4329 3.45476.0213 8.14624 0 26.61334 0 26.61334-9.4519 0-32.75407-.1351-33.52495.0213 1.16628-.7083 2.99749-1.455 4.15666-2.1583z" fill="#6cc049"/><g fill="#002082"><path d="m72.4226 5.45027c-.0553-.0445-.0986-.10207-.126-.16752s-.0381-.1367-.031-.20731c.007-.07061.0316-.13834.0714-.19706.0399-.05872.0937-.10659.1567-.13926 1.0288-.57068 2.237-.72591 3.3765-.4338.2535.12389.4771.30107.6557.51943s.3079.47273.3791.74571c.1561.8491.2061 1.71434.1486 2.57578-.0562 3.58486-.1458 7.17266-.2134 10.75756 0 .3861 0 .7723.0306 1.1584.1081 1.5731.0541 3.2535 2.2572 3.5281-1.3668 1.5303-3.4242 1.4521-5.1843-.1423-.3036.1778-.6315.372-.9614.5618-.6742.4089-1.4348.6542-2.2209.7162-.786.0621-1.5757-.0609-2.3056-.3589-.73-.298-1.3801-.7628-1.8982-1.3572-.518-.5945-.8896-1.302-1.0851-2.0658-.6518-2.2179-.3976-4.6037.7069-6.6343 1.5012-2.8197 3.9355-3.9284 7.0696-3.2791.1884.0405.3769.0618.8178.1301-.1622-1.97913-.0256-4.47171-1.6442-5.71053zm1.6491 12.23603c0-1.3718-.0256-5.1039-.0256-5.1039h-.7708c-1.0796-.0214-2.5239-.0854-3.1106 1.1279-.6082 1.1725-.9299 2.4724-.9385 3.7933-.0087 1.3208.2959 2.6249.8887 3.8053.2354.5242.6302.9609 1.1282 1.2476.4979.2868 1.0737.4092 1.6453.3496.3748-.0213 1.1784-.1422 1.1784-.1422s.0163-.6087 0-1.071c-.0519-1.327 0-2.6611-.005-3.9974z"/><path d="m55.4703 7.56305c-1.1784-1.76507-2.851-1.68257-4.5051-1.72951-.601-.0192-.8598.19699-.8698.79862-.0256 1.57093-.059 4.02794-.1202 5.58754h.9146c1.152-.0214 2.3048-.0143 3.4804 0 .2474 0 .5468-.2845.7232-.6707.3065 1.8391-.219 2.5602-1.6492 2.6633-1.1193.0832-2.25.0163-3.3424.0163v10.513c-1.0998.0417-2.2011.0235-3.299-.0548-.2354-.0263-.5511-.7417-.5511-1.1378-.0256-5.0705-.0121-10.1389-.0121-15.20724 0-1.7224-.2944-3.30328-.6834-3.55574-.0595-.04244-.1046-.10197-.1295-.17068-.0181-.04637-.0249-.09645-.0195-.14597.0053-.04953.0225-.09704.0501-.13849.0277-.04144.0652-.07549.109-.09916.0439-.02368.0929-.03626.1428-.03667 2.8161-.0448 6.4565-.03769 9.2015 0 .1457.01674.2854.06724.4081.14749.1228.08025.2251.18803.2988.31476.3783.85409.2745 1.67831-.1472 2.90575z"/><path d="m117.062 12.0604c-.04-.0364-.072-.0816-.092-.1321-.02-.0506-.029-.1051-.025-.1593.004-.0543.021-.1069.049-.1538.027-.0469.065-.0868.111-.1167.412-.3027.883-.5141 1.383-.6199.5-.1059 1.017-.1038 1.516.0062 1.031.2368 1.322 1.1158 1.595 2.0019.64 2.0623 1.284 4.1247 1.953 6.177.165.5021.436.9693.799 1.7559.879-2.6064 1.682-4.9027 2.408-7.2146.452-1.4501-.542-1.4223-.441-1.6776.269-.7112 1.826-1.5425 2.533-.948.143.182.247.3917.306.616.058.2242.069.4581.032.6868-.117.6536-.314 1.2903-.587 1.8952-1.729 4.4732-3.467 8.938-5.216 13.3945-.318.8457-.704 1.6643-1.154 2.4478-.308.6204-.79 1.1377-1.387 1.4887s-1.284.5204-1.976.4876c-1.47-.0711-2.215-1.1848-1.819-2.6725 2.46 1.1848 3.382.8576 4.586-1.6584.219-.4594.4-.948.645-1.386.472-.8534.707-1.5994-.377-2.2323-.308-.18-.471-.7112-.584-1.1137-.504-1.6115-.962-3.2393-1.454-4.855-.645-2.1128-1.006-4.3594-2.804-6.0177z"/><path d="m82.3239 17.2166c.1793 2.0873.4267 3.9825 2.3774 4.8693 2.2877 1.0375 4.1474 0 5.8271-1.7487.1363.5828.0835 1.1939-.1507 1.7447s-.6378 1.0128-1.1521 1.3189c-.9712.7483-2.1316 1.2112-3.3512 1.3369-1.2196.1256-2.45-.0911-3.5533-.6258-2.2693-1.0518-2.9925-3.1041-3.0636-5.4495-.0633-2.4378.4715-4.7035 2.2998-6.4615.8193-.7416 1.8392-1.2249 2.9319-1.3894 1.0928-.1644 2.2098-.0027 3.211.4649 1.6754.7865 2.7123 2.8446 2.6312 5.0492-.0305.8057-.5305.9195-1.0795.9245-1.8006.0192-3.6026-.0235-5.4047-.0406-.4487.0043-.901.0071-1.5233.0071zm-.1081-1.4223h4.7128c.0783-.7832-.0324-1.5739-.3229-2.3055-.078-.1795-.1732-.351-.2844-.512-.1506-.2678-.3705-.4901-.6365-.6437-.2661-.1537-.5685-.2329-.8757-.2295s-.6078.0894-.8704.2489c-.2625.1595-.4774.3866-.622.6577-.5657.8369-.9416 1.7874-1.1016 2.7848z"/><path d="m96.3521 24.728h-3.4896s.0377-6.2958.0612-8.8893c.017-2.0861.0358-4.1704.0562-6.25316.0185-1.6207.113-3.26061-1.4934-4.50228 1.2537-.82706 2.4342-1.18477 3.6738-.76519.5046.26418.8854.71593 1.0603 1.25802.1518.6084.2027 1.2376.1507 1.8625.0064 5.57681.032 16.96731-.0192 17.28941z"/><path d="m114.56 21.7611c.084.4461.019.9079-.187 1.3127s-.541.7297-.951.9238c-.718.4491-1.535.7162-2.38.7781-.844.062-1.691-.083-2.467-.4225-.463-.188-.858-.5126-1.131-.9304-.274-.4179-.414-.9092-.401-1.4086-.043-1.9976.025-3.9973.047-5.9971 0-.8221.016-1.6584 0-2.4641.02-.4037-.093-.8029-.321-1.1367s-.559-.5839-.942-.7123c-.043-.0141-.079-.0411-.106-.0772-.026-.0361-.04-.0795-.04-.124v-.4737c0-.0566.022-.1108.062-.1508s.095-.0625.151-.0625c.307.0248.615-.0129.906-.111.292-.098.56-.2543.789-.4594.229-.205.414-.45444.543-.73318.13-.27875.202-.58094.211-.8882h1.741s.052.68698.033 1.02335c-.045.86693.235 1.22033 1.131 1.15423.895-.0662 1.786-.0143 2.806-.0143.235.6635-.113 1.1848-.863 1.4593-.371.1201-.759.1825-1.15.1849-1.913.064-1.91.0548-1.906 1.9479 0 1.7679-.033 3.5351.018 5.3001.076 2.6654 1.138 3.3503 3.651 2.4179.258-.0975.51-.2098.756-.3363z"/><path d="m98.7906 12.3047c-.0651-.0594-.1143-.1341-.1431-.2173-.0288-.0833-.0363-.1724-.0218-.2593s.0505-.1688.1048-.2382.125-.1242.2059-.1592c.7886-.2987 1.6106-.4993 2.4486-.5973 1.053-.1423 1.649.576 1.826 1.6584.029.1906.042.3832.04.576v11.5697h-3.3425s-.0398-4.5023 0-6.8712c.0398-2.3688-.0974-4.4973-1.1179-5.4616z"/><path d="m58.0268 12.1602c-.0451-.032-.0807-.0757-.1032-.1263-.0224-.0506-.0309-.1062-.0244-.1612s.0276-.1072.0612-.1512.0784-.0781.1297-.0989c.6491-.2855 1.3167-.5269 1.9983-.7225 1.6776-.3933 2.6313.2773 2.6626 2.0047.0661 3.8765.0213 7.7551.0213 11.8257-.9615 0-3.4-.0448-3.4-.0448 0-2.6682.0711-6.2624.118-8.9327.0698-.673-.0272-1.3528-.2825-1.9794-.2552-.6266-.6608-1.1807-1.181-1.6134z"/><path d="m101.448 6.16108c.45.06368.861.29343 1.15.64411.29.35068.437.79693.415 1.2511-.039.45232-.253.87141-.598 1.16669s-.792.44304-1.245.41134c-.227-.00751-.451-.0609-.657-.15695-.206-.09606-.391-.2328-.5426-.40201-.1526-.1697-.2697-.36828-.3442-.58399-.0745-.21572-.105-.44419-.0896-.6719.036-.47244.257-.91158.6144-1.22207.358-.3105.824-.46729 1.297-.43632z"/><path d="m62.5277 7.93083c-.0001.22602-.0453.44974-.133.65807-.0877.20832-.2161.39706-.3776.55515-.161.15759-.3521.28117-.5619.36339-.2097.08222-.4339.1214-.6591.11521-.2248.00355-.4481-.03734-.657-.12033s-.3994-.20643-.5605-.36325c-.3262-.31841-.5129-.75315-.5192-1.20895.0005-.23544.0476-.46844.1388-.6855s.2246-.41384.3925-.57893c.1672-.16433.3656-.29358.5834-.38017.2179-.08659.4509-.12876.6853-.12403.4553.01487.8863.20926 1.1989.54074s.4813.77315.4694 1.2286z"/></g></svg>